M48
;DRILL file {KiCad 4.0.7} date 12/02/17 18:42:28
;FORMAT={3:3/ absolute / metric / suppress leading zeros}
FMAT,2
METRIC,TZ
T1C0.400
T2C0.813
T3C1.000
T4C3.200
%
G90
G05
M71
T1
X92600Y-85400
X92600Y-133400
X93400Y-74990
X94100Y-72700
X94110Y-57000
X97400Y-84600
X97400Y-132600
X99753Y-93090
X99753Y-122950
X99753Y-136647
X99760Y-72730
X107600Y-97400
X107600Y-121400
X107650Y-109400
X107650Y-133400
X108600Y-93000
X110068Y-85483
X110600Y-145000
X112350Y-96600
X112350Y-108600
X112350Y-120600
X112400Y-132600
X113400Y-141000
X113932Y-88517
X121600Y-82650
X121600Y-142600
X122400Y-87350
X122400Y-147400
X133600Y-82600
X133600Y-142600
X134400Y-87400
X134400Y-147400
X145600Y-82600
X145600Y-142600
X146400Y-87400
X146400Y-147400
X157600Y-82600
X157600Y-142600
X158400Y-87400
X158400Y-147400
X166000Y-141600
X166600Y-89000
X167600Y-97400
X167600Y-121400
X167600Y-133400
X167650Y-109400
X169400Y-85000
X170000Y-75000
X170000Y-144400
X172400Y-96600
X172400Y-108600
X172400Y-120600
X172400Y-132600
X182600Y-133400
X187400Y-132600
T2
X95990Y-54880
X95990Y-70120
X98530Y-54880
X98530Y-70120
X101070Y-54880
X101070Y-70120
X103610Y-54880
X103610Y-70120
X106150Y-54880
X106150Y-70120
X108690Y-54880
X108690Y-70120
X111230Y-54880
X111230Y-70120
X113770Y-54880
X113770Y-70120
X116310Y-54880
X116310Y-70120
X118850Y-54880
X118850Y-70120
X121390Y-54880
X121390Y-70120
X123930Y-54880
X123930Y-70120
X126470Y-54880
X126470Y-70120
X129010Y-54880
X129010Y-70120
X131550Y-54880
X131550Y-70120
T3
X95204Y-141204
X97000Y-143000
X98796Y-144796
X137460Y-134000
X140000Y-134000
X142540Y-134000
T4
X102000Y-140000
X104000Y-80000
X106000Y-61000
X180000Y-76000
X180000Y-144000
T0
M30
