G04 #@! TF.FileFunction,Soldermask,Bot*
%FSLAX46Y46*%
G04 Gerber Fmt 4.6, Leading zero omitted, Abs format (unit mm)*
G04 Created by KiCad (PCBNEW 4.0.7) date 12/02/17 18:42:05*
%MOMM*%
%LPD*%
G01*
G04 APERTURE LIST*
%ADD10C,0.100000*%
%ADD11R,1.150000X1.200000*%
%ADD12R,2.100000X2.100000*%
%ADD13O,2.100000X2.100000*%
%ADD14C,2.100000*%
%ADD15R,1.200000X1.150000*%
%ADD16C,3.600000*%
%ADD17R,1.974800X2.686000*%
%ADD18O,1.974800X2.686000*%
G04 APERTURE END LIST*
D10*
D11*
X110000000Y-97800000D03*
X110000000Y-96300000D03*
X110000000Y-109800000D03*
X110000000Y-108300000D03*
X110000000Y-121800000D03*
X110000000Y-120300000D03*
D12*
X137460000Y-134000000D03*
D13*
X140000000Y-134000000D03*
X142540000Y-134000000D03*
D10*
G36*
X95203949Y-139719025D02*
X96688873Y-141203949D01*
X95203949Y-142688873D01*
X93719025Y-141203949D01*
X95203949Y-139719025D01*
X95203949Y-139719025D01*
G37*
D14*
X97000000Y-143000000D02*
X97000000Y-143000000D01*
X98796051Y-144796051D02*
X98796051Y-144796051D01*
D11*
X110000000Y-133800000D03*
X110000000Y-132300000D03*
D10*
G36*
X111769150Y-143582322D02*
X112582322Y-142769150D01*
X113430850Y-143617678D01*
X112617678Y-144430850D01*
X111769150Y-143582322D01*
X111769150Y-143582322D01*
G37*
G36*
X110708490Y-142521662D02*
X111521662Y-141708490D01*
X112370190Y-142557018D01*
X111557018Y-143370190D01*
X110708490Y-142521662D01*
X110708490Y-142521662D01*
G37*
D15*
X122800000Y-145000000D03*
X121300000Y-145000000D03*
X134800000Y-145000000D03*
X133300000Y-145000000D03*
X146800000Y-145000000D03*
X145300000Y-145000000D03*
X158800000Y-145000000D03*
X157300000Y-145000000D03*
D10*
G36*
X168442982Y-143370190D02*
X167629810Y-142557018D01*
X168478338Y-141708490D01*
X169291510Y-142521662D01*
X168442982Y-143370190D01*
X168442982Y-143370190D01*
G37*
G36*
X167382322Y-144430850D02*
X166569150Y-143617678D01*
X167417678Y-142769150D01*
X168230850Y-143582322D01*
X167382322Y-144430850D01*
X167382322Y-144430850D01*
G37*
D11*
X170000000Y-132300000D03*
X170000000Y-133800000D03*
X170000000Y-120300000D03*
X170000000Y-121800000D03*
X170000000Y-108300000D03*
X170000000Y-109800000D03*
X170000000Y-96300000D03*
X170000000Y-97800000D03*
D10*
G36*
X168370190Y-86557018D02*
X167557018Y-87370190D01*
X166708490Y-86521662D01*
X167521662Y-85708490D01*
X168370190Y-86557018D01*
X168370190Y-86557018D01*
G37*
G36*
X169430850Y-87617678D02*
X168617678Y-88430850D01*
X167769150Y-87582322D01*
X168582322Y-86769150D01*
X169430850Y-87617678D01*
X169430850Y-87617678D01*
G37*
D15*
X157200000Y-85000000D03*
X158700000Y-85000000D03*
X145200000Y-85000000D03*
X146700000Y-85000000D03*
X133200000Y-85000000D03*
X134700000Y-85000000D03*
X121200000Y-85000000D03*
X122700000Y-85000000D03*
D10*
G36*
X111357018Y-86829810D02*
X112170190Y-87642982D01*
X111321662Y-88491510D01*
X110508490Y-87678338D01*
X111357018Y-86829810D01*
X111357018Y-86829810D01*
G37*
G36*
X112417678Y-85769150D02*
X113230850Y-86582322D01*
X112382322Y-87430850D01*
X111569150Y-86617678D01*
X112417678Y-85769150D01*
X112417678Y-85769150D01*
G37*
D11*
X185000000Y-132300000D03*
X185000000Y-133800000D03*
X95000000Y-85800000D03*
X95000000Y-84300000D03*
X95000000Y-133800000D03*
X95000000Y-132300000D03*
D16*
X180000000Y-76000000D03*
X180000000Y-144000000D03*
X102000000Y-140000000D03*
X104000000Y-80000000D03*
X106000000Y-61000000D03*
D17*
X131550000Y-70120000D03*
D18*
X129010000Y-70120000D03*
X126470000Y-70120000D03*
X123930000Y-70120000D03*
X121390000Y-70120000D03*
X118850000Y-70120000D03*
X116310000Y-70120000D03*
X113770000Y-70120000D03*
X111230000Y-70120000D03*
X108690000Y-70120000D03*
X106150000Y-70120000D03*
X103610000Y-70120000D03*
X101070000Y-70120000D03*
X98530000Y-70120000D03*
X95990000Y-70120000D03*
X95990000Y-54880000D03*
X98530000Y-54880000D03*
X101070000Y-54880000D03*
X103610000Y-54880000D03*
X106150000Y-54880000D03*
X108690000Y-54880000D03*
X111230000Y-54880000D03*
X113770000Y-54880000D03*
X116310000Y-54880000D03*
X118850000Y-54880000D03*
X121390000Y-54880000D03*
X123930000Y-54880000D03*
X126470000Y-54880000D03*
X129010000Y-54880000D03*
X131550000Y-54880000D03*
M02*
