G04 #@! TF.FileFunction,Soldermask,Top*
%FSLAX46Y46*%
G04 Gerber Fmt 4.6, Leading zero omitted, Abs format (unit mm)*
G04 Created by KiCad (PCBNEW 4.0.7) date 12/04/17 23:59:30*
%MOMM*%
%LPD*%
G01*
G04 APERTURE LIST*
%ADD10C,0.100000*%
%ADD11R,2.100000X2.100000*%
%ADD12O,2.100000X2.100000*%
%ADD13C,2.100000*%
%ADD14C,3.600000*%
%ADD15R,1.800000X2.200000*%
%ADD16R,0.900000X1.400000*%
%ADD17R,2.200000X1.800000*%
%ADD18R,1.400000X0.900000*%
%ADD19R,1.974800X2.686000*%
%ADD20O,1.974800X2.686000*%
G04 APERTURE END LIST*
D10*
D11*
X137460000Y-134000000D03*
D12*
X140000000Y-134000000D03*
X142540000Y-134000000D03*
D10*
G36*
X95203949Y-139719025D02*
X96688873Y-141203949D01*
X95203949Y-142688873D01*
X93719025Y-141203949D01*
X95203949Y-139719025D01*
X95203949Y-139719025D01*
G37*
D13*
X97000000Y-143000000D02*
X97000000Y-143000000D01*
X98796051Y-144796051D02*
X98796051Y-144796051D01*
D14*
X180000000Y-76000000D03*
X180000000Y-144000000D03*
X102000000Y-140000000D03*
X104000000Y-80000000D03*
D15*
X96650000Y-130600000D03*
X93350000Y-130600000D03*
X93350000Y-135400000D03*
X96650000Y-135400000D03*
D16*
X95400000Y-133000000D03*
X94600000Y-133000000D03*
D15*
X183350000Y-135400000D03*
X186650000Y-135400000D03*
X186650000Y-130600000D03*
X183350000Y-130600000D03*
D16*
X184600000Y-133000000D03*
X185400000Y-133000000D03*
D10*
G36*
X113449568Y-86611091D02*
X115005203Y-85055456D01*
X116277996Y-86328249D01*
X114722361Y-87883884D01*
X113449568Y-86611091D01*
X113449568Y-86611091D01*
G37*
G36*
X111116116Y-84277639D02*
X112671751Y-82722004D01*
X113944544Y-83994797D01*
X112388909Y-85550432D01*
X111116116Y-84277639D01*
X111116116Y-84277639D01*
G37*
G36*
X107722004Y-87671751D02*
X109277639Y-86116116D01*
X110550432Y-87388909D01*
X108994797Y-88944544D01*
X107722004Y-87671751D01*
X107722004Y-87671751D01*
G37*
G36*
X110055456Y-90005203D02*
X111611091Y-88449568D01*
X112883884Y-89722361D01*
X111328249Y-91277996D01*
X110055456Y-90005203D01*
X110055456Y-90005203D01*
G37*
G36*
X111469670Y-87459620D02*
X112459620Y-86469670D01*
X113096016Y-87106066D01*
X112106066Y-88096016D01*
X111469670Y-87459620D01*
X111469670Y-87459620D01*
G37*
G36*
X110903984Y-86893934D02*
X111893934Y-85903984D01*
X112530330Y-86540380D01*
X111540380Y-87530330D01*
X110903984Y-86893934D01*
X110903984Y-86893934D01*
G37*
D17*
X136400000Y-86650000D03*
X136400000Y-83350000D03*
X131600000Y-83350000D03*
X131600000Y-86650000D03*
D18*
X134000000Y-85400000D03*
X134000000Y-84600000D03*
D17*
X148400000Y-86650000D03*
X148400000Y-83350000D03*
X143600000Y-83350000D03*
X143600000Y-86650000D03*
D18*
X146000000Y-85400000D03*
X146000000Y-84600000D03*
D17*
X160400000Y-86650000D03*
X160400000Y-83350000D03*
X155600000Y-83350000D03*
X155600000Y-86650000D03*
D18*
X158000000Y-85400000D03*
X158000000Y-84600000D03*
D10*
G36*
X168388909Y-88449568D02*
X169944544Y-90005203D01*
X168671751Y-91277996D01*
X167116116Y-89722361D01*
X168388909Y-88449568D01*
X168388909Y-88449568D01*
G37*
G36*
X170722361Y-86116116D02*
X172277996Y-87671751D01*
X171005203Y-88944544D01*
X169449568Y-87388909D01*
X170722361Y-86116116D01*
X170722361Y-86116116D01*
G37*
G36*
X167328249Y-82722004D02*
X168883884Y-84277639D01*
X167611091Y-85550432D01*
X166055456Y-83994797D01*
X167328249Y-82722004D01*
X167328249Y-82722004D01*
G37*
G36*
X164994797Y-85055456D02*
X166550432Y-86611091D01*
X165277639Y-87883884D01*
X163722004Y-86328249D01*
X164994797Y-85055456D01*
X164994797Y-85055456D01*
G37*
G36*
X167540380Y-86469670D02*
X168530330Y-87459620D01*
X167893934Y-88096016D01*
X166903984Y-87106066D01*
X167540380Y-86469670D01*
X167540380Y-86469670D01*
G37*
G36*
X168106066Y-85903984D02*
X169096016Y-86893934D01*
X168459620Y-87530330D01*
X167469670Y-86540380D01*
X168106066Y-85903984D01*
X168106066Y-85903984D01*
G37*
D15*
X168350000Y-99400000D03*
X171650000Y-99400000D03*
X171650000Y-94600000D03*
X168350000Y-94600000D03*
D16*
X169600000Y-97000000D03*
X170400000Y-97000000D03*
D15*
X168350000Y-111400000D03*
X171650000Y-111400000D03*
X171650000Y-106600000D03*
X168350000Y-106600000D03*
D16*
X169600000Y-109000000D03*
X170400000Y-109000000D03*
D15*
X168350000Y-123400000D03*
X171650000Y-123400000D03*
X171650000Y-118600000D03*
X168350000Y-118600000D03*
D16*
X169600000Y-121000000D03*
X170400000Y-121000000D03*
D15*
X168350000Y-135400000D03*
X171650000Y-135400000D03*
X171650000Y-130600000D03*
X168350000Y-130600000D03*
D16*
X169600000Y-133000000D03*
X170400000Y-133000000D03*
D10*
G36*
X166550432Y-143388909D02*
X164994797Y-144944544D01*
X163722004Y-143671751D01*
X165277639Y-142116116D01*
X166550432Y-143388909D01*
X166550432Y-143388909D01*
G37*
G36*
X168883884Y-145722361D02*
X167328249Y-147277996D01*
X166055456Y-146005203D01*
X167611091Y-144449568D01*
X168883884Y-145722361D01*
X168883884Y-145722361D01*
G37*
G36*
X172277996Y-142328249D02*
X170722361Y-143883884D01*
X169449568Y-142611091D01*
X171005203Y-141055456D01*
X172277996Y-142328249D01*
X172277996Y-142328249D01*
G37*
G36*
X169944544Y-139994797D02*
X168388909Y-141550432D01*
X167116116Y-140277639D01*
X168671751Y-138722004D01*
X169944544Y-139994797D01*
X169944544Y-139994797D01*
G37*
G36*
X168530330Y-142540380D02*
X167540380Y-143530330D01*
X166903984Y-142893934D01*
X167893934Y-141903984D01*
X168530330Y-142540380D01*
X168530330Y-142540380D01*
G37*
G36*
X169096016Y-143106066D02*
X168106066Y-144096016D01*
X167469670Y-143459620D01*
X168459620Y-142469670D01*
X169096016Y-143106066D01*
X169096016Y-143106066D01*
G37*
D17*
X155600000Y-143350000D03*
X155600000Y-146650000D03*
X160400000Y-146650000D03*
X160400000Y-143350000D03*
D18*
X158000000Y-144600000D03*
X158000000Y-145400000D03*
D17*
X143600000Y-143350000D03*
X143600000Y-146650000D03*
X148400000Y-146650000D03*
X148400000Y-143350000D03*
D18*
X146000000Y-144600000D03*
X146000000Y-145400000D03*
D17*
X131600000Y-143350000D03*
X131600000Y-146650000D03*
X136400000Y-146650000D03*
X136400000Y-143350000D03*
D18*
X134000000Y-144600000D03*
X134000000Y-145400000D03*
D17*
X119600000Y-143350000D03*
X119600000Y-146650000D03*
X124400000Y-146650000D03*
X124400000Y-143350000D03*
D18*
X122000000Y-144600000D03*
X122000000Y-145400000D03*
D10*
G36*
X111611091Y-141550432D02*
X110055456Y-139994797D01*
X111328249Y-138722004D01*
X112883884Y-140277639D01*
X111611091Y-141550432D01*
X111611091Y-141550432D01*
G37*
G36*
X109277639Y-143883884D02*
X107722004Y-142328249D01*
X108994797Y-141055456D01*
X110550432Y-142611091D01*
X109277639Y-143883884D01*
X109277639Y-143883884D01*
G37*
G36*
X112671751Y-147277996D02*
X111116116Y-145722361D01*
X112388909Y-144449568D01*
X113944544Y-146005203D01*
X112671751Y-147277996D01*
X112671751Y-147277996D01*
G37*
G36*
X115005203Y-144944544D02*
X113449568Y-143388909D01*
X114722361Y-142116116D01*
X116277996Y-143671751D01*
X115005203Y-144944544D01*
X115005203Y-144944544D01*
G37*
G36*
X112459620Y-143530330D02*
X111469670Y-142540380D01*
X112106066Y-141903984D01*
X113096016Y-142893934D01*
X112459620Y-143530330D01*
X112459620Y-143530330D01*
G37*
G36*
X111893934Y-144096016D02*
X110903984Y-143106066D01*
X111540380Y-142469670D01*
X112530330Y-143459620D01*
X111893934Y-144096016D01*
X111893934Y-144096016D01*
G37*
D15*
X111650000Y-130600000D03*
X108350000Y-130600000D03*
X108350000Y-135400000D03*
X111650000Y-135400000D03*
D16*
X110400000Y-133000000D03*
X109600000Y-133000000D03*
D15*
X111650000Y-118600000D03*
X108350000Y-118600000D03*
X108350000Y-123400000D03*
X111650000Y-123400000D03*
D16*
X110400000Y-121000000D03*
X109600000Y-121000000D03*
D15*
X111650000Y-106600000D03*
X108350000Y-106600000D03*
X108350000Y-111400000D03*
X111650000Y-111400000D03*
D16*
X110400000Y-109000000D03*
X109600000Y-109000000D03*
D15*
X111650000Y-94600000D03*
X108350000Y-94600000D03*
X108350000Y-99400000D03*
X111650000Y-99400000D03*
D16*
X110400000Y-97000000D03*
X109600000Y-97000000D03*
D15*
X96650000Y-82600000D03*
X93350000Y-82600000D03*
X93350000Y-87400000D03*
X96650000Y-87400000D03*
D16*
X95400000Y-85000000D03*
X94600000Y-85000000D03*
D17*
X124400000Y-86650000D03*
X124400000Y-83350000D03*
X119600000Y-83350000D03*
X119600000Y-86650000D03*
D18*
X122000000Y-85400000D03*
X122000000Y-84600000D03*
D14*
X106000000Y-61000000D03*
D19*
X131550000Y-70120000D03*
D20*
X129010000Y-70120000D03*
X126470000Y-70120000D03*
X123930000Y-70120000D03*
X121390000Y-70120000D03*
X118850000Y-70120000D03*
X116310000Y-70120000D03*
X113770000Y-70120000D03*
X111230000Y-70120000D03*
X108690000Y-70120000D03*
X106150000Y-70120000D03*
X103610000Y-70120000D03*
X101070000Y-70120000D03*
X98530000Y-70120000D03*
X95990000Y-70120000D03*
X95990000Y-54880000D03*
X98530000Y-54880000D03*
X101070000Y-54880000D03*
X103610000Y-54880000D03*
X106150000Y-54880000D03*
X108690000Y-54880000D03*
X111230000Y-54880000D03*
X113770000Y-54880000D03*
X116310000Y-54880000D03*
X118850000Y-54880000D03*
X121390000Y-54880000D03*
X123930000Y-54880000D03*
X126470000Y-54880000D03*
X129010000Y-54880000D03*
X131550000Y-54880000D03*
M02*
