G04 #@! TF.FileFunction,Copper,L2,Bot,Signal*
%FSLAX46Y46*%
G04 Gerber Fmt 4.6, Leading zero omitted, Abs format (unit mm)*
G04 Created by KiCad (PCBNEW 4.0.7) date 12/02/17 18:42:05*
%MOMM*%
%LPD*%
G01*
G04 APERTURE LIST*
%ADD10C,0.100000*%
%ADD11R,0.750000X0.800000*%
%ADD12R,1.700000X1.700000*%
%ADD13O,1.700000X1.700000*%
%ADD14C,1.700000*%
%ADD15R,0.800000X0.750000*%
%ADD16R,1.574800X2.286000*%
%ADD17O,1.574800X2.286000*%
%ADD18C,0.600000*%
%ADD19C,0.500000*%
%ADD20C,0.254000*%
G04 APERTURE END LIST*
D10*
D11*
X110000000Y-97800000D03*
X110000000Y-96300000D03*
X110000000Y-109800000D03*
X110000000Y-108300000D03*
X110000000Y-121800000D03*
X110000000Y-120300000D03*
D12*
X137460000Y-134000000D03*
D13*
X140000000Y-134000000D03*
X142540000Y-134000000D03*
D10*
G36*
X95203949Y-140001867D02*
X96406031Y-141203949D01*
X95203949Y-142406031D01*
X94001867Y-141203949D01*
X95203949Y-140001867D01*
X95203949Y-140001867D01*
G37*
D14*
X97000000Y-143000000D02*
X97000000Y-143000000D01*
X98796051Y-144796051D02*
X98796051Y-144796051D01*
D11*
X110000000Y-133800000D03*
X110000000Y-132300000D03*
D10*
G36*
X112051992Y-143582322D02*
X112582322Y-143051992D01*
X113148008Y-143617678D01*
X112617678Y-144148008D01*
X112051992Y-143582322D01*
X112051992Y-143582322D01*
G37*
G36*
X110991332Y-142521662D02*
X111521662Y-141991332D01*
X112087348Y-142557018D01*
X111557018Y-143087348D01*
X110991332Y-142521662D01*
X110991332Y-142521662D01*
G37*
D15*
X122800000Y-145000000D03*
X121300000Y-145000000D03*
X134800000Y-145000000D03*
X133300000Y-145000000D03*
X146800000Y-145000000D03*
X145300000Y-145000000D03*
X158800000Y-145000000D03*
X157300000Y-145000000D03*
D10*
G36*
X168442982Y-143087348D02*
X167912652Y-142557018D01*
X168478338Y-141991332D01*
X169008668Y-142521662D01*
X168442982Y-143087348D01*
X168442982Y-143087348D01*
G37*
G36*
X167382322Y-144148008D02*
X166851992Y-143617678D01*
X167417678Y-143051992D01*
X167948008Y-143582322D01*
X167382322Y-144148008D01*
X167382322Y-144148008D01*
G37*
D11*
X170000000Y-132300000D03*
X170000000Y-133800000D03*
X170000000Y-120300000D03*
X170000000Y-121800000D03*
X170000000Y-108300000D03*
X170000000Y-109800000D03*
X170000000Y-96300000D03*
X170000000Y-97800000D03*
D10*
G36*
X168087348Y-86557018D02*
X167557018Y-87087348D01*
X166991332Y-86521662D01*
X167521662Y-85991332D01*
X168087348Y-86557018D01*
X168087348Y-86557018D01*
G37*
G36*
X169148008Y-87617678D02*
X168617678Y-88148008D01*
X168051992Y-87582322D01*
X168582322Y-87051992D01*
X169148008Y-87617678D01*
X169148008Y-87617678D01*
G37*
D15*
X157200000Y-85000000D03*
X158700000Y-85000000D03*
X145200000Y-85000000D03*
X146700000Y-85000000D03*
X133200000Y-85000000D03*
X134700000Y-85000000D03*
X121200000Y-85000000D03*
X122700000Y-85000000D03*
D10*
G36*
X111357018Y-87112652D02*
X111887348Y-87642982D01*
X111321662Y-88208668D01*
X110791332Y-87678338D01*
X111357018Y-87112652D01*
X111357018Y-87112652D01*
G37*
G36*
X112417678Y-86051992D02*
X112948008Y-86582322D01*
X112382322Y-87148008D01*
X111851992Y-86617678D01*
X112417678Y-86051992D01*
X112417678Y-86051992D01*
G37*
D11*
X185000000Y-132300000D03*
X185000000Y-133800000D03*
X95000000Y-85800000D03*
X95000000Y-84300000D03*
X95000000Y-133800000D03*
X95000000Y-132300000D03*
D16*
X131550000Y-70120000D03*
D17*
X129010000Y-70120000D03*
X126470000Y-70120000D03*
X123930000Y-70120000D03*
X121390000Y-70120000D03*
X118850000Y-70120000D03*
X116310000Y-70120000D03*
X113770000Y-70120000D03*
X111230000Y-70120000D03*
X108690000Y-70120000D03*
X106150000Y-70120000D03*
X103610000Y-70120000D03*
X101070000Y-70120000D03*
X98530000Y-70120000D03*
X95990000Y-70120000D03*
X95990000Y-54880000D03*
X98530000Y-54880000D03*
X101070000Y-54880000D03*
X103610000Y-54880000D03*
X106150000Y-54880000D03*
X108690000Y-54880000D03*
X111230000Y-54880000D03*
X113770000Y-54880000D03*
X116310000Y-54880000D03*
X118850000Y-54880000D03*
X121390000Y-54880000D03*
X123930000Y-54880000D03*
X126470000Y-54880000D03*
X129010000Y-54880000D03*
X131550000Y-54880000D03*
D18*
X187400000Y-132600000D03*
X92600000Y-85400000D03*
X92600000Y-133400000D03*
X110600000Y-145000000D03*
X122400000Y-147400000D03*
X134400000Y-147400000D03*
X146400000Y-147400000D03*
X158400000Y-147400000D03*
X170000000Y-144400000D03*
X172400000Y-132600000D03*
X172400000Y-120600000D03*
X172400000Y-108600000D03*
X172400000Y-96600000D03*
X169400000Y-85000000D03*
X157600000Y-82600000D03*
X145600000Y-82600000D03*
X133600000Y-82600000D03*
X121600000Y-82649998D03*
X110067564Y-85483400D03*
X107600000Y-97400000D03*
X107649998Y-109400000D03*
X107600000Y-121400000D03*
X107649998Y-133400000D03*
X182600000Y-133400000D03*
X97400000Y-84600000D03*
X97400000Y-132600000D03*
X113400000Y-141000000D03*
X121600000Y-142600000D03*
X133600000Y-142600000D03*
X145600000Y-142600000D03*
X157600000Y-142600000D03*
X166000000Y-141600000D03*
X167600000Y-133400000D03*
X167600000Y-121400000D03*
X167649998Y-109400000D03*
X167600000Y-97400000D03*
X166600000Y-89000000D03*
X158400000Y-87400000D03*
X146400000Y-87400000D03*
X134400000Y-87400000D03*
X122400000Y-87350002D03*
X113932436Y-88516600D03*
X112350002Y-96600000D03*
X112350002Y-108600000D03*
X112350002Y-120600000D03*
X112400000Y-132600000D03*
X99752590Y-93090000D03*
X99752590Y-122950000D03*
X94110000Y-57000000D03*
X99752590Y-136647410D03*
X94100000Y-72700000D03*
X99760000Y-72730000D03*
X108600000Y-93000000D03*
X93400000Y-74990000D03*
X170000000Y-75000000D03*
D19*
X187400000Y-132600000D02*
X185300000Y-132600000D01*
X185300000Y-132600000D02*
X185000000Y-132300000D01*
X92600000Y-85400000D02*
X94600000Y-85400000D01*
X94600000Y-85400000D02*
X95000000Y-85800000D01*
X92600000Y-133400000D02*
X94600000Y-133400000D01*
X94600000Y-133400000D02*
X95000000Y-133800000D01*
X110600000Y-145000000D02*
X111200000Y-145000000D01*
X111200000Y-145000000D02*
X112600000Y-143600000D01*
X122400000Y-147400000D02*
X122400000Y-145400000D01*
X122400000Y-145400000D02*
X122800000Y-145000000D01*
X134400000Y-147400000D02*
X134400000Y-145400000D01*
X134400000Y-145400000D02*
X134800000Y-145000000D01*
X146400000Y-147400000D02*
X146400000Y-145400000D01*
X146400000Y-145400000D02*
X146800000Y-145000000D01*
X158400000Y-147400000D02*
X158400000Y-145400000D01*
X158400000Y-145400000D02*
X158800000Y-145000000D01*
X170000000Y-144400000D02*
X170000000Y-144078680D01*
X170000000Y-144078680D02*
X168460660Y-142539340D01*
X172400000Y-132600000D02*
X170300000Y-132600000D01*
X170300000Y-132600000D02*
X170000000Y-132300000D01*
X172400000Y-120600000D02*
X170300000Y-120600000D01*
X170300000Y-120600000D02*
X170000000Y-120300000D01*
X172400000Y-108600000D02*
X170300000Y-108600000D01*
X170300000Y-108600000D02*
X170000000Y-108300000D01*
X172400000Y-96600000D02*
X170300000Y-96600000D01*
X170300000Y-96600000D02*
X170000000Y-96300000D01*
X169400000Y-85000000D02*
X169078680Y-85000000D01*
X169078680Y-85000000D02*
X167539340Y-86539340D01*
X157600000Y-82600000D02*
X157600000Y-84600000D01*
X157600000Y-84600000D02*
X157200000Y-85000000D01*
X145600000Y-82600000D02*
X145600000Y-84600000D01*
X145600000Y-84600000D02*
X145200000Y-85000000D01*
X133600000Y-82600000D02*
X133600000Y-84600000D01*
X133600000Y-84600000D02*
X133200000Y-85000000D01*
X121600000Y-82649998D02*
X121600000Y-84600000D01*
X121600000Y-84600000D02*
X121200000Y-85000000D01*
X110067564Y-85483400D02*
X110067564Y-86388884D01*
X110067564Y-86388884D02*
X111339340Y-87660660D01*
X107600000Y-97400000D02*
X109600000Y-97400000D01*
X109600000Y-97400000D02*
X110000000Y-97800000D01*
X107649998Y-109400000D02*
X109600000Y-109400000D01*
X109600000Y-109400000D02*
X110000000Y-109800000D01*
X107600000Y-121400000D02*
X109600000Y-121400000D01*
X109600000Y-121400000D02*
X110000000Y-121800000D01*
X107649998Y-133400000D02*
X109600000Y-133400000D01*
X109600000Y-133400000D02*
X110000000Y-133800000D01*
X182600000Y-133400000D02*
X184600000Y-133400000D01*
X184600000Y-133400000D02*
X185000000Y-133800000D01*
X97400000Y-84600000D02*
X95300000Y-84600000D01*
X95300000Y-84600000D02*
X95000000Y-84300000D01*
X97400000Y-132600000D02*
X95300000Y-132600000D01*
X95300000Y-132600000D02*
X95000000Y-132300000D01*
X113400000Y-141000000D02*
X113078680Y-141000000D01*
X113078680Y-141000000D02*
X111539340Y-142539340D01*
X121600000Y-142600000D02*
X121600000Y-144700000D01*
X121600000Y-144700000D02*
X121300000Y-145000000D01*
X133600000Y-142600000D02*
X133600000Y-144700000D01*
X133600000Y-144700000D02*
X133300000Y-145000000D01*
X145600000Y-142600000D02*
X145600000Y-144700000D01*
X145600000Y-144700000D02*
X145300000Y-145000000D01*
X157600000Y-142600000D02*
X157600000Y-144700000D01*
X157600000Y-144700000D02*
X157300000Y-145000000D01*
X166000000Y-141600000D02*
X166000000Y-142200000D01*
X166000000Y-142200000D02*
X167400000Y-143600000D01*
X167600000Y-133400000D02*
X169600000Y-133400000D01*
X169600000Y-133400000D02*
X170000000Y-133800000D01*
X167600000Y-121400000D02*
X169600000Y-121400000D01*
X169600000Y-121400000D02*
X170000000Y-121800000D01*
X167649998Y-109400000D02*
X169600000Y-109400000D01*
X169600000Y-109400000D02*
X170000000Y-109800000D01*
X167600000Y-97400000D02*
X169600000Y-97400000D01*
X169600000Y-97400000D02*
X170000000Y-97800000D01*
X166600000Y-89000000D02*
X167200000Y-89000000D01*
X167200000Y-89000000D02*
X168600000Y-87600000D01*
X158400000Y-87400000D02*
X158400000Y-85300000D01*
X158400000Y-85300000D02*
X158700000Y-85000000D01*
X146400000Y-87400000D02*
X146400000Y-85300000D01*
X146400000Y-85300000D02*
X146700000Y-85000000D01*
X134400000Y-87400000D02*
X134400000Y-85300000D01*
X134400000Y-85300000D02*
X134700000Y-85000000D01*
X122400000Y-87350002D02*
X122400000Y-85300000D01*
X122400000Y-85300000D02*
X122700000Y-85000000D01*
X113932436Y-88516600D02*
X113932436Y-88132436D01*
X113932436Y-88132436D02*
X112400000Y-86600000D01*
X112350002Y-96600000D02*
X110300000Y-96600000D01*
X110300000Y-96600000D02*
X110000000Y-96300000D01*
X112350002Y-108600000D02*
X110300000Y-108600000D01*
X110300000Y-108600000D02*
X110000000Y-108300000D01*
X112350002Y-120600000D02*
X110300000Y-120600000D01*
X110300000Y-120600000D02*
X110000000Y-120300000D01*
X112400000Y-132600000D02*
X110300000Y-132600000D01*
X110300000Y-132600000D02*
X110000000Y-132300000D01*
X99752590Y-122950000D02*
X99752590Y-93090000D01*
X94110000Y-57000000D02*
X106925600Y-57000000D01*
X106925600Y-57000000D02*
X108690000Y-55235600D01*
X108690000Y-55235600D02*
X108690000Y-54880000D01*
X99760000Y-72730000D02*
X94130000Y-72730000D01*
X94130000Y-72730000D02*
X94100000Y-72700000D01*
X99752590Y-72737410D02*
X99760000Y-72730000D01*
X95203949Y-141203949D02*
X98150001Y-138257897D01*
X98150001Y-138257897D02*
X98150001Y-138249999D01*
X98150001Y-138249999D02*
X99752590Y-136647410D01*
X122800000Y-93000000D02*
X142540000Y-112740000D01*
X142540000Y-112740000D02*
X142540000Y-134000000D01*
X108600000Y-93000000D02*
X122800000Y-93000000D01*
X170000000Y-75000000D02*
X93410000Y-75000000D01*
X93410000Y-75000000D02*
X93400000Y-74990000D01*
X118770000Y-70120000D02*
X118725600Y-70120000D01*
D20*
G36*
X189290000Y-55294092D02*
X189290000Y-144705908D01*
X184705908Y-149290000D01*
X95294092Y-149290000D01*
X91823436Y-145819344D01*
X97952363Y-145819344D01*
X98029133Y-146067688D01*
X98439159Y-146237537D01*
X99017959Y-146264387D01*
X99562975Y-146067696D01*
X99640209Y-145819814D01*
X98796051Y-144975656D01*
X97952363Y-145819344D01*
X91823436Y-145819344D01*
X90710000Y-144705908D01*
X90710000Y-141195005D01*
X93354489Y-141195005D01*
X93402013Y-141447576D01*
X93544058Y-141661758D01*
X94746140Y-142863840D01*
X94943843Y-142998925D01*
X95195005Y-143053409D01*
X95447576Y-143005885D01*
X95504912Y-142967860D01*
X95494427Y-143020572D01*
X95607467Y-143588857D01*
X95929374Y-144070626D01*
X96411143Y-144392533D01*
X96979428Y-144505573D01*
X97381311Y-144425633D01*
X97327715Y-144574143D01*
X97354565Y-145152943D01*
X97524414Y-145562969D01*
X97772758Y-145639739D01*
X98616446Y-144796051D01*
X98975656Y-144796051D01*
X99819814Y-145640209D01*
X100067696Y-145562975D01*
X100264387Y-145017959D01*
X100237537Y-144439159D01*
X100176465Y-144291727D01*
X112087878Y-144291727D01*
X112087878Y-144516234D01*
X112257979Y-144686335D01*
X112491368Y-144783007D01*
X112743987Y-144783008D01*
X112977376Y-144686335D01*
X113038711Y-144625000D01*
X120252560Y-144625000D01*
X120252560Y-145375000D01*
X120296838Y-145610317D01*
X120435910Y-145826441D01*
X120648110Y-145971431D01*
X120900000Y-146022440D01*
X121700000Y-146022440D01*
X121935317Y-145978162D01*
X122038646Y-145911671D01*
X122040302Y-145913327D01*
X122273691Y-146010000D01*
X122514250Y-146010000D01*
X122673000Y-145851250D01*
X122673000Y-145127000D01*
X122927000Y-145127000D01*
X122927000Y-145851250D01*
X123085750Y-146010000D01*
X123326309Y-146010000D01*
X123559698Y-145913327D01*
X123738327Y-145734699D01*
X123835000Y-145501310D01*
X123835000Y-145285750D01*
X123676250Y-145127000D01*
X122927000Y-145127000D01*
X122673000Y-145127000D01*
X122653000Y-145127000D01*
X122653000Y-144873000D01*
X122673000Y-144873000D01*
X122673000Y-144148750D01*
X122927000Y-144148750D01*
X122927000Y-144873000D01*
X123676250Y-144873000D01*
X123835000Y-144714250D01*
X123835000Y-144625000D01*
X132252560Y-144625000D01*
X132252560Y-145375000D01*
X132296838Y-145610317D01*
X132435910Y-145826441D01*
X132648110Y-145971431D01*
X132900000Y-146022440D01*
X133700000Y-146022440D01*
X133935317Y-145978162D01*
X134038646Y-145911671D01*
X134040302Y-145913327D01*
X134273691Y-146010000D01*
X134514250Y-146010000D01*
X134673000Y-145851250D01*
X134673000Y-145127000D01*
X134927000Y-145127000D01*
X134927000Y-145851250D01*
X135085750Y-146010000D01*
X135326309Y-146010000D01*
X135559698Y-145913327D01*
X135738327Y-145734699D01*
X135835000Y-145501310D01*
X135835000Y-145285750D01*
X135676250Y-145127000D01*
X134927000Y-145127000D01*
X134673000Y-145127000D01*
X134653000Y-145127000D01*
X134653000Y-144873000D01*
X134673000Y-144873000D01*
X134673000Y-144148750D01*
X134927000Y-144148750D01*
X134927000Y-144873000D01*
X135676250Y-144873000D01*
X135835000Y-144714250D01*
X135835000Y-144625000D01*
X144252560Y-144625000D01*
X144252560Y-145375000D01*
X144296838Y-145610317D01*
X144435910Y-145826441D01*
X144648110Y-145971431D01*
X144900000Y-146022440D01*
X145700000Y-146022440D01*
X145935317Y-145978162D01*
X146038646Y-145911671D01*
X146040302Y-145913327D01*
X146273691Y-146010000D01*
X146514250Y-146010000D01*
X146673000Y-145851250D01*
X146673000Y-145127000D01*
X146927000Y-145127000D01*
X146927000Y-145851250D01*
X147085750Y-146010000D01*
X147326309Y-146010000D01*
X147559698Y-145913327D01*
X147738327Y-145734699D01*
X147835000Y-145501310D01*
X147835000Y-145285750D01*
X147676250Y-145127000D01*
X146927000Y-145127000D01*
X146673000Y-145127000D01*
X146653000Y-145127000D01*
X146653000Y-144873000D01*
X146673000Y-144873000D01*
X146673000Y-144148750D01*
X146927000Y-144148750D01*
X146927000Y-144873000D01*
X147676250Y-144873000D01*
X147835000Y-144714250D01*
X147835000Y-144625000D01*
X156252560Y-144625000D01*
X156252560Y-145375000D01*
X156296838Y-145610317D01*
X156435910Y-145826441D01*
X156648110Y-145971431D01*
X156900000Y-146022440D01*
X157700000Y-146022440D01*
X157935317Y-145978162D01*
X158038646Y-145911671D01*
X158040302Y-145913327D01*
X158273691Y-146010000D01*
X158514250Y-146010000D01*
X158673000Y-145851250D01*
X158673000Y-145127000D01*
X158927000Y-145127000D01*
X158927000Y-145851250D01*
X159085750Y-146010000D01*
X159326309Y-146010000D01*
X159559698Y-145913327D01*
X159738327Y-145734699D01*
X159835000Y-145501310D01*
X159835000Y-145285750D01*
X159676250Y-145127000D01*
X158927000Y-145127000D01*
X158673000Y-145127000D01*
X158653000Y-145127000D01*
X158653000Y-144873000D01*
X158673000Y-144873000D01*
X158673000Y-144148750D01*
X158927000Y-144148750D01*
X158927000Y-144873000D01*
X159676250Y-144873000D01*
X159835000Y-144714250D01*
X159835000Y-144498690D01*
X159738327Y-144265301D01*
X159559698Y-144086673D01*
X159326309Y-143990000D01*
X159085750Y-143990000D01*
X158927000Y-144148750D01*
X158673000Y-144148750D01*
X158514250Y-143990000D01*
X158485000Y-143990000D01*
X158485000Y-142906822D01*
X158534838Y-142786799D01*
X158535162Y-142414833D01*
X158393117Y-142071057D01*
X158130327Y-141807808D01*
X158075802Y-141785167D01*
X165064838Y-141785167D01*
X165115000Y-141906569D01*
X165115000Y-142199995D01*
X165114999Y-142200000D01*
X165158163Y-142416993D01*
X165182367Y-142538675D01*
X165313966Y-142735628D01*
X165374210Y-142825790D01*
X166215614Y-143667193D01*
X166252138Y-143861305D01*
X166394183Y-144075487D01*
X166924513Y-144605817D01*
X167122216Y-144740902D01*
X167373378Y-144795386D01*
X167625949Y-144747862D01*
X167840131Y-144605817D01*
X168003329Y-144442619D01*
X177764613Y-144442619D01*
X178104155Y-145264372D01*
X178732321Y-145893636D01*
X179553481Y-146234611D01*
X180442619Y-146235387D01*
X181264372Y-145895845D01*
X181893636Y-145267679D01*
X182234611Y-144446519D01*
X182235387Y-143557381D01*
X181895845Y-142735628D01*
X181267679Y-142106364D01*
X180446519Y-141765389D01*
X179557381Y-141764613D01*
X178735628Y-142104155D01*
X178106364Y-142732321D01*
X177765389Y-143553481D01*
X177764613Y-144442619D01*
X168003329Y-144442619D01*
X168405817Y-144040131D01*
X168540902Y-143842428D01*
X168566951Y-143722347D01*
X168569292Y-143722347D01*
X168802681Y-143625675D01*
X168972782Y-143455574D01*
X168972782Y-143231067D01*
X168460660Y-142718945D01*
X168446518Y-142733088D01*
X168266913Y-142553483D01*
X168281055Y-142539340D01*
X168640265Y-142539340D01*
X169152387Y-143051462D01*
X169376894Y-143051462D01*
X169546995Y-142881361D01*
X169643667Y-142647972D01*
X169643668Y-142395353D01*
X169546995Y-142161964D01*
X169394571Y-142009540D01*
X169170065Y-142009540D01*
X168640265Y-142539340D01*
X168281055Y-142539340D01*
X167768933Y-142027218D01*
X167544426Y-142027218D01*
X167374325Y-142197319D01*
X167337589Y-142286009D01*
X166906536Y-141854957D01*
X166934838Y-141786799D01*
X166934980Y-141623106D01*
X167948538Y-141623106D01*
X167948538Y-141847613D01*
X168460660Y-142359735D01*
X168990460Y-141829935D01*
X168990460Y-141605429D01*
X168838036Y-141453005D01*
X168604647Y-141356332D01*
X168352028Y-141356333D01*
X168118639Y-141453005D01*
X167948538Y-141623106D01*
X166934980Y-141623106D01*
X166935162Y-141414833D01*
X166793117Y-141071057D01*
X166530327Y-140807808D01*
X166186799Y-140665162D01*
X165814833Y-140664838D01*
X165471057Y-140806883D01*
X165207808Y-141069673D01*
X165065162Y-141413201D01*
X165064838Y-141785167D01*
X158075802Y-141785167D01*
X157786799Y-141665162D01*
X157414833Y-141664838D01*
X157071057Y-141806883D01*
X156807808Y-142069673D01*
X156665162Y-142413201D01*
X156664838Y-142785167D01*
X156715000Y-142906569D01*
X156715000Y-144012370D01*
X156664683Y-144021838D01*
X156448559Y-144160910D01*
X156303569Y-144373110D01*
X156252560Y-144625000D01*
X147835000Y-144625000D01*
X147835000Y-144498690D01*
X147738327Y-144265301D01*
X147559698Y-144086673D01*
X147326309Y-143990000D01*
X147085750Y-143990000D01*
X146927000Y-144148750D01*
X146673000Y-144148750D01*
X146514250Y-143990000D01*
X146485000Y-143990000D01*
X146485000Y-142906822D01*
X146534838Y-142786799D01*
X146535162Y-142414833D01*
X146393117Y-142071057D01*
X146130327Y-141807808D01*
X145786799Y-141665162D01*
X145414833Y-141664838D01*
X145071057Y-141806883D01*
X144807808Y-142069673D01*
X144665162Y-142413201D01*
X144664838Y-142785167D01*
X144715000Y-142906569D01*
X144715000Y-144012370D01*
X144664683Y-144021838D01*
X144448559Y-144160910D01*
X144303569Y-144373110D01*
X144252560Y-144625000D01*
X135835000Y-144625000D01*
X135835000Y-144498690D01*
X135738327Y-144265301D01*
X135559698Y-144086673D01*
X135326309Y-143990000D01*
X135085750Y-143990000D01*
X134927000Y-144148750D01*
X134673000Y-144148750D01*
X134514250Y-143990000D01*
X134485000Y-143990000D01*
X134485000Y-142906822D01*
X134534838Y-142786799D01*
X134535162Y-142414833D01*
X134393117Y-142071057D01*
X134130327Y-141807808D01*
X133786799Y-141665162D01*
X133414833Y-141664838D01*
X133071057Y-141806883D01*
X132807808Y-142069673D01*
X132665162Y-142413201D01*
X132664838Y-142785167D01*
X132715000Y-142906569D01*
X132715000Y-144012370D01*
X132664683Y-144021838D01*
X132448559Y-144160910D01*
X132303569Y-144373110D01*
X132252560Y-144625000D01*
X123835000Y-144625000D01*
X123835000Y-144498690D01*
X123738327Y-144265301D01*
X123559698Y-144086673D01*
X123326309Y-143990000D01*
X123085750Y-143990000D01*
X122927000Y-144148750D01*
X122673000Y-144148750D01*
X122514250Y-143990000D01*
X122485000Y-143990000D01*
X122485000Y-142906822D01*
X122534838Y-142786799D01*
X122535162Y-142414833D01*
X122393117Y-142071057D01*
X122130327Y-141807808D01*
X121786799Y-141665162D01*
X121414833Y-141664838D01*
X121071057Y-141806883D01*
X120807808Y-142069673D01*
X120665162Y-142413201D01*
X120664838Y-142785167D01*
X120715000Y-142906569D01*
X120715000Y-144012370D01*
X120664683Y-144021838D01*
X120448559Y-144160910D01*
X120303569Y-144373110D01*
X120252560Y-144625000D01*
X113038711Y-144625000D01*
X113129800Y-144533911D01*
X113129800Y-144309405D01*
X112600000Y-143779605D01*
X112087878Y-144291727D01*
X100176465Y-144291727D01*
X100067688Y-144029133D01*
X99819344Y-143952363D01*
X98975656Y-144796051D01*
X98616446Y-144796051D01*
X98602304Y-144781909D01*
X98781909Y-144602304D01*
X98796051Y-144616446D01*
X99639739Y-143772758D01*
X99562969Y-143524414D01*
X99152943Y-143354565D01*
X98574143Y-143327715D01*
X98425632Y-143381311D01*
X98505572Y-142979428D01*
X98412738Y-142512718D01*
X110343954Y-142512718D01*
X110391478Y-142765289D01*
X110533523Y-142979471D01*
X111099209Y-143545157D01*
X111296912Y-143680242D01*
X111416993Y-143706291D01*
X111416993Y-143708632D01*
X111513665Y-143942021D01*
X111683766Y-144112122D01*
X111908273Y-144112122D01*
X112420395Y-143600000D01*
X112779605Y-143600000D01*
X113309405Y-144129800D01*
X113533911Y-144129800D01*
X113686335Y-143977376D01*
X113783008Y-143743987D01*
X113783007Y-143491368D01*
X113686335Y-143257979D01*
X113516234Y-143087878D01*
X113291727Y-143087878D01*
X112779605Y-143600000D01*
X112420395Y-143600000D01*
X112406253Y-143585858D01*
X112585858Y-143406253D01*
X112600000Y-143420395D01*
X113112122Y-142908273D01*
X113112122Y-142683766D01*
X112942021Y-142513665D01*
X112853331Y-142476929D01*
X113395263Y-141934997D01*
X113585167Y-141935162D01*
X113928943Y-141793117D01*
X114192192Y-141530327D01*
X114334838Y-141186799D01*
X114335162Y-140814833D01*
X114193117Y-140471057D01*
X113930327Y-140207808D01*
X113586799Y-140065162D01*
X113214833Y-140064838D01*
X113093431Y-140115000D01*
X113078685Y-140115000D01*
X113078680Y-140114999D01*
X112740006Y-140182366D01*
X112644734Y-140246025D01*
X112452890Y-140374210D01*
X112452888Y-140374213D01*
X111472147Y-141354954D01*
X111278035Y-141391478D01*
X111063853Y-141533523D01*
X110533523Y-142063853D01*
X110398438Y-142261556D01*
X110343954Y-142512718D01*
X98412738Y-142512718D01*
X98392533Y-142411144D01*
X98070625Y-141929375D01*
X97588856Y-141607467D01*
X97020572Y-141494428D01*
X96971503Y-141504188D01*
X96998925Y-141464055D01*
X97053409Y-141212893D01*
X97005885Y-140960322D01*
X96883577Y-140775901D01*
X97216858Y-140442619D01*
X99764613Y-140442619D01*
X100104155Y-141264372D01*
X100732321Y-141893636D01*
X101553481Y-142234611D01*
X102442619Y-142235387D01*
X103264372Y-141895845D01*
X103893636Y-141267679D01*
X104234611Y-140446519D01*
X104235387Y-139557381D01*
X103895845Y-138735628D01*
X103267679Y-138106364D01*
X102446519Y-137765389D01*
X101557381Y-137764613D01*
X100735628Y-138104155D01*
X100106364Y-138732321D01*
X99765389Y-139553481D01*
X99764613Y-140442619D01*
X97216858Y-140442619D01*
X98775788Y-138883689D01*
X98775791Y-138883687D01*
X98791695Y-138859885D01*
X100161424Y-137490155D01*
X100281533Y-137440527D01*
X100544782Y-137177737D01*
X100687428Y-136834209D01*
X100687752Y-136462243D01*
X100545707Y-136118467D01*
X100282917Y-135855218D01*
X99939389Y-135712572D01*
X99567423Y-135712248D01*
X99223647Y-135854293D01*
X98960398Y-136117083D01*
X98910024Y-136238397D01*
X97524211Y-137624209D01*
X97508305Y-137648014D01*
X95632352Y-139523966D01*
X95464055Y-139408973D01*
X95212893Y-139354489D01*
X94960322Y-139402013D01*
X94746140Y-139544058D01*
X93544058Y-140746140D01*
X93408973Y-140943843D01*
X93354489Y-141195005D01*
X90710000Y-141195005D01*
X90710000Y-134085750D01*
X93990000Y-134085750D01*
X93990000Y-134326309D01*
X94086673Y-134559698D01*
X94265301Y-134738327D01*
X94498690Y-134835000D01*
X94714250Y-134835000D01*
X94873000Y-134676250D01*
X94873000Y-133927000D01*
X95127000Y-133927000D01*
X95127000Y-134676250D01*
X95285750Y-134835000D01*
X95501310Y-134835000D01*
X95734699Y-134738327D01*
X95913327Y-134559698D01*
X96010000Y-134326309D01*
X96010000Y-134085750D01*
X108990000Y-134085750D01*
X108990000Y-134326309D01*
X109086673Y-134559698D01*
X109265301Y-134738327D01*
X109498690Y-134835000D01*
X109714250Y-134835000D01*
X109873000Y-134676250D01*
X109873000Y-133927000D01*
X110127000Y-133927000D01*
X110127000Y-134676250D01*
X110285750Y-134835000D01*
X110501310Y-134835000D01*
X110734699Y-134738327D01*
X110913327Y-134559698D01*
X111010000Y-134326309D01*
X111010000Y-134285750D01*
X135975000Y-134285750D01*
X135975000Y-134976309D01*
X136071673Y-135209698D01*
X136250301Y-135388327D01*
X136483690Y-135485000D01*
X137174250Y-135485000D01*
X137333000Y-135326250D01*
X137333000Y-134127000D01*
X136133750Y-134127000D01*
X135975000Y-134285750D01*
X111010000Y-134285750D01*
X111010000Y-134085750D01*
X110851250Y-133927000D01*
X110127000Y-133927000D01*
X109873000Y-133927000D01*
X109148750Y-133927000D01*
X108990000Y-134085750D01*
X96010000Y-134085750D01*
X95851250Y-133927000D01*
X95127000Y-133927000D01*
X94873000Y-133927000D01*
X94148750Y-133927000D01*
X93990000Y-134085750D01*
X90710000Y-134085750D01*
X90710000Y-131900000D01*
X93977560Y-131900000D01*
X93977560Y-132700000D01*
X94021838Y-132935317D01*
X94088329Y-133038646D01*
X94086673Y-133040302D01*
X93990000Y-133273691D01*
X93990000Y-133514250D01*
X94148750Y-133673000D01*
X94873000Y-133673000D01*
X94873000Y-133653000D01*
X95127000Y-133653000D01*
X95127000Y-133673000D01*
X95851250Y-133673000D01*
X96010000Y-133514250D01*
X96010000Y-133485000D01*
X97093178Y-133485000D01*
X97213201Y-133534838D01*
X97585167Y-133535162D01*
X97928943Y-133393117D01*
X98192192Y-133130327D01*
X98334838Y-132786799D01*
X98335162Y-132414833D01*
X98193117Y-132071057D01*
X98022359Y-131900000D01*
X108977560Y-131900000D01*
X108977560Y-132700000D01*
X109021838Y-132935317D01*
X109088329Y-133038646D01*
X109086673Y-133040302D01*
X108990000Y-133273691D01*
X108990000Y-133514250D01*
X109148750Y-133673000D01*
X109873000Y-133673000D01*
X109873000Y-133653000D01*
X110127000Y-133653000D01*
X110127000Y-133673000D01*
X110851250Y-133673000D01*
X111010000Y-133514250D01*
X111010000Y-133485000D01*
X112093178Y-133485000D01*
X112213201Y-133534838D01*
X112585167Y-133535162D01*
X112928943Y-133393117D01*
X113192192Y-133130327D01*
X113236471Y-133023691D01*
X135975000Y-133023691D01*
X135975000Y-133714250D01*
X136133750Y-133873000D01*
X137333000Y-133873000D01*
X137333000Y-132673750D01*
X137174250Y-132515000D01*
X136483690Y-132515000D01*
X136250301Y-132611673D01*
X136071673Y-132790302D01*
X135975000Y-133023691D01*
X113236471Y-133023691D01*
X113334838Y-132786799D01*
X113335162Y-132414833D01*
X113193117Y-132071057D01*
X112930327Y-131807808D01*
X112586799Y-131665162D01*
X112214833Y-131664838D01*
X112093431Y-131715000D01*
X110987630Y-131715000D01*
X110978162Y-131664683D01*
X110839090Y-131448559D01*
X110626890Y-131303569D01*
X110375000Y-131252560D01*
X109625000Y-131252560D01*
X109389683Y-131296838D01*
X109173559Y-131435910D01*
X109028569Y-131648110D01*
X108977560Y-131900000D01*
X98022359Y-131900000D01*
X97930327Y-131807808D01*
X97586799Y-131665162D01*
X97214833Y-131664838D01*
X97093431Y-131715000D01*
X95987630Y-131715000D01*
X95978162Y-131664683D01*
X95839090Y-131448559D01*
X95626890Y-131303569D01*
X95375000Y-131252560D01*
X94625000Y-131252560D01*
X94389683Y-131296838D01*
X94173559Y-131435910D01*
X94028569Y-131648110D01*
X93977560Y-131900000D01*
X90710000Y-131900000D01*
X90710000Y-93275167D01*
X98817428Y-93275167D01*
X98867590Y-93396569D01*
X98867590Y-122643178D01*
X98817752Y-122763201D01*
X98817428Y-123135167D01*
X98959473Y-123478943D01*
X99222263Y-123742192D01*
X99565791Y-123884838D01*
X99937757Y-123885162D01*
X100281533Y-123743117D01*
X100544782Y-123480327D01*
X100687428Y-123136799D01*
X100687752Y-122764833D01*
X100637590Y-122643431D01*
X100637590Y-122085750D01*
X108990000Y-122085750D01*
X108990000Y-122326309D01*
X109086673Y-122559698D01*
X109265301Y-122738327D01*
X109498690Y-122835000D01*
X109714250Y-122835000D01*
X109873000Y-122676250D01*
X109873000Y-121927000D01*
X110127000Y-121927000D01*
X110127000Y-122676250D01*
X110285750Y-122835000D01*
X110501310Y-122835000D01*
X110734699Y-122738327D01*
X110913327Y-122559698D01*
X111010000Y-122326309D01*
X111010000Y-122085750D01*
X110851250Y-121927000D01*
X110127000Y-121927000D01*
X109873000Y-121927000D01*
X109148750Y-121927000D01*
X108990000Y-122085750D01*
X100637590Y-122085750D01*
X100637590Y-119900000D01*
X108977560Y-119900000D01*
X108977560Y-120700000D01*
X109021838Y-120935317D01*
X109088329Y-121038646D01*
X109086673Y-121040302D01*
X108990000Y-121273691D01*
X108990000Y-121514250D01*
X109148750Y-121673000D01*
X109873000Y-121673000D01*
X109873000Y-121653000D01*
X110127000Y-121653000D01*
X110127000Y-121673000D01*
X110851250Y-121673000D01*
X111010000Y-121514250D01*
X111010000Y-121485000D01*
X112043180Y-121485000D01*
X112163203Y-121534838D01*
X112535169Y-121535162D01*
X112878945Y-121393117D01*
X113142194Y-121130327D01*
X113284840Y-120786799D01*
X113285164Y-120414833D01*
X113143119Y-120071057D01*
X112880329Y-119807808D01*
X112536801Y-119665162D01*
X112164835Y-119664838D01*
X112043433Y-119715000D01*
X110987630Y-119715000D01*
X110978162Y-119664683D01*
X110839090Y-119448559D01*
X110626890Y-119303569D01*
X110375000Y-119252560D01*
X109625000Y-119252560D01*
X109389683Y-119296838D01*
X109173559Y-119435910D01*
X109028569Y-119648110D01*
X108977560Y-119900000D01*
X100637590Y-119900000D01*
X100637590Y-110085750D01*
X108990000Y-110085750D01*
X108990000Y-110326309D01*
X109086673Y-110559698D01*
X109265301Y-110738327D01*
X109498690Y-110835000D01*
X109714250Y-110835000D01*
X109873000Y-110676250D01*
X109873000Y-109927000D01*
X110127000Y-109927000D01*
X110127000Y-110676250D01*
X110285750Y-110835000D01*
X110501310Y-110835000D01*
X110734699Y-110738327D01*
X110913327Y-110559698D01*
X111010000Y-110326309D01*
X111010000Y-110085750D01*
X110851250Y-109927000D01*
X110127000Y-109927000D01*
X109873000Y-109927000D01*
X109148750Y-109927000D01*
X108990000Y-110085750D01*
X100637590Y-110085750D01*
X100637590Y-107900000D01*
X108977560Y-107900000D01*
X108977560Y-108700000D01*
X109021838Y-108935317D01*
X109088329Y-109038646D01*
X109086673Y-109040302D01*
X108990000Y-109273691D01*
X108990000Y-109514250D01*
X109148750Y-109673000D01*
X109873000Y-109673000D01*
X109873000Y-109653000D01*
X110127000Y-109653000D01*
X110127000Y-109673000D01*
X110851250Y-109673000D01*
X111010000Y-109514250D01*
X111010000Y-109485000D01*
X112043180Y-109485000D01*
X112163203Y-109534838D01*
X112535169Y-109535162D01*
X112878945Y-109393117D01*
X113142194Y-109130327D01*
X113284840Y-108786799D01*
X113285164Y-108414833D01*
X113143119Y-108071057D01*
X112880329Y-107807808D01*
X112536801Y-107665162D01*
X112164835Y-107664838D01*
X112043433Y-107715000D01*
X110987630Y-107715000D01*
X110978162Y-107664683D01*
X110839090Y-107448559D01*
X110626890Y-107303569D01*
X110375000Y-107252560D01*
X109625000Y-107252560D01*
X109389683Y-107296838D01*
X109173559Y-107435910D01*
X109028569Y-107648110D01*
X108977560Y-107900000D01*
X100637590Y-107900000D01*
X100637590Y-98085750D01*
X108990000Y-98085750D01*
X108990000Y-98326309D01*
X109086673Y-98559698D01*
X109265301Y-98738327D01*
X109498690Y-98835000D01*
X109714250Y-98835000D01*
X109873000Y-98676250D01*
X109873000Y-97927000D01*
X110127000Y-97927000D01*
X110127000Y-98676250D01*
X110285750Y-98835000D01*
X110501310Y-98835000D01*
X110734699Y-98738327D01*
X110913327Y-98559698D01*
X111010000Y-98326309D01*
X111010000Y-98085750D01*
X110851250Y-97927000D01*
X110127000Y-97927000D01*
X109873000Y-97927000D01*
X109148750Y-97927000D01*
X108990000Y-98085750D01*
X100637590Y-98085750D01*
X100637590Y-95900000D01*
X108977560Y-95900000D01*
X108977560Y-96700000D01*
X109021838Y-96935317D01*
X109088329Y-97038646D01*
X109086673Y-97040302D01*
X108990000Y-97273691D01*
X108990000Y-97514250D01*
X109148750Y-97673000D01*
X109873000Y-97673000D01*
X109873000Y-97653000D01*
X110127000Y-97653000D01*
X110127000Y-97673000D01*
X110851250Y-97673000D01*
X111010000Y-97514250D01*
X111010000Y-97485000D01*
X112043180Y-97485000D01*
X112163203Y-97534838D01*
X112535169Y-97535162D01*
X112878945Y-97393117D01*
X113142194Y-97130327D01*
X113284840Y-96786799D01*
X113285164Y-96414833D01*
X113143119Y-96071057D01*
X112880329Y-95807808D01*
X112536801Y-95665162D01*
X112164835Y-95664838D01*
X112043433Y-95715000D01*
X110987630Y-95715000D01*
X110978162Y-95664683D01*
X110839090Y-95448559D01*
X110626890Y-95303569D01*
X110375000Y-95252560D01*
X109625000Y-95252560D01*
X109389683Y-95296838D01*
X109173559Y-95435910D01*
X109028569Y-95648110D01*
X108977560Y-95900000D01*
X100637590Y-95900000D01*
X100637590Y-93396822D01*
X100687428Y-93276799D01*
X100687507Y-93185167D01*
X107664838Y-93185167D01*
X107806883Y-93528943D01*
X108069673Y-93792192D01*
X108413201Y-93934838D01*
X108785167Y-93935162D01*
X108906569Y-93885000D01*
X122433420Y-93885000D01*
X141655000Y-113106579D01*
X141655000Y-132810568D01*
X141489946Y-132920853D01*
X141270000Y-133250026D01*
X141050054Y-132920853D01*
X140568285Y-132598946D01*
X140000000Y-132485907D01*
X139431715Y-132598946D01*
X138949946Y-132920853D01*
X138920597Y-132964777D01*
X138848327Y-132790302D01*
X138669699Y-132611673D01*
X138436310Y-132515000D01*
X137745750Y-132515000D01*
X137587000Y-132673750D01*
X137587000Y-133873000D01*
X137607000Y-133873000D01*
X137607000Y-134127000D01*
X137587000Y-134127000D01*
X137587000Y-135326250D01*
X137745750Y-135485000D01*
X138436310Y-135485000D01*
X138669699Y-135388327D01*
X138848327Y-135209698D01*
X138920597Y-135035223D01*
X138949946Y-135079147D01*
X139431715Y-135401054D01*
X140000000Y-135514093D01*
X140568285Y-135401054D01*
X141050054Y-135079147D01*
X141270000Y-134749974D01*
X141489946Y-135079147D01*
X141971715Y-135401054D01*
X142540000Y-135514093D01*
X143108285Y-135401054D01*
X143590054Y-135079147D01*
X143911961Y-134597378D01*
X144025000Y-134029093D01*
X144025000Y-133970907D01*
X143948272Y-133585167D01*
X166664838Y-133585167D01*
X166806883Y-133928943D01*
X167069673Y-134192192D01*
X167413201Y-134334838D01*
X167785167Y-134335162D01*
X167906569Y-134285000D01*
X168993554Y-134285000D01*
X169021838Y-134435317D01*
X169160910Y-134651441D01*
X169373110Y-134796431D01*
X169625000Y-134847440D01*
X170375000Y-134847440D01*
X170610317Y-134803162D01*
X170826441Y-134664090D01*
X170971431Y-134451890D01*
X171022440Y-134200000D01*
X171022440Y-133585167D01*
X181664838Y-133585167D01*
X181806883Y-133928943D01*
X182069673Y-134192192D01*
X182413201Y-134334838D01*
X182785167Y-134335162D01*
X182906569Y-134285000D01*
X183993554Y-134285000D01*
X184021838Y-134435317D01*
X184160910Y-134651441D01*
X184373110Y-134796431D01*
X184625000Y-134847440D01*
X185375000Y-134847440D01*
X185610317Y-134803162D01*
X185826441Y-134664090D01*
X185971431Y-134451890D01*
X186022440Y-134200000D01*
X186022440Y-133400000D01*
X185978162Y-133164683D01*
X185911671Y-133061354D01*
X185913327Y-133059698D01*
X186010000Y-132826309D01*
X186010000Y-132585750D01*
X185851250Y-132427000D01*
X185127000Y-132427000D01*
X185127000Y-132447000D01*
X184873000Y-132447000D01*
X184873000Y-132427000D01*
X184148750Y-132427000D01*
X184060750Y-132515000D01*
X182906822Y-132515000D01*
X182786799Y-132465162D01*
X182414833Y-132464838D01*
X182071057Y-132606883D01*
X181807808Y-132869673D01*
X181665162Y-133213201D01*
X181664838Y-133585167D01*
X171022440Y-133585167D01*
X171022440Y-133400000D01*
X170978162Y-133164683D01*
X170911671Y-133061354D01*
X170913327Y-133059698D01*
X171010000Y-132826309D01*
X171010000Y-132585750D01*
X170851250Y-132427000D01*
X170127000Y-132427000D01*
X170127000Y-132447000D01*
X169873000Y-132447000D01*
X169873000Y-132427000D01*
X169148750Y-132427000D01*
X169060750Y-132515000D01*
X167906822Y-132515000D01*
X167786799Y-132465162D01*
X167414833Y-132464838D01*
X167071057Y-132606883D01*
X166807808Y-132869673D01*
X166665162Y-133213201D01*
X166664838Y-133585167D01*
X143948272Y-133585167D01*
X143911961Y-133402622D01*
X143590054Y-132920853D01*
X143425000Y-132810568D01*
X143425000Y-131773691D01*
X168990000Y-131773691D01*
X168990000Y-132014250D01*
X169148750Y-132173000D01*
X169873000Y-132173000D01*
X169873000Y-131423750D01*
X170127000Y-131423750D01*
X170127000Y-132173000D01*
X170851250Y-132173000D01*
X171010000Y-132014250D01*
X171010000Y-131773691D01*
X183990000Y-131773691D01*
X183990000Y-132014250D01*
X184148750Y-132173000D01*
X184873000Y-132173000D01*
X184873000Y-131423750D01*
X185127000Y-131423750D01*
X185127000Y-132173000D01*
X185851250Y-132173000D01*
X186010000Y-132014250D01*
X186010000Y-131773691D01*
X185913327Y-131540302D01*
X185734699Y-131361673D01*
X185501310Y-131265000D01*
X185285750Y-131265000D01*
X185127000Y-131423750D01*
X184873000Y-131423750D01*
X184714250Y-131265000D01*
X184498690Y-131265000D01*
X184265301Y-131361673D01*
X184086673Y-131540302D01*
X183990000Y-131773691D01*
X171010000Y-131773691D01*
X170913327Y-131540302D01*
X170734699Y-131361673D01*
X170501310Y-131265000D01*
X170285750Y-131265000D01*
X170127000Y-131423750D01*
X169873000Y-131423750D01*
X169714250Y-131265000D01*
X169498690Y-131265000D01*
X169265301Y-131361673D01*
X169086673Y-131540302D01*
X168990000Y-131773691D01*
X143425000Y-131773691D01*
X143425000Y-121585167D01*
X166664838Y-121585167D01*
X166806883Y-121928943D01*
X167069673Y-122192192D01*
X167413201Y-122334838D01*
X167785167Y-122335162D01*
X167906569Y-122285000D01*
X168993554Y-122285000D01*
X169021838Y-122435317D01*
X169160910Y-122651441D01*
X169373110Y-122796431D01*
X169625000Y-122847440D01*
X170375000Y-122847440D01*
X170610317Y-122803162D01*
X170826441Y-122664090D01*
X170971431Y-122451890D01*
X171022440Y-122200000D01*
X171022440Y-121400000D01*
X170978162Y-121164683D01*
X170911671Y-121061354D01*
X170913327Y-121059698D01*
X171010000Y-120826309D01*
X171010000Y-120585750D01*
X170851250Y-120427000D01*
X170127000Y-120427000D01*
X170127000Y-120447000D01*
X169873000Y-120447000D01*
X169873000Y-120427000D01*
X169148750Y-120427000D01*
X169060750Y-120515000D01*
X167906822Y-120515000D01*
X167786799Y-120465162D01*
X167414833Y-120464838D01*
X167071057Y-120606883D01*
X166807808Y-120869673D01*
X166665162Y-121213201D01*
X166664838Y-121585167D01*
X143425000Y-121585167D01*
X143425000Y-119773691D01*
X168990000Y-119773691D01*
X168990000Y-120014250D01*
X169148750Y-120173000D01*
X169873000Y-120173000D01*
X169873000Y-119423750D01*
X170127000Y-119423750D01*
X170127000Y-120173000D01*
X170851250Y-120173000D01*
X171010000Y-120014250D01*
X171010000Y-119773691D01*
X170913327Y-119540302D01*
X170734699Y-119361673D01*
X170501310Y-119265000D01*
X170285750Y-119265000D01*
X170127000Y-119423750D01*
X169873000Y-119423750D01*
X169714250Y-119265000D01*
X169498690Y-119265000D01*
X169265301Y-119361673D01*
X169086673Y-119540302D01*
X168990000Y-119773691D01*
X143425000Y-119773691D01*
X143425000Y-112740005D01*
X143425001Y-112740000D01*
X143357633Y-112401326D01*
X143357633Y-112401325D01*
X143165790Y-112114210D01*
X143165787Y-112114208D01*
X140636747Y-109585167D01*
X166714836Y-109585167D01*
X166856881Y-109928943D01*
X167119671Y-110192192D01*
X167463199Y-110334838D01*
X167835165Y-110335162D01*
X167956567Y-110285000D01*
X168993554Y-110285000D01*
X169021838Y-110435317D01*
X169160910Y-110651441D01*
X169373110Y-110796431D01*
X169625000Y-110847440D01*
X170375000Y-110847440D01*
X170610317Y-110803162D01*
X170826441Y-110664090D01*
X170971431Y-110451890D01*
X171022440Y-110200000D01*
X171022440Y-109400000D01*
X170978162Y-109164683D01*
X170911671Y-109061354D01*
X170913327Y-109059698D01*
X171010000Y-108826309D01*
X171010000Y-108585750D01*
X170851250Y-108427000D01*
X170127000Y-108427000D01*
X170127000Y-108447000D01*
X169873000Y-108447000D01*
X169873000Y-108427000D01*
X169148750Y-108427000D01*
X169060750Y-108515000D01*
X167956820Y-108515000D01*
X167836797Y-108465162D01*
X167464831Y-108464838D01*
X167121055Y-108606883D01*
X166857806Y-108869673D01*
X166715160Y-109213201D01*
X166714836Y-109585167D01*
X140636747Y-109585167D01*
X138825271Y-107773691D01*
X168990000Y-107773691D01*
X168990000Y-108014250D01*
X169148750Y-108173000D01*
X169873000Y-108173000D01*
X169873000Y-107423750D01*
X170127000Y-107423750D01*
X170127000Y-108173000D01*
X170851250Y-108173000D01*
X171010000Y-108014250D01*
X171010000Y-107773691D01*
X170913327Y-107540302D01*
X170734699Y-107361673D01*
X170501310Y-107265000D01*
X170285750Y-107265000D01*
X170127000Y-107423750D01*
X169873000Y-107423750D01*
X169714250Y-107265000D01*
X169498690Y-107265000D01*
X169265301Y-107361673D01*
X169086673Y-107540302D01*
X168990000Y-107773691D01*
X138825271Y-107773691D01*
X128636747Y-97585167D01*
X166664838Y-97585167D01*
X166806883Y-97928943D01*
X167069673Y-98192192D01*
X167413201Y-98334838D01*
X167785167Y-98335162D01*
X167906569Y-98285000D01*
X168993554Y-98285000D01*
X169021838Y-98435317D01*
X169160910Y-98651441D01*
X169373110Y-98796431D01*
X169625000Y-98847440D01*
X170375000Y-98847440D01*
X170610317Y-98803162D01*
X170826441Y-98664090D01*
X170971431Y-98451890D01*
X171022440Y-98200000D01*
X171022440Y-97400000D01*
X170978162Y-97164683D01*
X170911671Y-97061354D01*
X170913327Y-97059698D01*
X171010000Y-96826309D01*
X171010000Y-96585750D01*
X170851250Y-96427000D01*
X170127000Y-96427000D01*
X170127000Y-96447000D01*
X169873000Y-96447000D01*
X169873000Y-96427000D01*
X169148750Y-96427000D01*
X169060750Y-96515000D01*
X167906822Y-96515000D01*
X167786799Y-96465162D01*
X167414833Y-96464838D01*
X167071057Y-96606883D01*
X166807808Y-96869673D01*
X166665162Y-97213201D01*
X166664838Y-97585167D01*
X128636747Y-97585167D01*
X126825271Y-95773691D01*
X168990000Y-95773691D01*
X168990000Y-96014250D01*
X169148750Y-96173000D01*
X169873000Y-96173000D01*
X169873000Y-95423750D01*
X170127000Y-95423750D01*
X170127000Y-96173000D01*
X170851250Y-96173000D01*
X171010000Y-96014250D01*
X171010000Y-95773691D01*
X170913327Y-95540302D01*
X170734699Y-95361673D01*
X170501310Y-95265000D01*
X170285750Y-95265000D01*
X170127000Y-95423750D01*
X169873000Y-95423750D01*
X169714250Y-95265000D01*
X169498690Y-95265000D01*
X169265301Y-95361673D01*
X169086673Y-95540302D01*
X168990000Y-95773691D01*
X126825271Y-95773691D01*
X123425790Y-92374210D01*
X123138675Y-92182367D01*
X123082484Y-92171190D01*
X122800000Y-92114999D01*
X122799995Y-92115000D01*
X108906822Y-92115000D01*
X108786799Y-92065162D01*
X108414833Y-92064838D01*
X108071057Y-92206883D01*
X107807808Y-92469673D01*
X107665162Y-92813201D01*
X107664838Y-93185167D01*
X100687507Y-93185167D01*
X100687752Y-92904833D01*
X100545707Y-92561057D01*
X100282917Y-92297808D01*
X99939389Y-92155162D01*
X99567423Y-92154838D01*
X99223647Y-92296883D01*
X98960398Y-92559673D01*
X98817752Y-92903201D01*
X98817428Y-93275167D01*
X90710000Y-93275167D01*
X90710000Y-88370065D01*
X110809540Y-88370065D01*
X110809540Y-88594571D01*
X110961964Y-88746995D01*
X111195353Y-88843668D01*
X111447972Y-88843667D01*
X111681361Y-88746995D01*
X111851462Y-88576894D01*
X111851462Y-88352387D01*
X111339340Y-87840265D01*
X110809540Y-88370065D01*
X90710000Y-88370065D01*
X90710000Y-87804647D01*
X110156332Y-87804647D01*
X110253005Y-88038036D01*
X110405429Y-88190460D01*
X110629935Y-88190460D01*
X111159735Y-87660660D01*
X110647613Y-87148538D01*
X110423106Y-87148538D01*
X110253005Y-87318639D01*
X110156333Y-87552028D01*
X110156332Y-87804647D01*
X90710000Y-87804647D01*
X90710000Y-86085750D01*
X93990000Y-86085750D01*
X93990000Y-86326309D01*
X94086673Y-86559698D01*
X94265301Y-86738327D01*
X94498690Y-86835000D01*
X94714250Y-86835000D01*
X94873000Y-86676250D01*
X94873000Y-85927000D01*
X95127000Y-85927000D01*
X95127000Y-86676250D01*
X95285750Y-86835000D01*
X95501310Y-86835000D01*
X95719974Y-86744426D01*
X110827218Y-86744426D01*
X110827218Y-86968933D01*
X111339340Y-87481055D01*
X111353483Y-87466913D01*
X111533088Y-87646518D01*
X111518945Y-87660660D01*
X112031067Y-88172782D01*
X112255574Y-88172782D01*
X112425675Y-88002681D01*
X112462411Y-87913991D01*
X112997494Y-88449073D01*
X112997274Y-88701767D01*
X113139319Y-89045543D01*
X113402109Y-89308792D01*
X113745637Y-89451438D01*
X114117603Y-89451762D01*
X114461379Y-89309717D01*
X114586146Y-89185167D01*
X165664838Y-89185167D01*
X165806883Y-89528943D01*
X166069673Y-89792192D01*
X166413201Y-89934838D01*
X166785167Y-89935162D01*
X166906569Y-89885000D01*
X167199995Y-89885000D01*
X167200000Y-89885001D01*
X167482484Y-89828810D01*
X167538675Y-89817633D01*
X167825790Y-89625790D01*
X168667193Y-88784386D01*
X168861305Y-88747862D01*
X169075487Y-88605817D01*
X169605817Y-88075487D01*
X169740902Y-87877784D01*
X169795386Y-87626622D01*
X169747862Y-87374051D01*
X169605817Y-87159869D01*
X169040131Y-86594183D01*
X168842428Y-86459098D01*
X168722347Y-86433049D01*
X168722347Y-86430708D01*
X168625675Y-86197319D01*
X168455574Y-86027218D01*
X168231067Y-86027218D01*
X167718945Y-86539340D01*
X167733088Y-86553483D01*
X167553483Y-86733088D01*
X167539340Y-86718945D01*
X167027218Y-87231067D01*
X167027218Y-87455574D01*
X167197319Y-87625675D01*
X167286009Y-87662411D01*
X166854957Y-88093464D01*
X166786799Y-88065162D01*
X166414833Y-88064838D01*
X166071057Y-88206883D01*
X165807808Y-88469673D01*
X165665162Y-88813201D01*
X165664838Y-89185167D01*
X114586146Y-89185167D01*
X114724628Y-89046927D01*
X114867274Y-88703399D01*
X114867598Y-88331433D01*
X114817436Y-88210031D01*
X114817436Y-88132441D01*
X114817437Y-88132436D01*
X114750069Y-87793762D01*
X114750069Y-87793761D01*
X114558226Y-87506646D01*
X114558223Y-87506644D01*
X113584386Y-86532807D01*
X113547862Y-86338695D01*
X113405817Y-86124513D01*
X112875487Y-85594183D01*
X112677784Y-85459098D01*
X112426622Y-85404614D01*
X112174051Y-85452138D01*
X111959869Y-85594183D01*
X111394183Y-86159869D01*
X111259098Y-86357572D01*
X111233049Y-86477653D01*
X111230708Y-86477653D01*
X110997319Y-86574325D01*
X110827218Y-86744426D01*
X95719974Y-86744426D01*
X95734699Y-86738327D01*
X95913327Y-86559698D01*
X96010000Y-86326309D01*
X96010000Y-86085750D01*
X95851250Y-85927000D01*
X95127000Y-85927000D01*
X94873000Y-85927000D01*
X94148750Y-85927000D01*
X93990000Y-86085750D01*
X90710000Y-86085750D01*
X90710000Y-83900000D01*
X93977560Y-83900000D01*
X93977560Y-84700000D01*
X94021838Y-84935317D01*
X94088329Y-85038646D01*
X94086673Y-85040302D01*
X93990000Y-85273691D01*
X93990000Y-85514250D01*
X94148750Y-85673000D01*
X94873000Y-85673000D01*
X94873000Y-85653000D01*
X95127000Y-85653000D01*
X95127000Y-85673000D01*
X95851250Y-85673000D01*
X96010000Y-85514250D01*
X96010000Y-85485000D01*
X97093178Y-85485000D01*
X97213201Y-85534838D01*
X97585167Y-85535162D01*
X97928943Y-85393117D01*
X98036497Y-85285750D01*
X120165000Y-85285750D01*
X120165000Y-85501310D01*
X120261673Y-85734699D01*
X120440302Y-85913327D01*
X120673691Y-86010000D01*
X120914250Y-86010000D01*
X121073000Y-85851250D01*
X121073000Y-85127000D01*
X120323750Y-85127000D01*
X120165000Y-85285750D01*
X98036497Y-85285750D01*
X98192192Y-85130327D01*
X98334838Y-84786799D01*
X98335088Y-84498690D01*
X120165000Y-84498690D01*
X120165000Y-84714250D01*
X120323750Y-84873000D01*
X121073000Y-84873000D01*
X121073000Y-84148750D01*
X121327000Y-84148750D01*
X121327000Y-84873000D01*
X121347000Y-84873000D01*
X121347000Y-85127000D01*
X121327000Y-85127000D01*
X121327000Y-85851250D01*
X121485750Y-86010000D01*
X121515000Y-86010000D01*
X121515000Y-87043180D01*
X121465162Y-87163203D01*
X121464838Y-87535169D01*
X121606883Y-87878945D01*
X121869673Y-88142194D01*
X122213201Y-88284840D01*
X122585167Y-88285164D01*
X122928943Y-88143119D01*
X123192192Y-87880329D01*
X123334838Y-87536801D01*
X123335162Y-87164835D01*
X123285000Y-87043433D01*
X123285000Y-85987630D01*
X123335317Y-85978162D01*
X123551441Y-85839090D01*
X123696431Y-85626890D01*
X123747440Y-85375000D01*
X123747440Y-85285750D01*
X132165000Y-85285750D01*
X132165000Y-85501310D01*
X132261673Y-85734699D01*
X132440302Y-85913327D01*
X132673691Y-86010000D01*
X132914250Y-86010000D01*
X133073000Y-85851250D01*
X133073000Y-85127000D01*
X132323750Y-85127000D01*
X132165000Y-85285750D01*
X123747440Y-85285750D01*
X123747440Y-84625000D01*
X123723674Y-84498690D01*
X132165000Y-84498690D01*
X132165000Y-84714250D01*
X132323750Y-84873000D01*
X133073000Y-84873000D01*
X133073000Y-84148750D01*
X133327000Y-84148750D01*
X133327000Y-84873000D01*
X133347000Y-84873000D01*
X133347000Y-85127000D01*
X133327000Y-85127000D01*
X133327000Y-85851250D01*
X133485750Y-86010000D01*
X133515000Y-86010000D01*
X133515000Y-87093178D01*
X133465162Y-87213201D01*
X133464838Y-87585167D01*
X133606883Y-87928943D01*
X133869673Y-88192192D01*
X134213201Y-88334838D01*
X134585167Y-88335162D01*
X134928943Y-88193117D01*
X135192192Y-87930327D01*
X135334838Y-87586799D01*
X135335162Y-87214833D01*
X135285000Y-87093431D01*
X135285000Y-85987630D01*
X135335317Y-85978162D01*
X135551441Y-85839090D01*
X135696431Y-85626890D01*
X135747440Y-85375000D01*
X135747440Y-85285750D01*
X144165000Y-85285750D01*
X144165000Y-85501310D01*
X144261673Y-85734699D01*
X144440302Y-85913327D01*
X144673691Y-86010000D01*
X144914250Y-86010000D01*
X145073000Y-85851250D01*
X145073000Y-85127000D01*
X144323750Y-85127000D01*
X144165000Y-85285750D01*
X135747440Y-85285750D01*
X135747440Y-84625000D01*
X135723674Y-84498690D01*
X144165000Y-84498690D01*
X144165000Y-84714250D01*
X144323750Y-84873000D01*
X145073000Y-84873000D01*
X145073000Y-84148750D01*
X145327000Y-84148750D01*
X145327000Y-84873000D01*
X145347000Y-84873000D01*
X145347000Y-85127000D01*
X145327000Y-85127000D01*
X145327000Y-85851250D01*
X145485750Y-86010000D01*
X145515000Y-86010000D01*
X145515000Y-87093178D01*
X145465162Y-87213201D01*
X145464838Y-87585167D01*
X145606883Y-87928943D01*
X145869673Y-88192192D01*
X146213201Y-88334838D01*
X146585167Y-88335162D01*
X146928943Y-88193117D01*
X147192192Y-87930327D01*
X147334838Y-87586799D01*
X147335162Y-87214833D01*
X147285000Y-87093431D01*
X147285000Y-85987630D01*
X147335317Y-85978162D01*
X147551441Y-85839090D01*
X147696431Y-85626890D01*
X147747440Y-85375000D01*
X147747440Y-85285750D01*
X156165000Y-85285750D01*
X156165000Y-85501310D01*
X156261673Y-85734699D01*
X156440302Y-85913327D01*
X156673691Y-86010000D01*
X156914250Y-86010000D01*
X157073000Y-85851250D01*
X157073000Y-85127000D01*
X156323750Y-85127000D01*
X156165000Y-85285750D01*
X147747440Y-85285750D01*
X147747440Y-84625000D01*
X147723674Y-84498690D01*
X156165000Y-84498690D01*
X156165000Y-84714250D01*
X156323750Y-84873000D01*
X157073000Y-84873000D01*
X157073000Y-84148750D01*
X157327000Y-84148750D01*
X157327000Y-84873000D01*
X157347000Y-84873000D01*
X157347000Y-85127000D01*
X157327000Y-85127000D01*
X157327000Y-85851250D01*
X157485750Y-86010000D01*
X157515000Y-86010000D01*
X157515000Y-87093178D01*
X157465162Y-87213201D01*
X157464838Y-87585167D01*
X157606883Y-87928943D01*
X157869673Y-88192192D01*
X158213201Y-88334838D01*
X158585167Y-88335162D01*
X158928943Y-88193117D01*
X159192192Y-87930327D01*
X159334838Y-87586799D01*
X159335162Y-87214833D01*
X159285000Y-87093431D01*
X159285000Y-86395353D01*
X166356332Y-86395353D01*
X166356333Y-86647972D01*
X166453005Y-86881361D01*
X166623106Y-87051462D01*
X166847613Y-87051462D01*
X167359735Y-86539340D01*
X166829935Y-86009540D01*
X166605429Y-86009540D01*
X166453005Y-86161964D01*
X166356332Y-86395353D01*
X159285000Y-86395353D01*
X159285000Y-85987630D01*
X159335317Y-85978162D01*
X159551441Y-85839090D01*
X159696431Y-85626890D01*
X159700776Y-85605429D01*
X167009540Y-85605429D01*
X167009540Y-85829935D01*
X167539340Y-86359735D01*
X168051462Y-85847613D01*
X168051462Y-85623106D01*
X167881361Y-85453005D01*
X167647972Y-85356333D01*
X167395353Y-85356332D01*
X167161964Y-85453005D01*
X167009540Y-85605429D01*
X159700776Y-85605429D01*
X159747440Y-85375000D01*
X159747440Y-84625000D01*
X159703162Y-84389683D01*
X159564090Y-84173559D01*
X159351890Y-84028569D01*
X159100000Y-83977560D01*
X158300000Y-83977560D01*
X158064683Y-84021838D01*
X157961354Y-84088329D01*
X157959698Y-84086673D01*
X157726309Y-83990000D01*
X157485750Y-83990000D01*
X157327000Y-84148750D01*
X157073000Y-84148750D01*
X156914250Y-83990000D01*
X156673691Y-83990000D01*
X156440302Y-84086673D01*
X156261673Y-84265301D01*
X156165000Y-84498690D01*
X147723674Y-84498690D01*
X147703162Y-84389683D01*
X147564090Y-84173559D01*
X147351890Y-84028569D01*
X147100000Y-83977560D01*
X146300000Y-83977560D01*
X146064683Y-84021838D01*
X145961354Y-84088329D01*
X145959698Y-84086673D01*
X145726309Y-83990000D01*
X145485750Y-83990000D01*
X145327000Y-84148750D01*
X145073000Y-84148750D01*
X144914250Y-83990000D01*
X144673691Y-83990000D01*
X144440302Y-84086673D01*
X144261673Y-84265301D01*
X144165000Y-84498690D01*
X135723674Y-84498690D01*
X135703162Y-84389683D01*
X135564090Y-84173559D01*
X135351890Y-84028569D01*
X135100000Y-83977560D01*
X134300000Y-83977560D01*
X134064683Y-84021838D01*
X133961354Y-84088329D01*
X133959698Y-84086673D01*
X133726309Y-83990000D01*
X133485750Y-83990000D01*
X133327000Y-84148750D01*
X133073000Y-84148750D01*
X132914250Y-83990000D01*
X132673691Y-83990000D01*
X132440302Y-84086673D01*
X132261673Y-84265301D01*
X132165000Y-84498690D01*
X123723674Y-84498690D01*
X123703162Y-84389683D01*
X123564090Y-84173559D01*
X123351890Y-84028569D01*
X123100000Y-83977560D01*
X122300000Y-83977560D01*
X122064683Y-84021838D01*
X121961354Y-84088329D01*
X121959698Y-84086673D01*
X121726309Y-83990000D01*
X121485750Y-83990000D01*
X121327000Y-84148750D01*
X121073000Y-84148750D01*
X120914250Y-83990000D01*
X120673691Y-83990000D01*
X120440302Y-84086673D01*
X120261673Y-84265301D01*
X120165000Y-84498690D01*
X98335088Y-84498690D01*
X98335162Y-84414833D01*
X98193117Y-84071057D01*
X97930327Y-83807808D01*
X97586799Y-83665162D01*
X97214833Y-83664838D01*
X97093431Y-83715000D01*
X95987630Y-83715000D01*
X95978162Y-83664683D01*
X95839090Y-83448559D01*
X95626890Y-83303569D01*
X95375000Y-83252560D01*
X94625000Y-83252560D01*
X94389683Y-83296838D01*
X94173559Y-83435910D01*
X94028569Y-83648110D01*
X93977560Y-83900000D01*
X90710000Y-83900000D01*
X90710000Y-80442619D01*
X101764613Y-80442619D01*
X102104155Y-81264372D01*
X102732321Y-81893636D01*
X103553481Y-82234611D01*
X104442619Y-82235387D01*
X105264372Y-81895845D01*
X105893636Y-81267679D01*
X106234611Y-80446519D01*
X106235387Y-79557381D01*
X105895845Y-78735628D01*
X105267679Y-78106364D01*
X104446519Y-77765389D01*
X103557381Y-77764613D01*
X102735628Y-78104155D01*
X102106364Y-78732321D01*
X101765389Y-79553481D01*
X101764613Y-80442619D01*
X90710000Y-80442619D01*
X90710000Y-76442619D01*
X177764613Y-76442619D01*
X178104155Y-77264372D01*
X178732321Y-77893636D01*
X179553481Y-78234611D01*
X180442619Y-78235387D01*
X181264372Y-77895845D01*
X181893636Y-77267679D01*
X182234611Y-76446519D01*
X182235387Y-75557381D01*
X181895845Y-74735628D01*
X181267679Y-74106364D01*
X180446519Y-73765389D01*
X179557381Y-73764613D01*
X178735628Y-74104155D01*
X178106364Y-74732321D01*
X177765389Y-75553481D01*
X177764613Y-76442619D01*
X90710000Y-76442619D01*
X90710000Y-75175167D01*
X92464838Y-75175167D01*
X92606883Y-75518943D01*
X92869673Y-75782192D01*
X93213201Y-75924838D01*
X93585167Y-75925162D01*
X93682367Y-75885000D01*
X169693178Y-75885000D01*
X169813201Y-75934838D01*
X170185167Y-75935162D01*
X170528943Y-75793117D01*
X170792192Y-75530327D01*
X170934838Y-75186799D01*
X170935162Y-74814833D01*
X170793117Y-74471057D01*
X170530327Y-74207808D01*
X170186799Y-74065162D01*
X169814833Y-74064838D01*
X169693431Y-74115000D01*
X93730904Y-74115000D01*
X93586799Y-74055162D01*
X93214833Y-74054838D01*
X92871057Y-74196883D01*
X92607808Y-74459673D01*
X92465162Y-74803201D01*
X92464838Y-75175167D01*
X90710000Y-75175167D01*
X90710000Y-72885167D01*
X93164838Y-72885167D01*
X93306883Y-73228943D01*
X93569673Y-73492192D01*
X93913201Y-73634838D01*
X94285167Y-73635162D01*
X94333963Y-73615000D01*
X99453178Y-73615000D01*
X99573201Y-73664838D01*
X99945167Y-73665162D01*
X100288943Y-73523117D01*
X100552192Y-73260327D01*
X100694838Y-72916799D01*
X100695162Y-72544833D01*
X100553117Y-72201057D01*
X100290327Y-71937808D01*
X99946799Y-71795162D01*
X99574833Y-71794838D01*
X99453431Y-71845000D01*
X98925023Y-71845000D01*
X98956996Y-71838327D01*
X99445986Y-71571191D01*
X99795525Y-71137262D01*
X99800246Y-71121170D01*
X100064211Y-71516222D01*
X100525671Y-71824559D01*
X101070000Y-71932833D01*
X101614329Y-71824559D01*
X102075789Y-71516222D01*
X102340000Y-71120801D01*
X102604211Y-71516222D01*
X103065671Y-71824559D01*
X103610000Y-71932833D01*
X104154329Y-71824559D01*
X104615789Y-71516222D01*
X104880000Y-71120801D01*
X105144211Y-71516222D01*
X105605671Y-71824559D01*
X106150000Y-71932833D01*
X106694329Y-71824559D01*
X107155789Y-71516222D01*
X107420000Y-71120801D01*
X107684211Y-71516222D01*
X108145671Y-71824559D01*
X108690000Y-71932833D01*
X109234329Y-71824559D01*
X109695789Y-71516222D01*
X109960000Y-71120801D01*
X110224211Y-71516222D01*
X110685671Y-71824559D01*
X111230000Y-71932833D01*
X111774329Y-71824559D01*
X112235789Y-71516222D01*
X112500000Y-71120801D01*
X112764211Y-71516222D01*
X113225671Y-71824559D01*
X113770000Y-71932833D01*
X114314329Y-71824559D01*
X114775789Y-71516222D01*
X115040000Y-71120801D01*
X115304211Y-71516222D01*
X115765671Y-71824559D01*
X116310000Y-71932833D01*
X116854329Y-71824559D01*
X117315789Y-71516222D01*
X117580000Y-71120801D01*
X117844211Y-71516222D01*
X118305671Y-71824559D01*
X118850000Y-71932833D01*
X119394329Y-71824559D01*
X119855789Y-71516222D01*
X120120000Y-71120801D01*
X120384211Y-71516222D01*
X120845671Y-71824559D01*
X121390000Y-71932833D01*
X121934329Y-71824559D01*
X122395789Y-71516222D01*
X122660000Y-71120801D01*
X122924211Y-71516222D01*
X123385671Y-71824559D01*
X123930000Y-71932833D01*
X124474329Y-71824559D01*
X124935789Y-71516222D01*
X125200000Y-71120801D01*
X125464211Y-71516222D01*
X125925671Y-71824559D01*
X126470000Y-71932833D01*
X127014329Y-71824559D01*
X127475789Y-71516222D01*
X127740000Y-71120801D01*
X128004211Y-71516222D01*
X128465671Y-71824559D01*
X129010000Y-71932833D01*
X129554329Y-71824559D01*
X130015789Y-71516222D01*
X130130503Y-71344540D01*
X130159438Y-71498317D01*
X130298510Y-71714441D01*
X130510710Y-71859431D01*
X130762600Y-71910440D01*
X132337400Y-71910440D01*
X132572717Y-71866162D01*
X132788841Y-71727090D01*
X132933831Y-71514890D01*
X132984840Y-71263000D01*
X132984840Y-68977000D01*
X132940562Y-68741683D01*
X132801490Y-68525559D01*
X132589290Y-68380569D01*
X132337400Y-68329560D01*
X130762600Y-68329560D01*
X130527283Y-68373838D01*
X130311159Y-68512910D01*
X130166169Y-68725110D01*
X130131400Y-68896803D01*
X130015789Y-68723778D01*
X129554329Y-68415441D01*
X129010000Y-68307167D01*
X128465671Y-68415441D01*
X128004211Y-68723778D01*
X127740000Y-69119199D01*
X127475789Y-68723778D01*
X127014329Y-68415441D01*
X126470000Y-68307167D01*
X125925671Y-68415441D01*
X125464211Y-68723778D01*
X125200000Y-69119199D01*
X124935789Y-68723778D01*
X124474329Y-68415441D01*
X123930000Y-68307167D01*
X123385671Y-68415441D01*
X122924211Y-68723778D01*
X122660000Y-69119199D01*
X122395789Y-68723778D01*
X121934329Y-68415441D01*
X121390000Y-68307167D01*
X120845671Y-68415441D01*
X120384211Y-68723778D01*
X120120000Y-69119199D01*
X119855789Y-68723778D01*
X119394329Y-68415441D01*
X118850000Y-68307167D01*
X118305671Y-68415441D01*
X117844211Y-68723778D01*
X117580000Y-69119199D01*
X117315789Y-68723778D01*
X116854329Y-68415441D01*
X116310000Y-68307167D01*
X115765671Y-68415441D01*
X115304211Y-68723778D01*
X115040000Y-69119199D01*
X114775789Y-68723778D01*
X114314329Y-68415441D01*
X113770000Y-68307167D01*
X113225671Y-68415441D01*
X112764211Y-68723778D01*
X112500000Y-69119199D01*
X112235789Y-68723778D01*
X111774329Y-68415441D01*
X111230000Y-68307167D01*
X110685671Y-68415441D01*
X110224211Y-68723778D01*
X109960000Y-69119199D01*
X109695789Y-68723778D01*
X109234329Y-68415441D01*
X108690000Y-68307167D01*
X108145671Y-68415441D01*
X107684211Y-68723778D01*
X107420000Y-69119199D01*
X107155789Y-68723778D01*
X106694329Y-68415441D01*
X106150000Y-68307167D01*
X105605671Y-68415441D01*
X105144211Y-68723778D01*
X104880000Y-69119199D01*
X104615789Y-68723778D01*
X104154329Y-68415441D01*
X103610000Y-68307167D01*
X103065671Y-68415441D01*
X102604211Y-68723778D01*
X102340000Y-69119199D01*
X102075789Y-68723778D01*
X101614329Y-68415441D01*
X101070000Y-68307167D01*
X100525671Y-68415441D01*
X100064211Y-68723778D01*
X99800246Y-69118830D01*
X99795525Y-69102738D01*
X99445986Y-68668809D01*
X98956996Y-68401673D01*
X98877060Y-68384990D01*
X98657000Y-68507148D01*
X98657000Y-69993000D01*
X98677000Y-69993000D01*
X98677000Y-70247000D01*
X98657000Y-70247000D01*
X98657000Y-70267000D01*
X98403000Y-70267000D01*
X98403000Y-70247000D01*
X98383000Y-70247000D01*
X98383000Y-69993000D01*
X98403000Y-69993000D01*
X98403000Y-68507148D01*
X98182940Y-68384990D01*
X98103004Y-68401673D01*
X97614014Y-68668809D01*
X97264475Y-69102738D01*
X97259754Y-69118830D01*
X96995789Y-68723778D01*
X96534329Y-68415441D01*
X95990000Y-68307167D01*
X95445671Y-68415441D01*
X94984211Y-68723778D01*
X94675874Y-69185238D01*
X94567600Y-69729567D01*
X94567600Y-70510433D01*
X94675874Y-71054762D01*
X94984211Y-71516222D01*
X95445671Y-71824559D01*
X95548435Y-71845000D01*
X94479069Y-71845000D01*
X94286799Y-71765162D01*
X93914833Y-71764838D01*
X93571057Y-71906883D01*
X93307808Y-72169673D01*
X93165162Y-72513201D01*
X93164838Y-72885167D01*
X90710000Y-72885167D01*
X90710000Y-61442619D01*
X103764613Y-61442619D01*
X104104155Y-62264372D01*
X104732321Y-62893636D01*
X105553481Y-63234611D01*
X106442619Y-63235387D01*
X107264372Y-62895845D01*
X107893636Y-62267679D01*
X108234611Y-61446519D01*
X108235387Y-60557381D01*
X107895845Y-59735628D01*
X107267679Y-59106364D01*
X106446519Y-58765389D01*
X105557381Y-58764613D01*
X104735628Y-59104155D01*
X104106364Y-59732321D01*
X103765389Y-60553481D01*
X103764613Y-61442619D01*
X90710000Y-61442619D01*
X90710000Y-57185167D01*
X93174838Y-57185167D01*
X93316883Y-57528943D01*
X93579673Y-57792192D01*
X93923201Y-57934838D01*
X94295167Y-57935162D01*
X94416569Y-57885000D01*
X106925595Y-57885000D01*
X106925600Y-57885001D01*
X107208084Y-57828810D01*
X107264275Y-57817633D01*
X107551390Y-57625790D01*
X108518467Y-56658713D01*
X108690000Y-56692833D01*
X109234329Y-56584559D01*
X109695789Y-56276222D01*
X109960000Y-55880801D01*
X110224211Y-56276222D01*
X110685671Y-56584559D01*
X111230000Y-56692833D01*
X111774329Y-56584559D01*
X112235789Y-56276222D01*
X112500000Y-55880801D01*
X112764211Y-56276222D01*
X113225671Y-56584559D01*
X113770000Y-56692833D01*
X114314329Y-56584559D01*
X114775789Y-56276222D01*
X115040000Y-55880801D01*
X115304211Y-56276222D01*
X115765671Y-56584559D01*
X116310000Y-56692833D01*
X116854329Y-56584559D01*
X117315789Y-56276222D01*
X117580000Y-55880801D01*
X117844211Y-56276222D01*
X118305671Y-56584559D01*
X118850000Y-56692833D01*
X119394329Y-56584559D01*
X119855789Y-56276222D01*
X120120000Y-55880801D01*
X120384211Y-56276222D01*
X120845671Y-56584559D01*
X121390000Y-56692833D01*
X121934329Y-56584559D01*
X122395789Y-56276222D01*
X122660000Y-55880801D01*
X122924211Y-56276222D01*
X123385671Y-56584559D01*
X123930000Y-56692833D01*
X124474329Y-56584559D01*
X124935789Y-56276222D01*
X125200000Y-55880801D01*
X125464211Y-56276222D01*
X125925671Y-56584559D01*
X126470000Y-56692833D01*
X127014329Y-56584559D01*
X127475789Y-56276222D01*
X127740000Y-55880801D01*
X128004211Y-56276222D01*
X128465671Y-56584559D01*
X129010000Y-56692833D01*
X129554329Y-56584559D01*
X130015789Y-56276222D01*
X130280000Y-55880801D01*
X130544211Y-56276222D01*
X131005671Y-56584559D01*
X131550000Y-56692833D01*
X132094329Y-56584559D01*
X132555789Y-56276222D01*
X132864126Y-55814762D01*
X132972400Y-55270433D01*
X132972400Y-54489567D01*
X132864126Y-53945238D01*
X132555789Y-53483778D01*
X132094329Y-53175441D01*
X131550000Y-53067167D01*
X131005671Y-53175441D01*
X130544211Y-53483778D01*
X130280000Y-53879199D01*
X130015789Y-53483778D01*
X129554329Y-53175441D01*
X129010000Y-53067167D01*
X128465671Y-53175441D01*
X128004211Y-53483778D01*
X127740000Y-53879199D01*
X127475789Y-53483778D01*
X127014329Y-53175441D01*
X126470000Y-53067167D01*
X125925671Y-53175441D01*
X125464211Y-53483778D01*
X125200000Y-53879199D01*
X124935789Y-53483778D01*
X124474329Y-53175441D01*
X123930000Y-53067167D01*
X123385671Y-53175441D01*
X122924211Y-53483778D01*
X122660000Y-53879199D01*
X122395789Y-53483778D01*
X121934329Y-53175441D01*
X121390000Y-53067167D01*
X120845671Y-53175441D01*
X120384211Y-53483778D01*
X120120000Y-53879199D01*
X119855789Y-53483778D01*
X119394329Y-53175441D01*
X118850000Y-53067167D01*
X118305671Y-53175441D01*
X117844211Y-53483778D01*
X117580000Y-53879199D01*
X117315789Y-53483778D01*
X116854329Y-53175441D01*
X116310000Y-53067167D01*
X115765671Y-53175441D01*
X115304211Y-53483778D01*
X115040000Y-53879199D01*
X114775789Y-53483778D01*
X114314329Y-53175441D01*
X113770000Y-53067167D01*
X113225671Y-53175441D01*
X112764211Y-53483778D01*
X112500000Y-53879199D01*
X112235789Y-53483778D01*
X111774329Y-53175441D01*
X111230000Y-53067167D01*
X110685671Y-53175441D01*
X110224211Y-53483778D01*
X109960000Y-53879199D01*
X109695789Y-53483778D01*
X109234329Y-53175441D01*
X108690000Y-53067167D01*
X108145671Y-53175441D01*
X107684211Y-53483778D01*
X107420000Y-53879199D01*
X107155789Y-53483778D01*
X106694329Y-53175441D01*
X106150000Y-53067167D01*
X105605671Y-53175441D01*
X105144211Y-53483778D01*
X104880246Y-53878830D01*
X104875525Y-53862738D01*
X104525986Y-53428809D01*
X104036996Y-53161673D01*
X103957060Y-53144990D01*
X103737000Y-53267148D01*
X103737000Y-54753000D01*
X103757000Y-54753000D01*
X103757000Y-55007000D01*
X103737000Y-55007000D01*
X103737000Y-55027000D01*
X103483000Y-55027000D01*
X103483000Y-55007000D01*
X103463000Y-55007000D01*
X103463000Y-54753000D01*
X103483000Y-54753000D01*
X103483000Y-53267148D01*
X103262940Y-53144990D01*
X103183004Y-53161673D01*
X102694014Y-53428809D01*
X102344475Y-53862738D01*
X102339754Y-53878830D01*
X102075789Y-53483778D01*
X101614329Y-53175441D01*
X101070000Y-53067167D01*
X100525671Y-53175441D01*
X100064211Y-53483778D01*
X99800000Y-53879199D01*
X99535789Y-53483778D01*
X99074329Y-53175441D01*
X98530000Y-53067167D01*
X97985671Y-53175441D01*
X97524211Y-53483778D01*
X97260000Y-53879199D01*
X96995789Y-53483778D01*
X96534329Y-53175441D01*
X95990000Y-53067167D01*
X95445671Y-53175441D01*
X94984211Y-53483778D01*
X94675874Y-53945238D01*
X94567600Y-54489567D01*
X94567600Y-55270433D01*
X94675874Y-55814762D01*
X94876486Y-56115000D01*
X94416822Y-56115000D01*
X94296799Y-56065162D01*
X93924833Y-56064838D01*
X93581057Y-56206883D01*
X93317808Y-56469673D01*
X93175162Y-56813201D01*
X93174838Y-57185167D01*
X90710000Y-57185167D01*
X90710000Y-55294092D01*
X95294092Y-50710000D01*
X184705908Y-50710000D01*
X189290000Y-55294092D01*
X189290000Y-55294092D01*
G37*
X189290000Y-55294092D02*
X189290000Y-144705908D01*
X184705908Y-149290000D01*
X95294092Y-149290000D01*
X91823436Y-145819344D01*
X97952363Y-145819344D01*
X98029133Y-146067688D01*
X98439159Y-146237537D01*
X99017959Y-146264387D01*
X99562975Y-146067696D01*
X99640209Y-145819814D01*
X98796051Y-144975656D01*
X97952363Y-145819344D01*
X91823436Y-145819344D01*
X90710000Y-144705908D01*
X90710000Y-141195005D01*
X93354489Y-141195005D01*
X93402013Y-141447576D01*
X93544058Y-141661758D01*
X94746140Y-142863840D01*
X94943843Y-142998925D01*
X95195005Y-143053409D01*
X95447576Y-143005885D01*
X95504912Y-142967860D01*
X95494427Y-143020572D01*
X95607467Y-143588857D01*
X95929374Y-144070626D01*
X96411143Y-144392533D01*
X96979428Y-144505573D01*
X97381311Y-144425633D01*
X97327715Y-144574143D01*
X97354565Y-145152943D01*
X97524414Y-145562969D01*
X97772758Y-145639739D01*
X98616446Y-144796051D01*
X98975656Y-144796051D01*
X99819814Y-145640209D01*
X100067696Y-145562975D01*
X100264387Y-145017959D01*
X100237537Y-144439159D01*
X100176465Y-144291727D01*
X112087878Y-144291727D01*
X112087878Y-144516234D01*
X112257979Y-144686335D01*
X112491368Y-144783007D01*
X112743987Y-144783008D01*
X112977376Y-144686335D01*
X113038711Y-144625000D01*
X120252560Y-144625000D01*
X120252560Y-145375000D01*
X120296838Y-145610317D01*
X120435910Y-145826441D01*
X120648110Y-145971431D01*
X120900000Y-146022440D01*
X121700000Y-146022440D01*
X121935317Y-145978162D01*
X122038646Y-145911671D01*
X122040302Y-145913327D01*
X122273691Y-146010000D01*
X122514250Y-146010000D01*
X122673000Y-145851250D01*
X122673000Y-145127000D01*
X122927000Y-145127000D01*
X122927000Y-145851250D01*
X123085750Y-146010000D01*
X123326309Y-146010000D01*
X123559698Y-145913327D01*
X123738327Y-145734699D01*
X123835000Y-145501310D01*
X123835000Y-145285750D01*
X123676250Y-145127000D01*
X122927000Y-145127000D01*
X122673000Y-145127000D01*
X122653000Y-145127000D01*
X122653000Y-144873000D01*
X122673000Y-144873000D01*
X122673000Y-144148750D01*
X122927000Y-144148750D01*
X122927000Y-144873000D01*
X123676250Y-144873000D01*
X123835000Y-144714250D01*
X123835000Y-144625000D01*
X132252560Y-144625000D01*
X132252560Y-145375000D01*
X132296838Y-145610317D01*
X132435910Y-145826441D01*
X132648110Y-145971431D01*
X132900000Y-146022440D01*
X133700000Y-146022440D01*
X133935317Y-145978162D01*
X134038646Y-145911671D01*
X134040302Y-145913327D01*
X134273691Y-146010000D01*
X134514250Y-146010000D01*
X134673000Y-145851250D01*
X134673000Y-145127000D01*
X134927000Y-145127000D01*
X134927000Y-145851250D01*
X135085750Y-146010000D01*
X135326309Y-146010000D01*
X135559698Y-145913327D01*
X135738327Y-145734699D01*
X135835000Y-145501310D01*
X135835000Y-145285750D01*
X135676250Y-145127000D01*
X134927000Y-145127000D01*
X134673000Y-145127000D01*
X134653000Y-145127000D01*
X134653000Y-144873000D01*
X134673000Y-144873000D01*
X134673000Y-144148750D01*
X134927000Y-144148750D01*
X134927000Y-144873000D01*
X135676250Y-144873000D01*
X135835000Y-144714250D01*
X135835000Y-144625000D01*
X144252560Y-144625000D01*
X144252560Y-145375000D01*
X144296838Y-145610317D01*
X144435910Y-145826441D01*
X144648110Y-145971431D01*
X144900000Y-146022440D01*
X145700000Y-146022440D01*
X145935317Y-145978162D01*
X146038646Y-145911671D01*
X146040302Y-145913327D01*
X146273691Y-146010000D01*
X146514250Y-146010000D01*
X146673000Y-145851250D01*
X146673000Y-145127000D01*
X146927000Y-145127000D01*
X146927000Y-145851250D01*
X147085750Y-146010000D01*
X147326309Y-146010000D01*
X147559698Y-145913327D01*
X147738327Y-145734699D01*
X147835000Y-145501310D01*
X147835000Y-145285750D01*
X147676250Y-145127000D01*
X146927000Y-145127000D01*
X146673000Y-145127000D01*
X146653000Y-145127000D01*
X146653000Y-144873000D01*
X146673000Y-144873000D01*
X146673000Y-144148750D01*
X146927000Y-144148750D01*
X146927000Y-144873000D01*
X147676250Y-144873000D01*
X147835000Y-144714250D01*
X147835000Y-144625000D01*
X156252560Y-144625000D01*
X156252560Y-145375000D01*
X156296838Y-145610317D01*
X156435910Y-145826441D01*
X156648110Y-145971431D01*
X156900000Y-146022440D01*
X157700000Y-146022440D01*
X157935317Y-145978162D01*
X158038646Y-145911671D01*
X158040302Y-145913327D01*
X158273691Y-146010000D01*
X158514250Y-146010000D01*
X158673000Y-145851250D01*
X158673000Y-145127000D01*
X158927000Y-145127000D01*
X158927000Y-145851250D01*
X159085750Y-146010000D01*
X159326309Y-146010000D01*
X159559698Y-145913327D01*
X159738327Y-145734699D01*
X159835000Y-145501310D01*
X159835000Y-145285750D01*
X159676250Y-145127000D01*
X158927000Y-145127000D01*
X158673000Y-145127000D01*
X158653000Y-145127000D01*
X158653000Y-144873000D01*
X158673000Y-144873000D01*
X158673000Y-144148750D01*
X158927000Y-144148750D01*
X158927000Y-144873000D01*
X159676250Y-144873000D01*
X159835000Y-144714250D01*
X159835000Y-144498690D01*
X159738327Y-144265301D01*
X159559698Y-144086673D01*
X159326309Y-143990000D01*
X159085750Y-143990000D01*
X158927000Y-144148750D01*
X158673000Y-144148750D01*
X158514250Y-143990000D01*
X158485000Y-143990000D01*
X158485000Y-142906822D01*
X158534838Y-142786799D01*
X158535162Y-142414833D01*
X158393117Y-142071057D01*
X158130327Y-141807808D01*
X158075802Y-141785167D01*
X165064838Y-141785167D01*
X165115000Y-141906569D01*
X165115000Y-142199995D01*
X165114999Y-142200000D01*
X165158163Y-142416993D01*
X165182367Y-142538675D01*
X165313966Y-142735628D01*
X165374210Y-142825790D01*
X166215614Y-143667193D01*
X166252138Y-143861305D01*
X166394183Y-144075487D01*
X166924513Y-144605817D01*
X167122216Y-144740902D01*
X167373378Y-144795386D01*
X167625949Y-144747862D01*
X167840131Y-144605817D01*
X168003329Y-144442619D01*
X177764613Y-144442619D01*
X178104155Y-145264372D01*
X178732321Y-145893636D01*
X179553481Y-146234611D01*
X180442619Y-146235387D01*
X181264372Y-145895845D01*
X181893636Y-145267679D01*
X182234611Y-144446519D01*
X182235387Y-143557381D01*
X181895845Y-142735628D01*
X181267679Y-142106364D01*
X180446519Y-141765389D01*
X179557381Y-141764613D01*
X178735628Y-142104155D01*
X178106364Y-142732321D01*
X177765389Y-143553481D01*
X177764613Y-144442619D01*
X168003329Y-144442619D01*
X168405817Y-144040131D01*
X168540902Y-143842428D01*
X168566951Y-143722347D01*
X168569292Y-143722347D01*
X168802681Y-143625675D01*
X168972782Y-143455574D01*
X168972782Y-143231067D01*
X168460660Y-142718945D01*
X168446518Y-142733088D01*
X168266913Y-142553483D01*
X168281055Y-142539340D01*
X168640265Y-142539340D01*
X169152387Y-143051462D01*
X169376894Y-143051462D01*
X169546995Y-142881361D01*
X169643667Y-142647972D01*
X169643668Y-142395353D01*
X169546995Y-142161964D01*
X169394571Y-142009540D01*
X169170065Y-142009540D01*
X168640265Y-142539340D01*
X168281055Y-142539340D01*
X167768933Y-142027218D01*
X167544426Y-142027218D01*
X167374325Y-142197319D01*
X167337589Y-142286009D01*
X166906536Y-141854957D01*
X166934838Y-141786799D01*
X166934980Y-141623106D01*
X167948538Y-141623106D01*
X167948538Y-141847613D01*
X168460660Y-142359735D01*
X168990460Y-141829935D01*
X168990460Y-141605429D01*
X168838036Y-141453005D01*
X168604647Y-141356332D01*
X168352028Y-141356333D01*
X168118639Y-141453005D01*
X167948538Y-141623106D01*
X166934980Y-141623106D01*
X166935162Y-141414833D01*
X166793117Y-141071057D01*
X166530327Y-140807808D01*
X166186799Y-140665162D01*
X165814833Y-140664838D01*
X165471057Y-140806883D01*
X165207808Y-141069673D01*
X165065162Y-141413201D01*
X165064838Y-141785167D01*
X158075802Y-141785167D01*
X157786799Y-141665162D01*
X157414833Y-141664838D01*
X157071057Y-141806883D01*
X156807808Y-142069673D01*
X156665162Y-142413201D01*
X156664838Y-142785167D01*
X156715000Y-142906569D01*
X156715000Y-144012370D01*
X156664683Y-144021838D01*
X156448559Y-144160910D01*
X156303569Y-144373110D01*
X156252560Y-144625000D01*
X147835000Y-144625000D01*
X147835000Y-144498690D01*
X147738327Y-144265301D01*
X147559698Y-144086673D01*
X147326309Y-143990000D01*
X147085750Y-143990000D01*
X146927000Y-144148750D01*
X146673000Y-144148750D01*
X146514250Y-143990000D01*
X146485000Y-143990000D01*
X146485000Y-142906822D01*
X146534838Y-142786799D01*
X146535162Y-142414833D01*
X146393117Y-142071057D01*
X146130327Y-141807808D01*
X145786799Y-141665162D01*
X145414833Y-141664838D01*
X145071057Y-141806883D01*
X144807808Y-142069673D01*
X144665162Y-142413201D01*
X144664838Y-142785167D01*
X144715000Y-142906569D01*
X144715000Y-144012370D01*
X144664683Y-144021838D01*
X144448559Y-144160910D01*
X144303569Y-144373110D01*
X144252560Y-144625000D01*
X135835000Y-144625000D01*
X135835000Y-144498690D01*
X135738327Y-144265301D01*
X135559698Y-144086673D01*
X135326309Y-143990000D01*
X135085750Y-143990000D01*
X134927000Y-144148750D01*
X134673000Y-144148750D01*
X134514250Y-143990000D01*
X134485000Y-143990000D01*
X134485000Y-142906822D01*
X134534838Y-142786799D01*
X134535162Y-142414833D01*
X134393117Y-142071057D01*
X134130327Y-141807808D01*
X133786799Y-141665162D01*
X133414833Y-141664838D01*
X133071057Y-141806883D01*
X132807808Y-142069673D01*
X132665162Y-142413201D01*
X132664838Y-142785167D01*
X132715000Y-142906569D01*
X132715000Y-144012370D01*
X132664683Y-144021838D01*
X132448559Y-144160910D01*
X132303569Y-144373110D01*
X132252560Y-144625000D01*
X123835000Y-144625000D01*
X123835000Y-144498690D01*
X123738327Y-144265301D01*
X123559698Y-144086673D01*
X123326309Y-143990000D01*
X123085750Y-143990000D01*
X122927000Y-144148750D01*
X122673000Y-144148750D01*
X122514250Y-143990000D01*
X122485000Y-143990000D01*
X122485000Y-142906822D01*
X122534838Y-142786799D01*
X122535162Y-142414833D01*
X122393117Y-142071057D01*
X122130327Y-141807808D01*
X121786799Y-141665162D01*
X121414833Y-141664838D01*
X121071057Y-141806883D01*
X120807808Y-142069673D01*
X120665162Y-142413201D01*
X120664838Y-142785167D01*
X120715000Y-142906569D01*
X120715000Y-144012370D01*
X120664683Y-144021838D01*
X120448559Y-144160910D01*
X120303569Y-144373110D01*
X120252560Y-144625000D01*
X113038711Y-144625000D01*
X113129800Y-144533911D01*
X113129800Y-144309405D01*
X112600000Y-143779605D01*
X112087878Y-144291727D01*
X100176465Y-144291727D01*
X100067688Y-144029133D01*
X99819344Y-143952363D01*
X98975656Y-144796051D01*
X98616446Y-144796051D01*
X98602304Y-144781909D01*
X98781909Y-144602304D01*
X98796051Y-144616446D01*
X99639739Y-143772758D01*
X99562969Y-143524414D01*
X99152943Y-143354565D01*
X98574143Y-143327715D01*
X98425632Y-143381311D01*
X98505572Y-142979428D01*
X98412738Y-142512718D01*
X110343954Y-142512718D01*
X110391478Y-142765289D01*
X110533523Y-142979471D01*
X111099209Y-143545157D01*
X111296912Y-143680242D01*
X111416993Y-143706291D01*
X111416993Y-143708632D01*
X111513665Y-143942021D01*
X111683766Y-144112122D01*
X111908273Y-144112122D01*
X112420395Y-143600000D01*
X112779605Y-143600000D01*
X113309405Y-144129800D01*
X113533911Y-144129800D01*
X113686335Y-143977376D01*
X113783008Y-143743987D01*
X113783007Y-143491368D01*
X113686335Y-143257979D01*
X113516234Y-143087878D01*
X113291727Y-143087878D01*
X112779605Y-143600000D01*
X112420395Y-143600000D01*
X112406253Y-143585858D01*
X112585858Y-143406253D01*
X112600000Y-143420395D01*
X113112122Y-142908273D01*
X113112122Y-142683766D01*
X112942021Y-142513665D01*
X112853331Y-142476929D01*
X113395263Y-141934997D01*
X113585167Y-141935162D01*
X113928943Y-141793117D01*
X114192192Y-141530327D01*
X114334838Y-141186799D01*
X114335162Y-140814833D01*
X114193117Y-140471057D01*
X113930327Y-140207808D01*
X113586799Y-140065162D01*
X113214833Y-140064838D01*
X113093431Y-140115000D01*
X113078685Y-140115000D01*
X113078680Y-140114999D01*
X112740006Y-140182366D01*
X112644734Y-140246025D01*
X112452890Y-140374210D01*
X112452888Y-140374213D01*
X111472147Y-141354954D01*
X111278035Y-141391478D01*
X111063853Y-141533523D01*
X110533523Y-142063853D01*
X110398438Y-142261556D01*
X110343954Y-142512718D01*
X98412738Y-142512718D01*
X98392533Y-142411144D01*
X98070625Y-141929375D01*
X97588856Y-141607467D01*
X97020572Y-141494428D01*
X96971503Y-141504188D01*
X96998925Y-141464055D01*
X97053409Y-141212893D01*
X97005885Y-140960322D01*
X96883577Y-140775901D01*
X97216858Y-140442619D01*
X99764613Y-140442619D01*
X100104155Y-141264372D01*
X100732321Y-141893636D01*
X101553481Y-142234611D01*
X102442619Y-142235387D01*
X103264372Y-141895845D01*
X103893636Y-141267679D01*
X104234611Y-140446519D01*
X104235387Y-139557381D01*
X103895845Y-138735628D01*
X103267679Y-138106364D01*
X102446519Y-137765389D01*
X101557381Y-137764613D01*
X100735628Y-138104155D01*
X100106364Y-138732321D01*
X99765389Y-139553481D01*
X99764613Y-140442619D01*
X97216858Y-140442619D01*
X98775788Y-138883689D01*
X98775791Y-138883687D01*
X98791695Y-138859885D01*
X100161424Y-137490155D01*
X100281533Y-137440527D01*
X100544782Y-137177737D01*
X100687428Y-136834209D01*
X100687752Y-136462243D01*
X100545707Y-136118467D01*
X100282917Y-135855218D01*
X99939389Y-135712572D01*
X99567423Y-135712248D01*
X99223647Y-135854293D01*
X98960398Y-136117083D01*
X98910024Y-136238397D01*
X97524211Y-137624209D01*
X97508305Y-137648014D01*
X95632352Y-139523966D01*
X95464055Y-139408973D01*
X95212893Y-139354489D01*
X94960322Y-139402013D01*
X94746140Y-139544058D01*
X93544058Y-140746140D01*
X93408973Y-140943843D01*
X93354489Y-141195005D01*
X90710000Y-141195005D01*
X90710000Y-134085750D01*
X93990000Y-134085750D01*
X93990000Y-134326309D01*
X94086673Y-134559698D01*
X94265301Y-134738327D01*
X94498690Y-134835000D01*
X94714250Y-134835000D01*
X94873000Y-134676250D01*
X94873000Y-133927000D01*
X95127000Y-133927000D01*
X95127000Y-134676250D01*
X95285750Y-134835000D01*
X95501310Y-134835000D01*
X95734699Y-134738327D01*
X95913327Y-134559698D01*
X96010000Y-134326309D01*
X96010000Y-134085750D01*
X108990000Y-134085750D01*
X108990000Y-134326309D01*
X109086673Y-134559698D01*
X109265301Y-134738327D01*
X109498690Y-134835000D01*
X109714250Y-134835000D01*
X109873000Y-134676250D01*
X109873000Y-133927000D01*
X110127000Y-133927000D01*
X110127000Y-134676250D01*
X110285750Y-134835000D01*
X110501310Y-134835000D01*
X110734699Y-134738327D01*
X110913327Y-134559698D01*
X111010000Y-134326309D01*
X111010000Y-134285750D01*
X135975000Y-134285750D01*
X135975000Y-134976309D01*
X136071673Y-135209698D01*
X136250301Y-135388327D01*
X136483690Y-135485000D01*
X137174250Y-135485000D01*
X137333000Y-135326250D01*
X137333000Y-134127000D01*
X136133750Y-134127000D01*
X135975000Y-134285750D01*
X111010000Y-134285750D01*
X111010000Y-134085750D01*
X110851250Y-133927000D01*
X110127000Y-133927000D01*
X109873000Y-133927000D01*
X109148750Y-133927000D01*
X108990000Y-134085750D01*
X96010000Y-134085750D01*
X95851250Y-133927000D01*
X95127000Y-133927000D01*
X94873000Y-133927000D01*
X94148750Y-133927000D01*
X93990000Y-134085750D01*
X90710000Y-134085750D01*
X90710000Y-131900000D01*
X93977560Y-131900000D01*
X93977560Y-132700000D01*
X94021838Y-132935317D01*
X94088329Y-133038646D01*
X94086673Y-133040302D01*
X93990000Y-133273691D01*
X93990000Y-133514250D01*
X94148750Y-133673000D01*
X94873000Y-133673000D01*
X94873000Y-133653000D01*
X95127000Y-133653000D01*
X95127000Y-133673000D01*
X95851250Y-133673000D01*
X96010000Y-133514250D01*
X96010000Y-133485000D01*
X97093178Y-133485000D01*
X97213201Y-133534838D01*
X97585167Y-133535162D01*
X97928943Y-133393117D01*
X98192192Y-133130327D01*
X98334838Y-132786799D01*
X98335162Y-132414833D01*
X98193117Y-132071057D01*
X98022359Y-131900000D01*
X108977560Y-131900000D01*
X108977560Y-132700000D01*
X109021838Y-132935317D01*
X109088329Y-133038646D01*
X109086673Y-133040302D01*
X108990000Y-133273691D01*
X108990000Y-133514250D01*
X109148750Y-133673000D01*
X109873000Y-133673000D01*
X109873000Y-133653000D01*
X110127000Y-133653000D01*
X110127000Y-133673000D01*
X110851250Y-133673000D01*
X111010000Y-133514250D01*
X111010000Y-133485000D01*
X112093178Y-133485000D01*
X112213201Y-133534838D01*
X112585167Y-133535162D01*
X112928943Y-133393117D01*
X113192192Y-133130327D01*
X113236471Y-133023691D01*
X135975000Y-133023691D01*
X135975000Y-133714250D01*
X136133750Y-133873000D01*
X137333000Y-133873000D01*
X137333000Y-132673750D01*
X137174250Y-132515000D01*
X136483690Y-132515000D01*
X136250301Y-132611673D01*
X136071673Y-132790302D01*
X135975000Y-133023691D01*
X113236471Y-133023691D01*
X113334838Y-132786799D01*
X113335162Y-132414833D01*
X113193117Y-132071057D01*
X112930327Y-131807808D01*
X112586799Y-131665162D01*
X112214833Y-131664838D01*
X112093431Y-131715000D01*
X110987630Y-131715000D01*
X110978162Y-131664683D01*
X110839090Y-131448559D01*
X110626890Y-131303569D01*
X110375000Y-131252560D01*
X109625000Y-131252560D01*
X109389683Y-131296838D01*
X109173559Y-131435910D01*
X109028569Y-131648110D01*
X108977560Y-131900000D01*
X98022359Y-131900000D01*
X97930327Y-131807808D01*
X97586799Y-131665162D01*
X97214833Y-131664838D01*
X97093431Y-131715000D01*
X95987630Y-131715000D01*
X95978162Y-131664683D01*
X95839090Y-131448559D01*
X95626890Y-131303569D01*
X95375000Y-131252560D01*
X94625000Y-131252560D01*
X94389683Y-131296838D01*
X94173559Y-131435910D01*
X94028569Y-131648110D01*
X93977560Y-131900000D01*
X90710000Y-131900000D01*
X90710000Y-93275167D01*
X98817428Y-93275167D01*
X98867590Y-93396569D01*
X98867590Y-122643178D01*
X98817752Y-122763201D01*
X98817428Y-123135167D01*
X98959473Y-123478943D01*
X99222263Y-123742192D01*
X99565791Y-123884838D01*
X99937757Y-123885162D01*
X100281533Y-123743117D01*
X100544782Y-123480327D01*
X100687428Y-123136799D01*
X100687752Y-122764833D01*
X100637590Y-122643431D01*
X100637590Y-122085750D01*
X108990000Y-122085750D01*
X108990000Y-122326309D01*
X109086673Y-122559698D01*
X109265301Y-122738327D01*
X109498690Y-122835000D01*
X109714250Y-122835000D01*
X109873000Y-122676250D01*
X109873000Y-121927000D01*
X110127000Y-121927000D01*
X110127000Y-122676250D01*
X110285750Y-122835000D01*
X110501310Y-122835000D01*
X110734699Y-122738327D01*
X110913327Y-122559698D01*
X111010000Y-122326309D01*
X111010000Y-122085750D01*
X110851250Y-121927000D01*
X110127000Y-121927000D01*
X109873000Y-121927000D01*
X109148750Y-121927000D01*
X108990000Y-122085750D01*
X100637590Y-122085750D01*
X100637590Y-119900000D01*
X108977560Y-119900000D01*
X108977560Y-120700000D01*
X109021838Y-120935317D01*
X109088329Y-121038646D01*
X109086673Y-121040302D01*
X108990000Y-121273691D01*
X108990000Y-121514250D01*
X109148750Y-121673000D01*
X109873000Y-121673000D01*
X109873000Y-121653000D01*
X110127000Y-121653000D01*
X110127000Y-121673000D01*
X110851250Y-121673000D01*
X111010000Y-121514250D01*
X111010000Y-121485000D01*
X112043180Y-121485000D01*
X112163203Y-121534838D01*
X112535169Y-121535162D01*
X112878945Y-121393117D01*
X113142194Y-121130327D01*
X113284840Y-120786799D01*
X113285164Y-120414833D01*
X113143119Y-120071057D01*
X112880329Y-119807808D01*
X112536801Y-119665162D01*
X112164835Y-119664838D01*
X112043433Y-119715000D01*
X110987630Y-119715000D01*
X110978162Y-119664683D01*
X110839090Y-119448559D01*
X110626890Y-119303569D01*
X110375000Y-119252560D01*
X109625000Y-119252560D01*
X109389683Y-119296838D01*
X109173559Y-119435910D01*
X109028569Y-119648110D01*
X108977560Y-119900000D01*
X100637590Y-119900000D01*
X100637590Y-110085750D01*
X108990000Y-110085750D01*
X108990000Y-110326309D01*
X109086673Y-110559698D01*
X109265301Y-110738327D01*
X109498690Y-110835000D01*
X109714250Y-110835000D01*
X109873000Y-110676250D01*
X109873000Y-109927000D01*
X110127000Y-109927000D01*
X110127000Y-110676250D01*
X110285750Y-110835000D01*
X110501310Y-110835000D01*
X110734699Y-110738327D01*
X110913327Y-110559698D01*
X111010000Y-110326309D01*
X111010000Y-110085750D01*
X110851250Y-109927000D01*
X110127000Y-109927000D01*
X109873000Y-109927000D01*
X109148750Y-109927000D01*
X108990000Y-110085750D01*
X100637590Y-110085750D01*
X100637590Y-107900000D01*
X108977560Y-107900000D01*
X108977560Y-108700000D01*
X109021838Y-108935317D01*
X109088329Y-109038646D01*
X109086673Y-109040302D01*
X108990000Y-109273691D01*
X108990000Y-109514250D01*
X109148750Y-109673000D01*
X109873000Y-109673000D01*
X109873000Y-109653000D01*
X110127000Y-109653000D01*
X110127000Y-109673000D01*
X110851250Y-109673000D01*
X111010000Y-109514250D01*
X111010000Y-109485000D01*
X112043180Y-109485000D01*
X112163203Y-109534838D01*
X112535169Y-109535162D01*
X112878945Y-109393117D01*
X113142194Y-109130327D01*
X113284840Y-108786799D01*
X113285164Y-108414833D01*
X113143119Y-108071057D01*
X112880329Y-107807808D01*
X112536801Y-107665162D01*
X112164835Y-107664838D01*
X112043433Y-107715000D01*
X110987630Y-107715000D01*
X110978162Y-107664683D01*
X110839090Y-107448559D01*
X110626890Y-107303569D01*
X110375000Y-107252560D01*
X109625000Y-107252560D01*
X109389683Y-107296838D01*
X109173559Y-107435910D01*
X109028569Y-107648110D01*
X108977560Y-107900000D01*
X100637590Y-107900000D01*
X100637590Y-98085750D01*
X108990000Y-98085750D01*
X108990000Y-98326309D01*
X109086673Y-98559698D01*
X109265301Y-98738327D01*
X109498690Y-98835000D01*
X109714250Y-98835000D01*
X109873000Y-98676250D01*
X109873000Y-97927000D01*
X110127000Y-97927000D01*
X110127000Y-98676250D01*
X110285750Y-98835000D01*
X110501310Y-98835000D01*
X110734699Y-98738327D01*
X110913327Y-98559698D01*
X111010000Y-98326309D01*
X111010000Y-98085750D01*
X110851250Y-97927000D01*
X110127000Y-97927000D01*
X109873000Y-97927000D01*
X109148750Y-97927000D01*
X108990000Y-98085750D01*
X100637590Y-98085750D01*
X100637590Y-95900000D01*
X108977560Y-95900000D01*
X108977560Y-96700000D01*
X109021838Y-96935317D01*
X109088329Y-97038646D01*
X109086673Y-97040302D01*
X108990000Y-97273691D01*
X108990000Y-97514250D01*
X109148750Y-97673000D01*
X109873000Y-97673000D01*
X109873000Y-97653000D01*
X110127000Y-97653000D01*
X110127000Y-97673000D01*
X110851250Y-97673000D01*
X111010000Y-97514250D01*
X111010000Y-97485000D01*
X112043180Y-97485000D01*
X112163203Y-97534838D01*
X112535169Y-97535162D01*
X112878945Y-97393117D01*
X113142194Y-97130327D01*
X113284840Y-96786799D01*
X113285164Y-96414833D01*
X113143119Y-96071057D01*
X112880329Y-95807808D01*
X112536801Y-95665162D01*
X112164835Y-95664838D01*
X112043433Y-95715000D01*
X110987630Y-95715000D01*
X110978162Y-95664683D01*
X110839090Y-95448559D01*
X110626890Y-95303569D01*
X110375000Y-95252560D01*
X109625000Y-95252560D01*
X109389683Y-95296838D01*
X109173559Y-95435910D01*
X109028569Y-95648110D01*
X108977560Y-95900000D01*
X100637590Y-95900000D01*
X100637590Y-93396822D01*
X100687428Y-93276799D01*
X100687507Y-93185167D01*
X107664838Y-93185167D01*
X107806883Y-93528943D01*
X108069673Y-93792192D01*
X108413201Y-93934838D01*
X108785167Y-93935162D01*
X108906569Y-93885000D01*
X122433420Y-93885000D01*
X141655000Y-113106579D01*
X141655000Y-132810568D01*
X141489946Y-132920853D01*
X141270000Y-133250026D01*
X141050054Y-132920853D01*
X140568285Y-132598946D01*
X140000000Y-132485907D01*
X139431715Y-132598946D01*
X138949946Y-132920853D01*
X138920597Y-132964777D01*
X138848327Y-132790302D01*
X138669699Y-132611673D01*
X138436310Y-132515000D01*
X137745750Y-132515000D01*
X137587000Y-132673750D01*
X137587000Y-133873000D01*
X137607000Y-133873000D01*
X137607000Y-134127000D01*
X137587000Y-134127000D01*
X137587000Y-135326250D01*
X137745750Y-135485000D01*
X138436310Y-135485000D01*
X138669699Y-135388327D01*
X138848327Y-135209698D01*
X138920597Y-135035223D01*
X138949946Y-135079147D01*
X139431715Y-135401054D01*
X140000000Y-135514093D01*
X140568285Y-135401054D01*
X141050054Y-135079147D01*
X141270000Y-134749974D01*
X141489946Y-135079147D01*
X141971715Y-135401054D01*
X142540000Y-135514093D01*
X143108285Y-135401054D01*
X143590054Y-135079147D01*
X143911961Y-134597378D01*
X144025000Y-134029093D01*
X144025000Y-133970907D01*
X143948272Y-133585167D01*
X166664838Y-133585167D01*
X166806883Y-133928943D01*
X167069673Y-134192192D01*
X167413201Y-134334838D01*
X167785167Y-134335162D01*
X167906569Y-134285000D01*
X168993554Y-134285000D01*
X169021838Y-134435317D01*
X169160910Y-134651441D01*
X169373110Y-134796431D01*
X169625000Y-134847440D01*
X170375000Y-134847440D01*
X170610317Y-134803162D01*
X170826441Y-134664090D01*
X170971431Y-134451890D01*
X171022440Y-134200000D01*
X171022440Y-133585167D01*
X181664838Y-133585167D01*
X181806883Y-133928943D01*
X182069673Y-134192192D01*
X182413201Y-134334838D01*
X182785167Y-134335162D01*
X182906569Y-134285000D01*
X183993554Y-134285000D01*
X184021838Y-134435317D01*
X184160910Y-134651441D01*
X184373110Y-134796431D01*
X184625000Y-134847440D01*
X185375000Y-134847440D01*
X185610317Y-134803162D01*
X185826441Y-134664090D01*
X185971431Y-134451890D01*
X186022440Y-134200000D01*
X186022440Y-133400000D01*
X185978162Y-133164683D01*
X185911671Y-133061354D01*
X185913327Y-133059698D01*
X186010000Y-132826309D01*
X186010000Y-132585750D01*
X185851250Y-132427000D01*
X185127000Y-132427000D01*
X185127000Y-132447000D01*
X184873000Y-132447000D01*
X184873000Y-132427000D01*
X184148750Y-132427000D01*
X184060750Y-132515000D01*
X182906822Y-132515000D01*
X182786799Y-132465162D01*
X182414833Y-132464838D01*
X182071057Y-132606883D01*
X181807808Y-132869673D01*
X181665162Y-133213201D01*
X181664838Y-133585167D01*
X171022440Y-133585167D01*
X171022440Y-133400000D01*
X170978162Y-133164683D01*
X170911671Y-133061354D01*
X170913327Y-133059698D01*
X171010000Y-132826309D01*
X171010000Y-132585750D01*
X170851250Y-132427000D01*
X170127000Y-132427000D01*
X170127000Y-132447000D01*
X169873000Y-132447000D01*
X169873000Y-132427000D01*
X169148750Y-132427000D01*
X169060750Y-132515000D01*
X167906822Y-132515000D01*
X167786799Y-132465162D01*
X167414833Y-132464838D01*
X167071057Y-132606883D01*
X166807808Y-132869673D01*
X166665162Y-133213201D01*
X166664838Y-133585167D01*
X143948272Y-133585167D01*
X143911961Y-133402622D01*
X143590054Y-132920853D01*
X143425000Y-132810568D01*
X143425000Y-131773691D01*
X168990000Y-131773691D01*
X168990000Y-132014250D01*
X169148750Y-132173000D01*
X169873000Y-132173000D01*
X169873000Y-131423750D01*
X170127000Y-131423750D01*
X170127000Y-132173000D01*
X170851250Y-132173000D01*
X171010000Y-132014250D01*
X171010000Y-131773691D01*
X183990000Y-131773691D01*
X183990000Y-132014250D01*
X184148750Y-132173000D01*
X184873000Y-132173000D01*
X184873000Y-131423750D01*
X185127000Y-131423750D01*
X185127000Y-132173000D01*
X185851250Y-132173000D01*
X186010000Y-132014250D01*
X186010000Y-131773691D01*
X185913327Y-131540302D01*
X185734699Y-131361673D01*
X185501310Y-131265000D01*
X185285750Y-131265000D01*
X185127000Y-131423750D01*
X184873000Y-131423750D01*
X184714250Y-131265000D01*
X184498690Y-131265000D01*
X184265301Y-131361673D01*
X184086673Y-131540302D01*
X183990000Y-131773691D01*
X171010000Y-131773691D01*
X170913327Y-131540302D01*
X170734699Y-131361673D01*
X170501310Y-131265000D01*
X170285750Y-131265000D01*
X170127000Y-131423750D01*
X169873000Y-131423750D01*
X169714250Y-131265000D01*
X169498690Y-131265000D01*
X169265301Y-131361673D01*
X169086673Y-131540302D01*
X168990000Y-131773691D01*
X143425000Y-131773691D01*
X143425000Y-121585167D01*
X166664838Y-121585167D01*
X166806883Y-121928943D01*
X167069673Y-122192192D01*
X167413201Y-122334838D01*
X167785167Y-122335162D01*
X167906569Y-122285000D01*
X168993554Y-122285000D01*
X169021838Y-122435317D01*
X169160910Y-122651441D01*
X169373110Y-122796431D01*
X169625000Y-122847440D01*
X170375000Y-122847440D01*
X170610317Y-122803162D01*
X170826441Y-122664090D01*
X170971431Y-122451890D01*
X171022440Y-122200000D01*
X171022440Y-121400000D01*
X170978162Y-121164683D01*
X170911671Y-121061354D01*
X170913327Y-121059698D01*
X171010000Y-120826309D01*
X171010000Y-120585750D01*
X170851250Y-120427000D01*
X170127000Y-120427000D01*
X170127000Y-120447000D01*
X169873000Y-120447000D01*
X169873000Y-120427000D01*
X169148750Y-120427000D01*
X169060750Y-120515000D01*
X167906822Y-120515000D01*
X167786799Y-120465162D01*
X167414833Y-120464838D01*
X167071057Y-120606883D01*
X166807808Y-120869673D01*
X166665162Y-121213201D01*
X166664838Y-121585167D01*
X143425000Y-121585167D01*
X143425000Y-119773691D01*
X168990000Y-119773691D01*
X168990000Y-120014250D01*
X169148750Y-120173000D01*
X169873000Y-120173000D01*
X169873000Y-119423750D01*
X170127000Y-119423750D01*
X170127000Y-120173000D01*
X170851250Y-120173000D01*
X171010000Y-120014250D01*
X171010000Y-119773691D01*
X170913327Y-119540302D01*
X170734699Y-119361673D01*
X170501310Y-119265000D01*
X170285750Y-119265000D01*
X170127000Y-119423750D01*
X169873000Y-119423750D01*
X169714250Y-119265000D01*
X169498690Y-119265000D01*
X169265301Y-119361673D01*
X169086673Y-119540302D01*
X168990000Y-119773691D01*
X143425000Y-119773691D01*
X143425000Y-112740005D01*
X143425001Y-112740000D01*
X143357633Y-112401326D01*
X143357633Y-112401325D01*
X143165790Y-112114210D01*
X143165787Y-112114208D01*
X140636747Y-109585167D01*
X166714836Y-109585167D01*
X166856881Y-109928943D01*
X167119671Y-110192192D01*
X167463199Y-110334838D01*
X167835165Y-110335162D01*
X167956567Y-110285000D01*
X168993554Y-110285000D01*
X169021838Y-110435317D01*
X169160910Y-110651441D01*
X169373110Y-110796431D01*
X169625000Y-110847440D01*
X170375000Y-110847440D01*
X170610317Y-110803162D01*
X170826441Y-110664090D01*
X170971431Y-110451890D01*
X171022440Y-110200000D01*
X171022440Y-109400000D01*
X170978162Y-109164683D01*
X170911671Y-109061354D01*
X170913327Y-109059698D01*
X171010000Y-108826309D01*
X171010000Y-108585750D01*
X170851250Y-108427000D01*
X170127000Y-108427000D01*
X170127000Y-108447000D01*
X169873000Y-108447000D01*
X169873000Y-108427000D01*
X169148750Y-108427000D01*
X169060750Y-108515000D01*
X167956820Y-108515000D01*
X167836797Y-108465162D01*
X167464831Y-108464838D01*
X167121055Y-108606883D01*
X166857806Y-108869673D01*
X166715160Y-109213201D01*
X166714836Y-109585167D01*
X140636747Y-109585167D01*
X138825271Y-107773691D01*
X168990000Y-107773691D01*
X168990000Y-108014250D01*
X169148750Y-108173000D01*
X169873000Y-108173000D01*
X169873000Y-107423750D01*
X170127000Y-107423750D01*
X170127000Y-108173000D01*
X170851250Y-108173000D01*
X171010000Y-108014250D01*
X171010000Y-107773691D01*
X170913327Y-107540302D01*
X170734699Y-107361673D01*
X170501310Y-107265000D01*
X170285750Y-107265000D01*
X170127000Y-107423750D01*
X169873000Y-107423750D01*
X169714250Y-107265000D01*
X169498690Y-107265000D01*
X169265301Y-107361673D01*
X169086673Y-107540302D01*
X168990000Y-107773691D01*
X138825271Y-107773691D01*
X128636747Y-97585167D01*
X166664838Y-97585167D01*
X166806883Y-97928943D01*
X167069673Y-98192192D01*
X167413201Y-98334838D01*
X167785167Y-98335162D01*
X167906569Y-98285000D01*
X168993554Y-98285000D01*
X169021838Y-98435317D01*
X169160910Y-98651441D01*
X169373110Y-98796431D01*
X169625000Y-98847440D01*
X170375000Y-98847440D01*
X170610317Y-98803162D01*
X170826441Y-98664090D01*
X170971431Y-98451890D01*
X171022440Y-98200000D01*
X171022440Y-97400000D01*
X170978162Y-97164683D01*
X170911671Y-97061354D01*
X170913327Y-97059698D01*
X171010000Y-96826309D01*
X171010000Y-96585750D01*
X170851250Y-96427000D01*
X170127000Y-96427000D01*
X170127000Y-96447000D01*
X169873000Y-96447000D01*
X169873000Y-96427000D01*
X169148750Y-96427000D01*
X169060750Y-96515000D01*
X167906822Y-96515000D01*
X167786799Y-96465162D01*
X167414833Y-96464838D01*
X167071057Y-96606883D01*
X166807808Y-96869673D01*
X166665162Y-97213201D01*
X166664838Y-97585167D01*
X128636747Y-97585167D01*
X126825271Y-95773691D01*
X168990000Y-95773691D01*
X168990000Y-96014250D01*
X169148750Y-96173000D01*
X169873000Y-96173000D01*
X169873000Y-95423750D01*
X170127000Y-95423750D01*
X170127000Y-96173000D01*
X170851250Y-96173000D01*
X171010000Y-96014250D01*
X171010000Y-95773691D01*
X170913327Y-95540302D01*
X170734699Y-95361673D01*
X170501310Y-95265000D01*
X170285750Y-95265000D01*
X170127000Y-95423750D01*
X169873000Y-95423750D01*
X169714250Y-95265000D01*
X169498690Y-95265000D01*
X169265301Y-95361673D01*
X169086673Y-95540302D01*
X168990000Y-95773691D01*
X126825271Y-95773691D01*
X123425790Y-92374210D01*
X123138675Y-92182367D01*
X123082484Y-92171190D01*
X122800000Y-92114999D01*
X122799995Y-92115000D01*
X108906822Y-92115000D01*
X108786799Y-92065162D01*
X108414833Y-92064838D01*
X108071057Y-92206883D01*
X107807808Y-92469673D01*
X107665162Y-92813201D01*
X107664838Y-93185167D01*
X100687507Y-93185167D01*
X100687752Y-92904833D01*
X100545707Y-92561057D01*
X100282917Y-92297808D01*
X99939389Y-92155162D01*
X99567423Y-92154838D01*
X99223647Y-92296883D01*
X98960398Y-92559673D01*
X98817752Y-92903201D01*
X98817428Y-93275167D01*
X90710000Y-93275167D01*
X90710000Y-88370065D01*
X110809540Y-88370065D01*
X110809540Y-88594571D01*
X110961964Y-88746995D01*
X111195353Y-88843668D01*
X111447972Y-88843667D01*
X111681361Y-88746995D01*
X111851462Y-88576894D01*
X111851462Y-88352387D01*
X111339340Y-87840265D01*
X110809540Y-88370065D01*
X90710000Y-88370065D01*
X90710000Y-87804647D01*
X110156332Y-87804647D01*
X110253005Y-88038036D01*
X110405429Y-88190460D01*
X110629935Y-88190460D01*
X111159735Y-87660660D01*
X110647613Y-87148538D01*
X110423106Y-87148538D01*
X110253005Y-87318639D01*
X110156333Y-87552028D01*
X110156332Y-87804647D01*
X90710000Y-87804647D01*
X90710000Y-86085750D01*
X93990000Y-86085750D01*
X93990000Y-86326309D01*
X94086673Y-86559698D01*
X94265301Y-86738327D01*
X94498690Y-86835000D01*
X94714250Y-86835000D01*
X94873000Y-86676250D01*
X94873000Y-85927000D01*
X95127000Y-85927000D01*
X95127000Y-86676250D01*
X95285750Y-86835000D01*
X95501310Y-86835000D01*
X95719974Y-86744426D01*
X110827218Y-86744426D01*
X110827218Y-86968933D01*
X111339340Y-87481055D01*
X111353483Y-87466913D01*
X111533088Y-87646518D01*
X111518945Y-87660660D01*
X112031067Y-88172782D01*
X112255574Y-88172782D01*
X112425675Y-88002681D01*
X112462411Y-87913991D01*
X112997494Y-88449073D01*
X112997274Y-88701767D01*
X113139319Y-89045543D01*
X113402109Y-89308792D01*
X113745637Y-89451438D01*
X114117603Y-89451762D01*
X114461379Y-89309717D01*
X114586146Y-89185167D01*
X165664838Y-89185167D01*
X165806883Y-89528943D01*
X166069673Y-89792192D01*
X166413201Y-89934838D01*
X166785167Y-89935162D01*
X166906569Y-89885000D01*
X167199995Y-89885000D01*
X167200000Y-89885001D01*
X167482484Y-89828810D01*
X167538675Y-89817633D01*
X167825790Y-89625790D01*
X168667193Y-88784386D01*
X168861305Y-88747862D01*
X169075487Y-88605817D01*
X169605817Y-88075487D01*
X169740902Y-87877784D01*
X169795386Y-87626622D01*
X169747862Y-87374051D01*
X169605817Y-87159869D01*
X169040131Y-86594183D01*
X168842428Y-86459098D01*
X168722347Y-86433049D01*
X168722347Y-86430708D01*
X168625675Y-86197319D01*
X168455574Y-86027218D01*
X168231067Y-86027218D01*
X167718945Y-86539340D01*
X167733088Y-86553483D01*
X167553483Y-86733088D01*
X167539340Y-86718945D01*
X167027218Y-87231067D01*
X167027218Y-87455574D01*
X167197319Y-87625675D01*
X167286009Y-87662411D01*
X166854957Y-88093464D01*
X166786799Y-88065162D01*
X166414833Y-88064838D01*
X166071057Y-88206883D01*
X165807808Y-88469673D01*
X165665162Y-88813201D01*
X165664838Y-89185167D01*
X114586146Y-89185167D01*
X114724628Y-89046927D01*
X114867274Y-88703399D01*
X114867598Y-88331433D01*
X114817436Y-88210031D01*
X114817436Y-88132441D01*
X114817437Y-88132436D01*
X114750069Y-87793762D01*
X114750069Y-87793761D01*
X114558226Y-87506646D01*
X114558223Y-87506644D01*
X113584386Y-86532807D01*
X113547862Y-86338695D01*
X113405817Y-86124513D01*
X112875487Y-85594183D01*
X112677784Y-85459098D01*
X112426622Y-85404614D01*
X112174051Y-85452138D01*
X111959869Y-85594183D01*
X111394183Y-86159869D01*
X111259098Y-86357572D01*
X111233049Y-86477653D01*
X111230708Y-86477653D01*
X110997319Y-86574325D01*
X110827218Y-86744426D01*
X95719974Y-86744426D01*
X95734699Y-86738327D01*
X95913327Y-86559698D01*
X96010000Y-86326309D01*
X96010000Y-86085750D01*
X95851250Y-85927000D01*
X95127000Y-85927000D01*
X94873000Y-85927000D01*
X94148750Y-85927000D01*
X93990000Y-86085750D01*
X90710000Y-86085750D01*
X90710000Y-83900000D01*
X93977560Y-83900000D01*
X93977560Y-84700000D01*
X94021838Y-84935317D01*
X94088329Y-85038646D01*
X94086673Y-85040302D01*
X93990000Y-85273691D01*
X93990000Y-85514250D01*
X94148750Y-85673000D01*
X94873000Y-85673000D01*
X94873000Y-85653000D01*
X95127000Y-85653000D01*
X95127000Y-85673000D01*
X95851250Y-85673000D01*
X96010000Y-85514250D01*
X96010000Y-85485000D01*
X97093178Y-85485000D01*
X97213201Y-85534838D01*
X97585167Y-85535162D01*
X97928943Y-85393117D01*
X98036497Y-85285750D01*
X120165000Y-85285750D01*
X120165000Y-85501310D01*
X120261673Y-85734699D01*
X120440302Y-85913327D01*
X120673691Y-86010000D01*
X120914250Y-86010000D01*
X121073000Y-85851250D01*
X121073000Y-85127000D01*
X120323750Y-85127000D01*
X120165000Y-85285750D01*
X98036497Y-85285750D01*
X98192192Y-85130327D01*
X98334838Y-84786799D01*
X98335088Y-84498690D01*
X120165000Y-84498690D01*
X120165000Y-84714250D01*
X120323750Y-84873000D01*
X121073000Y-84873000D01*
X121073000Y-84148750D01*
X121327000Y-84148750D01*
X121327000Y-84873000D01*
X121347000Y-84873000D01*
X121347000Y-85127000D01*
X121327000Y-85127000D01*
X121327000Y-85851250D01*
X121485750Y-86010000D01*
X121515000Y-86010000D01*
X121515000Y-87043180D01*
X121465162Y-87163203D01*
X121464838Y-87535169D01*
X121606883Y-87878945D01*
X121869673Y-88142194D01*
X122213201Y-88284840D01*
X122585167Y-88285164D01*
X122928943Y-88143119D01*
X123192192Y-87880329D01*
X123334838Y-87536801D01*
X123335162Y-87164835D01*
X123285000Y-87043433D01*
X123285000Y-85987630D01*
X123335317Y-85978162D01*
X123551441Y-85839090D01*
X123696431Y-85626890D01*
X123747440Y-85375000D01*
X123747440Y-85285750D01*
X132165000Y-85285750D01*
X132165000Y-85501310D01*
X132261673Y-85734699D01*
X132440302Y-85913327D01*
X132673691Y-86010000D01*
X132914250Y-86010000D01*
X133073000Y-85851250D01*
X133073000Y-85127000D01*
X132323750Y-85127000D01*
X132165000Y-85285750D01*
X123747440Y-85285750D01*
X123747440Y-84625000D01*
X123723674Y-84498690D01*
X132165000Y-84498690D01*
X132165000Y-84714250D01*
X132323750Y-84873000D01*
X133073000Y-84873000D01*
X133073000Y-84148750D01*
X133327000Y-84148750D01*
X133327000Y-84873000D01*
X133347000Y-84873000D01*
X133347000Y-85127000D01*
X133327000Y-85127000D01*
X133327000Y-85851250D01*
X133485750Y-86010000D01*
X133515000Y-86010000D01*
X133515000Y-87093178D01*
X133465162Y-87213201D01*
X133464838Y-87585167D01*
X133606883Y-87928943D01*
X133869673Y-88192192D01*
X134213201Y-88334838D01*
X134585167Y-88335162D01*
X134928943Y-88193117D01*
X135192192Y-87930327D01*
X135334838Y-87586799D01*
X135335162Y-87214833D01*
X135285000Y-87093431D01*
X135285000Y-85987630D01*
X135335317Y-85978162D01*
X135551441Y-85839090D01*
X135696431Y-85626890D01*
X135747440Y-85375000D01*
X135747440Y-85285750D01*
X144165000Y-85285750D01*
X144165000Y-85501310D01*
X144261673Y-85734699D01*
X144440302Y-85913327D01*
X144673691Y-86010000D01*
X144914250Y-86010000D01*
X145073000Y-85851250D01*
X145073000Y-85127000D01*
X144323750Y-85127000D01*
X144165000Y-85285750D01*
X135747440Y-85285750D01*
X135747440Y-84625000D01*
X135723674Y-84498690D01*
X144165000Y-84498690D01*
X144165000Y-84714250D01*
X144323750Y-84873000D01*
X145073000Y-84873000D01*
X145073000Y-84148750D01*
X145327000Y-84148750D01*
X145327000Y-84873000D01*
X145347000Y-84873000D01*
X145347000Y-85127000D01*
X145327000Y-85127000D01*
X145327000Y-85851250D01*
X145485750Y-86010000D01*
X145515000Y-86010000D01*
X145515000Y-87093178D01*
X145465162Y-87213201D01*
X145464838Y-87585167D01*
X145606883Y-87928943D01*
X145869673Y-88192192D01*
X146213201Y-88334838D01*
X146585167Y-88335162D01*
X146928943Y-88193117D01*
X147192192Y-87930327D01*
X147334838Y-87586799D01*
X147335162Y-87214833D01*
X147285000Y-87093431D01*
X147285000Y-85987630D01*
X147335317Y-85978162D01*
X147551441Y-85839090D01*
X147696431Y-85626890D01*
X147747440Y-85375000D01*
X147747440Y-85285750D01*
X156165000Y-85285750D01*
X156165000Y-85501310D01*
X156261673Y-85734699D01*
X156440302Y-85913327D01*
X156673691Y-86010000D01*
X156914250Y-86010000D01*
X157073000Y-85851250D01*
X157073000Y-85127000D01*
X156323750Y-85127000D01*
X156165000Y-85285750D01*
X147747440Y-85285750D01*
X147747440Y-84625000D01*
X147723674Y-84498690D01*
X156165000Y-84498690D01*
X156165000Y-84714250D01*
X156323750Y-84873000D01*
X157073000Y-84873000D01*
X157073000Y-84148750D01*
X157327000Y-84148750D01*
X157327000Y-84873000D01*
X157347000Y-84873000D01*
X157347000Y-85127000D01*
X157327000Y-85127000D01*
X157327000Y-85851250D01*
X157485750Y-86010000D01*
X157515000Y-86010000D01*
X157515000Y-87093178D01*
X157465162Y-87213201D01*
X157464838Y-87585167D01*
X157606883Y-87928943D01*
X157869673Y-88192192D01*
X158213201Y-88334838D01*
X158585167Y-88335162D01*
X158928943Y-88193117D01*
X159192192Y-87930327D01*
X159334838Y-87586799D01*
X159335162Y-87214833D01*
X159285000Y-87093431D01*
X159285000Y-86395353D01*
X166356332Y-86395353D01*
X166356333Y-86647972D01*
X166453005Y-86881361D01*
X166623106Y-87051462D01*
X166847613Y-87051462D01*
X167359735Y-86539340D01*
X166829935Y-86009540D01*
X166605429Y-86009540D01*
X166453005Y-86161964D01*
X166356332Y-86395353D01*
X159285000Y-86395353D01*
X159285000Y-85987630D01*
X159335317Y-85978162D01*
X159551441Y-85839090D01*
X159696431Y-85626890D01*
X159700776Y-85605429D01*
X167009540Y-85605429D01*
X167009540Y-85829935D01*
X167539340Y-86359735D01*
X168051462Y-85847613D01*
X168051462Y-85623106D01*
X167881361Y-85453005D01*
X167647972Y-85356333D01*
X167395353Y-85356332D01*
X167161964Y-85453005D01*
X167009540Y-85605429D01*
X159700776Y-85605429D01*
X159747440Y-85375000D01*
X159747440Y-84625000D01*
X159703162Y-84389683D01*
X159564090Y-84173559D01*
X159351890Y-84028569D01*
X159100000Y-83977560D01*
X158300000Y-83977560D01*
X158064683Y-84021838D01*
X157961354Y-84088329D01*
X157959698Y-84086673D01*
X157726309Y-83990000D01*
X157485750Y-83990000D01*
X157327000Y-84148750D01*
X157073000Y-84148750D01*
X156914250Y-83990000D01*
X156673691Y-83990000D01*
X156440302Y-84086673D01*
X156261673Y-84265301D01*
X156165000Y-84498690D01*
X147723674Y-84498690D01*
X147703162Y-84389683D01*
X147564090Y-84173559D01*
X147351890Y-84028569D01*
X147100000Y-83977560D01*
X146300000Y-83977560D01*
X146064683Y-84021838D01*
X145961354Y-84088329D01*
X145959698Y-84086673D01*
X145726309Y-83990000D01*
X145485750Y-83990000D01*
X145327000Y-84148750D01*
X145073000Y-84148750D01*
X144914250Y-83990000D01*
X144673691Y-83990000D01*
X144440302Y-84086673D01*
X144261673Y-84265301D01*
X144165000Y-84498690D01*
X135723674Y-84498690D01*
X135703162Y-84389683D01*
X135564090Y-84173559D01*
X135351890Y-84028569D01*
X135100000Y-83977560D01*
X134300000Y-83977560D01*
X134064683Y-84021838D01*
X133961354Y-84088329D01*
X133959698Y-84086673D01*
X133726309Y-83990000D01*
X133485750Y-83990000D01*
X133327000Y-84148750D01*
X133073000Y-84148750D01*
X132914250Y-83990000D01*
X132673691Y-83990000D01*
X132440302Y-84086673D01*
X132261673Y-84265301D01*
X132165000Y-84498690D01*
X123723674Y-84498690D01*
X123703162Y-84389683D01*
X123564090Y-84173559D01*
X123351890Y-84028569D01*
X123100000Y-83977560D01*
X122300000Y-83977560D01*
X122064683Y-84021838D01*
X121961354Y-84088329D01*
X121959698Y-84086673D01*
X121726309Y-83990000D01*
X121485750Y-83990000D01*
X121327000Y-84148750D01*
X121073000Y-84148750D01*
X120914250Y-83990000D01*
X120673691Y-83990000D01*
X120440302Y-84086673D01*
X120261673Y-84265301D01*
X120165000Y-84498690D01*
X98335088Y-84498690D01*
X98335162Y-84414833D01*
X98193117Y-84071057D01*
X97930327Y-83807808D01*
X97586799Y-83665162D01*
X97214833Y-83664838D01*
X97093431Y-83715000D01*
X95987630Y-83715000D01*
X95978162Y-83664683D01*
X95839090Y-83448559D01*
X95626890Y-83303569D01*
X95375000Y-83252560D01*
X94625000Y-83252560D01*
X94389683Y-83296838D01*
X94173559Y-83435910D01*
X94028569Y-83648110D01*
X93977560Y-83900000D01*
X90710000Y-83900000D01*
X90710000Y-80442619D01*
X101764613Y-80442619D01*
X102104155Y-81264372D01*
X102732321Y-81893636D01*
X103553481Y-82234611D01*
X104442619Y-82235387D01*
X105264372Y-81895845D01*
X105893636Y-81267679D01*
X106234611Y-80446519D01*
X106235387Y-79557381D01*
X105895845Y-78735628D01*
X105267679Y-78106364D01*
X104446519Y-77765389D01*
X103557381Y-77764613D01*
X102735628Y-78104155D01*
X102106364Y-78732321D01*
X101765389Y-79553481D01*
X101764613Y-80442619D01*
X90710000Y-80442619D01*
X90710000Y-76442619D01*
X177764613Y-76442619D01*
X178104155Y-77264372D01*
X178732321Y-77893636D01*
X179553481Y-78234611D01*
X180442619Y-78235387D01*
X181264372Y-77895845D01*
X181893636Y-77267679D01*
X182234611Y-76446519D01*
X182235387Y-75557381D01*
X181895845Y-74735628D01*
X181267679Y-74106364D01*
X180446519Y-73765389D01*
X179557381Y-73764613D01*
X178735628Y-74104155D01*
X178106364Y-74732321D01*
X177765389Y-75553481D01*
X177764613Y-76442619D01*
X90710000Y-76442619D01*
X90710000Y-75175167D01*
X92464838Y-75175167D01*
X92606883Y-75518943D01*
X92869673Y-75782192D01*
X93213201Y-75924838D01*
X93585167Y-75925162D01*
X93682367Y-75885000D01*
X169693178Y-75885000D01*
X169813201Y-75934838D01*
X170185167Y-75935162D01*
X170528943Y-75793117D01*
X170792192Y-75530327D01*
X170934838Y-75186799D01*
X170935162Y-74814833D01*
X170793117Y-74471057D01*
X170530327Y-74207808D01*
X170186799Y-74065162D01*
X169814833Y-74064838D01*
X169693431Y-74115000D01*
X93730904Y-74115000D01*
X93586799Y-74055162D01*
X93214833Y-74054838D01*
X92871057Y-74196883D01*
X92607808Y-74459673D01*
X92465162Y-74803201D01*
X92464838Y-75175167D01*
X90710000Y-75175167D01*
X90710000Y-72885167D01*
X93164838Y-72885167D01*
X93306883Y-73228943D01*
X93569673Y-73492192D01*
X93913201Y-73634838D01*
X94285167Y-73635162D01*
X94333963Y-73615000D01*
X99453178Y-73615000D01*
X99573201Y-73664838D01*
X99945167Y-73665162D01*
X100288943Y-73523117D01*
X100552192Y-73260327D01*
X100694838Y-72916799D01*
X100695162Y-72544833D01*
X100553117Y-72201057D01*
X100290327Y-71937808D01*
X99946799Y-71795162D01*
X99574833Y-71794838D01*
X99453431Y-71845000D01*
X98925023Y-71845000D01*
X98956996Y-71838327D01*
X99445986Y-71571191D01*
X99795525Y-71137262D01*
X99800246Y-71121170D01*
X100064211Y-71516222D01*
X100525671Y-71824559D01*
X101070000Y-71932833D01*
X101614329Y-71824559D01*
X102075789Y-71516222D01*
X102340000Y-71120801D01*
X102604211Y-71516222D01*
X103065671Y-71824559D01*
X103610000Y-71932833D01*
X104154329Y-71824559D01*
X104615789Y-71516222D01*
X104880000Y-71120801D01*
X105144211Y-71516222D01*
X105605671Y-71824559D01*
X106150000Y-71932833D01*
X106694329Y-71824559D01*
X107155789Y-71516222D01*
X107420000Y-71120801D01*
X107684211Y-71516222D01*
X108145671Y-71824559D01*
X108690000Y-71932833D01*
X109234329Y-71824559D01*
X109695789Y-71516222D01*
X109960000Y-71120801D01*
X110224211Y-71516222D01*
X110685671Y-71824559D01*
X111230000Y-71932833D01*
X111774329Y-71824559D01*
X112235789Y-71516222D01*
X112500000Y-71120801D01*
X112764211Y-71516222D01*
X113225671Y-71824559D01*
X113770000Y-71932833D01*
X114314329Y-71824559D01*
X114775789Y-71516222D01*
X115040000Y-71120801D01*
X115304211Y-71516222D01*
X115765671Y-71824559D01*
X116310000Y-71932833D01*
X116854329Y-71824559D01*
X117315789Y-71516222D01*
X117580000Y-71120801D01*
X117844211Y-71516222D01*
X118305671Y-71824559D01*
X118850000Y-71932833D01*
X119394329Y-71824559D01*
X119855789Y-71516222D01*
X120120000Y-71120801D01*
X120384211Y-71516222D01*
X120845671Y-71824559D01*
X121390000Y-71932833D01*
X121934329Y-71824559D01*
X122395789Y-71516222D01*
X122660000Y-71120801D01*
X122924211Y-71516222D01*
X123385671Y-71824559D01*
X123930000Y-71932833D01*
X124474329Y-71824559D01*
X124935789Y-71516222D01*
X125200000Y-71120801D01*
X125464211Y-71516222D01*
X125925671Y-71824559D01*
X126470000Y-71932833D01*
X127014329Y-71824559D01*
X127475789Y-71516222D01*
X127740000Y-71120801D01*
X128004211Y-71516222D01*
X128465671Y-71824559D01*
X129010000Y-71932833D01*
X129554329Y-71824559D01*
X130015789Y-71516222D01*
X130130503Y-71344540D01*
X130159438Y-71498317D01*
X130298510Y-71714441D01*
X130510710Y-71859431D01*
X130762600Y-71910440D01*
X132337400Y-71910440D01*
X132572717Y-71866162D01*
X132788841Y-71727090D01*
X132933831Y-71514890D01*
X132984840Y-71263000D01*
X132984840Y-68977000D01*
X132940562Y-68741683D01*
X132801490Y-68525559D01*
X132589290Y-68380569D01*
X132337400Y-68329560D01*
X130762600Y-68329560D01*
X130527283Y-68373838D01*
X130311159Y-68512910D01*
X130166169Y-68725110D01*
X130131400Y-68896803D01*
X130015789Y-68723778D01*
X129554329Y-68415441D01*
X129010000Y-68307167D01*
X128465671Y-68415441D01*
X128004211Y-68723778D01*
X127740000Y-69119199D01*
X127475789Y-68723778D01*
X127014329Y-68415441D01*
X126470000Y-68307167D01*
X125925671Y-68415441D01*
X125464211Y-68723778D01*
X125200000Y-69119199D01*
X124935789Y-68723778D01*
X124474329Y-68415441D01*
X123930000Y-68307167D01*
X123385671Y-68415441D01*
X122924211Y-68723778D01*
X122660000Y-69119199D01*
X122395789Y-68723778D01*
X121934329Y-68415441D01*
X121390000Y-68307167D01*
X120845671Y-68415441D01*
X120384211Y-68723778D01*
X120120000Y-69119199D01*
X119855789Y-68723778D01*
X119394329Y-68415441D01*
X118850000Y-68307167D01*
X118305671Y-68415441D01*
X117844211Y-68723778D01*
X117580000Y-69119199D01*
X117315789Y-68723778D01*
X116854329Y-68415441D01*
X116310000Y-68307167D01*
X115765671Y-68415441D01*
X115304211Y-68723778D01*
X115040000Y-69119199D01*
X114775789Y-68723778D01*
X114314329Y-68415441D01*
X113770000Y-68307167D01*
X113225671Y-68415441D01*
X112764211Y-68723778D01*
X112500000Y-69119199D01*
X112235789Y-68723778D01*
X111774329Y-68415441D01*
X111230000Y-68307167D01*
X110685671Y-68415441D01*
X110224211Y-68723778D01*
X109960000Y-69119199D01*
X109695789Y-68723778D01*
X109234329Y-68415441D01*
X108690000Y-68307167D01*
X108145671Y-68415441D01*
X107684211Y-68723778D01*
X107420000Y-69119199D01*
X107155789Y-68723778D01*
X106694329Y-68415441D01*
X106150000Y-68307167D01*
X105605671Y-68415441D01*
X105144211Y-68723778D01*
X104880000Y-69119199D01*
X104615789Y-68723778D01*
X104154329Y-68415441D01*
X103610000Y-68307167D01*
X103065671Y-68415441D01*
X102604211Y-68723778D01*
X102340000Y-69119199D01*
X102075789Y-68723778D01*
X101614329Y-68415441D01*
X101070000Y-68307167D01*
X100525671Y-68415441D01*
X100064211Y-68723778D01*
X99800246Y-69118830D01*
X99795525Y-69102738D01*
X99445986Y-68668809D01*
X98956996Y-68401673D01*
X98877060Y-68384990D01*
X98657000Y-68507148D01*
X98657000Y-69993000D01*
X98677000Y-69993000D01*
X98677000Y-70247000D01*
X98657000Y-70247000D01*
X98657000Y-70267000D01*
X98403000Y-70267000D01*
X98403000Y-70247000D01*
X98383000Y-70247000D01*
X98383000Y-69993000D01*
X98403000Y-69993000D01*
X98403000Y-68507148D01*
X98182940Y-68384990D01*
X98103004Y-68401673D01*
X97614014Y-68668809D01*
X97264475Y-69102738D01*
X97259754Y-69118830D01*
X96995789Y-68723778D01*
X96534329Y-68415441D01*
X95990000Y-68307167D01*
X95445671Y-68415441D01*
X94984211Y-68723778D01*
X94675874Y-69185238D01*
X94567600Y-69729567D01*
X94567600Y-70510433D01*
X94675874Y-71054762D01*
X94984211Y-71516222D01*
X95445671Y-71824559D01*
X95548435Y-71845000D01*
X94479069Y-71845000D01*
X94286799Y-71765162D01*
X93914833Y-71764838D01*
X93571057Y-71906883D01*
X93307808Y-72169673D01*
X93165162Y-72513201D01*
X93164838Y-72885167D01*
X90710000Y-72885167D01*
X90710000Y-61442619D01*
X103764613Y-61442619D01*
X104104155Y-62264372D01*
X104732321Y-62893636D01*
X105553481Y-63234611D01*
X106442619Y-63235387D01*
X107264372Y-62895845D01*
X107893636Y-62267679D01*
X108234611Y-61446519D01*
X108235387Y-60557381D01*
X107895845Y-59735628D01*
X107267679Y-59106364D01*
X106446519Y-58765389D01*
X105557381Y-58764613D01*
X104735628Y-59104155D01*
X104106364Y-59732321D01*
X103765389Y-60553481D01*
X103764613Y-61442619D01*
X90710000Y-61442619D01*
X90710000Y-57185167D01*
X93174838Y-57185167D01*
X93316883Y-57528943D01*
X93579673Y-57792192D01*
X93923201Y-57934838D01*
X94295167Y-57935162D01*
X94416569Y-57885000D01*
X106925595Y-57885000D01*
X106925600Y-57885001D01*
X107208084Y-57828810D01*
X107264275Y-57817633D01*
X107551390Y-57625790D01*
X108518467Y-56658713D01*
X108690000Y-56692833D01*
X109234329Y-56584559D01*
X109695789Y-56276222D01*
X109960000Y-55880801D01*
X110224211Y-56276222D01*
X110685671Y-56584559D01*
X111230000Y-56692833D01*
X111774329Y-56584559D01*
X112235789Y-56276222D01*
X112500000Y-55880801D01*
X112764211Y-56276222D01*
X113225671Y-56584559D01*
X113770000Y-56692833D01*
X114314329Y-56584559D01*
X114775789Y-56276222D01*
X115040000Y-55880801D01*
X115304211Y-56276222D01*
X115765671Y-56584559D01*
X116310000Y-56692833D01*
X116854329Y-56584559D01*
X117315789Y-56276222D01*
X117580000Y-55880801D01*
X117844211Y-56276222D01*
X118305671Y-56584559D01*
X118850000Y-56692833D01*
X119394329Y-56584559D01*
X119855789Y-56276222D01*
X120120000Y-55880801D01*
X120384211Y-56276222D01*
X120845671Y-56584559D01*
X121390000Y-56692833D01*
X121934329Y-56584559D01*
X122395789Y-56276222D01*
X122660000Y-55880801D01*
X122924211Y-56276222D01*
X123385671Y-56584559D01*
X123930000Y-56692833D01*
X124474329Y-56584559D01*
X124935789Y-56276222D01*
X125200000Y-55880801D01*
X125464211Y-56276222D01*
X125925671Y-56584559D01*
X126470000Y-56692833D01*
X127014329Y-56584559D01*
X127475789Y-56276222D01*
X127740000Y-55880801D01*
X128004211Y-56276222D01*
X128465671Y-56584559D01*
X129010000Y-56692833D01*
X129554329Y-56584559D01*
X130015789Y-56276222D01*
X130280000Y-55880801D01*
X130544211Y-56276222D01*
X131005671Y-56584559D01*
X131550000Y-56692833D01*
X132094329Y-56584559D01*
X132555789Y-56276222D01*
X132864126Y-55814762D01*
X132972400Y-55270433D01*
X132972400Y-54489567D01*
X132864126Y-53945238D01*
X132555789Y-53483778D01*
X132094329Y-53175441D01*
X131550000Y-53067167D01*
X131005671Y-53175441D01*
X130544211Y-53483778D01*
X130280000Y-53879199D01*
X130015789Y-53483778D01*
X129554329Y-53175441D01*
X129010000Y-53067167D01*
X128465671Y-53175441D01*
X128004211Y-53483778D01*
X127740000Y-53879199D01*
X127475789Y-53483778D01*
X127014329Y-53175441D01*
X126470000Y-53067167D01*
X125925671Y-53175441D01*
X125464211Y-53483778D01*
X125200000Y-53879199D01*
X124935789Y-53483778D01*
X124474329Y-53175441D01*
X123930000Y-53067167D01*
X123385671Y-53175441D01*
X122924211Y-53483778D01*
X122660000Y-53879199D01*
X122395789Y-53483778D01*
X121934329Y-53175441D01*
X121390000Y-53067167D01*
X120845671Y-53175441D01*
X120384211Y-53483778D01*
X120120000Y-53879199D01*
X119855789Y-53483778D01*
X119394329Y-53175441D01*
X118850000Y-53067167D01*
X118305671Y-53175441D01*
X117844211Y-53483778D01*
X117580000Y-53879199D01*
X117315789Y-53483778D01*
X116854329Y-53175441D01*
X116310000Y-53067167D01*
X115765671Y-53175441D01*
X115304211Y-53483778D01*
X115040000Y-53879199D01*
X114775789Y-53483778D01*
X114314329Y-53175441D01*
X113770000Y-53067167D01*
X113225671Y-53175441D01*
X112764211Y-53483778D01*
X112500000Y-53879199D01*
X112235789Y-53483778D01*
X111774329Y-53175441D01*
X111230000Y-53067167D01*
X110685671Y-53175441D01*
X110224211Y-53483778D01*
X109960000Y-53879199D01*
X109695789Y-53483778D01*
X109234329Y-53175441D01*
X108690000Y-53067167D01*
X108145671Y-53175441D01*
X107684211Y-53483778D01*
X107420000Y-53879199D01*
X107155789Y-53483778D01*
X106694329Y-53175441D01*
X106150000Y-53067167D01*
X105605671Y-53175441D01*
X105144211Y-53483778D01*
X104880246Y-53878830D01*
X104875525Y-53862738D01*
X104525986Y-53428809D01*
X104036996Y-53161673D01*
X103957060Y-53144990D01*
X103737000Y-53267148D01*
X103737000Y-54753000D01*
X103757000Y-54753000D01*
X103757000Y-55007000D01*
X103737000Y-55007000D01*
X103737000Y-55027000D01*
X103483000Y-55027000D01*
X103483000Y-55007000D01*
X103463000Y-55007000D01*
X103463000Y-54753000D01*
X103483000Y-54753000D01*
X103483000Y-53267148D01*
X103262940Y-53144990D01*
X103183004Y-53161673D01*
X102694014Y-53428809D01*
X102344475Y-53862738D01*
X102339754Y-53878830D01*
X102075789Y-53483778D01*
X101614329Y-53175441D01*
X101070000Y-53067167D01*
X100525671Y-53175441D01*
X100064211Y-53483778D01*
X99800000Y-53879199D01*
X99535789Y-53483778D01*
X99074329Y-53175441D01*
X98530000Y-53067167D01*
X97985671Y-53175441D01*
X97524211Y-53483778D01*
X97260000Y-53879199D01*
X96995789Y-53483778D01*
X96534329Y-53175441D01*
X95990000Y-53067167D01*
X95445671Y-53175441D01*
X94984211Y-53483778D01*
X94675874Y-53945238D01*
X94567600Y-54489567D01*
X94567600Y-55270433D01*
X94675874Y-55814762D01*
X94876486Y-56115000D01*
X94416822Y-56115000D01*
X94296799Y-56065162D01*
X93924833Y-56064838D01*
X93581057Y-56206883D01*
X93317808Y-56469673D01*
X93175162Y-56813201D01*
X93174838Y-57185167D01*
X90710000Y-57185167D01*
X90710000Y-55294092D01*
X95294092Y-50710000D01*
X184705908Y-50710000D01*
X189290000Y-55294092D01*
M02*
