G04 #@! TF.FileFunction,Legend,Bot*
%FSLAX46Y46*%
G04 Gerber Fmt 4.6, Leading zero omitted, Abs format (unit mm)*
G04 Created by KiCad (PCBNEW 4.0.7) date 12/17/17 18:42:28*
%MOMM*%
%LPD*%
G01*
G04 APERTURE LIST*
%ADD10C,0.100000*%
%ADD11C,0.300000*%
%ADD12C,0.010000*%
%ADD13C,0.120000*%
%ADD14C,0.381000*%
%ADD15C,0.225000*%
%ADD16C,0.150000*%
%ADD17C,0.304800*%
G04 APERTURE END LIST*
D10*
D11*
X184642857Y-56178571D02*
X184642857Y-54678571D01*
X183928571Y-55178571D02*
X183928571Y-56178571D01*
X183928571Y-55321429D02*
X183857143Y-55250000D01*
X183714285Y-55178571D01*
X183500000Y-55178571D01*
X183357143Y-55250000D01*
X183285714Y-55392857D01*
X183285714Y-56178571D01*
X181642857Y-55178571D02*
X181071428Y-55178571D01*
X181428571Y-54678571D02*
X181428571Y-55964286D01*
X181357143Y-56107143D01*
X181214285Y-56178571D01*
X181071428Y-56178571D01*
X180571428Y-56178571D02*
X180571428Y-54678571D01*
X179928571Y-56178571D02*
X179928571Y-55392857D01*
X180000000Y-55250000D01*
X180142857Y-55178571D01*
X180357142Y-55178571D01*
X180500000Y-55250000D01*
X180571428Y-55321429D01*
X178642857Y-56107143D02*
X178785714Y-56178571D01*
X179071428Y-56178571D01*
X179214285Y-56107143D01*
X179285714Y-55964286D01*
X179285714Y-55392857D01*
X179214285Y-55250000D01*
X179071428Y-55178571D01*
X178785714Y-55178571D01*
X178642857Y-55250000D01*
X178571428Y-55392857D01*
X178571428Y-55535714D01*
X179285714Y-55678571D01*
X176142857Y-56107143D02*
X176285714Y-56178571D01*
X176571428Y-56178571D01*
X176714286Y-56107143D01*
X176785714Y-56035714D01*
X176857143Y-55892857D01*
X176857143Y-55464286D01*
X176785714Y-55321429D01*
X176714286Y-55250000D01*
X176571428Y-55178571D01*
X176285714Y-55178571D01*
X176142857Y-55250000D01*
X174857143Y-56178571D02*
X174857143Y-55392857D01*
X174928572Y-55250000D01*
X175071429Y-55178571D01*
X175357143Y-55178571D01*
X175500000Y-55250000D01*
X174857143Y-56107143D02*
X175000000Y-56178571D01*
X175357143Y-56178571D01*
X175500000Y-56107143D01*
X175571429Y-55964286D01*
X175571429Y-55821429D01*
X175500000Y-55678571D01*
X175357143Y-55607143D01*
X175000000Y-55607143D01*
X174857143Y-55535714D01*
X174214286Y-56107143D02*
X174071429Y-56178571D01*
X173785714Y-56178571D01*
X173642857Y-56107143D01*
X173571429Y-55964286D01*
X173571429Y-55892857D01*
X173642857Y-55750000D01*
X173785714Y-55678571D01*
X174000000Y-55678571D01*
X174142857Y-55607143D01*
X174214286Y-55464286D01*
X174214286Y-55392857D01*
X174142857Y-55250000D01*
X174000000Y-55178571D01*
X173785714Y-55178571D01*
X173642857Y-55250000D01*
X172357143Y-56107143D02*
X172500000Y-56178571D01*
X172785714Y-56178571D01*
X172928571Y-56107143D01*
X173000000Y-55964286D01*
X173000000Y-55392857D01*
X172928571Y-55250000D01*
X172785714Y-55178571D01*
X172500000Y-55178571D01*
X172357143Y-55250000D01*
X172285714Y-55392857D01*
X172285714Y-55535714D01*
X173000000Y-55678571D01*
X170642857Y-55178571D02*
X170285714Y-56178571D01*
X169928572Y-55178571D02*
X170285714Y-56178571D01*
X170428572Y-56535714D01*
X170500000Y-56607143D01*
X170642857Y-56678571D01*
X169142857Y-56178571D02*
X169285715Y-56107143D01*
X169357143Y-56035714D01*
X169428572Y-55892857D01*
X169428572Y-55464286D01*
X169357143Y-55321429D01*
X169285715Y-55250000D01*
X169142857Y-55178571D01*
X168928572Y-55178571D01*
X168785715Y-55250000D01*
X168714286Y-55321429D01*
X168642857Y-55464286D01*
X168642857Y-55892857D01*
X168714286Y-56035714D01*
X168785715Y-56107143D01*
X168928572Y-56178571D01*
X169142857Y-56178571D01*
X167357143Y-55178571D02*
X167357143Y-56178571D01*
X168000000Y-55178571D02*
X168000000Y-55964286D01*
X167928572Y-56107143D01*
X167785714Y-56178571D01*
X167571429Y-56178571D01*
X167428572Y-56107143D01*
X167357143Y-56035714D01*
X165500000Y-56178571D02*
X165500000Y-55178571D01*
X165500000Y-55464286D02*
X165428572Y-55321429D01*
X165357143Y-55250000D01*
X165214286Y-55178571D01*
X165071429Y-55178571D01*
X164000001Y-56107143D02*
X164142858Y-56178571D01*
X164428572Y-56178571D01*
X164571429Y-56107143D01*
X164642858Y-55964286D01*
X164642858Y-55392857D01*
X164571429Y-55250000D01*
X164428572Y-55178571D01*
X164142858Y-55178571D01*
X164000001Y-55250000D01*
X163928572Y-55392857D01*
X163928572Y-55535714D01*
X164642858Y-55678571D01*
X162642858Y-56178571D02*
X162642858Y-55392857D01*
X162714287Y-55250000D01*
X162857144Y-55178571D01*
X163142858Y-55178571D01*
X163285715Y-55250000D01*
X162642858Y-56107143D02*
X162785715Y-56178571D01*
X163142858Y-56178571D01*
X163285715Y-56107143D01*
X163357144Y-55964286D01*
X163357144Y-55821429D01*
X163285715Y-55678571D01*
X163142858Y-55607143D01*
X162785715Y-55607143D01*
X162642858Y-55535714D01*
X161285715Y-56178571D02*
X161285715Y-54678571D01*
X161285715Y-56107143D02*
X161428572Y-56178571D01*
X161714286Y-56178571D01*
X161857144Y-56107143D01*
X161928572Y-56035714D01*
X162000001Y-55892857D01*
X162000001Y-55464286D01*
X161928572Y-55321429D01*
X161857144Y-55250000D01*
X161714286Y-55178571D01*
X161428572Y-55178571D01*
X161285715Y-55250000D01*
X159642858Y-55178571D02*
X159071429Y-55178571D01*
X159428572Y-54678571D02*
X159428572Y-55964286D01*
X159357144Y-56107143D01*
X159214286Y-56178571D01*
X159071429Y-56178571D01*
X158571429Y-56178571D02*
X158571429Y-54678571D01*
X157928572Y-56178571D02*
X157928572Y-55392857D01*
X158000001Y-55250000D01*
X158142858Y-55178571D01*
X158357143Y-55178571D01*
X158500001Y-55250000D01*
X158571429Y-55321429D01*
X156642858Y-56107143D02*
X156785715Y-56178571D01*
X157071429Y-56178571D01*
X157214286Y-56107143D01*
X157285715Y-55964286D01*
X157285715Y-55392857D01*
X157214286Y-55250000D01*
X157071429Y-55178571D01*
X156785715Y-55178571D01*
X156642858Y-55250000D01*
X156571429Y-55392857D01*
X156571429Y-55535714D01*
X157285715Y-55678571D01*
X155000001Y-55178571D02*
X154428572Y-55178571D01*
X154785715Y-54678571D02*
X154785715Y-55964286D01*
X154714287Y-56107143D01*
X154571429Y-56178571D01*
X154428572Y-56178571D01*
X153357144Y-56107143D02*
X153500001Y-56178571D01*
X153785715Y-56178571D01*
X153928572Y-56107143D01*
X154000001Y-55964286D01*
X154000001Y-55392857D01*
X153928572Y-55250000D01*
X153785715Y-55178571D01*
X153500001Y-55178571D01*
X153357144Y-55250000D01*
X153285715Y-55392857D01*
X153285715Y-55535714D01*
X154000001Y-55678571D01*
X152785715Y-56178571D02*
X152000001Y-55178571D01*
X152785715Y-55178571D02*
X152000001Y-56178571D01*
X151642858Y-55178571D02*
X151071429Y-55178571D01*
X151428572Y-54678571D02*
X151428572Y-55964286D01*
X151357144Y-56107143D01*
X151214286Y-56178571D01*
X151071429Y-56178571D01*
X149642858Y-55178571D02*
X149071429Y-55178571D01*
X149428572Y-54678571D02*
X149428572Y-55964286D01*
X149357144Y-56107143D01*
X149214286Y-56178571D01*
X149071429Y-56178571D01*
X148571429Y-56178571D02*
X148571429Y-54678571D01*
X147928572Y-56178571D02*
X147928572Y-55392857D01*
X148000001Y-55250000D01*
X148142858Y-55178571D01*
X148357143Y-55178571D01*
X148500001Y-55250000D01*
X148571429Y-55321429D01*
X147214286Y-56178571D02*
X147214286Y-55178571D01*
X147214286Y-54678571D02*
X147285715Y-54750000D01*
X147214286Y-54821429D01*
X147142858Y-54750000D01*
X147214286Y-54678571D01*
X147214286Y-54821429D01*
X146571429Y-56107143D02*
X146428572Y-56178571D01*
X146142857Y-56178571D01*
X146000000Y-56107143D01*
X145928572Y-55964286D01*
X145928572Y-55892857D01*
X146000000Y-55750000D01*
X146142857Y-55678571D01*
X146357143Y-55678571D01*
X146500000Y-55607143D01*
X146571429Y-55464286D01*
X146571429Y-55392857D01*
X146500000Y-55250000D01*
X146357143Y-55178571D01*
X146142857Y-55178571D01*
X146000000Y-55250000D01*
X144285714Y-55178571D02*
X144000000Y-56178571D01*
X143714286Y-55464286D01*
X143428571Y-56178571D01*
X143142857Y-55178571D01*
X141928571Y-56178571D02*
X141928571Y-55392857D01*
X142000000Y-55250000D01*
X142142857Y-55178571D01*
X142428571Y-55178571D01*
X142571428Y-55250000D01*
X141928571Y-56107143D02*
X142071428Y-56178571D01*
X142428571Y-56178571D01*
X142571428Y-56107143D01*
X142642857Y-55964286D01*
X142642857Y-55821429D01*
X142571428Y-55678571D01*
X142428571Y-55607143D01*
X142071428Y-55607143D01*
X141928571Y-55535714D01*
X141357142Y-55178571D02*
X140999999Y-56178571D01*
X140642857Y-55178571D02*
X140999999Y-56178571D01*
X141142857Y-56535714D01*
X141214285Y-56607143D01*
X141357142Y-56678571D01*
X140071428Y-56035714D02*
X140000000Y-56107143D01*
X140071428Y-56178571D01*
X140142857Y-56107143D01*
X140071428Y-56035714D01*
X140071428Y-56178571D01*
X140071428Y-55250000D02*
X140000000Y-55321429D01*
X140071428Y-55392857D01*
X140142857Y-55321429D01*
X140071428Y-55250000D01*
X140071428Y-55392857D01*
X184642857Y-58728571D02*
X184642857Y-57228571D01*
X184285714Y-57228571D01*
X184071429Y-57300000D01*
X183928571Y-57442857D01*
X183857143Y-57585714D01*
X183785714Y-57871429D01*
X183785714Y-58085714D01*
X183857143Y-58371429D01*
X183928571Y-58514286D01*
X184071429Y-58657143D01*
X184285714Y-58728571D01*
X184642857Y-58728571D01*
X183214286Y-58300000D02*
X182500000Y-58300000D01*
X183357143Y-58728571D02*
X182857143Y-57228571D01*
X182357143Y-58728571D01*
X182071429Y-57228571D02*
X181214286Y-57228571D01*
X181642857Y-58728571D02*
X181642857Y-57228571D01*
X180785715Y-58300000D02*
X180071429Y-58300000D01*
X180928572Y-58728571D02*
X180428572Y-57228571D01*
X179928572Y-58728571D01*
X183928571Y-59778571D02*
X184642857Y-59778571D01*
X184714286Y-60492857D01*
X184642857Y-60421429D01*
X184500000Y-60350000D01*
X184142857Y-60350000D01*
X184000000Y-60421429D01*
X183928571Y-60492857D01*
X183857143Y-60635714D01*
X183857143Y-60992857D01*
X183928571Y-61135714D01*
X184000000Y-61207143D01*
X184142857Y-61278571D01*
X184500000Y-61278571D01*
X184642857Y-61207143D01*
X184714286Y-61135714D01*
X183428572Y-59778571D02*
X182928572Y-61278571D01*
X182428572Y-59778571D01*
X183857143Y-62400000D02*
X184000000Y-62328571D01*
X184214286Y-62328571D01*
X184428571Y-62400000D01*
X184571429Y-62542857D01*
X184642857Y-62685714D01*
X184714286Y-62971429D01*
X184714286Y-63185714D01*
X184642857Y-63471429D01*
X184571429Y-63614286D01*
X184428571Y-63757143D01*
X184214286Y-63828571D01*
X184071429Y-63828571D01*
X183857143Y-63757143D01*
X183785714Y-63685714D01*
X183785714Y-63185714D01*
X184071429Y-63185714D01*
X183142857Y-63828571D02*
X183142857Y-62328571D01*
X182285714Y-63828571D01*
X182285714Y-62328571D01*
X181571428Y-63828571D02*
X181571428Y-62328571D01*
X181214285Y-62328571D01*
X181000000Y-62400000D01*
X180857142Y-62542857D01*
X180785714Y-62685714D01*
X180714285Y-62971429D01*
X180714285Y-63185714D01*
X180785714Y-63471429D01*
X180857142Y-63614286D01*
X181000000Y-63757143D01*
X181214285Y-63828571D01*
X181571428Y-63828571D01*
X184857143Y-64878571D02*
X184000000Y-64878571D01*
X184428571Y-66378571D02*
X184428571Y-64878571D01*
X182857143Y-65378571D02*
X182857143Y-66378571D01*
X183500000Y-65378571D02*
X183500000Y-66164286D01*
X183428572Y-66307143D01*
X183285714Y-66378571D01*
X183071429Y-66378571D01*
X182928572Y-66307143D01*
X182857143Y-66235714D01*
X182142857Y-66378571D02*
X182142857Y-65378571D01*
X182142857Y-65664286D02*
X182071429Y-65521429D01*
X182000000Y-65450000D01*
X181857143Y-65378571D01*
X181714286Y-65378571D01*
X181214286Y-65378571D02*
X181214286Y-66378571D01*
X181214286Y-65521429D02*
X181142858Y-65450000D01*
X181000000Y-65378571D01*
X180785715Y-65378571D01*
X180642858Y-65450000D01*
X180571429Y-65592857D01*
X180571429Y-66378571D01*
X178000000Y-66378571D02*
X178714286Y-66378571D01*
X178714286Y-64878571D01*
X177500000Y-65592857D02*
X177000000Y-65592857D01*
X176785714Y-66378571D02*
X177500000Y-66378571D01*
X177500000Y-64878571D01*
X176785714Y-64878571D01*
X176142857Y-66378571D02*
X176142857Y-64878571D01*
X175785714Y-64878571D01*
X175571429Y-64950000D01*
X175428571Y-65092857D01*
X175357143Y-65235714D01*
X175285714Y-65521429D01*
X175285714Y-65735714D01*
X175357143Y-66021429D01*
X175428571Y-66164286D01*
X175571429Y-66307143D01*
X175785714Y-66378571D01*
X176142857Y-66378571D01*
X174714286Y-66307143D02*
X174571429Y-66378571D01*
X174285714Y-66378571D01*
X174142857Y-66307143D01*
X174071429Y-66164286D01*
X174071429Y-66092857D01*
X174142857Y-65950000D01*
X174285714Y-65878571D01*
X174500000Y-65878571D01*
X174642857Y-65807143D01*
X174714286Y-65664286D01*
X174714286Y-65592857D01*
X174642857Y-65450000D01*
X174500000Y-65378571D01*
X174285714Y-65378571D01*
X174142857Y-65450000D01*
X171500000Y-66378571D02*
X172357143Y-66378571D01*
X171928571Y-66378571D02*
X171928571Y-64878571D01*
X172071428Y-65092857D01*
X172214286Y-65235714D01*
X172357143Y-65307143D01*
X170642857Y-65521429D02*
X170785715Y-65450000D01*
X170857143Y-65378571D01*
X170928572Y-65235714D01*
X170928572Y-65164286D01*
X170857143Y-65021429D01*
X170785715Y-64950000D01*
X170642857Y-64878571D01*
X170357143Y-64878571D01*
X170214286Y-64950000D01*
X170142857Y-65021429D01*
X170071429Y-65164286D01*
X170071429Y-65235714D01*
X170142857Y-65378571D01*
X170214286Y-65450000D01*
X170357143Y-65521429D01*
X170642857Y-65521429D01*
X170785715Y-65592857D01*
X170857143Y-65664286D01*
X170928572Y-65807143D01*
X170928572Y-66092857D01*
X170857143Y-66235714D01*
X170785715Y-66307143D01*
X170642857Y-66378571D01*
X170357143Y-66378571D01*
X170214286Y-66307143D01*
X170142857Y-66235714D01*
X170071429Y-66092857D01*
X170071429Y-65807143D01*
X170142857Y-65664286D01*
X170214286Y-65592857D01*
X170357143Y-65521429D01*
X169142858Y-64878571D02*
X169000001Y-64878571D01*
X168857144Y-64950000D01*
X168785715Y-65021429D01*
X168714286Y-65164286D01*
X168642858Y-65450000D01*
X168642858Y-65807143D01*
X168714286Y-66092857D01*
X168785715Y-66235714D01*
X168857144Y-66307143D01*
X169000001Y-66378571D01*
X169142858Y-66378571D01*
X169285715Y-66307143D01*
X169357144Y-66235714D01*
X169428572Y-66092857D01*
X169500001Y-65807143D01*
X169500001Y-65450000D01*
X169428572Y-65164286D01*
X169357144Y-65021429D01*
X169285715Y-64950000D01*
X169142858Y-64878571D01*
X167785715Y-64878571D02*
X167928573Y-64950000D01*
X168000001Y-65092857D01*
X167928573Y-65235714D01*
X167785715Y-65307143D01*
X167642858Y-65235714D01*
X167571430Y-65092857D01*
X167642858Y-64950000D01*
X167785715Y-64878571D01*
X140157143Y-67746429D02*
X140157143Y-69246429D01*
X140871429Y-68746429D02*
X140871429Y-67746429D01*
X140871429Y-68603571D02*
X140942857Y-68675000D01*
X141085715Y-68746429D01*
X141300000Y-68746429D01*
X141442857Y-68675000D01*
X141514286Y-68532143D01*
X141514286Y-67746429D01*
X143157143Y-68746429D02*
X143728572Y-68746429D01*
X143371429Y-69246429D02*
X143371429Y-67960714D01*
X143442857Y-67817857D01*
X143585715Y-67746429D01*
X143728572Y-67746429D01*
X144228572Y-67746429D02*
X144228572Y-69246429D01*
X144871429Y-67746429D02*
X144871429Y-68532143D01*
X144800000Y-68675000D01*
X144657143Y-68746429D01*
X144442858Y-68746429D01*
X144300000Y-68675000D01*
X144228572Y-68603571D01*
X146157143Y-67817857D02*
X146014286Y-67746429D01*
X145728572Y-67746429D01*
X145585715Y-67817857D01*
X145514286Y-67960714D01*
X145514286Y-68532143D01*
X145585715Y-68675000D01*
X145728572Y-68746429D01*
X146014286Y-68746429D01*
X146157143Y-68675000D01*
X146228572Y-68532143D01*
X146228572Y-68389286D01*
X145514286Y-68246429D01*
X148657143Y-67817857D02*
X148514286Y-67746429D01*
X148228572Y-67746429D01*
X148085714Y-67817857D01*
X148014286Y-67889286D01*
X147942857Y-68032143D01*
X147942857Y-68460714D01*
X148014286Y-68603571D01*
X148085714Y-68675000D01*
X148228572Y-68746429D01*
X148514286Y-68746429D01*
X148657143Y-68675000D01*
X149942857Y-67746429D02*
X149942857Y-68532143D01*
X149871428Y-68675000D01*
X149728571Y-68746429D01*
X149442857Y-68746429D01*
X149300000Y-68675000D01*
X149942857Y-67817857D02*
X149800000Y-67746429D01*
X149442857Y-67746429D01*
X149300000Y-67817857D01*
X149228571Y-67960714D01*
X149228571Y-68103571D01*
X149300000Y-68246429D01*
X149442857Y-68317857D01*
X149800000Y-68317857D01*
X149942857Y-68389286D01*
X150585714Y-67817857D02*
X150728571Y-67746429D01*
X151014286Y-67746429D01*
X151157143Y-67817857D01*
X151228571Y-67960714D01*
X151228571Y-68032143D01*
X151157143Y-68175000D01*
X151014286Y-68246429D01*
X150800000Y-68246429D01*
X150657143Y-68317857D01*
X150585714Y-68460714D01*
X150585714Y-68532143D01*
X150657143Y-68675000D01*
X150800000Y-68746429D01*
X151014286Y-68746429D01*
X151157143Y-68675000D01*
X152442857Y-67817857D02*
X152300000Y-67746429D01*
X152014286Y-67746429D01*
X151871429Y-67817857D01*
X151800000Y-67960714D01*
X151800000Y-68532143D01*
X151871429Y-68675000D01*
X152014286Y-68746429D01*
X152300000Y-68746429D01*
X152442857Y-68675000D01*
X152514286Y-68532143D01*
X152514286Y-68389286D01*
X151800000Y-68246429D01*
X154157143Y-68746429D02*
X154514286Y-67746429D01*
X154871428Y-68746429D02*
X154514286Y-67746429D01*
X154371428Y-67389286D01*
X154300000Y-67317857D01*
X154157143Y-67246429D01*
X155657143Y-67746429D02*
X155514285Y-67817857D01*
X155442857Y-67889286D01*
X155371428Y-68032143D01*
X155371428Y-68460714D01*
X155442857Y-68603571D01*
X155514285Y-68675000D01*
X155657143Y-68746429D01*
X155871428Y-68746429D01*
X156014285Y-68675000D01*
X156085714Y-68603571D01*
X156157143Y-68460714D01*
X156157143Y-68032143D01*
X156085714Y-67889286D01*
X156014285Y-67817857D01*
X155871428Y-67746429D01*
X155657143Y-67746429D01*
X157442857Y-68746429D02*
X157442857Y-67746429D01*
X156800000Y-68746429D02*
X156800000Y-67960714D01*
X156871428Y-67817857D01*
X157014286Y-67746429D01*
X157228571Y-67746429D01*
X157371428Y-67817857D01*
X157442857Y-67889286D01*
X159300000Y-67746429D02*
X159300000Y-68746429D01*
X159300000Y-68460714D02*
X159371428Y-68603571D01*
X159442857Y-68675000D01*
X159585714Y-68746429D01*
X159728571Y-68746429D01*
X160799999Y-67817857D02*
X160657142Y-67746429D01*
X160371428Y-67746429D01*
X160228571Y-67817857D01*
X160157142Y-67960714D01*
X160157142Y-68532143D01*
X160228571Y-68675000D01*
X160371428Y-68746429D01*
X160657142Y-68746429D01*
X160799999Y-68675000D01*
X160871428Y-68532143D01*
X160871428Y-68389286D01*
X160157142Y-68246429D01*
X162157142Y-67746429D02*
X162157142Y-68532143D01*
X162085713Y-68675000D01*
X161942856Y-68746429D01*
X161657142Y-68746429D01*
X161514285Y-68675000D01*
X162157142Y-67817857D02*
X162014285Y-67746429D01*
X161657142Y-67746429D01*
X161514285Y-67817857D01*
X161442856Y-67960714D01*
X161442856Y-68103571D01*
X161514285Y-68246429D01*
X161657142Y-68317857D01*
X162014285Y-68317857D01*
X162157142Y-68389286D01*
X163514285Y-67746429D02*
X163514285Y-69246429D01*
X163514285Y-67817857D02*
X163371428Y-67746429D01*
X163085714Y-67746429D01*
X162942856Y-67817857D01*
X162871428Y-67889286D01*
X162799999Y-68032143D01*
X162799999Y-68460714D01*
X162871428Y-68603571D01*
X162942856Y-68675000D01*
X163085714Y-68746429D01*
X163371428Y-68746429D01*
X163514285Y-68675000D01*
X165157142Y-68746429D02*
X165728571Y-68746429D01*
X165371428Y-69246429D02*
X165371428Y-67960714D01*
X165442856Y-67817857D01*
X165585714Y-67746429D01*
X165728571Y-67746429D01*
X166228571Y-67746429D02*
X166228571Y-69246429D01*
X166871428Y-67746429D02*
X166871428Y-68532143D01*
X166799999Y-68675000D01*
X166657142Y-68746429D01*
X166442857Y-68746429D01*
X166299999Y-68675000D01*
X166228571Y-68603571D01*
X168157142Y-67817857D02*
X168014285Y-67746429D01*
X167728571Y-67746429D01*
X167585714Y-67817857D01*
X167514285Y-67960714D01*
X167514285Y-68532143D01*
X167585714Y-68675000D01*
X167728571Y-68746429D01*
X168014285Y-68746429D01*
X168157142Y-68675000D01*
X168228571Y-68532143D01*
X168228571Y-68389286D01*
X167514285Y-68246429D01*
X169799999Y-68746429D02*
X170371428Y-68746429D01*
X170014285Y-69246429D02*
X170014285Y-67960714D01*
X170085713Y-67817857D01*
X170228571Y-67746429D01*
X170371428Y-67746429D01*
X171442856Y-67817857D02*
X171299999Y-67746429D01*
X171014285Y-67746429D01*
X170871428Y-67817857D01*
X170799999Y-67960714D01*
X170799999Y-68532143D01*
X170871428Y-68675000D01*
X171014285Y-68746429D01*
X171299999Y-68746429D01*
X171442856Y-68675000D01*
X171514285Y-68532143D01*
X171514285Y-68389286D01*
X170799999Y-68246429D01*
X172014285Y-67746429D02*
X172799999Y-68746429D01*
X172014285Y-68746429D02*
X172799999Y-67746429D01*
X173157142Y-68746429D02*
X173728571Y-68746429D01*
X173371428Y-69246429D02*
X173371428Y-67960714D01*
X173442856Y-67817857D01*
X173585714Y-67746429D01*
X173728571Y-67746429D01*
X175157142Y-68746429D02*
X175728571Y-68746429D01*
X175371428Y-69246429D02*
X175371428Y-67960714D01*
X175442856Y-67817857D01*
X175585714Y-67746429D01*
X175728571Y-67746429D01*
X176228571Y-67746429D02*
X176228571Y-69246429D01*
X176871428Y-67746429D02*
X176871428Y-68532143D01*
X176799999Y-68675000D01*
X176657142Y-68746429D01*
X176442857Y-68746429D01*
X176299999Y-68675000D01*
X176228571Y-68603571D01*
X177585714Y-67746429D02*
X177585714Y-68746429D01*
X177585714Y-69246429D02*
X177514285Y-69175000D01*
X177585714Y-69103571D01*
X177657142Y-69175000D01*
X177585714Y-69246429D01*
X177585714Y-69103571D01*
X178228571Y-67817857D02*
X178371428Y-67746429D01*
X178657143Y-67746429D01*
X178800000Y-67817857D01*
X178871428Y-67960714D01*
X178871428Y-68032143D01*
X178800000Y-68175000D01*
X178657143Y-68246429D01*
X178442857Y-68246429D01*
X178300000Y-68317857D01*
X178228571Y-68460714D01*
X178228571Y-68532143D01*
X178300000Y-68675000D01*
X178442857Y-68746429D01*
X178657143Y-68746429D01*
X178800000Y-68675000D01*
X180514286Y-68746429D02*
X180800000Y-67746429D01*
X181085714Y-68460714D01*
X181371429Y-67746429D01*
X181657143Y-68746429D01*
X182871429Y-67746429D02*
X182871429Y-68532143D01*
X182800000Y-68675000D01*
X182657143Y-68746429D01*
X182371429Y-68746429D01*
X182228572Y-68675000D01*
X182871429Y-67817857D02*
X182728572Y-67746429D01*
X182371429Y-67746429D01*
X182228572Y-67817857D01*
X182157143Y-67960714D01*
X182157143Y-68103571D01*
X182228572Y-68246429D01*
X182371429Y-68317857D01*
X182728572Y-68317857D01*
X182871429Y-68389286D01*
X183442858Y-68746429D02*
X183800001Y-67746429D01*
X184157143Y-68746429D02*
X183800001Y-67746429D01*
X183657143Y-67389286D01*
X183585715Y-67317857D01*
X183442858Y-67246429D01*
X184728572Y-67889286D02*
X184800000Y-67817857D01*
X184728572Y-67746429D01*
X184657143Y-67817857D01*
X184728572Y-67889286D01*
X184728572Y-67746429D01*
X184728572Y-68675000D02*
X184800000Y-68603571D01*
X184728572Y-68532143D01*
X184657143Y-68603571D01*
X184728572Y-68675000D01*
X184728572Y-68532143D01*
X140157143Y-65196429D02*
X140157143Y-66696429D01*
X140514286Y-66696429D01*
X140728571Y-66625000D01*
X140871429Y-66482143D01*
X140942857Y-66339286D01*
X141014286Y-66053571D01*
X141014286Y-65839286D01*
X140942857Y-65553571D01*
X140871429Y-65410714D01*
X140728571Y-65267857D01*
X140514286Y-65196429D01*
X140157143Y-65196429D01*
X141585714Y-65625000D02*
X142300000Y-65625000D01*
X141442857Y-65196429D02*
X141942857Y-66696429D01*
X142442857Y-65196429D01*
X142728571Y-66696429D02*
X143585714Y-66696429D01*
X143157143Y-65196429D02*
X143157143Y-66696429D01*
X144014285Y-65625000D02*
X144728571Y-65625000D01*
X143871428Y-65196429D02*
X144371428Y-66696429D01*
X144871428Y-65196429D01*
X140871429Y-64146429D02*
X140157143Y-64146429D01*
X140085714Y-63432143D01*
X140157143Y-63503571D01*
X140300000Y-63575000D01*
X140657143Y-63575000D01*
X140800000Y-63503571D01*
X140871429Y-63432143D01*
X140942857Y-63289286D01*
X140942857Y-62932143D01*
X140871429Y-62789286D01*
X140800000Y-62717857D01*
X140657143Y-62646429D01*
X140300000Y-62646429D01*
X140157143Y-62717857D01*
X140085714Y-62789286D01*
X141371428Y-64146429D02*
X141871428Y-62646429D01*
X142371428Y-64146429D01*
X140942857Y-61525000D02*
X140800000Y-61596429D01*
X140585714Y-61596429D01*
X140371429Y-61525000D01*
X140228571Y-61382143D01*
X140157143Y-61239286D01*
X140085714Y-60953571D01*
X140085714Y-60739286D01*
X140157143Y-60453571D01*
X140228571Y-60310714D01*
X140371429Y-60167857D01*
X140585714Y-60096429D01*
X140728571Y-60096429D01*
X140942857Y-60167857D01*
X141014286Y-60239286D01*
X141014286Y-60739286D01*
X140728571Y-60739286D01*
X141657143Y-60096429D02*
X141657143Y-61596429D01*
X142514286Y-60096429D01*
X142514286Y-61596429D01*
X143228572Y-60096429D02*
X143228572Y-61596429D01*
X143585715Y-61596429D01*
X143800000Y-61525000D01*
X143942858Y-61382143D01*
X144014286Y-61239286D01*
X144085715Y-60953571D01*
X144085715Y-60739286D01*
X144014286Y-60453571D01*
X143942858Y-60310714D01*
X143800000Y-60167857D01*
X143585715Y-60096429D01*
X143228572Y-60096429D01*
D12*
G36*
X137437258Y-138311223D02*
X137495230Y-138308547D01*
X137547513Y-138303364D01*
X137585310Y-138296870D01*
X137693123Y-138266828D01*
X137794227Y-138226201D01*
X137888139Y-138175473D01*
X137974372Y-138115129D01*
X138052442Y-138045655D01*
X138121863Y-137967535D01*
X138182152Y-137881255D01*
X138232821Y-137787299D01*
X138273387Y-137686154D01*
X138303219Y-137578961D01*
X138310566Y-137534512D01*
X138315408Y-137481241D01*
X138317743Y-137422775D01*
X138317572Y-137362742D01*
X138314896Y-137304770D01*
X138309713Y-137252487D01*
X138303219Y-137214690D01*
X138273339Y-137107579D01*
X138232857Y-137006912D01*
X138182311Y-136913230D01*
X138122241Y-136827074D01*
X138053189Y-136748987D01*
X137975693Y-136679510D01*
X137890293Y-136619184D01*
X137797530Y-136568552D01*
X137697944Y-136528155D01*
X137592074Y-136498534D01*
X137588558Y-136497764D01*
X137553030Y-136491845D01*
X137508505Y-136487136D01*
X137458645Y-136483775D01*
X137407108Y-136481904D01*
X137357554Y-136481660D01*
X137313642Y-136483185D01*
X137282623Y-136486093D01*
X137177837Y-136506872D01*
X137076666Y-136539447D01*
X136980141Y-136583209D01*
X136889291Y-136637551D01*
X136805143Y-136701863D01*
X136728728Y-136775538D01*
X136666781Y-136850201D01*
X136608243Y-136939357D01*
X136561003Y-137033475D01*
X136525157Y-137131533D01*
X136500801Y-137232510D01*
X136488032Y-137335384D01*
X136487443Y-137391743D01*
X136735670Y-137391743D01*
X136738127Y-137332940D01*
X136744477Y-137278993D01*
X136751416Y-137245699D01*
X136780899Y-137156275D01*
X136820632Y-137073510D01*
X136869890Y-136998073D01*
X136927948Y-136930629D01*
X136994079Y-136871844D01*
X137067560Y-136822386D01*
X137147665Y-136782920D01*
X137233669Y-136754113D01*
X137301822Y-136739869D01*
X137337340Y-136736426D01*
X137381059Y-136735421D01*
X137428831Y-136736657D01*
X137476508Y-136739935D01*
X137519945Y-136745058D01*
X137554993Y-136751829D01*
X137555575Y-136751978D01*
X137646134Y-136781580D01*
X137729415Y-136821427D01*
X137804938Y-136871041D01*
X137872222Y-136929939D01*
X137930789Y-136997642D01*
X137980157Y-137073669D01*
X138019846Y-137157539D01*
X138048583Y-137245699D01*
X138054591Y-137270931D01*
X138058733Y-137294798D01*
X138061326Y-137320667D01*
X138062688Y-137351903D01*
X138063138Y-137391874D01*
X138063147Y-137400000D01*
X138062824Y-137441842D01*
X138061643Y-137474361D01*
X138059288Y-137500924D01*
X138055440Y-137524898D01*
X138049781Y-137549650D01*
X138048583Y-137554302D01*
X138018686Y-137645453D01*
X137978676Y-137729159D01*
X137929012Y-137804959D01*
X137870156Y-137872392D01*
X137802568Y-137930996D01*
X137726708Y-137980309D01*
X137643038Y-138019870D01*
X137555575Y-138048303D01*
X137529976Y-138054408D01*
X137506042Y-138058619D01*
X137480373Y-138061261D01*
X137449570Y-138062658D01*
X137410232Y-138063134D01*
X137400000Y-138063148D01*
X137358306Y-138062831D01*
X137325901Y-138061667D01*
X137299386Y-138059330D01*
X137275361Y-138055495D01*
X137250425Y-138049839D01*
X137244425Y-138048303D01*
X137154340Y-138018660D01*
X137071229Y-137978618D01*
X136995658Y-137928745D01*
X136928195Y-137869608D01*
X136869406Y-137801776D01*
X136819859Y-137725816D01*
X136780121Y-137642295D01*
X136751628Y-137555150D01*
X136742423Y-137507062D01*
X136737103Y-137451188D01*
X136735670Y-137391743D01*
X136487443Y-137391743D01*
X136486946Y-137439134D01*
X136497638Y-137542736D01*
X136520205Y-137645170D01*
X136554743Y-137745414D01*
X136577713Y-137796849D01*
X136630044Y-137890835D01*
X136692009Y-137976822D01*
X136763031Y-138054362D01*
X136842529Y-138123004D01*
X136929926Y-138182298D01*
X137024643Y-138231795D01*
X137126100Y-138271044D01*
X137221039Y-138296870D01*
X137265488Y-138304217D01*
X137318759Y-138309059D01*
X137377225Y-138311394D01*
X137437258Y-138311223D01*
X137437258Y-138311223D01*
G37*
X137437258Y-138311223D02*
X137495230Y-138308547D01*
X137547513Y-138303364D01*
X137585310Y-138296870D01*
X137693123Y-138266828D01*
X137794227Y-138226201D01*
X137888139Y-138175473D01*
X137974372Y-138115129D01*
X138052442Y-138045655D01*
X138121863Y-137967535D01*
X138182152Y-137881255D01*
X138232821Y-137787299D01*
X138273387Y-137686154D01*
X138303219Y-137578961D01*
X138310566Y-137534512D01*
X138315408Y-137481241D01*
X138317743Y-137422775D01*
X138317572Y-137362742D01*
X138314896Y-137304770D01*
X138309713Y-137252487D01*
X138303219Y-137214690D01*
X138273339Y-137107579D01*
X138232857Y-137006912D01*
X138182311Y-136913230D01*
X138122241Y-136827074D01*
X138053189Y-136748987D01*
X137975693Y-136679510D01*
X137890293Y-136619184D01*
X137797530Y-136568552D01*
X137697944Y-136528155D01*
X137592074Y-136498534D01*
X137588558Y-136497764D01*
X137553030Y-136491845D01*
X137508505Y-136487136D01*
X137458645Y-136483775D01*
X137407108Y-136481904D01*
X137357554Y-136481660D01*
X137313642Y-136483185D01*
X137282623Y-136486093D01*
X137177837Y-136506872D01*
X137076666Y-136539447D01*
X136980141Y-136583209D01*
X136889291Y-136637551D01*
X136805143Y-136701863D01*
X136728728Y-136775538D01*
X136666781Y-136850201D01*
X136608243Y-136939357D01*
X136561003Y-137033475D01*
X136525157Y-137131533D01*
X136500801Y-137232510D01*
X136488032Y-137335384D01*
X136487443Y-137391743D01*
X136735670Y-137391743D01*
X136738127Y-137332940D01*
X136744477Y-137278993D01*
X136751416Y-137245699D01*
X136780899Y-137156275D01*
X136820632Y-137073510D01*
X136869890Y-136998073D01*
X136927948Y-136930629D01*
X136994079Y-136871844D01*
X137067560Y-136822386D01*
X137147665Y-136782920D01*
X137233669Y-136754113D01*
X137301822Y-136739869D01*
X137337340Y-136736426D01*
X137381059Y-136735421D01*
X137428831Y-136736657D01*
X137476508Y-136739935D01*
X137519945Y-136745058D01*
X137554993Y-136751829D01*
X137555575Y-136751978D01*
X137646134Y-136781580D01*
X137729415Y-136821427D01*
X137804938Y-136871041D01*
X137872222Y-136929939D01*
X137930789Y-136997642D01*
X137980157Y-137073669D01*
X138019846Y-137157539D01*
X138048583Y-137245699D01*
X138054591Y-137270931D01*
X138058733Y-137294798D01*
X138061326Y-137320667D01*
X138062688Y-137351903D01*
X138063138Y-137391874D01*
X138063147Y-137400000D01*
X138062824Y-137441842D01*
X138061643Y-137474361D01*
X138059288Y-137500924D01*
X138055440Y-137524898D01*
X138049781Y-137549650D01*
X138048583Y-137554302D01*
X138018686Y-137645453D01*
X137978676Y-137729159D01*
X137929012Y-137804959D01*
X137870156Y-137872392D01*
X137802568Y-137930996D01*
X137726708Y-137980309D01*
X137643038Y-138019870D01*
X137555575Y-138048303D01*
X137529976Y-138054408D01*
X137506042Y-138058619D01*
X137480373Y-138061261D01*
X137449570Y-138062658D01*
X137410232Y-138063134D01*
X137400000Y-138063148D01*
X137358306Y-138062831D01*
X137325901Y-138061667D01*
X137299386Y-138059330D01*
X137275361Y-138055495D01*
X137250425Y-138049839D01*
X137244425Y-138048303D01*
X137154340Y-138018660D01*
X137071229Y-137978618D01*
X136995658Y-137928745D01*
X136928195Y-137869608D01*
X136869406Y-137801776D01*
X136819859Y-137725816D01*
X136780121Y-137642295D01*
X136751628Y-137555150D01*
X136742423Y-137507062D01*
X136737103Y-137451188D01*
X136735670Y-137391743D01*
X136487443Y-137391743D01*
X136486946Y-137439134D01*
X136497638Y-137542736D01*
X136520205Y-137645170D01*
X136554743Y-137745414D01*
X136577713Y-137796849D01*
X136630044Y-137890835D01*
X136692009Y-137976822D01*
X136763031Y-138054362D01*
X136842529Y-138123004D01*
X136929926Y-138182298D01*
X137024643Y-138231795D01*
X137126100Y-138271044D01*
X137221039Y-138296870D01*
X137265488Y-138304217D01*
X137318759Y-138309059D01*
X137377225Y-138311394D01*
X137437258Y-138311223D01*
G36*
X143379808Y-137887249D02*
X143417147Y-137821923D01*
X143450632Y-137749845D01*
X143473510Y-137689082D01*
X143482457Y-137661575D01*
X143489630Y-137638053D01*
X143494176Y-137621408D01*
X143495349Y-137615083D01*
X143490944Y-137609399D01*
X143478172Y-137595454D01*
X143457697Y-137573911D01*
X143430184Y-137545435D01*
X143396298Y-137510690D01*
X143356705Y-137470341D01*
X143312068Y-137425051D01*
X143263053Y-137375485D01*
X143210325Y-137322308D01*
X143154548Y-137266182D01*
X143096387Y-137207774D01*
X143036507Y-137147747D01*
X142975573Y-137086765D01*
X142914250Y-137025492D01*
X142853202Y-136964593D01*
X142793095Y-136904733D01*
X142734593Y-136846574D01*
X142678360Y-136790783D01*
X142625063Y-136738022D01*
X142575366Y-136688956D01*
X142529933Y-136644250D01*
X142489429Y-136604568D01*
X142454520Y-136570574D01*
X142425869Y-136542932D01*
X142404143Y-136522306D01*
X142390005Y-136509362D01*
X142384121Y-136504762D01*
X142384086Y-136504760D01*
X142374400Y-136506752D01*
X142355667Y-136512051D01*
X142330834Y-136519786D01*
X142309877Y-136526696D01*
X142248087Y-136549657D01*
X142191601Y-136575606D01*
X142134149Y-136607484D01*
X142122091Y-136614769D01*
X142079157Y-136641010D01*
X142718866Y-137280742D01*
X143358574Y-137920473D01*
X143379808Y-137887249D01*
X143379808Y-137887249D01*
G37*
X143379808Y-137887249D02*
X143417147Y-137821923D01*
X143450632Y-137749845D01*
X143473510Y-137689082D01*
X143482457Y-137661575D01*
X143489630Y-137638053D01*
X143494176Y-137621408D01*
X143495349Y-137615083D01*
X143490944Y-137609399D01*
X143478172Y-137595454D01*
X143457697Y-137573911D01*
X143430184Y-137545435D01*
X143396298Y-137510690D01*
X143356705Y-137470341D01*
X143312068Y-137425051D01*
X143263053Y-137375485D01*
X143210325Y-137322308D01*
X143154548Y-137266182D01*
X143096387Y-137207774D01*
X143036507Y-137147747D01*
X142975573Y-137086765D01*
X142914250Y-137025492D01*
X142853202Y-136964593D01*
X142793095Y-136904733D01*
X142734593Y-136846574D01*
X142678360Y-136790783D01*
X142625063Y-136738022D01*
X142575366Y-136688956D01*
X142529933Y-136644250D01*
X142489429Y-136604568D01*
X142454520Y-136570574D01*
X142425869Y-136542932D01*
X142404143Y-136522306D01*
X142390005Y-136509362D01*
X142384121Y-136504762D01*
X142384086Y-136504760D01*
X142374400Y-136506752D01*
X142355667Y-136512051D01*
X142330834Y-136519786D01*
X142309877Y-136526696D01*
X142248087Y-136549657D01*
X142191601Y-136575606D01*
X142134149Y-136607484D01*
X142122091Y-136614769D01*
X142079157Y-136641010D01*
X142718866Y-137280742D01*
X143358574Y-137920473D01*
X143379808Y-137887249D01*
G36*
X143479627Y-137121467D02*
X143474924Y-137106931D01*
X143467732Y-137086216D01*
X143465837Y-137080913D01*
X143426107Y-136988644D01*
X143375261Y-136900663D01*
X143314475Y-136818146D01*
X143244927Y-136742267D01*
X143167793Y-136674199D01*
X143084251Y-136615119D01*
X142995477Y-136566200D01*
X142917500Y-136533739D01*
X142869875Y-136516775D01*
X143174650Y-136821863D01*
X143226086Y-136873330D01*
X143274836Y-136922070D01*
X143320168Y-136967350D01*
X143361348Y-137008442D01*
X143397643Y-137044614D01*
X143428320Y-137075137D01*
X143452645Y-137099279D01*
X143469886Y-137116310D01*
X143479308Y-137125501D01*
X143480901Y-137126950D01*
X143479627Y-137121467D01*
X143479627Y-137121467D01*
G37*
X143479627Y-137121467D02*
X143474924Y-137106931D01*
X143467732Y-137086216D01*
X143465837Y-137080913D01*
X143426107Y-136988644D01*
X143375261Y-136900663D01*
X143314475Y-136818146D01*
X143244927Y-136742267D01*
X143167793Y-136674199D01*
X143084251Y-136615119D01*
X142995477Y-136566200D01*
X142917500Y-136533739D01*
X142869875Y-136516775D01*
X143174650Y-136821863D01*
X143226086Y-136873330D01*
X143274836Y-136922070D01*
X143320168Y-136967350D01*
X143361348Y-137008442D01*
X143397643Y-137044614D01*
X143428320Y-137075137D01*
X143452645Y-137099279D01*
X143469886Y-137116310D01*
X143479308Y-137125501D01*
X143480901Y-137126950D01*
X143479627Y-137121467D01*
G36*
X142830787Y-138287073D02*
X142849231Y-138281858D01*
X142873901Y-138274209D01*
X142895431Y-138267161D01*
X142968629Y-138239000D01*
X143039979Y-138204666D01*
X143093598Y-138173459D01*
X143126822Y-138152225D01*
X142487091Y-137512517D01*
X141847359Y-136872808D01*
X141821118Y-136915742D01*
X141804748Y-136943581D01*
X141787770Y-136974119D01*
X141774820Y-136998862D01*
X141765506Y-137019341D01*
X141754601Y-137046104D01*
X141743108Y-137076324D01*
X141732031Y-137107172D01*
X141722374Y-137135823D01*
X141715142Y-137159449D01*
X141711337Y-137175223D01*
X141711000Y-137178568D01*
X141715402Y-137184190D01*
X141728168Y-137198080D01*
X141748631Y-137219574D01*
X141776128Y-137248008D01*
X141809994Y-137282717D01*
X141849564Y-137323037D01*
X141894174Y-137368303D01*
X141943160Y-137417851D01*
X141995857Y-137471016D01*
X142051600Y-137527133D01*
X142109725Y-137585539D01*
X142169568Y-137645569D01*
X142230463Y-137706557D01*
X142291747Y-137767841D01*
X142352754Y-137828755D01*
X142412821Y-137888634D01*
X142471283Y-137946814D01*
X142527475Y-138002632D01*
X142580732Y-138055421D01*
X142630391Y-138104519D01*
X142675787Y-138149259D01*
X142716255Y-138188978D01*
X142751131Y-138223011D01*
X142779749Y-138250695D01*
X142801447Y-138271363D01*
X142815559Y-138284352D01*
X142821420Y-138288997D01*
X142821459Y-138289000D01*
X142830787Y-138287073D01*
X142830787Y-138287073D01*
G37*
X142830787Y-138287073D02*
X142849231Y-138281858D01*
X142873901Y-138274209D01*
X142895431Y-138267161D01*
X142968629Y-138239000D01*
X143039979Y-138204666D01*
X143093598Y-138173459D01*
X143126822Y-138152225D01*
X142487091Y-137512517D01*
X141847359Y-136872808D01*
X141821118Y-136915742D01*
X141804748Y-136943581D01*
X141787770Y-136974119D01*
X141774820Y-136998862D01*
X141765506Y-137019341D01*
X141754601Y-137046104D01*
X141743108Y-137076324D01*
X141732031Y-137107172D01*
X141722374Y-137135823D01*
X141715142Y-137159449D01*
X141711337Y-137175223D01*
X141711000Y-137178568D01*
X141715402Y-137184190D01*
X141728168Y-137198080D01*
X141748631Y-137219574D01*
X141776128Y-137248008D01*
X141809994Y-137282717D01*
X141849564Y-137323037D01*
X141894174Y-137368303D01*
X141943160Y-137417851D01*
X141995857Y-137471016D01*
X142051600Y-137527133D01*
X142109725Y-137585539D01*
X142169568Y-137645569D01*
X142230463Y-137706557D01*
X142291747Y-137767841D01*
X142352754Y-137828755D01*
X142412821Y-137888634D01*
X142471283Y-137946814D01*
X142527475Y-138002632D01*
X142580732Y-138055421D01*
X142630391Y-138104519D01*
X142675787Y-138149259D01*
X142716255Y-138188978D01*
X142751131Y-138223011D01*
X142779749Y-138250695D01*
X142801447Y-138271363D01*
X142815559Y-138284352D01*
X142821420Y-138288997D01*
X142821459Y-138289000D01*
X142830787Y-138287073D01*
G36*
X142031699Y-137971788D02*
X141980263Y-137920321D01*
X141931513Y-137871581D01*
X141886181Y-137826301D01*
X141845001Y-137785209D01*
X141808706Y-137749037D01*
X141778029Y-137718514D01*
X141753704Y-137694372D01*
X141736463Y-137677341D01*
X141727041Y-137668150D01*
X141725448Y-137666700D01*
X141726722Y-137672184D01*
X141731425Y-137686720D01*
X141738617Y-137707435D01*
X141740512Y-137712738D01*
X141780242Y-137805007D01*
X141831088Y-137892988D01*
X141891874Y-137975505D01*
X141961422Y-138051384D01*
X142038556Y-138119452D01*
X142122098Y-138178532D01*
X142210872Y-138227451D01*
X142288850Y-138259912D01*
X142336475Y-138276876D01*
X142031699Y-137971788D01*
X142031699Y-137971788D01*
G37*
X142031699Y-137971788D02*
X141980263Y-137920321D01*
X141931513Y-137871581D01*
X141886181Y-137826301D01*
X141845001Y-137785209D01*
X141808706Y-137749037D01*
X141778029Y-137718514D01*
X141753704Y-137694372D01*
X141736463Y-137677341D01*
X141727041Y-137668150D01*
X141725448Y-137666700D01*
X141726722Y-137672184D01*
X141731425Y-137686720D01*
X141738617Y-137707435D01*
X141740512Y-137712738D01*
X141780242Y-137805007D01*
X141831088Y-137892988D01*
X141891874Y-137975505D01*
X141961422Y-138051384D01*
X142038556Y-138119452D01*
X142122098Y-138178532D01*
X142210872Y-138227451D01*
X142288850Y-138259912D01*
X142336475Y-138276876D01*
X142031699Y-137971788D01*
G36*
X140037258Y-138311223D02*
X140095230Y-138308547D01*
X140147513Y-138303364D01*
X140185310Y-138296870D01*
X140293123Y-138266828D01*
X140394227Y-138226201D01*
X140488139Y-138175473D01*
X140574372Y-138115129D01*
X140652442Y-138045655D01*
X140721863Y-137967535D01*
X140782152Y-137881255D01*
X140832821Y-137787299D01*
X140873387Y-137686154D01*
X140903219Y-137578961D01*
X140910566Y-137534512D01*
X140915408Y-137481241D01*
X140917743Y-137422775D01*
X140917572Y-137362742D01*
X140914896Y-137304770D01*
X140909713Y-137252487D01*
X140903219Y-137214690D01*
X140873339Y-137107579D01*
X140832857Y-137006912D01*
X140782311Y-136913230D01*
X140722241Y-136827074D01*
X140653189Y-136748987D01*
X140575693Y-136679510D01*
X140490293Y-136619184D01*
X140397530Y-136568552D01*
X140297944Y-136528155D01*
X140192074Y-136498534D01*
X140188558Y-136497764D01*
X140153030Y-136491845D01*
X140108505Y-136487136D01*
X140058645Y-136483775D01*
X140007108Y-136481904D01*
X139957554Y-136481660D01*
X139913642Y-136483185D01*
X139882623Y-136486093D01*
X139777837Y-136506872D01*
X139676666Y-136539447D01*
X139580141Y-136583209D01*
X139489291Y-136637551D01*
X139405143Y-136701863D01*
X139328728Y-136775538D01*
X139266781Y-136850201D01*
X139208243Y-136939357D01*
X139161003Y-137033475D01*
X139125157Y-137131533D01*
X139100801Y-137232510D01*
X139088032Y-137335384D01*
X139086946Y-137439134D01*
X139097638Y-137542736D01*
X139120205Y-137645170D01*
X139154743Y-137745414D01*
X139177713Y-137796849D01*
X139230044Y-137890835D01*
X139292009Y-137976822D01*
X139363031Y-138054362D01*
X139442529Y-138123004D01*
X139529926Y-138182298D01*
X139624643Y-138231795D01*
X139726100Y-138271044D01*
X139821039Y-138296870D01*
X139865488Y-138304217D01*
X139918759Y-138309059D01*
X139977225Y-138311394D01*
X140037258Y-138311223D01*
X140037258Y-138311223D01*
G37*
X140037258Y-138311223D02*
X140095230Y-138308547D01*
X140147513Y-138303364D01*
X140185310Y-138296870D01*
X140293123Y-138266828D01*
X140394227Y-138226201D01*
X140488139Y-138175473D01*
X140574372Y-138115129D01*
X140652442Y-138045655D01*
X140721863Y-137967535D01*
X140782152Y-137881255D01*
X140832821Y-137787299D01*
X140873387Y-137686154D01*
X140903219Y-137578961D01*
X140910566Y-137534512D01*
X140915408Y-137481241D01*
X140917743Y-137422775D01*
X140917572Y-137362742D01*
X140914896Y-137304770D01*
X140909713Y-137252487D01*
X140903219Y-137214690D01*
X140873339Y-137107579D01*
X140832857Y-137006912D01*
X140782311Y-136913230D01*
X140722241Y-136827074D01*
X140653189Y-136748987D01*
X140575693Y-136679510D01*
X140490293Y-136619184D01*
X140397530Y-136568552D01*
X140297944Y-136528155D01*
X140192074Y-136498534D01*
X140188558Y-136497764D01*
X140153030Y-136491845D01*
X140108505Y-136487136D01*
X140058645Y-136483775D01*
X140007108Y-136481904D01*
X139957554Y-136481660D01*
X139913642Y-136483185D01*
X139882623Y-136486093D01*
X139777837Y-136506872D01*
X139676666Y-136539447D01*
X139580141Y-136583209D01*
X139489291Y-136637551D01*
X139405143Y-136701863D01*
X139328728Y-136775538D01*
X139266781Y-136850201D01*
X139208243Y-136939357D01*
X139161003Y-137033475D01*
X139125157Y-137131533D01*
X139100801Y-137232510D01*
X139088032Y-137335384D01*
X139086946Y-137439134D01*
X139097638Y-137542736D01*
X139120205Y-137645170D01*
X139154743Y-137745414D01*
X139177713Y-137796849D01*
X139230044Y-137890835D01*
X139292009Y-137976822D01*
X139363031Y-138054362D01*
X139442529Y-138123004D01*
X139529926Y-138182298D01*
X139624643Y-138231795D01*
X139726100Y-138271044D01*
X139821039Y-138296870D01*
X139865488Y-138304217D01*
X139918759Y-138309059D01*
X139977225Y-138311394D01*
X140037258Y-138311223D01*
G36*
X96437258Y-148111223D02*
X96495230Y-148108547D01*
X96547513Y-148103364D01*
X96585310Y-148096870D01*
X96693123Y-148066828D01*
X96794227Y-148026201D01*
X96888139Y-147975473D01*
X96974372Y-147915129D01*
X97052442Y-147845655D01*
X97121863Y-147767535D01*
X97182152Y-147681255D01*
X97232821Y-147587299D01*
X97273387Y-147486154D01*
X97303219Y-147378961D01*
X97310566Y-147334512D01*
X97315408Y-147281241D01*
X97317743Y-147222775D01*
X97317572Y-147162742D01*
X97314896Y-147104770D01*
X97309713Y-147052487D01*
X97303219Y-147014690D01*
X97273339Y-146907579D01*
X97232857Y-146806912D01*
X97182311Y-146713230D01*
X97122241Y-146627074D01*
X97053189Y-146548987D01*
X96975693Y-146479510D01*
X96890293Y-146419184D01*
X96797530Y-146368552D01*
X96697944Y-146328155D01*
X96592074Y-146298534D01*
X96588558Y-146297764D01*
X96553030Y-146291845D01*
X96508505Y-146287136D01*
X96458645Y-146283775D01*
X96407108Y-146281904D01*
X96357554Y-146281660D01*
X96313642Y-146283185D01*
X96282623Y-146286093D01*
X96177837Y-146306872D01*
X96076666Y-146339447D01*
X95980141Y-146383209D01*
X95889291Y-146437551D01*
X95805143Y-146501863D01*
X95728728Y-146575538D01*
X95666781Y-146650201D01*
X95608243Y-146739357D01*
X95561003Y-146833475D01*
X95525157Y-146931533D01*
X95500801Y-147032510D01*
X95488032Y-147135384D01*
X95487443Y-147191743D01*
X95735670Y-147191743D01*
X95738127Y-147132940D01*
X95744477Y-147078993D01*
X95751416Y-147045699D01*
X95780899Y-146956275D01*
X95820632Y-146873510D01*
X95869890Y-146798073D01*
X95927948Y-146730629D01*
X95994079Y-146671844D01*
X96067560Y-146622386D01*
X96147665Y-146582920D01*
X96233669Y-146554113D01*
X96301822Y-146539869D01*
X96337340Y-146536426D01*
X96381059Y-146535421D01*
X96428831Y-146536657D01*
X96476508Y-146539935D01*
X96519945Y-146545058D01*
X96554993Y-146551829D01*
X96555575Y-146551978D01*
X96646134Y-146581580D01*
X96729415Y-146621427D01*
X96804938Y-146671041D01*
X96872222Y-146729939D01*
X96930789Y-146797642D01*
X96980157Y-146873669D01*
X97019846Y-146957539D01*
X97048583Y-147045699D01*
X97054591Y-147070931D01*
X97058733Y-147094798D01*
X97061326Y-147120667D01*
X97062688Y-147151903D01*
X97063138Y-147191874D01*
X97063147Y-147200000D01*
X97062824Y-147241842D01*
X97061643Y-147274361D01*
X97059288Y-147300924D01*
X97055440Y-147324898D01*
X97049781Y-147349650D01*
X97048583Y-147354302D01*
X97018686Y-147445453D01*
X96978676Y-147529159D01*
X96929012Y-147604959D01*
X96870156Y-147672392D01*
X96802568Y-147730996D01*
X96726708Y-147780309D01*
X96643038Y-147819870D01*
X96555575Y-147848303D01*
X96529976Y-147854408D01*
X96506042Y-147858619D01*
X96480373Y-147861261D01*
X96449570Y-147862658D01*
X96410232Y-147863134D01*
X96400000Y-147863148D01*
X96358306Y-147862831D01*
X96325901Y-147861667D01*
X96299386Y-147859330D01*
X96275361Y-147855495D01*
X96250425Y-147849839D01*
X96244425Y-147848303D01*
X96154340Y-147818660D01*
X96071229Y-147778618D01*
X95995658Y-147728745D01*
X95928195Y-147669608D01*
X95869406Y-147601776D01*
X95819859Y-147525816D01*
X95780121Y-147442295D01*
X95751628Y-147355150D01*
X95742423Y-147307062D01*
X95737103Y-147251188D01*
X95735670Y-147191743D01*
X95487443Y-147191743D01*
X95486946Y-147239134D01*
X95497638Y-147342736D01*
X95520205Y-147445170D01*
X95554743Y-147545414D01*
X95577713Y-147596849D01*
X95630044Y-147690835D01*
X95692009Y-147776822D01*
X95763031Y-147854362D01*
X95842529Y-147923004D01*
X95929926Y-147982298D01*
X96024643Y-148031795D01*
X96126100Y-148071044D01*
X96221039Y-148096870D01*
X96265488Y-148104217D01*
X96318759Y-148109059D01*
X96377225Y-148111394D01*
X96437258Y-148111223D01*
X96437258Y-148111223D01*
G37*
X96437258Y-148111223D02*
X96495230Y-148108547D01*
X96547513Y-148103364D01*
X96585310Y-148096870D01*
X96693123Y-148066828D01*
X96794227Y-148026201D01*
X96888139Y-147975473D01*
X96974372Y-147915129D01*
X97052442Y-147845655D01*
X97121863Y-147767535D01*
X97182152Y-147681255D01*
X97232821Y-147587299D01*
X97273387Y-147486154D01*
X97303219Y-147378961D01*
X97310566Y-147334512D01*
X97315408Y-147281241D01*
X97317743Y-147222775D01*
X97317572Y-147162742D01*
X97314896Y-147104770D01*
X97309713Y-147052487D01*
X97303219Y-147014690D01*
X97273339Y-146907579D01*
X97232857Y-146806912D01*
X97182311Y-146713230D01*
X97122241Y-146627074D01*
X97053189Y-146548987D01*
X96975693Y-146479510D01*
X96890293Y-146419184D01*
X96797530Y-146368552D01*
X96697944Y-146328155D01*
X96592074Y-146298534D01*
X96588558Y-146297764D01*
X96553030Y-146291845D01*
X96508505Y-146287136D01*
X96458645Y-146283775D01*
X96407108Y-146281904D01*
X96357554Y-146281660D01*
X96313642Y-146283185D01*
X96282623Y-146286093D01*
X96177837Y-146306872D01*
X96076666Y-146339447D01*
X95980141Y-146383209D01*
X95889291Y-146437551D01*
X95805143Y-146501863D01*
X95728728Y-146575538D01*
X95666781Y-146650201D01*
X95608243Y-146739357D01*
X95561003Y-146833475D01*
X95525157Y-146931533D01*
X95500801Y-147032510D01*
X95488032Y-147135384D01*
X95487443Y-147191743D01*
X95735670Y-147191743D01*
X95738127Y-147132940D01*
X95744477Y-147078993D01*
X95751416Y-147045699D01*
X95780899Y-146956275D01*
X95820632Y-146873510D01*
X95869890Y-146798073D01*
X95927948Y-146730629D01*
X95994079Y-146671844D01*
X96067560Y-146622386D01*
X96147665Y-146582920D01*
X96233669Y-146554113D01*
X96301822Y-146539869D01*
X96337340Y-146536426D01*
X96381059Y-146535421D01*
X96428831Y-146536657D01*
X96476508Y-146539935D01*
X96519945Y-146545058D01*
X96554993Y-146551829D01*
X96555575Y-146551978D01*
X96646134Y-146581580D01*
X96729415Y-146621427D01*
X96804938Y-146671041D01*
X96872222Y-146729939D01*
X96930789Y-146797642D01*
X96980157Y-146873669D01*
X97019846Y-146957539D01*
X97048583Y-147045699D01*
X97054591Y-147070931D01*
X97058733Y-147094798D01*
X97061326Y-147120667D01*
X97062688Y-147151903D01*
X97063138Y-147191874D01*
X97063147Y-147200000D01*
X97062824Y-147241842D01*
X97061643Y-147274361D01*
X97059288Y-147300924D01*
X97055440Y-147324898D01*
X97049781Y-147349650D01*
X97048583Y-147354302D01*
X97018686Y-147445453D01*
X96978676Y-147529159D01*
X96929012Y-147604959D01*
X96870156Y-147672392D01*
X96802568Y-147730996D01*
X96726708Y-147780309D01*
X96643038Y-147819870D01*
X96555575Y-147848303D01*
X96529976Y-147854408D01*
X96506042Y-147858619D01*
X96480373Y-147861261D01*
X96449570Y-147862658D01*
X96410232Y-147863134D01*
X96400000Y-147863148D01*
X96358306Y-147862831D01*
X96325901Y-147861667D01*
X96299386Y-147859330D01*
X96275361Y-147855495D01*
X96250425Y-147849839D01*
X96244425Y-147848303D01*
X96154340Y-147818660D01*
X96071229Y-147778618D01*
X95995658Y-147728745D01*
X95928195Y-147669608D01*
X95869406Y-147601776D01*
X95819859Y-147525816D01*
X95780121Y-147442295D01*
X95751628Y-147355150D01*
X95742423Y-147307062D01*
X95737103Y-147251188D01*
X95735670Y-147191743D01*
X95487443Y-147191743D01*
X95486946Y-147239134D01*
X95497638Y-147342736D01*
X95520205Y-147445170D01*
X95554743Y-147545414D01*
X95577713Y-147596849D01*
X95630044Y-147690835D01*
X95692009Y-147776822D01*
X95763031Y-147854362D01*
X95842529Y-147923004D01*
X95929926Y-147982298D01*
X96024643Y-148031795D01*
X96126100Y-148071044D01*
X96221039Y-148096870D01*
X96265488Y-148104217D01*
X96318759Y-148109059D01*
X96377225Y-148111394D01*
X96437258Y-148111223D01*
G36*
X93579808Y-144087249D02*
X93617147Y-144021923D01*
X93650632Y-143949845D01*
X93673510Y-143889082D01*
X93682457Y-143861575D01*
X93689630Y-143838053D01*
X93694176Y-143821408D01*
X93695349Y-143815083D01*
X93690944Y-143809399D01*
X93678172Y-143795454D01*
X93657697Y-143773911D01*
X93630184Y-143745435D01*
X93596298Y-143710690D01*
X93556705Y-143670341D01*
X93512068Y-143625051D01*
X93463053Y-143575485D01*
X93410325Y-143522308D01*
X93354548Y-143466182D01*
X93296387Y-143407774D01*
X93236507Y-143347747D01*
X93175573Y-143286765D01*
X93114250Y-143225492D01*
X93053202Y-143164593D01*
X92993095Y-143104733D01*
X92934593Y-143046574D01*
X92878360Y-142990783D01*
X92825063Y-142938022D01*
X92775366Y-142888956D01*
X92729933Y-142844250D01*
X92689429Y-142804568D01*
X92654520Y-142770574D01*
X92625869Y-142742932D01*
X92604143Y-142722306D01*
X92590005Y-142709362D01*
X92584121Y-142704762D01*
X92584086Y-142704760D01*
X92574400Y-142706752D01*
X92555667Y-142712051D01*
X92530834Y-142719786D01*
X92509877Y-142726696D01*
X92448087Y-142749657D01*
X92391601Y-142775606D01*
X92334149Y-142807484D01*
X92322091Y-142814769D01*
X92279157Y-142841010D01*
X92918866Y-143480742D01*
X93558574Y-144120473D01*
X93579808Y-144087249D01*
X93579808Y-144087249D01*
G37*
X93579808Y-144087249D02*
X93617147Y-144021923D01*
X93650632Y-143949845D01*
X93673510Y-143889082D01*
X93682457Y-143861575D01*
X93689630Y-143838053D01*
X93694176Y-143821408D01*
X93695349Y-143815083D01*
X93690944Y-143809399D01*
X93678172Y-143795454D01*
X93657697Y-143773911D01*
X93630184Y-143745435D01*
X93596298Y-143710690D01*
X93556705Y-143670341D01*
X93512068Y-143625051D01*
X93463053Y-143575485D01*
X93410325Y-143522308D01*
X93354548Y-143466182D01*
X93296387Y-143407774D01*
X93236507Y-143347747D01*
X93175573Y-143286765D01*
X93114250Y-143225492D01*
X93053202Y-143164593D01*
X92993095Y-143104733D01*
X92934593Y-143046574D01*
X92878360Y-142990783D01*
X92825063Y-142938022D01*
X92775366Y-142888956D01*
X92729933Y-142844250D01*
X92689429Y-142804568D01*
X92654520Y-142770574D01*
X92625869Y-142742932D01*
X92604143Y-142722306D01*
X92590005Y-142709362D01*
X92584121Y-142704762D01*
X92584086Y-142704760D01*
X92574400Y-142706752D01*
X92555667Y-142712051D01*
X92530834Y-142719786D01*
X92509877Y-142726696D01*
X92448087Y-142749657D01*
X92391601Y-142775606D01*
X92334149Y-142807484D01*
X92322091Y-142814769D01*
X92279157Y-142841010D01*
X92918866Y-143480742D01*
X93558574Y-144120473D01*
X93579808Y-144087249D01*
G36*
X93679627Y-143321467D02*
X93674924Y-143306931D01*
X93667732Y-143286216D01*
X93665837Y-143280913D01*
X93626107Y-143188644D01*
X93575261Y-143100663D01*
X93514475Y-143018146D01*
X93444927Y-142942267D01*
X93367793Y-142874199D01*
X93284251Y-142815119D01*
X93195477Y-142766200D01*
X93117500Y-142733739D01*
X93069875Y-142716775D01*
X93374650Y-143021863D01*
X93426086Y-143073330D01*
X93474836Y-143122070D01*
X93520168Y-143167350D01*
X93561348Y-143208442D01*
X93597643Y-143244614D01*
X93628320Y-143275137D01*
X93652645Y-143299279D01*
X93669886Y-143316310D01*
X93679308Y-143325501D01*
X93680901Y-143326950D01*
X93679627Y-143321467D01*
X93679627Y-143321467D01*
G37*
X93679627Y-143321467D02*
X93674924Y-143306931D01*
X93667732Y-143286216D01*
X93665837Y-143280913D01*
X93626107Y-143188644D01*
X93575261Y-143100663D01*
X93514475Y-143018146D01*
X93444927Y-142942267D01*
X93367793Y-142874199D01*
X93284251Y-142815119D01*
X93195477Y-142766200D01*
X93117500Y-142733739D01*
X93069875Y-142716775D01*
X93374650Y-143021863D01*
X93426086Y-143073330D01*
X93474836Y-143122070D01*
X93520168Y-143167350D01*
X93561348Y-143208442D01*
X93597643Y-143244614D01*
X93628320Y-143275137D01*
X93652645Y-143299279D01*
X93669886Y-143316310D01*
X93679308Y-143325501D01*
X93680901Y-143326950D01*
X93679627Y-143321467D01*
G36*
X93030787Y-144487073D02*
X93049231Y-144481858D01*
X93073901Y-144474209D01*
X93095431Y-144467161D01*
X93168629Y-144439000D01*
X93239979Y-144404666D01*
X93293598Y-144373459D01*
X93326822Y-144352225D01*
X92687091Y-143712517D01*
X92047359Y-143072808D01*
X92021118Y-143115742D01*
X92004748Y-143143581D01*
X91987770Y-143174119D01*
X91974820Y-143198862D01*
X91965506Y-143219341D01*
X91954601Y-143246104D01*
X91943108Y-143276324D01*
X91932031Y-143307172D01*
X91922374Y-143335823D01*
X91915142Y-143359449D01*
X91911337Y-143375223D01*
X91911000Y-143378568D01*
X91915402Y-143384190D01*
X91928168Y-143398080D01*
X91948631Y-143419574D01*
X91976128Y-143448008D01*
X92009994Y-143482717D01*
X92049564Y-143523037D01*
X92094174Y-143568303D01*
X92143160Y-143617851D01*
X92195857Y-143671016D01*
X92251600Y-143727133D01*
X92309725Y-143785539D01*
X92369568Y-143845569D01*
X92430463Y-143906557D01*
X92491747Y-143967841D01*
X92552754Y-144028755D01*
X92612821Y-144088634D01*
X92671283Y-144146814D01*
X92727475Y-144202632D01*
X92780732Y-144255421D01*
X92830391Y-144304519D01*
X92875787Y-144349259D01*
X92916255Y-144388978D01*
X92951131Y-144423011D01*
X92979749Y-144450695D01*
X93001447Y-144471363D01*
X93015559Y-144484352D01*
X93021420Y-144488997D01*
X93021459Y-144489000D01*
X93030787Y-144487073D01*
X93030787Y-144487073D01*
G37*
X93030787Y-144487073D02*
X93049231Y-144481858D01*
X93073901Y-144474209D01*
X93095431Y-144467161D01*
X93168629Y-144439000D01*
X93239979Y-144404666D01*
X93293598Y-144373459D01*
X93326822Y-144352225D01*
X92687091Y-143712517D01*
X92047359Y-143072808D01*
X92021118Y-143115742D01*
X92004748Y-143143581D01*
X91987770Y-143174119D01*
X91974820Y-143198862D01*
X91965506Y-143219341D01*
X91954601Y-143246104D01*
X91943108Y-143276324D01*
X91932031Y-143307172D01*
X91922374Y-143335823D01*
X91915142Y-143359449D01*
X91911337Y-143375223D01*
X91911000Y-143378568D01*
X91915402Y-143384190D01*
X91928168Y-143398080D01*
X91948631Y-143419574D01*
X91976128Y-143448008D01*
X92009994Y-143482717D01*
X92049564Y-143523037D01*
X92094174Y-143568303D01*
X92143160Y-143617851D01*
X92195857Y-143671016D01*
X92251600Y-143727133D01*
X92309725Y-143785539D01*
X92369568Y-143845569D01*
X92430463Y-143906557D01*
X92491747Y-143967841D01*
X92552754Y-144028755D01*
X92612821Y-144088634D01*
X92671283Y-144146814D01*
X92727475Y-144202632D01*
X92780732Y-144255421D01*
X92830391Y-144304519D01*
X92875787Y-144349259D01*
X92916255Y-144388978D01*
X92951131Y-144423011D01*
X92979749Y-144450695D01*
X93001447Y-144471363D01*
X93015559Y-144484352D01*
X93021420Y-144488997D01*
X93021459Y-144489000D01*
X93030787Y-144487073D01*
G36*
X92231699Y-144171788D02*
X92180263Y-144120321D01*
X92131513Y-144071581D01*
X92086181Y-144026301D01*
X92045001Y-143985209D01*
X92008706Y-143949037D01*
X91978029Y-143918514D01*
X91953704Y-143894372D01*
X91936463Y-143877341D01*
X91927041Y-143868150D01*
X91925448Y-143866700D01*
X91926722Y-143872184D01*
X91931425Y-143886720D01*
X91938617Y-143907435D01*
X91940512Y-143912738D01*
X91980242Y-144005007D01*
X92031088Y-144092988D01*
X92091874Y-144175505D01*
X92161422Y-144251384D01*
X92238556Y-144319452D01*
X92322098Y-144378532D01*
X92410872Y-144427451D01*
X92488850Y-144459912D01*
X92536475Y-144476876D01*
X92231699Y-144171788D01*
X92231699Y-144171788D01*
G37*
X92231699Y-144171788D02*
X92180263Y-144120321D01*
X92131513Y-144071581D01*
X92086181Y-144026301D01*
X92045001Y-143985209D01*
X92008706Y-143949037D01*
X91978029Y-143918514D01*
X91953704Y-143894372D01*
X91936463Y-143877341D01*
X91927041Y-143868150D01*
X91925448Y-143866700D01*
X91926722Y-143872184D01*
X91931425Y-143886720D01*
X91938617Y-143907435D01*
X91940512Y-143912738D01*
X91980242Y-144005007D01*
X92031088Y-144092988D01*
X92091874Y-144175505D01*
X92161422Y-144251384D01*
X92238556Y-144319452D01*
X92322098Y-144378532D01*
X92410872Y-144427451D01*
X92488850Y-144459912D01*
X92536475Y-144476876D01*
X92231699Y-144171788D01*
G36*
X94637258Y-146311223D02*
X94695230Y-146308547D01*
X94747513Y-146303364D01*
X94785310Y-146296870D01*
X94893123Y-146266828D01*
X94994227Y-146226201D01*
X95088139Y-146175473D01*
X95174372Y-146115129D01*
X95252442Y-146045655D01*
X95321863Y-145967535D01*
X95382152Y-145881255D01*
X95432821Y-145787299D01*
X95473387Y-145686154D01*
X95503219Y-145578961D01*
X95510566Y-145534512D01*
X95515408Y-145481241D01*
X95517743Y-145422775D01*
X95517572Y-145362742D01*
X95514896Y-145304770D01*
X95509713Y-145252487D01*
X95503219Y-145214690D01*
X95473339Y-145107579D01*
X95432857Y-145006912D01*
X95382311Y-144913230D01*
X95322241Y-144827074D01*
X95253189Y-144748987D01*
X95175693Y-144679510D01*
X95090293Y-144619184D01*
X94997530Y-144568552D01*
X94897944Y-144528155D01*
X94792074Y-144498534D01*
X94788558Y-144497764D01*
X94753030Y-144491845D01*
X94708505Y-144487136D01*
X94658645Y-144483775D01*
X94607108Y-144481904D01*
X94557554Y-144481660D01*
X94513642Y-144483185D01*
X94482623Y-144486093D01*
X94377837Y-144506872D01*
X94276666Y-144539447D01*
X94180141Y-144583209D01*
X94089291Y-144637551D01*
X94005143Y-144701863D01*
X93928728Y-144775538D01*
X93866781Y-144850201D01*
X93808243Y-144939357D01*
X93761003Y-145033475D01*
X93725157Y-145131533D01*
X93700801Y-145232510D01*
X93688032Y-145335384D01*
X93686946Y-145439134D01*
X93697638Y-145542736D01*
X93720205Y-145645170D01*
X93754743Y-145745414D01*
X93777713Y-145796849D01*
X93830044Y-145890835D01*
X93892009Y-145976822D01*
X93963031Y-146054362D01*
X94042529Y-146123004D01*
X94129926Y-146182298D01*
X94224643Y-146231795D01*
X94326100Y-146271044D01*
X94421039Y-146296870D01*
X94465488Y-146304217D01*
X94518759Y-146309059D01*
X94577225Y-146311394D01*
X94637258Y-146311223D01*
X94637258Y-146311223D01*
G37*
X94637258Y-146311223D02*
X94695230Y-146308547D01*
X94747513Y-146303364D01*
X94785310Y-146296870D01*
X94893123Y-146266828D01*
X94994227Y-146226201D01*
X95088139Y-146175473D01*
X95174372Y-146115129D01*
X95252442Y-146045655D01*
X95321863Y-145967535D01*
X95382152Y-145881255D01*
X95432821Y-145787299D01*
X95473387Y-145686154D01*
X95503219Y-145578961D01*
X95510566Y-145534512D01*
X95515408Y-145481241D01*
X95517743Y-145422775D01*
X95517572Y-145362742D01*
X95514896Y-145304770D01*
X95509713Y-145252487D01*
X95503219Y-145214690D01*
X95473339Y-145107579D01*
X95432857Y-145006912D01*
X95382311Y-144913230D01*
X95322241Y-144827074D01*
X95253189Y-144748987D01*
X95175693Y-144679510D01*
X95090293Y-144619184D01*
X94997530Y-144568552D01*
X94897944Y-144528155D01*
X94792074Y-144498534D01*
X94788558Y-144497764D01*
X94753030Y-144491845D01*
X94708505Y-144487136D01*
X94658645Y-144483775D01*
X94607108Y-144481904D01*
X94557554Y-144481660D01*
X94513642Y-144483185D01*
X94482623Y-144486093D01*
X94377837Y-144506872D01*
X94276666Y-144539447D01*
X94180141Y-144583209D01*
X94089291Y-144637551D01*
X94005143Y-144701863D01*
X93928728Y-144775538D01*
X93866781Y-144850201D01*
X93808243Y-144939357D01*
X93761003Y-145033475D01*
X93725157Y-145131533D01*
X93700801Y-145232510D01*
X93688032Y-145335384D01*
X93686946Y-145439134D01*
X93697638Y-145542736D01*
X93720205Y-145645170D01*
X93754743Y-145745414D01*
X93777713Y-145796849D01*
X93830044Y-145890835D01*
X93892009Y-145976822D01*
X93963031Y-146054362D01*
X94042529Y-146123004D01*
X94129926Y-146182298D01*
X94224643Y-146231795D01*
X94326100Y-146271044D01*
X94421039Y-146296870D01*
X94465488Y-146304217D01*
X94518759Y-146309059D01*
X94577225Y-146311394D01*
X94637258Y-146311223D01*
G36*
X176437258Y-64111223D02*
X176495230Y-64108547D01*
X176547513Y-64103364D01*
X176585310Y-64096870D01*
X176693123Y-64066828D01*
X176794227Y-64026201D01*
X176888139Y-63975473D01*
X176974372Y-63915129D01*
X177052442Y-63845655D01*
X177121863Y-63767535D01*
X177182152Y-63681255D01*
X177232821Y-63587299D01*
X177273387Y-63486154D01*
X177303219Y-63378961D01*
X177310566Y-63334512D01*
X177315408Y-63281241D01*
X177317743Y-63222775D01*
X177317572Y-63162742D01*
X177314896Y-63104770D01*
X177309713Y-63052487D01*
X177303219Y-63014690D01*
X177273339Y-62907579D01*
X177232857Y-62806912D01*
X177182311Y-62713230D01*
X177122241Y-62627074D01*
X177053189Y-62548987D01*
X176975693Y-62479510D01*
X176890293Y-62419184D01*
X176797530Y-62368552D01*
X176697944Y-62328155D01*
X176592074Y-62298534D01*
X176588558Y-62297764D01*
X176553030Y-62291845D01*
X176508505Y-62287136D01*
X176458645Y-62283775D01*
X176407108Y-62281904D01*
X176357554Y-62281660D01*
X176313642Y-62283185D01*
X176282623Y-62286093D01*
X176177837Y-62306872D01*
X176076666Y-62339447D01*
X175980141Y-62383209D01*
X175889291Y-62437551D01*
X175805143Y-62501863D01*
X175728728Y-62575538D01*
X175666781Y-62650201D01*
X175608243Y-62739357D01*
X175561003Y-62833475D01*
X175525157Y-62931533D01*
X175500801Y-63032510D01*
X175488032Y-63135384D01*
X175487443Y-63191743D01*
X175735670Y-63191743D01*
X175738127Y-63132940D01*
X175744477Y-63078993D01*
X175751416Y-63045699D01*
X175780899Y-62956275D01*
X175820632Y-62873510D01*
X175869890Y-62798073D01*
X175927948Y-62730629D01*
X175994079Y-62671844D01*
X176067560Y-62622386D01*
X176147665Y-62582920D01*
X176233669Y-62554113D01*
X176301822Y-62539869D01*
X176337340Y-62536426D01*
X176381059Y-62535421D01*
X176428831Y-62536657D01*
X176476508Y-62539935D01*
X176519945Y-62545058D01*
X176554993Y-62551829D01*
X176555575Y-62551978D01*
X176646134Y-62581580D01*
X176729415Y-62621427D01*
X176804938Y-62671041D01*
X176872222Y-62729939D01*
X176930789Y-62797642D01*
X176980157Y-62873669D01*
X177019846Y-62957539D01*
X177048583Y-63045699D01*
X177054591Y-63070931D01*
X177058733Y-63094798D01*
X177061326Y-63120667D01*
X177062688Y-63151903D01*
X177063138Y-63191874D01*
X177063147Y-63200000D01*
X177062824Y-63241842D01*
X177061643Y-63274361D01*
X177059288Y-63300924D01*
X177055440Y-63324898D01*
X177049781Y-63349650D01*
X177048583Y-63354302D01*
X177018686Y-63445453D01*
X176978676Y-63529159D01*
X176929012Y-63604959D01*
X176870156Y-63672392D01*
X176802568Y-63730996D01*
X176726708Y-63780309D01*
X176643038Y-63819870D01*
X176555575Y-63848303D01*
X176529976Y-63854408D01*
X176506042Y-63858619D01*
X176480373Y-63861261D01*
X176449570Y-63862658D01*
X176410232Y-63863134D01*
X176400000Y-63863148D01*
X176358306Y-63862831D01*
X176325901Y-63861667D01*
X176299386Y-63859330D01*
X176275361Y-63855495D01*
X176250425Y-63849839D01*
X176244425Y-63848303D01*
X176154340Y-63818660D01*
X176071229Y-63778618D01*
X175995658Y-63728745D01*
X175928195Y-63669608D01*
X175869406Y-63601776D01*
X175819859Y-63525816D01*
X175780121Y-63442295D01*
X175751628Y-63355150D01*
X175742423Y-63307062D01*
X175737103Y-63251188D01*
X175735670Y-63191743D01*
X175487443Y-63191743D01*
X175486946Y-63239134D01*
X175497638Y-63342736D01*
X175520205Y-63445170D01*
X175554743Y-63545414D01*
X175577713Y-63596849D01*
X175630044Y-63690835D01*
X175692009Y-63776822D01*
X175763031Y-63854362D01*
X175842529Y-63923004D01*
X175929926Y-63982298D01*
X176024643Y-64031795D01*
X176126100Y-64071044D01*
X176221039Y-64096870D01*
X176265488Y-64104217D01*
X176318759Y-64109059D01*
X176377225Y-64111394D01*
X176437258Y-64111223D01*
X176437258Y-64111223D01*
G37*
X176437258Y-64111223D02*
X176495230Y-64108547D01*
X176547513Y-64103364D01*
X176585310Y-64096870D01*
X176693123Y-64066828D01*
X176794227Y-64026201D01*
X176888139Y-63975473D01*
X176974372Y-63915129D01*
X177052442Y-63845655D01*
X177121863Y-63767535D01*
X177182152Y-63681255D01*
X177232821Y-63587299D01*
X177273387Y-63486154D01*
X177303219Y-63378961D01*
X177310566Y-63334512D01*
X177315408Y-63281241D01*
X177317743Y-63222775D01*
X177317572Y-63162742D01*
X177314896Y-63104770D01*
X177309713Y-63052487D01*
X177303219Y-63014690D01*
X177273339Y-62907579D01*
X177232857Y-62806912D01*
X177182311Y-62713230D01*
X177122241Y-62627074D01*
X177053189Y-62548987D01*
X176975693Y-62479510D01*
X176890293Y-62419184D01*
X176797530Y-62368552D01*
X176697944Y-62328155D01*
X176592074Y-62298534D01*
X176588558Y-62297764D01*
X176553030Y-62291845D01*
X176508505Y-62287136D01*
X176458645Y-62283775D01*
X176407108Y-62281904D01*
X176357554Y-62281660D01*
X176313642Y-62283185D01*
X176282623Y-62286093D01*
X176177837Y-62306872D01*
X176076666Y-62339447D01*
X175980141Y-62383209D01*
X175889291Y-62437551D01*
X175805143Y-62501863D01*
X175728728Y-62575538D01*
X175666781Y-62650201D01*
X175608243Y-62739357D01*
X175561003Y-62833475D01*
X175525157Y-62931533D01*
X175500801Y-63032510D01*
X175488032Y-63135384D01*
X175487443Y-63191743D01*
X175735670Y-63191743D01*
X175738127Y-63132940D01*
X175744477Y-63078993D01*
X175751416Y-63045699D01*
X175780899Y-62956275D01*
X175820632Y-62873510D01*
X175869890Y-62798073D01*
X175927948Y-62730629D01*
X175994079Y-62671844D01*
X176067560Y-62622386D01*
X176147665Y-62582920D01*
X176233669Y-62554113D01*
X176301822Y-62539869D01*
X176337340Y-62536426D01*
X176381059Y-62535421D01*
X176428831Y-62536657D01*
X176476508Y-62539935D01*
X176519945Y-62545058D01*
X176554993Y-62551829D01*
X176555575Y-62551978D01*
X176646134Y-62581580D01*
X176729415Y-62621427D01*
X176804938Y-62671041D01*
X176872222Y-62729939D01*
X176930789Y-62797642D01*
X176980157Y-62873669D01*
X177019846Y-62957539D01*
X177048583Y-63045699D01*
X177054591Y-63070931D01*
X177058733Y-63094798D01*
X177061326Y-63120667D01*
X177062688Y-63151903D01*
X177063138Y-63191874D01*
X177063147Y-63200000D01*
X177062824Y-63241842D01*
X177061643Y-63274361D01*
X177059288Y-63300924D01*
X177055440Y-63324898D01*
X177049781Y-63349650D01*
X177048583Y-63354302D01*
X177018686Y-63445453D01*
X176978676Y-63529159D01*
X176929012Y-63604959D01*
X176870156Y-63672392D01*
X176802568Y-63730996D01*
X176726708Y-63780309D01*
X176643038Y-63819870D01*
X176555575Y-63848303D01*
X176529976Y-63854408D01*
X176506042Y-63858619D01*
X176480373Y-63861261D01*
X176449570Y-63862658D01*
X176410232Y-63863134D01*
X176400000Y-63863148D01*
X176358306Y-63862831D01*
X176325901Y-63861667D01*
X176299386Y-63859330D01*
X176275361Y-63855495D01*
X176250425Y-63849839D01*
X176244425Y-63848303D01*
X176154340Y-63818660D01*
X176071229Y-63778618D01*
X175995658Y-63728745D01*
X175928195Y-63669608D01*
X175869406Y-63601776D01*
X175819859Y-63525816D01*
X175780121Y-63442295D01*
X175751628Y-63355150D01*
X175742423Y-63307062D01*
X175737103Y-63251188D01*
X175735670Y-63191743D01*
X175487443Y-63191743D01*
X175486946Y-63239134D01*
X175497638Y-63342736D01*
X175520205Y-63445170D01*
X175554743Y-63545414D01*
X175577713Y-63596849D01*
X175630044Y-63690835D01*
X175692009Y-63776822D01*
X175763031Y-63854362D01*
X175842529Y-63923004D01*
X175929926Y-63982298D01*
X176024643Y-64031795D01*
X176126100Y-64071044D01*
X176221039Y-64096870D01*
X176265488Y-64104217D01*
X176318759Y-64109059D01*
X176377225Y-64111394D01*
X176437258Y-64111223D01*
G36*
X177179808Y-58487249D02*
X177217147Y-58421923D01*
X177250632Y-58349845D01*
X177273510Y-58289082D01*
X177282457Y-58261575D01*
X177289630Y-58238053D01*
X177294176Y-58221408D01*
X177295349Y-58215083D01*
X177290944Y-58209399D01*
X177278172Y-58195454D01*
X177257697Y-58173911D01*
X177230184Y-58145435D01*
X177196298Y-58110690D01*
X177156705Y-58070341D01*
X177112068Y-58025051D01*
X177063053Y-57975485D01*
X177010325Y-57922308D01*
X176954548Y-57866182D01*
X176896387Y-57807774D01*
X176836507Y-57747747D01*
X176775573Y-57686765D01*
X176714250Y-57625492D01*
X176653202Y-57564593D01*
X176593095Y-57504733D01*
X176534593Y-57446574D01*
X176478360Y-57390783D01*
X176425063Y-57338022D01*
X176375366Y-57288956D01*
X176329933Y-57244250D01*
X176289429Y-57204568D01*
X176254520Y-57170574D01*
X176225869Y-57142932D01*
X176204143Y-57122306D01*
X176190005Y-57109362D01*
X176184121Y-57104762D01*
X176184086Y-57104760D01*
X176174400Y-57106752D01*
X176155667Y-57112051D01*
X176130834Y-57119786D01*
X176109877Y-57126696D01*
X176048087Y-57149657D01*
X175991601Y-57175606D01*
X175934149Y-57207484D01*
X175922091Y-57214769D01*
X175879157Y-57241010D01*
X176518866Y-57880742D01*
X177158574Y-58520473D01*
X177179808Y-58487249D01*
X177179808Y-58487249D01*
G37*
X177179808Y-58487249D02*
X177217147Y-58421923D01*
X177250632Y-58349845D01*
X177273510Y-58289082D01*
X177282457Y-58261575D01*
X177289630Y-58238053D01*
X177294176Y-58221408D01*
X177295349Y-58215083D01*
X177290944Y-58209399D01*
X177278172Y-58195454D01*
X177257697Y-58173911D01*
X177230184Y-58145435D01*
X177196298Y-58110690D01*
X177156705Y-58070341D01*
X177112068Y-58025051D01*
X177063053Y-57975485D01*
X177010325Y-57922308D01*
X176954548Y-57866182D01*
X176896387Y-57807774D01*
X176836507Y-57747747D01*
X176775573Y-57686765D01*
X176714250Y-57625492D01*
X176653202Y-57564593D01*
X176593095Y-57504733D01*
X176534593Y-57446574D01*
X176478360Y-57390783D01*
X176425063Y-57338022D01*
X176375366Y-57288956D01*
X176329933Y-57244250D01*
X176289429Y-57204568D01*
X176254520Y-57170574D01*
X176225869Y-57142932D01*
X176204143Y-57122306D01*
X176190005Y-57109362D01*
X176184121Y-57104762D01*
X176184086Y-57104760D01*
X176174400Y-57106752D01*
X176155667Y-57112051D01*
X176130834Y-57119786D01*
X176109877Y-57126696D01*
X176048087Y-57149657D01*
X175991601Y-57175606D01*
X175934149Y-57207484D01*
X175922091Y-57214769D01*
X175879157Y-57241010D01*
X176518866Y-57880742D01*
X177158574Y-58520473D01*
X177179808Y-58487249D01*
G36*
X177279627Y-57721467D02*
X177274924Y-57706931D01*
X177267732Y-57686216D01*
X177265837Y-57680913D01*
X177226107Y-57588644D01*
X177175261Y-57500663D01*
X177114475Y-57418146D01*
X177044927Y-57342267D01*
X176967793Y-57274199D01*
X176884251Y-57215119D01*
X176795477Y-57166200D01*
X176717500Y-57133739D01*
X176669875Y-57116775D01*
X176974650Y-57421863D01*
X177026086Y-57473330D01*
X177074836Y-57522070D01*
X177120168Y-57567350D01*
X177161348Y-57608442D01*
X177197643Y-57644614D01*
X177228320Y-57675137D01*
X177252645Y-57699279D01*
X177269886Y-57716310D01*
X177279308Y-57725501D01*
X177280901Y-57726950D01*
X177279627Y-57721467D01*
X177279627Y-57721467D01*
G37*
X177279627Y-57721467D02*
X177274924Y-57706931D01*
X177267732Y-57686216D01*
X177265837Y-57680913D01*
X177226107Y-57588644D01*
X177175261Y-57500663D01*
X177114475Y-57418146D01*
X177044927Y-57342267D01*
X176967793Y-57274199D01*
X176884251Y-57215119D01*
X176795477Y-57166200D01*
X176717500Y-57133739D01*
X176669875Y-57116775D01*
X176974650Y-57421863D01*
X177026086Y-57473330D01*
X177074836Y-57522070D01*
X177120168Y-57567350D01*
X177161348Y-57608442D01*
X177197643Y-57644614D01*
X177228320Y-57675137D01*
X177252645Y-57699279D01*
X177269886Y-57716310D01*
X177279308Y-57725501D01*
X177280901Y-57726950D01*
X177279627Y-57721467D01*
G36*
X176630787Y-58887073D02*
X176649231Y-58881858D01*
X176673901Y-58874209D01*
X176695431Y-58867161D01*
X176768629Y-58839000D01*
X176839979Y-58804666D01*
X176893598Y-58773459D01*
X176926822Y-58752225D01*
X176287091Y-58112517D01*
X175647359Y-57472808D01*
X175621118Y-57515742D01*
X175604748Y-57543581D01*
X175587770Y-57574119D01*
X175574820Y-57598862D01*
X175565506Y-57619341D01*
X175554601Y-57646104D01*
X175543108Y-57676324D01*
X175532031Y-57707172D01*
X175522374Y-57735823D01*
X175515142Y-57759449D01*
X175511337Y-57775223D01*
X175511000Y-57778568D01*
X175515402Y-57784190D01*
X175528168Y-57798080D01*
X175548631Y-57819574D01*
X175576128Y-57848008D01*
X175609994Y-57882717D01*
X175649564Y-57923037D01*
X175694174Y-57968303D01*
X175743160Y-58017851D01*
X175795857Y-58071016D01*
X175851600Y-58127133D01*
X175909725Y-58185539D01*
X175969568Y-58245569D01*
X176030463Y-58306557D01*
X176091747Y-58367841D01*
X176152754Y-58428755D01*
X176212821Y-58488634D01*
X176271283Y-58546814D01*
X176327475Y-58602632D01*
X176380732Y-58655421D01*
X176430391Y-58704519D01*
X176475787Y-58749259D01*
X176516255Y-58788978D01*
X176551131Y-58823011D01*
X176579749Y-58850695D01*
X176601447Y-58871363D01*
X176615559Y-58884352D01*
X176621420Y-58888997D01*
X176621459Y-58889000D01*
X176630787Y-58887073D01*
X176630787Y-58887073D01*
G37*
X176630787Y-58887073D02*
X176649231Y-58881858D01*
X176673901Y-58874209D01*
X176695431Y-58867161D01*
X176768629Y-58839000D01*
X176839979Y-58804666D01*
X176893598Y-58773459D01*
X176926822Y-58752225D01*
X176287091Y-58112517D01*
X175647359Y-57472808D01*
X175621118Y-57515742D01*
X175604748Y-57543581D01*
X175587770Y-57574119D01*
X175574820Y-57598862D01*
X175565506Y-57619341D01*
X175554601Y-57646104D01*
X175543108Y-57676324D01*
X175532031Y-57707172D01*
X175522374Y-57735823D01*
X175515142Y-57759449D01*
X175511337Y-57775223D01*
X175511000Y-57778568D01*
X175515402Y-57784190D01*
X175528168Y-57798080D01*
X175548631Y-57819574D01*
X175576128Y-57848008D01*
X175609994Y-57882717D01*
X175649564Y-57923037D01*
X175694174Y-57968303D01*
X175743160Y-58017851D01*
X175795857Y-58071016D01*
X175851600Y-58127133D01*
X175909725Y-58185539D01*
X175969568Y-58245569D01*
X176030463Y-58306557D01*
X176091747Y-58367841D01*
X176152754Y-58428755D01*
X176212821Y-58488634D01*
X176271283Y-58546814D01*
X176327475Y-58602632D01*
X176380732Y-58655421D01*
X176430391Y-58704519D01*
X176475787Y-58749259D01*
X176516255Y-58788978D01*
X176551131Y-58823011D01*
X176579749Y-58850695D01*
X176601447Y-58871363D01*
X176615559Y-58884352D01*
X176621420Y-58888997D01*
X176621459Y-58889000D01*
X176630787Y-58887073D01*
G36*
X175831699Y-58571788D02*
X175780263Y-58520321D01*
X175731513Y-58471581D01*
X175686181Y-58426301D01*
X175645001Y-58385209D01*
X175608706Y-58349037D01*
X175578029Y-58318514D01*
X175553704Y-58294372D01*
X175536463Y-58277341D01*
X175527041Y-58268150D01*
X175525448Y-58266700D01*
X175526722Y-58272184D01*
X175531425Y-58286720D01*
X175538617Y-58307435D01*
X175540512Y-58312738D01*
X175580242Y-58405007D01*
X175631088Y-58492988D01*
X175691874Y-58575505D01*
X175761422Y-58651384D01*
X175838556Y-58719452D01*
X175922098Y-58778532D01*
X176010872Y-58827451D01*
X176088850Y-58859912D01*
X176136475Y-58876876D01*
X175831699Y-58571788D01*
X175831699Y-58571788D01*
G37*
X175831699Y-58571788D02*
X175780263Y-58520321D01*
X175731513Y-58471581D01*
X175686181Y-58426301D01*
X175645001Y-58385209D01*
X175608706Y-58349037D01*
X175578029Y-58318514D01*
X175553704Y-58294372D01*
X175536463Y-58277341D01*
X175527041Y-58268150D01*
X175525448Y-58266700D01*
X175526722Y-58272184D01*
X175531425Y-58286720D01*
X175538617Y-58307435D01*
X175540512Y-58312738D01*
X175580242Y-58405007D01*
X175631088Y-58492988D01*
X175691874Y-58575505D01*
X175761422Y-58651384D01*
X175838556Y-58719452D01*
X175922098Y-58778532D01*
X176010872Y-58827451D01*
X176088850Y-58859912D01*
X176136475Y-58876876D01*
X175831699Y-58571788D01*
G36*
X176437258Y-61511223D02*
X176495230Y-61508547D01*
X176547513Y-61503364D01*
X176585310Y-61496870D01*
X176693123Y-61466828D01*
X176794227Y-61426201D01*
X176888139Y-61375473D01*
X176974372Y-61315129D01*
X177052442Y-61245655D01*
X177121863Y-61167535D01*
X177182152Y-61081255D01*
X177232821Y-60987299D01*
X177273387Y-60886154D01*
X177303219Y-60778961D01*
X177310566Y-60734512D01*
X177315408Y-60681241D01*
X177317743Y-60622775D01*
X177317572Y-60562742D01*
X177314896Y-60504770D01*
X177309713Y-60452487D01*
X177303219Y-60414690D01*
X177273339Y-60307579D01*
X177232857Y-60206912D01*
X177182311Y-60113230D01*
X177122241Y-60027074D01*
X177053189Y-59948987D01*
X176975693Y-59879510D01*
X176890293Y-59819184D01*
X176797530Y-59768552D01*
X176697944Y-59728155D01*
X176592074Y-59698534D01*
X176588558Y-59697764D01*
X176553030Y-59691845D01*
X176508505Y-59687136D01*
X176458645Y-59683775D01*
X176407108Y-59681904D01*
X176357554Y-59681660D01*
X176313642Y-59683185D01*
X176282623Y-59686093D01*
X176177837Y-59706872D01*
X176076666Y-59739447D01*
X175980141Y-59783209D01*
X175889291Y-59837551D01*
X175805143Y-59901863D01*
X175728728Y-59975538D01*
X175666781Y-60050201D01*
X175608243Y-60139357D01*
X175561003Y-60233475D01*
X175525157Y-60331533D01*
X175500801Y-60432510D01*
X175488032Y-60535384D01*
X175486946Y-60639134D01*
X175497638Y-60742736D01*
X175520205Y-60845170D01*
X175554743Y-60945414D01*
X175577713Y-60996849D01*
X175630044Y-61090835D01*
X175692009Y-61176822D01*
X175763031Y-61254362D01*
X175842529Y-61323004D01*
X175929926Y-61382298D01*
X176024643Y-61431795D01*
X176126100Y-61471044D01*
X176221039Y-61496870D01*
X176265488Y-61504217D01*
X176318759Y-61509059D01*
X176377225Y-61511394D01*
X176437258Y-61511223D01*
X176437258Y-61511223D01*
G37*
X176437258Y-61511223D02*
X176495230Y-61508547D01*
X176547513Y-61503364D01*
X176585310Y-61496870D01*
X176693123Y-61466828D01*
X176794227Y-61426201D01*
X176888139Y-61375473D01*
X176974372Y-61315129D01*
X177052442Y-61245655D01*
X177121863Y-61167535D01*
X177182152Y-61081255D01*
X177232821Y-60987299D01*
X177273387Y-60886154D01*
X177303219Y-60778961D01*
X177310566Y-60734512D01*
X177315408Y-60681241D01*
X177317743Y-60622775D01*
X177317572Y-60562742D01*
X177314896Y-60504770D01*
X177309713Y-60452487D01*
X177303219Y-60414690D01*
X177273339Y-60307579D01*
X177232857Y-60206912D01*
X177182311Y-60113230D01*
X177122241Y-60027074D01*
X177053189Y-59948987D01*
X176975693Y-59879510D01*
X176890293Y-59819184D01*
X176797530Y-59768552D01*
X176697944Y-59728155D01*
X176592074Y-59698534D01*
X176588558Y-59697764D01*
X176553030Y-59691845D01*
X176508505Y-59687136D01*
X176458645Y-59683775D01*
X176407108Y-59681904D01*
X176357554Y-59681660D01*
X176313642Y-59683185D01*
X176282623Y-59686093D01*
X176177837Y-59706872D01*
X176076666Y-59739447D01*
X175980141Y-59783209D01*
X175889291Y-59837551D01*
X175805143Y-59901863D01*
X175728728Y-59975538D01*
X175666781Y-60050201D01*
X175608243Y-60139357D01*
X175561003Y-60233475D01*
X175525157Y-60331533D01*
X175500801Y-60432510D01*
X175488032Y-60535384D01*
X175486946Y-60639134D01*
X175497638Y-60742736D01*
X175520205Y-60845170D01*
X175554743Y-60945414D01*
X175577713Y-60996849D01*
X175630044Y-61090835D01*
X175692009Y-61176822D01*
X175763031Y-61254362D01*
X175842529Y-61323004D01*
X175929926Y-61382298D01*
X176024643Y-61431795D01*
X176126100Y-61471044D01*
X176221039Y-61496870D01*
X176265488Y-61504217D01*
X176318759Y-61509059D01*
X176377225Y-61511394D01*
X176437258Y-61511223D01*
D13*
X110600000Y-97400000D02*
X110600000Y-96700000D01*
X109400000Y-96700000D02*
X109400000Y-97400000D01*
X110600000Y-109400000D02*
X110600000Y-108700000D01*
X109400000Y-108700000D02*
X109400000Y-109400000D01*
X110600000Y-121400000D02*
X110600000Y-120700000D01*
X109400000Y-120700000D02*
X109400000Y-121400000D01*
X143870000Y-132670000D02*
X143870000Y-135330000D01*
X138730000Y-132670000D02*
X143870000Y-132670000D01*
X138730000Y-135330000D02*
X143870000Y-135330000D01*
X138730000Y-132670000D02*
X138730000Y-135330000D01*
X137460000Y-132670000D02*
X136130000Y-132670000D01*
X136130000Y-132670000D02*
X136130000Y-134000000D01*
X100676955Y-144796051D02*
X98796051Y-146676955D01*
X97042427Y-141161523D02*
X100676955Y-144796051D01*
X95161523Y-143042427D02*
X98796051Y-146676955D01*
X97042427Y-141161523D02*
X95161523Y-143042427D01*
X96144401Y-140263497D02*
X95203949Y-139323045D01*
X95203949Y-139323045D02*
X94263497Y-140263497D01*
X110600000Y-133400000D02*
X110600000Y-132700000D01*
X109400000Y-132700000D02*
X109400000Y-133400000D01*
X112741421Y-142892893D02*
X112246447Y-142397919D01*
X111397919Y-143246447D02*
X111892893Y-143741421D01*
X122400000Y-144400000D02*
X121700000Y-144400000D01*
X121700000Y-145600000D02*
X122400000Y-145600000D01*
X134400000Y-144400000D02*
X133700000Y-144400000D01*
X133700000Y-145600000D02*
X134400000Y-145600000D01*
X146400000Y-144400000D02*
X145700000Y-144400000D01*
X145700000Y-145600000D02*
X146400000Y-145600000D01*
X158400000Y-144400000D02*
X157700000Y-144400000D01*
X157700000Y-145600000D02*
X158400000Y-145600000D01*
X167753553Y-142397919D02*
X167258579Y-142892893D01*
X168107107Y-143741421D02*
X168602081Y-143246447D01*
X169400000Y-132700000D02*
X169400000Y-133400000D01*
X170600000Y-133400000D02*
X170600000Y-132700000D01*
X169400000Y-120700000D02*
X169400000Y-121400000D01*
X170600000Y-121400000D02*
X170600000Y-120700000D01*
X169400000Y-108700000D02*
X169400000Y-109400000D01*
X170600000Y-109400000D02*
X170600000Y-108700000D01*
X169400000Y-96700000D02*
X169400000Y-97400000D01*
X170600000Y-97400000D02*
X170600000Y-96700000D01*
X167397919Y-87246447D02*
X167892893Y-87741421D01*
X168741421Y-86892893D02*
X168246447Y-86397919D01*
X157600000Y-85600000D02*
X158300000Y-85600000D01*
X158300000Y-84400000D02*
X157600000Y-84400000D01*
X145600000Y-85600000D02*
X146300000Y-85600000D01*
X146300000Y-84400000D02*
X145600000Y-84400000D01*
X133600000Y-85600000D02*
X134300000Y-85600000D01*
X134300000Y-84400000D02*
X133600000Y-84400000D01*
X121600000Y-85600000D02*
X122300000Y-85600000D01*
X122300000Y-84400000D02*
X121600000Y-84400000D01*
X112046447Y-87802081D02*
X112541421Y-87307107D01*
X111692893Y-86458579D02*
X111197919Y-86953553D01*
X184400000Y-132700000D02*
X184400000Y-133400000D01*
X185600000Y-133400000D02*
X185600000Y-132700000D01*
X95600000Y-85400000D02*
X95600000Y-84700000D01*
X94400000Y-84700000D02*
X94400000Y-85400000D01*
X95600000Y-133400000D02*
X95600000Y-132700000D01*
X94400000Y-132700000D02*
X94400000Y-133400000D01*
D12*
G36*
X148437258Y-64311223D02*
X148495230Y-64308547D01*
X148547513Y-64303364D01*
X148585310Y-64296870D01*
X148693123Y-64266828D01*
X148794227Y-64226201D01*
X148888139Y-64175473D01*
X148974372Y-64115129D01*
X149052442Y-64045655D01*
X149121863Y-63967535D01*
X149182152Y-63881255D01*
X149232821Y-63787299D01*
X149273387Y-63686154D01*
X149303219Y-63578961D01*
X149310566Y-63534512D01*
X149315408Y-63481241D01*
X149317743Y-63422775D01*
X149317572Y-63362742D01*
X149314896Y-63304770D01*
X149309713Y-63252487D01*
X149303219Y-63214690D01*
X149273339Y-63107579D01*
X149232857Y-63006912D01*
X149182311Y-62913230D01*
X149122241Y-62827074D01*
X149053189Y-62748987D01*
X148975693Y-62679510D01*
X148890293Y-62619184D01*
X148797530Y-62568552D01*
X148697944Y-62528155D01*
X148592074Y-62498534D01*
X148588558Y-62497764D01*
X148553030Y-62491845D01*
X148508505Y-62487136D01*
X148458645Y-62483775D01*
X148407108Y-62481904D01*
X148357554Y-62481660D01*
X148313642Y-62483185D01*
X148282623Y-62486093D01*
X148177837Y-62506872D01*
X148076666Y-62539447D01*
X147980141Y-62583209D01*
X147889291Y-62637551D01*
X147805143Y-62701863D01*
X147728728Y-62775538D01*
X147666781Y-62850201D01*
X147608243Y-62939357D01*
X147561003Y-63033475D01*
X147525157Y-63131533D01*
X147500801Y-63232510D01*
X147488032Y-63335384D01*
X147487443Y-63391743D01*
X147735670Y-63391743D01*
X147738127Y-63332940D01*
X147744477Y-63278993D01*
X147751416Y-63245699D01*
X147780899Y-63156275D01*
X147820632Y-63073510D01*
X147869890Y-62998073D01*
X147927948Y-62930629D01*
X147994079Y-62871844D01*
X148067560Y-62822386D01*
X148147665Y-62782920D01*
X148233669Y-62754113D01*
X148301822Y-62739869D01*
X148337340Y-62736426D01*
X148381059Y-62735421D01*
X148428831Y-62736657D01*
X148476508Y-62739935D01*
X148519945Y-62745058D01*
X148554993Y-62751829D01*
X148555575Y-62751978D01*
X148646134Y-62781580D01*
X148729415Y-62821427D01*
X148804938Y-62871041D01*
X148872222Y-62929939D01*
X148930789Y-62997642D01*
X148980157Y-63073669D01*
X149019846Y-63157539D01*
X149048583Y-63245699D01*
X149054591Y-63270931D01*
X149058733Y-63294798D01*
X149061326Y-63320667D01*
X149062688Y-63351903D01*
X149063138Y-63391874D01*
X149063147Y-63400000D01*
X149062824Y-63441842D01*
X149061643Y-63474361D01*
X149059288Y-63500924D01*
X149055440Y-63524898D01*
X149049781Y-63549650D01*
X149048583Y-63554302D01*
X149018686Y-63645453D01*
X148978676Y-63729159D01*
X148929012Y-63804959D01*
X148870156Y-63872392D01*
X148802568Y-63930996D01*
X148726708Y-63980309D01*
X148643038Y-64019870D01*
X148555575Y-64048303D01*
X148529976Y-64054408D01*
X148506042Y-64058619D01*
X148480373Y-64061261D01*
X148449570Y-64062658D01*
X148410232Y-64063134D01*
X148400000Y-64063148D01*
X148358306Y-64062831D01*
X148325901Y-64061667D01*
X148299386Y-64059330D01*
X148275361Y-64055495D01*
X148250425Y-64049839D01*
X148244425Y-64048303D01*
X148154340Y-64018660D01*
X148071229Y-63978618D01*
X147995658Y-63928745D01*
X147928195Y-63869608D01*
X147869406Y-63801776D01*
X147819859Y-63725816D01*
X147780121Y-63642295D01*
X147751628Y-63555150D01*
X147742423Y-63507062D01*
X147737103Y-63451188D01*
X147735670Y-63391743D01*
X147487443Y-63391743D01*
X147486946Y-63439134D01*
X147497638Y-63542736D01*
X147520205Y-63645170D01*
X147554743Y-63745414D01*
X147577713Y-63796849D01*
X147630044Y-63890835D01*
X147692009Y-63976822D01*
X147763031Y-64054362D01*
X147842529Y-64123004D01*
X147929926Y-64182298D01*
X148024643Y-64231795D01*
X148126100Y-64271044D01*
X148221039Y-64296870D01*
X148265488Y-64304217D01*
X148318759Y-64309059D01*
X148377225Y-64311394D01*
X148437258Y-64311223D01*
X148437258Y-64311223D01*
G37*
X148437258Y-64311223D02*
X148495230Y-64308547D01*
X148547513Y-64303364D01*
X148585310Y-64296870D01*
X148693123Y-64266828D01*
X148794227Y-64226201D01*
X148888139Y-64175473D01*
X148974372Y-64115129D01*
X149052442Y-64045655D01*
X149121863Y-63967535D01*
X149182152Y-63881255D01*
X149232821Y-63787299D01*
X149273387Y-63686154D01*
X149303219Y-63578961D01*
X149310566Y-63534512D01*
X149315408Y-63481241D01*
X149317743Y-63422775D01*
X149317572Y-63362742D01*
X149314896Y-63304770D01*
X149309713Y-63252487D01*
X149303219Y-63214690D01*
X149273339Y-63107579D01*
X149232857Y-63006912D01*
X149182311Y-62913230D01*
X149122241Y-62827074D01*
X149053189Y-62748987D01*
X148975693Y-62679510D01*
X148890293Y-62619184D01*
X148797530Y-62568552D01*
X148697944Y-62528155D01*
X148592074Y-62498534D01*
X148588558Y-62497764D01*
X148553030Y-62491845D01*
X148508505Y-62487136D01*
X148458645Y-62483775D01*
X148407108Y-62481904D01*
X148357554Y-62481660D01*
X148313642Y-62483185D01*
X148282623Y-62486093D01*
X148177837Y-62506872D01*
X148076666Y-62539447D01*
X147980141Y-62583209D01*
X147889291Y-62637551D01*
X147805143Y-62701863D01*
X147728728Y-62775538D01*
X147666781Y-62850201D01*
X147608243Y-62939357D01*
X147561003Y-63033475D01*
X147525157Y-63131533D01*
X147500801Y-63232510D01*
X147488032Y-63335384D01*
X147487443Y-63391743D01*
X147735670Y-63391743D01*
X147738127Y-63332940D01*
X147744477Y-63278993D01*
X147751416Y-63245699D01*
X147780899Y-63156275D01*
X147820632Y-63073510D01*
X147869890Y-62998073D01*
X147927948Y-62930629D01*
X147994079Y-62871844D01*
X148067560Y-62822386D01*
X148147665Y-62782920D01*
X148233669Y-62754113D01*
X148301822Y-62739869D01*
X148337340Y-62736426D01*
X148381059Y-62735421D01*
X148428831Y-62736657D01*
X148476508Y-62739935D01*
X148519945Y-62745058D01*
X148554993Y-62751829D01*
X148555575Y-62751978D01*
X148646134Y-62781580D01*
X148729415Y-62821427D01*
X148804938Y-62871041D01*
X148872222Y-62929939D01*
X148930789Y-62997642D01*
X148980157Y-63073669D01*
X149019846Y-63157539D01*
X149048583Y-63245699D01*
X149054591Y-63270931D01*
X149058733Y-63294798D01*
X149061326Y-63320667D01*
X149062688Y-63351903D01*
X149063138Y-63391874D01*
X149063147Y-63400000D01*
X149062824Y-63441842D01*
X149061643Y-63474361D01*
X149059288Y-63500924D01*
X149055440Y-63524898D01*
X149049781Y-63549650D01*
X149048583Y-63554302D01*
X149018686Y-63645453D01*
X148978676Y-63729159D01*
X148929012Y-63804959D01*
X148870156Y-63872392D01*
X148802568Y-63930996D01*
X148726708Y-63980309D01*
X148643038Y-64019870D01*
X148555575Y-64048303D01*
X148529976Y-64054408D01*
X148506042Y-64058619D01*
X148480373Y-64061261D01*
X148449570Y-64062658D01*
X148410232Y-64063134D01*
X148400000Y-64063148D01*
X148358306Y-64062831D01*
X148325901Y-64061667D01*
X148299386Y-64059330D01*
X148275361Y-64055495D01*
X148250425Y-64049839D01*
X148244425Y-64048303D01*
X148154340Y-64018660D01*
X148071229Y-63978618D01*
X147995658Y-63928745D01*
X147928195Y-63869608D01*
X147869406Y-63801776D01*
X147819859Y-63725816D01*
X147780121Y-63642295D01*
X147751628Y-63555150D01*
X147742423Y-63507062D01*
X147737103Y-63451188D01*
X147735670Y-63391743D01*
X147487443Y-63391743D01*
X147486946Y-63439134D01*
X147497638Y-63542736D01*
X147520205Y-63645170D01*
X147554743Y-63745414D01*
X147577713Y-63796849D01*
X147630044Y-63890835D01*
X147692009Y-63976822D01*
X147763031Y-64054362D01*
X147842529Y-64123004D01*
X147929926Y-64182298D01*
X148024643Y-64231795D01*
X148126100Y-64271044D01*
X148221039Y-64296870D01*
X148265488Y-64304217D01*
X148318759Y-64309059D01*
X148377225Y-64311394D01*
X148437258Y-64311223D01*
G36*
X149179808Y-66487249D02*
X149217147Y-66421923D01*
X149250632Y-66349845D01*
X149273510Y-66289082D01*
X149282457Y-66261575D01*
X149289630Y-66238053D01*
X149294176Y-66221408D01*
X149295349Y-66215083D01*
X149290944Y-66209399D01*
X149278172Y-66195454D01*
X149257697Y-66173911D01*
X149230184Y-66145435D01*
X149196298Y-66110690D01*
X149156705Y-66070341D01*
X149112068Y-66025051D01*
X149063053Y-65975485D01*
X149010325Y-65922308D01*
X148954548Y-65866182D01*
X148896387Y-65807774D01*
X148836507Y-65747747D01*
X148775573Y-65686765D01*
X148714250Y-65625492D01*
X148653202Y-65564593D01*
X148593095Y-65504733D01*
X148534593Y-65446574D01*
X148478360Y-65390783D01*
X148425063Y-65338022D01*
X148375366Y-65288956D01*
X148329933Y-65244250D01*
X148289429Y-65204568D01*
X148254520Y-65170574D01*
X148225869Y-65142932D01*
X148204143Y-65122306D01*
X148190005Y-65109362D01*
X148184121Y-65104762D01*
X148184086Y-65104760D01*
X148174400Y-65106752D01*
X148155667Y-65112051D01*
X148130834Y-65119786D01*
X148109877Y-65126696D01*
X148048087Y-65149657D01*
X147991601Y-65175606D01*
X147934149Y-65207484D01*
X147922091Y-65214769D01*
X147879157Y-65241010D01*
X148518866Y-65880742D01*
X149158574Y-66520473D01*
X149179808Y-66487249D01*
X149179808Y-66487249D01*
G37*
X149179808Y-66487249D02*
X149217147Y-66421923D01*
X149250632Y-66349845D01*
X149273510Y-66289082D01*
X149282457Y-66261575D01*
X149289630Y-66238053D01*
X149294176Y-66221408D01*
X149295349Y-66215083D01*
X149290944Y-66209399D01*
X149278172Y-66195454D01*
X149257697Y-66173911D01*
X149230184Y-66145435D01*
X149196298Y-66110690D01*
X149156705Y-66070341D01*
X149112068Y-66025051D01*
X149063053Y-65975485D01*
X149010325Y-65922308D01*
X148954548Y-65866182D01*
X148896387Y-65807774D01*
X148836507Y-65747747D01*
X148775573Y-65686765D01*
X148714250Y-65625492D01*
X148653202Y-65564593D01*
X148593095Y-65504733D01*
X148534593Y-65446574D01*
X148478360Y-65390783D01*
X148425063Y-65338022D01*
X148375366Y-65288956D01*
X148329933Y-65244250D01*
X148289429Y-65204568D01*
X148254520Y-65170574D01*
X148225869Y-65142932D01*
X148204143Y-65122306D01*
X148190005Y-65109362D01*
X148184121Y-65104762D01*
X148184086Y-65104760D01*
X148174400Y-65106752D01*
X148155667Y-65112051D01*
X148130834Y-65119786D01*
X148109877Y-65126696D01*
X148048087Y-65149657D01*
X147991601Y-65175606D01*
X147934149Y-65207484D01*
X147922091Y-65214769D01*
X147879157Y-65241010D01*
X148518866Y-65880742D01*
X149158574Y-66520473D01*
X149179808Y-66487249D01*
G36*
X149279627Y-65721467D02*
X149274924Y-65706931D01*
X149267732Y-65686216D01*
X149265837Y-65680913D01*
X149226107Y-65588644D01*
X149175261Y-65500663D01*
X149114475Y-65418146D01*
X149044927Y-65342267D01*
X148967793Y-65274199D01*
X148884251Y-65215119D01*
X148795477Y-65166200D01*
X148717500Y-65133739D01*
X148669875Y-65116775D01*
X148974650Y-65421863D01*
X149026086Y-65473330D01*
X149074836Y-65522070D01*
X149120168Y-65567350D01*
X149161348Y-65608442D01*
X149197643Y-65644614D01*
X149228320Y-65675137D01*
X149252645Y-65699279D01*
X149269886Y-65716310D01*
X149279308Y-65725501D01*
X149280901Y-65726950D01*
X149279627Y-65721467D01*
X149279627Y-65721467D01*
G37*
X149279627Y-65721467D02*
X149274924Y-65706931D01*
X149267732Y-65686216D01*
X149265837Y-65680913D01*
X149226107Y-65588644D01*
X149175261Y-65500663D01*
X149114475Y-65418146D01*
X149044927Y-65342267D01*
X148967793Y-65274199D01*
X148884251Y-65215119D01*
X148795477Y-65166200D01*
X148717500Y-65133739D01*
X148669875Y-65116775D01*
X148974650Y-65421863D01*
X149026086Y-65473330D01*
X149074836Y-65522070D01*
X149120168Y-65567350D01*
X149161348Y-65608442D01*
X149197643Y-65644614D01*
X149228320Y-65675137D01*
X149252645Y-65699279D01*
X149269886Y-65716310D01*
X149279308Y-65725501D01*
X149280901Y-65726950D01*
X149279627Y-65721467D01*
G36*
X148630787Y-66887073D02*
X148649231Y-66881858D01*
X148673901Y-66874209D01*
X148695431Y-66867161D01*
X148768629Y-66839000D01*
X148839979Y-66804666D01*
X148893598Y-66773459D01*
X148926822Y-66752225D01*
X148287091Y-66112517D01*
X147647359Y-65472808D01*
X147621118Y-65515742D01*
X147604748Y-65543581D01*
X147587770Y-65574119D01*
X147574820Y-65598862D01*
X147565506Y-65619341D01*
X147554601Y-65646104D01*
X147543108Y-65676324D01*
X147532031Y-65707172D01*
X147522374Y-65735823D01*
X147515142Y-65759449D01*
X147511337Y-65775223D01*
X147511000Y-65778568D01*
X147515402Y-65784190D01*
X147528168Y-65798080D01*
X147548631Y-65819574D01*
X147576128Y-65848008D01*
X147609994Y-65882717D01*
X147649564Y-65923037D01*
X147694174Y-65968303D01*
X147743160Y-66017851D01*
X147795857Y-66071016D01*
X147851600Y-66127133D01*
X147909725Y-66185539D01*
X147969568Y-66245569D01*
X148030463Y-66306557D01*
X148091747Y-66367841D01*
X148152754Y-66428755D01*
X148212821Y-66488634D01*
X148271283Y-66546814D01*
X148327475Y-66602632D01*
X148380732Y-66655421D01*
X148430391Y-66704519D01*
X148475787Y-66749259D01*
X148516255Y-66788978D01*
X148551131Y-66823011D01*
X148579749Y-66850695D01*
X148601447Y-66871363D01*
X148615559Y-66884352D01*
X148621420Y-66888997D01*
X148621459Y-66889000D01*
X148630787Y-66887073D01*
X148630787Y-66887073D01*
G37*
X148630787Y-66887073D02*
X148649231Y-66881858D01*
X148673901Y-66874209D01*
X148695431Y-66867161D01*
X148768629Y-66839000D01*
X148839979Y-66804666D01*
X148893598Y-66773459D01*
X148926822Y-66752225D01*
X148287091Y-66112517D01*
X147647359Y-65472808D01*
X147621118Y-65515742D01*
X147604748Y-65543581D01*
X147587770Y-65574119D01*
X147574820Y-65598862D01*
X147565506Y-65619341D01*
X147554601Y-65646104D01*
X147543108Y-65676324D01*
X147532031Y-65707172D01*
X147522374Y-65735823D01*
X147515142Y-65759449D01*
X147511337Y-65775223D01*
X147511000Y-65778568D01*
X147515402Y-65784190D01*
X147528168Y-65798080D01*
X147548631Y-65819574D01*
X147576128Y-65848008D01*
X147609994Y-65882717D01*
X147649564Y-65923037D01*
X147694174Y-65968303D01*
X147743160Y-66017851D01*
X147795857Y-66071016D01*
X147851600Y-66127133D01*
X147909725Y-66185539D01*
X147969568Y-66245569D01*
X148030463Y-66306557D01*
X148091747Y-66367841D01*
X148152754Y-66428755D01*
X148212821Y-66488634D01*
X148271283Y-66546814D01*
X148327475Y-66602632D01*
X148380732Y-66655421D01*
X148430391Y-66704519D01*
X148475787Y-66749259D01*
X148516255Y-66788978D01*
X148551131Y-66823011D01*
X148579749Y-66850695D01*
X148601447Y-66871363D01*
X148615559Y-66884352D01*
X148621420Y-66888997D01*
X148621459Y-66889000D01*
X148630787Y-66887073D01*
G36*
X147831699Y-66571788D02*
X147780263Y-66520321D01*
X147731513Y-66471581D01*
X147686181Y-66426301D01*
X147645001Y-66385209D01*
X147608706Y-66349037D01*
X147578029Y-66318514D01*
X147553704Y-66294372D01*
X147536463Y-66277341D01*
X147527041Y-66268150D01*
X147525448Y-66266700D01*
X147526722Y-66272184D01*
X147531425Y-66286720D01*
X147538617Y-66307435D01*
X147540512Y-66312738D01*
X147580242Y-66405007D01*
X147631088Y-66492988D01*
X147691874Y-66575505D01*
X147761422Y-66651384D01*
X147838556Y-66719452D01*
X147922098Y-66778532D01*
X148010872Y-66827451D01*
X148088850Y-66859912D01*
X148136475Y-66876876D01*
X147831699Y-66571788D01*
X147831699Y-66571788D01*
G37*
X147831699Y-66571788D02*
X147780263Y-66520321D01*
X147731513Y-66471581D01*
X147686181Y-66426301D01*
X147645001Y-66385209D01*
X147608706Y-66349037D01*
X147578029Y-66318514D01*
X147553704Y-66294372D01*
X147536463Y-66277341D01*
X147527041Y-66268150D01*
X147525448Y-66266700D01*
X147526722Y-66272184D01*
X147531425Y-66286720D01*
X147538617Y-66307435D01*
X147540512Y-66312738D01*
X147580242Y-66405007D01*
X147631088Y-66492988D01*
X147691874Y-66575505D01*
X147761422Y-66651384D01*
X147838556Y-66719452D01*
X147922098Y-66778532D01*
X148010872Y-66827451D01*
X148088850Y-66859912D01*
X148136475Y-66876876D01*
X147831699Y-66571788D01*
G36*
X148437258Y-61711223D02*
X148495230Y-61708547D01*
X148547513Y-61703364D01*
X148585310Y-61696870D01*
X148693123Y-61666828D01*
X148794227Y-61626201D01*
X148888139Y-61575473D01*
X148974372Y-61515129D01*
X149052442Y-61445655D01*
X149121863Y-61367535D01*
X149182152Y-61281255D01*
X149232821Y-61187299D01*
X149273387Y-61086154D01*
X149303219Y-60978961D01*
X149310566Y-60934512D01*
X149315408Y-60881241D01*
X149317743Y-60822775D01*
X149317572Y-60762742D01*
X149314896Y-60704770D01*
X149309713Y-60652487D01*
X149303219Y-60614690D01*
X149273339Y-60507579D01*
X149232857Y-60406912D01*
X149182311Y-60313230D01*
X149122241Y-60227074D01*
X149053189Y-60148987D01*
X148975693Y-60079510D01*
X148890293Y-60019184D01*
X148797530Y-59968552D01*
X148697944Y-59928155D01*
X148592074Y-59898534D01*
X148588558Y-59897764D01*
X148553030Y-59891845D01*
X148508505Y-59887136D01*
X148458645Y-59883775D01*
X148407108Y-59881904D01*
X148357554Y-59881660D01*
X148313642Y-59883185D01*
X148282623Y-59886093D01*
X148177837Y-59906872D01*
X148076666Y-59939447D01*
X147980141Y-59983209D01*
X147889291Y-60037551D01*
X147805143Y-60101863D01*
X147728728Y-60175538D01*
X147666781Y-60250201D01*
X147608243Y-60339357D01*
X147561003Y-60433475D01*
X147525157Y-60531533D01*
X147500801Y-60632510D01*
X147488032Y-60735384D01*
X147486946Y-60839134D01*
X147497638Y-60942736D01*
X147520205Y-61045170D01*
X147554743Y-61145414D01*
X147577713Y-61196849D01*
X147630044Y-61290835D01*
X147692009Y-61376822D01*
X147763031Y-61454362D01*
X147842529Y-61523004D01*
X147929926Y-61582298D01*
X148024643Y-61631795D01*
X148126100Y-61671044D01*
X148221039Y-61696870D01*
X148265488Y-61704217D01*
X148318759Y-61709059D01*
X148377225Y-61711394D01*
X148437258Y-61711223D01*
X148437258Y-61711223D01*
G37*
X148437258Y-61711223D02*
X148495230Y-61708547D01*
X148547513Y-61703364D01*
X148585310Y-61696870D01*
X148693123Y-61666828D01*
X148794227Y-61626201D01*
X148888139Y-61575473D01*
X148974372Y-61515129D01*
X149052442Y-61445655D01*
X149121863Y-61367535D01*
X149182152Y-61281255D01*
X149232821Y-61187299D01*
X149273387Y-61086154D01*
X149303219Y-60978961D01*
X149310566Y-60934512D01*
X149315408Y-60881241D01*
X149317743Y-60822775D01*
X149317572Y-60762742D01*
X149314896Y-60704770D01*
X149309713Y-60652487D01*
X149303219Y-60614690D01*
X149273339Y-60507579D01*
X149232857Y-60406912D01*
X149182311Y-60313230D01*
X149122241Y-60227074D01*
X149053189Y-60148987D01*
X148975693Y-60079510D01*
X148890293Y-60019184D01*
X148797530Y-59968552D01*
X148697944Y-59928155D01*
X148592074Y-59898534D01*
X148588558Y-59897764D01*
X148553030Y-59891845D01*
X148508505Y-59887136D01*
X148458645Y-59883775D01*
X148407108Y-59881904D01*
X148357554Y-59881660D01*
X148313642Y-59883185D01*
X148282623Y-59886093D01*
X148177837Y-59906872D01*
X148076666Y-59939447D01*
X147980141Y-59983209D01*
X147889291Y-60037551D01*
X147805143Y-60101863D01*
X147728728Y-60175538D01*
X147666781Y-60250201D01*
X147608243Y-60339357D01*
X147561003Y-60433475D01*
X147525157Y-60531533D01*
X147500801Y-60632510D01*
X147488032Y-60735384D01*
X147486946Y-60839134D01*
X147497638Y-60942736D01*
X147520205Y-61045170D01*
X147554743Y-61145414D01*
X147577713Y-61196849D01*
X147630044Y-61290835D01*
X147692009Y-61376822D01*
X147763031Y-61454362D01*
X147842529Y-61523004D01*
X147929926Y-61582298D01*
X148024643Y-61631795D01*
X148126100Y-61671044D01*
X148221039Y-61696870D01*
X148265488Y-61704217D01*
X148318759Y-61709059D01*
X148377225Y-61711394D01*
X148437258Y-61711223D01*
D14*
X135360000Y-56150000D02*
X92180000Y-56150000D01*
X92180000Y-56150000D02*
X92180000Y-68850000D01*
X92180000Y-68850000D02*
X135360000Y-68850000D01*
X135360000Y-68850000D02*
X135360000Y-56150000D01*
X135360000Y-63770000D02*
X134090000Y-63770000D01*
X134090000Y-63770000D02*
X134090000Y-61230000D01*
X134090000Y-61230000D02*
X135360000Y-61230000D01*
D15*
X109035714Y-96085715D02*
X109107143Y-96014286D01*
X109178571Y-95800000D01*
X109178571Y-95657143D01*
X109107143Y-95442858D01*
X108964286Y-95300000D01*
X108821429Y-95228572D01*
X108535714Y-95157143D01*
X108321429Y-95157143D01*
X108035714Y-95228572D01*
X107892857Y-95300000D01*
X107750000Y-95442858D01*
X107678571Y-95657143D01*
X107678571Y-95800000D01*
X107750000Y-96014286D01*
X107821429Y-96085715D01*
X107821429Y-96657143D02*
X107750000Y-96728572D01*
X107678571Y-96871429D01*
X107678571Y-97228572D01*
X107750000Y-97371429D01*
X107821429Y-97442858D01*
X107964286Y-97514286D01*
X108107143Y-97514286D01*
X108321429Y-97442858D01*
X109178571Y-96585715D01*
X109178571Y-97514286D01*
X107678571Y-98014286D02*
X107678571Y-98942857D01*
X108250000Y-98442857D01*
X108250000Y-98657143D01*
X108321429Y-98800000D01*
X108392857Y-98871429D01*
X108535714Y-98942857D01*
X108892857Y-98942857D01*
X109035714Y-98871429D01*
X109107143Y-98800000D01*
X109178571Y-98657143D01*
X109178571Y-98228571D01*
X109107143Y-98085714D01*
X109035714Y-98014286D01*
X109035714Y-108085715D02*
X109107143Y-108014286D01*
X109178571Y-107800000D01*
X109178571Y-107657143D01*
X109107143Y-107442858D01*
X108964286Y-107300000D01*
X108821429Y-107228572D01*
X108535714Y-107157143D01*
X108321429Y-107157143D01*
X108035714Y-107228572D01*
X107892857Y-107300000D01*
X107750000Y-107442858D01*
X107678571Y-107657143D01*
X107678571Y-107800000D01*
X107750000Y-108014286D01*
X107821429Y-108085715D01*
X107821429Y-108657143D02*
X107750000Y-108728572D01*
X107678571Y-108871429D01*
X107678571Y-109228572D01*
X107750000Y-109371429D01*
X107821429Y-109442858D01*
X107964286Y-109514286D01*
X108107143Y-109514286D01*
X108321429Y-109442858D01*
X109178571Y-108585715D01*
X109178571Y-109514286D01*
X107821429Y-110085714D02*
X107750000Y-110157143D01*
X107678571Y-110300000D01*
X107678571Y-110657143D01*
X107750000Y-110800000D01*
X107821429Y-110871429D01*
X107964286Y-110942857D01*
X108107143Y-110942857D01*
X108321429Y-110871429D01*
X109178571Y-110014286D01*
X109178571Y-110942857D01*
X109035714Y-120085715D02*
X109107143Y-120014286D01*
X109178571Y-119800000D01*
X109178571Y-119657143D01*
X109107143Y-119442858D01*
X108964286Y-119300000D01*
X108821429Y-119228572D01*
X108535714Y-119157143D01*
X108321429Y-119157143D01*
X108035714Y-119228572D01*
X107892857Y-119300000D01*
X107750000Y-119442858D01*
X107678571Y-119657143D01*
X107678571Y-119800000D01*
X107750000Y-120014286D01*
X107821429Y-120085715D01*
X107821429Y-120657143D02*
X107750000Y-120728572D01*
X107678571Y-120871429D01*
X107678571Y-121228572D01*
X107750000Y-121371429D01*
X107821429Y-121442858D01*
X107964286Y-121514286D01*
X108107143Y-121514286D01*
X108321429Y-121442858D01*
X109178571Y-120585715D01*
X109178571Y-121514286D01*
X109178571Y-122942857D02*
X109178571Y-122085714D01*
X109178571Y-122514286D02*
X107678571Y-122514286D01*
X107892857Y-122371429D01*
X108035714Y-122228571D01*
X108107143Y-122085714D01*
X134308571Y-133500000D02*
X135380000Y-133500000D01*
X135594286Y-133428572D01*
X135737143Y-133285715D01*
X135808571Y-133071429D01*
X135808571Y-132928572D01*
X134451429Y-134142857D02*
X134380000Y-134214286D01*
X134308571Y-134357143D01*
X134308571Y-134714286D01*
X134380000Y-134857143D01*
X134451429Y-134928572D01*
X134594286Y-135000000D01*
X134737143Y-135000000D01*
X134951429Y-134928572D01*
X135808571Y-134071429D01*
X135808571Y-135000000D01*
X93329105Y-138621999D02*
X94086720Y-139379613D01*
X94288750Y-139480629D01*
X94490781Y-139480629D01*
X94692811Y-139379613D01*
X94793826Y-139278598D01*
X93329105Y-140743319D02*
X93935197Y-140137227D01*
X93632151Y-140440273D02*
X92571491Y-139379613D01*
X92824029Y-139430121D01*
X93026060Y-139430121D01*
X93177583Y-139379613D01*
X109035714Y-132085715D02*
X109107143Y-132014286D01*
X109178571Y-131800000D01*
X109178571Y-131657143D01*
X109107143Y-131442858D01*
X108964286Y-131300000D01*
X108821429Y-131228572D01*
X108535714Y-131157143D01*
X108321429Y-131157143D01*
X108035714Y-131228572D01*
X107892857Y-131300000D01*
X107750000Y-131442858D01*
X107678571Y-131657143D01*
X107678571Y-131800000D01*
X107750000Y-132014286D01*
X107821429Y-132085715D01*
X107821429Y-132657143D02*
X107750000Y-132728572D01*
X107678571Y-132871429D01*
X107678571Y-133228572D01*
X107750000Y-133371429D01*
X107821429Y-133442858D01*
X107964286Y-133514286D01*
X108107143Y-133514286D01*
X108321429Y-133442858D01*
X109178571Y-132585715D01*
X109178571Y-133514286D01*
X107678571Y-134442857D02*
X107678571Y-134585714D01*
X107750000Y-134728571D01*
X107821429Y-134800000D01*
X107964286Y-134871429D01*
X108250000Y-134942857D01*
X108607143Y-134942857D01*
X108892857Y-134871429D01*
X109035714Y-134800000D01*
X109107143Y-134728571D01*
X109178571Y-134585714D01*
X109178571Y-134442857D01*
X109107143Y-134300000D01*
X109035714Y-134228571D01*
X108892857Y-134157143D01*
X108607143Y-134085714D01*
X108250000Y-134085714D01*
X107964286Y-134157143D01*
X107821429Y-134228571D01*
X107750000Y-134300000D01*
X107678571Y-134442857D01*
X111312055Y-145190989D02*
X111312055Y-145292005D01*
X111413071Y-145494036D01*
X111514086Y-145595051D01*
X111716116Y-145696066D01*
X111918147Y-145696067D01*
X112069669Y-145645559D01*
X112322208Y-145494036D01*
X112473731Y-145342513D01*
X112625254Y-145089974D01*
X112675762Y-144938452D01*
X112675761Y-144736421D01*
X112574747Y-144534391D01*
X112473731Y-144433375D01*
X112271700Y-144332360D01*
X112170685Y-144332360D01*
X110200888Y-144281852D02*
X110806980Y-144887944D01*
X110503934Y-144584898D02*
X111564594Y-143524238D01*
X111514086Y-143776776D01*
X111514086Y-143978807D01*
X111564594Y-144130330D01*
X109695812Y-143776777D02*
X109493781Y-143574746D01*
X109443273Y-143423223D01*
X109443274Y-143322208D01*
X109493781Y-143069670D01*
X109645304Y-142817132D01*
X110049365Y-142413071D01*
X110200887Y-142362563D01*
X110301903Y-142362563D01*
X110453426Y-142413070D01*
X110655457Y-142615101D01*
X110705965Y-142766624D01*
X110705964Y-142867640D01*
X110655457Y-143019163D01*
X110402918Y-143271701D01*
X110251395Y-143322208D01*
X110150381Y-143322208D01*
X109998857Y-143271700D01*
X109796827Y-143069670D01*
X109746320Y-142918147D01*
X109746319Y-142817132D01*
X109796827Y-142665609D01*
X123014285Y-147035714D02*
X123085714Y-147107143D01*
X123300000Y-147178571D01*
X123442857Y-147178571D01*
X123657142Y-147107143D01*
X123800000Y-146964286D01*
X123871428Y-146821429D01*
X123942857Y-146535714D01*
X123942857Y-146321429D01*
X123871428Y-146035714D01*
X123800000Y-145892857D01*
X123657142Y-145750000D01*
X123442857Y-145678571D01*
X123300000Y-145678571D01*
X123085714Y-145750000D01*
X123014285Y-145821429D01*
X121585714Y-147178571D02*
X122442857Y-147178571D01*
X122014285Y-147178571D02*
X122014285Y-145678571D01*
X122157142Y-145892857D01*
X122300000Y-146035714D01*
X122442857Y-146107143D01*
X120728571Y-146321429D02*
X120871429Y-146250000D01*
X120942857Y-146178571D01*
X121014286Y-146035714D01*
X121014286Y-145964286D01*
X120942857Y-145821429D01*
X120871429Y-145750000D01*
X120728571Y-145678571D01*
X120442857Y-145678571D01*
X120300000Y-145750000D01*
X120228571Y-145821429D01*
X120157143Y-145964286D01*
X120157143Y-146035714D01*
X120228571Y-146178571D01*
X120300000Y-146250000D01*
X120442857Y-146321429D01*
X120728571Y-146321429D01*
X120871429Y-146392857D01*
X120942857Y-146464286D01*
X121014286Y-146607143D01*
X121014286Y-146892857D01*
X120942857Y-147035714D01*
X120871429Y-147107143D01*
X120728571Y-147178571D01*
X120442857Y-147178571D01*
X120300000Y-147107143D01*
X120228571Y-147035714D01*
X120157143Y-146892857D01*
X120157143Y-146607143D01*
X120228571Y-146464286D01*
X120300000Y-146392857D01*
X120442857Y-146321429D01*
X135014285Y-147035714D02*
X135085714Y-147107143D01*
X135300000Y-147178571D01*
X135442857Y-147178571D01*
X135657142Y-147107143D01*
X135800000Y-146964286D01*
X135871428Y-146821429D01*
X135942857Y-146535714D01*
X135942857Y-146321429D01*
X135871428Y-146035714D01*
X135800000Y-145892857D01*
X135657142Y-145750000D01*
X135442857Y-145678571D01*
X135300000Y-145678571D01*
X135085714Y-145750000D01*
X135014285Y-145821429D01*
X133585714Y-147178571D02*
X134442857Y-147178571D01*
X134014285Y-147178571D02*
X134014285Y-145678571D01*
X134157142Y-145892857D01*
X134300000Y-146035714D01*
X134442857Y-146107143D01*
X133085714Y-145678571D02*
X132085714Y-145678571D01*
X132728571Y-147178571D01*
X147014285Y-147035714D02*
X147085714Y-147107143D01*
X147300000Y-147178571D01*
X147442857Y-147178571D01*
X147657142Y-147107143D01*
X147800000Y-146964286D01*
X147871428Y-146821429D01*
X147942857Y-146535714D01*
X147942857Y-146321429D01*
X147871428Y-146035714D01*
X147800000Y-145892857D01*
X147657142Y-145750000D01*
X147442857Y-145678571D01*
X147300000Y-145678571D01*
X147085714Y-145750000D01*
X147014285Y-145821429D01*
X145585714Y-147178571D02*
X146442857Y-147178571D01*
X146014285Y-147178571D02*
X146014285Y-145678571D01*
X146157142Y-145892857D01*
X146300000Y-146035714D01*
X146442857Y-146107143D01*
X144300000Y-145678571D02*
X144585714Y-145678571D01*
X144728571Y-145750000D01*
X144800000Y-145821429D01*
X144942857Y-146035714D01*
X145014286Y-146321429D01*
X145014286Y-146892857D01*
X144942857Y-147035714D01*
X144871429Y-147107143D01*
X144728571Y-147178571D01*
X144442857Y-147178571D01*
X144300000Y-147107143D01*
X144228571Y-147035714D01*
X144157143Y-146892857D01*
X144157143Y-146535714D01*
X144228571Y-146392857D01*
X144300000Y-146321429D01*
X144442857Y-146250000D01*
X144728571Y-146250000D01*
X144871429Y-146321429D01*
X144942857Y-146392857D01*
X145014286Y-146535714D01*
X159014285Y-147035714D02*
X159085714Y-147107143D01*
X159300000Y-147178571D01*
X159442857Y-147178571D01*
X159657142Y-147107143D01*
X159800000Y-146964286D01*
X159871428Y-146821429D01*
X159942857Y-146535714D01*
X159942857Y-146321429D01*
X159871428Y-146035714D01*
X159800000Y-145892857D01*
X159657142Y-145750000D01*
X159442857Y-145678571D01*
X159300000Y-145678571D01*
X159085714Y-145750000D01*
X159014285Y-145821429D01*
X157585714Y-147178571D02*
X158442857Y-147178571D01*
X158014285Y-147178571D02*
X158014285Y-145678571D01*
X158157142Y-145892857D01*
X158300000Y-146035714D01*
X158442857Y-146107143D01*
X156228571Y-145678571D02*
X156942857Y-145678571D01*
X157014286Y-146392857D01*
X156942857Y-146321429D01*
X156800000Y-146250000D01*
X156442857Y-146250000D01*
X156300000Y-146321429D01*
X156228571Y-146392857D01*
X156157143Y-146535714D01*
X156157143Y-146892857D01*
X156228571Y-147035714D01*
X156300000Y-147107143D01*
X156442857Y-147178571D01*
X156800000Y-147178571D01*
X156942857Y-147107143D01*
X157014286Y-147035714D01*
X170051649Y-143827285D02*
X170152665Y-143827285D01*
X170354696Y-143726269D01*
X170455711Y-143625254D01*
X170556726Y-143423224D01*
X170556727Y-143221193D01*
X170506219Y-143069671D01*
X170354696Y-142817132D01*
X170203173Y-142665609D01*
X169950634Y-142514086D01*
X169799112Y-142463578D01*
X169597081Y-142463579D01*
X169395051Y-142564593D01*
X169294035Y-142665609D01*
X169193020Y-142867640D01*
X169193020Y-142968655D01*
X169142512Y-144938452D02*
X169748604Y-144332360D01*
X169445558Y-144635406D02*
X168384898Y-143574746D01*
X168637436Y-143625254D01*
X168839467Y-143625254D01*
X168990990Y-143574746D01*
X167526269Y-145140482D02*
X168233375Y-145847589D01*
X167374746Y-144483883D02*
X168384898Y-144988959D01*
X167728299Y-145645559D01*
X172035714Y-132085715D02*
X172107143Y-132014286D01*
X172178571Y-131800000D01*
X172178571Y-131657143D01*
X172107143Y-131442858D01*
X171964286Y-131300000D01*
X171821429Y-131228572D01*
X171535714Y-131157143D01*
X171321429Y-131157143D01*
X171035714Y-131228572D01*
X170892857Y-131300000D01*
X170750000Y-131442858D01*
X170678571Y-131657143D01*
X170678571Y-131800000D01*
X170750000Y-132014286D01*
X170821429Y-132085715D01*
X172178571Y-133514286D02*
X172178571Y-132657143D01*
X172178571Y-133085715D02*
X170678571Y-133085715D01*
X170892857Y-132942858D01*
X171035714Y-132800000D01*
X171107143Y-132657143D01*
X170678571Y-134014286D02*
X170678571Y-134942857D01*
X171250000Y-134442857D01*
X171250000Y-134657143D01*
X171321429Y-134800000D01*
X171392857Y-134871429D01*
X171535714Y-134942857D01*
X171892857Y-134942857D01*
X172035714Y-134871429D01*
X172107143Y-134800000D01*
X172178571Y-134657143D01*
X172178571Y-134228571D01*
X172107143Y-134085714D01*
X172035714Y-134014286D01*
X172035714Y-120085715D02*
X172107143Y-120014286D01*
X172178571Y-119800000D01*
X172178571Y-119657143D01*
X172107143Y-119442858D01*
X171964286Y-119300000D01*
X171821429Y-119228572D01*
X171535714Y-119157143D01*
X171321429Y-119157143D01*
X171035714Y-119228572D01*
X170892857Y-119300000D01*
X170750000Y-119442858D01*
X170678571Y-119657143D01*
X170678571Y-119800000D01*
X170750000Y-120014286D01*
X170821429Y-120085715D01*
X172178571Y-121514286D02*
X172178571Y-120657143D01*
X172178571Y-121085715D02*
X170678571Y-121085715D01*
X170892857Y-120942858D01*
X171035714Y-120800000D01*
X171107143Y-120657143D01*
X170821429Y-122085714D02*
X170750000Y-122157143D01*
X170678571Y-122300000D01*
X170678571Y-122657143D01*
X170750000Y-122800000D01*
X170821429Y-122871429D01*
X170964286Y-122942857D01*
X171107143Y-122942857D01*
X171321429Y-122871429D01*
X172178571Y-122014286D01*
X172178571Y-122942857D01*
X172035714Y-108085715D02*
X172107143Y-108014286D01*
X172178571Y-107800000D01*
X172178571Y-107657143D01*
X172107143Y-107442858D01*
X171964286Y-107300000D01*
X171821429Y-107228572D01*
X171535714Y-107157143D01*
X171321429Y-107157143D01*
X171035714Y-107228572D01*
X170892857Y-107300000D01*
X170750000Y-107442858D01*
X170678571Y-107657143D01*
X170678571Y-107800000D01*
X170750000Y-108014286D01*
X170821429Y-108085715D01*
X172178571Y-109514286D02*
X172178571Y-108657143D01*
X172178571Y-109085715D02*
X170678571Y-109085715D01*
X170892857Y-108942858D01*
X171035714Y-108800000D01*
X171107143Y-108657143D01*
X172178571Y-110942857D02*
X172178571Y-110085714D01*
X172178571Y-110514286D02*
X170678571Y-110514286D01*
X170892857Y-110371429D01*
X171035714Y-110228571D01*
X171107143Y-110085714D01*
X172035714Y-96085715D02*
X172107143Y-96014286D01*
X172178571Y-95800000D01*
X172178571Y-95657143D01*
X172107143Y-95442858D01*
X171964286Y-95300000D01*
X171821429Y-95228572D01*
X171535714Y-95157143D01*
X171321429Y-95157143D01*
X171035714Y-95228572D01*
X170892857Y-95300000D01*
X170750000Y-95442858D01*
X170678571Y-95657143D01*
X170678571Y-95800000D01*
X170750000Y-96014286D01*
X170821429Y-96085715D01*
X172178571Y-97514286D02*
X172178571Y-96657143D01*
X172178571Y-97085715D02*
X170678571Y-97085715D01*
X170892857Y-96942858D01*
X171035714Y-96800000D01*
X171107143Y-96657143D01*
X170678571Y-98442857D02*
X170678571Y-98585714D01*
X170750000Y-98728571D01*
X170821429Y-98800000D01*
X170964286Y-98871429D01*
X171250000Y-98942857D01*
X171607143Y-98942857D01*
X171892857Y-98871429D01*
X172035714Y-98800000D01*
X172107143Y-98728571D01*
X172178571Y-98585714D01*
X172178571Y-98442857D01*
X172107143Y-98300000D01*
X172035714Y-98228571D01*
X171892857Y-98157143D01*
X171607143Y-98085714D01*
X171250000Y-98085714D01*
X170964286Y-98157143D01*
X170821429Y-98228571D01*
X170750000Y-98300000D01*
X170678571Y-98442857D01*
X168928299Y-86564593D02*
X168928299Y-86665609D01*
X169029315Y-86867639D01*
X169130330Y-86968654D01*
X169332360Y-87069669D01*
X169534391Y-87069670D01*
X169685913Y-87019162D01*
X169938452Y-86867639D01*
X170089974Y-86716117D01*
X170241497Y-86463578D01*
X170292005Y-86312055D01*
X170292005Y-86110024D01*
X170190990Y-85907994D01*
X170089975Y-85806979D01*
X169887944Y-85705964D01*
X169786928Y-85705964D01*
X168322208Y-86160532D02*
X168120177Y-85958501D01*
X168069669Y-85806979D01*
X168069670Y-85705964D01*
X168120176Y-85453426D01*
X168271700Y-85200887D01*
X168675761Y-84796827D01*
X168827283Y-84746319D01*
X168928299Y-84746319D01*
X169079822Y-84796826D01*
X169281852Y-84998856D01*
X169332360Y-85150380D01*
X169332360Y-85251395D01*
X169281852Y-85402918D01*
X169029314Y-85655457D01*
X168877791Y-85705964D01*
X168776777Y-85705964D01*
X168625253Y-85655456D01*
X168423223Y-85453426D01*
X168372715Y-85301903D01*
X168372715Y-85200887D01*
X168423223Y-85049365D01*
X158199999Y-84035714D02*
X158271428Y-84107143D01*
X158485714Y-84178571D01*
X158628571Y-84178571D01*
X158842856Y-84107143D01*
X158985714Y-83964286D01*
X159057142Y-83821429D01*
X159128571Y-83535714D01*
X159128571Y-83321429D01*
X159057142Y-83035714D01*
X158985714Y-82892857D01*
X158842856Y-82750000D01*
X158628571Y-82678571D01*
X158485714Y-82678571D01*
X158271428Y-82750000D01*
X158199999Y-82821429D01*
X157342856Y-83321429D02*
X157485714Y-83250000D01*
X157557142Y-83178571D01*
X157628571Y-83035714D01*
X157628571Y-82964286D01*
X157557142Y-82821429D01*
X157485714Y-82750000D01*
X157342856Y-82678571D01*
X157057142Y-82678571D01*
X156914285Y-82750000D01*
X156842856Y-82821429D01*
X156771428Y-82964286D01*
X156771428Y-83035714D01*
X156842856Y-83178571D01*
X156914285Y-83250000D01*
X157057142Y-83321429D01*
X157342856Y-83321429D01*
X157485714Y-83392857D01*
X157557142Y-83464286D01*
X157628571Y-83607143D01*
X157628571Y-83892857D01*
X157557142Y-84035714D01*
X157485714Y-84107143D01*
X157342856Y-84178571D01*
X157057142Y-84178571D01*
X156914285Y-84107143D01*
X156842856Y-84035714D01*
X156771428Y-83892857D01*
X156771428Y-83607143D01*
X156842856Y-83464286D01*
X156914285Y-83392857D01*
X157057142Y-83321429D01*
X146199999Y-84035714D02*
X146271428Y-84107143D01*
X146485714Y-84178571D01*
X146628571Y-84178571D01*
X146842856Y-84107143D01*
X146985714Y-83964286D01*
X147057142Y-83821429D01*
X147128571Y-83535714D01*
X147128571Y-83321429D01*
X147057142Y-83035714D01*
X146985714Y-82892857D01*
X146842856Y-82750000D01*
X146628571Y-82678571D01*
X146485714Y-82678571D01*
X146271428Y-82750000D01*
X146199999Y-82821429D01*
X145699999Y-82678571D02*
X144699999Y-82678571D01*
X145342856Y-84178571D01*
X134199999Y-84035714D02*
X134271428Y-84107143D01*
X134485714Y-84178571D01*
X134628571Y-84178571D01*
X134842856Y-84107143D01*
X134985714Y-83964286D01*
X135057142Y-83821429D01*
X135128571Y-83535714D01*
X135128571Y-83321429D01*
X135057142Y-83035714D01*
X134985714Y-82892857D01*
X134842856Y-82750000D01*
X134628571Y-82678571D01*
X134485714Y-82678571D01*
X134271428Y-82750000D01*
X134199999Y-82821429D01*
X132914285Y-82678571D02*
X133199999Y-82678571D01*
X133342856Y-82750000D01*
X133414285Y-82821429D01*
X133557142Y-83035714D01*
X133628571Y-83321429D01*
X133628571Y-83892857D01*
X133557142Y-84035714D01*
X133485714Y-84107143D01*
X133342856Y-84178571D01*
X133057142Y-84178571D01*
X132914285Y-84107143D01*
X132842856Y-84035714D01*
X132771428Y-83892857D01*
X132771428Y-83535714D01*
X132842856Y-83392857D01*
X132914285Y-83321429D01*
X133057142Y-83250000D01*
X133342856Y-83250000D01*
X133485714Y-83321429D01*
X133557142Y-83392857D01*
X133628571Y-83535714D01*
X122199999Y-84035714D02*
X122271428Y-84107143D01*
X122485714Y-84178571D01*
X122628571Y-84178571D01*
X122842856Y-84107143D01*
X122985714Y-83964286D01*
X123057142Y-83821429D01*
X123128571Y-83535714D01*
X123128571Y-83321429D01*
X123057142Y-83035714D01*
X122985714Y-82892857D01*
X122842856Y-82750000D01*
X122628571Y-82678571D01*
X122485714Y-82678571D01*
X122271428Y-82750000D01*
X122199999Y-82821429D01*
X120842856Y-82678571D02*
X121557142Y-82678571D01*
X121628571Y-83392857D01*
X121557142Y-83321429D01*
X121414285Y-83250000D01*
X121057142Y-83250000D01*
X120914285Y-83321429D01*
X120842856Y-83392857D01*
X120771428Y-83535714D01*
X120771428Y-83892857D01*
X120842856Y-84035714D01*
X120914285Y-84107143D01*
X121057142Y-84178571D01*
X121414285Y-84178571D01*
X121557142Y-84107143D01*
X121628571Y-84035714D01*
X111364593Y-86271701D02*
X111465609Y-86271701D01*
X111667639Y-86170685D01*
X111768654Y-86069670D01*
X111869669Y-85867640D01*
X111869670Y-85665609D01*
X111819162Y-85514087D01*
X111667639Y-85261548D01*
X111516117Y-85110026D01*
X111263578Y-84958503D01*
X111112055Y-84907995D01*
X110910024Y-84907995D01*
X110707994Y-85009010D01*
X110606979Y-85110025D01*
X110505964Y-85312056D01*
X110505964Y-85413072D01*
X109849364Y-86574746D02*
X110556471Y-87281853D01*
X109697842Y-85918148D02*
X110707994Y-86423223D01*
X110051395Y-87079823D01*
X187035714Y-132800001D02*
X187107143Y-132728572D01*
X187178571Y-132514286D01*
X187178571Y-132371429D01*
X187107143Y-132157144D01*
X186964286Y-132014286D01*
X186821429Y-131942858D01*
X186535714Y-131871429D01*
X186321429Y-131871429D01*
X186035714Y-131942858D01*
X185892857Y-132014286D01*
X185750000Y-132157144D01*
X185678571Y-132371429D01*
X185678571Y-132514286D01*
X185750000Y-132728572D01*
X185821429Y-132800001D01*
X185678571Y-133300001D02*
X185678571Y-134228572D01*
X186250000Y-133728572D01*
X186250000Y-133942858D01*
X186321429Y-134085715D01*
X186392857Y-134157144D01*
X186535714Y-134228572D01*
X186892857Y-134228572D01*
X187035714Y-134157144D01*
X187107143Y-134085715D01*
X187178571Y-133942858D01*
X187178571Y-133514286D01*
X187107143Y-133371429D01*
X187035714Y-133300001D01*
X94035714Y-84800001D02*
X94107143Y-84728572D01*
X94178571Y-84514286D01*
X94178571Y-84371429D01*
X94107143Y-84157144D01*
X93964286Y-84014286D01*
X93821429Y-83942858D01*
X93535714Y-83871429D01*
X93321429Y-83871429D01*
X93035714Y-83942858D01*
X92892857Y-84014286D01*
X92750000Y-84157144D01*
X92678571Y-84371429D01*
X92678571Y-84514286D01*
X92750000Y-84728572D01*
X92821429Y-84800001D01*
X92821429Y-85371429D02*
X92750000Y-85442858D01*
X92678571Y-85585715D01*
X92678571Y-85942858D01*
X92750000Y-86085715D01*
X92821429Y-86157144D01*
X92964286Y-86228572D01*
X93107143Y-86228572D01*
X93321429Y-86157144D01*
X94178571Y-85300001D01*
X94178571Y-86228572D01*
X94035714Y-132800001D02*
X94107143Y-132728572D01*
X94178571Y-132514286D01*
X94178571Y-132371429D01*
X94107143Y-132157144D01*
X93964286Y-132014286D01*
X93821429Y-131942858D01*
X93535714Y-131871429D01*
X93321429Y-131871429D01*
X93035714Y-131942858D01*
X92892857Y-132014286D01*
X92750000Y-132157144D01*
X92678571Y-132371429D01*
X92678571Y-132514286D01*
X92750000Y-132728572D01*
X92821429Y-132800001D01*
X94178571Y-134228572D02*
X94178571Y-133371429D01*
X94178571Y-133800001D02*
X92678571Y-133800001D01*
X92892857Y-133657144D01*
X93035714Y-133514286D01*
X93107143Y-133371429D01*
D16*
X181333333Y-81052381D02*
X181666667Y-80576190D01*
X181904762Y-81052381D02*
X181904762Y-80052381D01*
X181523809Y-80052381D01*
X181428571Y-80100000D01*
X181380952Y-80147619D01*
X181333333Y-80242857D01*
X181333333Y-80385714D01*
X181380952Y-80480952D01*
X181428571Y-80528571D01*
X181523809Y-80576190D01*
X181904762Y-80576190D01*
X180904762Y-80528571D02*
X180571428Y-80528571D01*
X180428571Y-81052381D02*
X180904762Y-81052381D01*
X180904762Y-80052381D01*
X180428571Y-80052381D01*
X179666666Y-80528571D02*
X180000000Y-80528571D01*
X180000000Y-81052381D02*
X180000000Y-80052381D01*
X179523809Y-80052381D01*
X179000000Y-80052381D02*
X179000000Y-80290476D01*
X179238095Y-80195238D02*
X179000000Y-80290476D01*
X178761904Y-80195238D01*
X179142857Y-80480952D02*
X179000000Y-80290476D01*
X178857142Y-80480952D01*
X178238095Y-80052381D02*
X178238095Y-80290476D01*
X178476190Y-80195238D02*
X178238095Y-80290476D01*
X177999999Y-80195238D01*
X178380952Y-80480952D02*
X178238095Y-80290476D01*
X178095237Y-80480952D01*
X181333333Y-140252381D02*
X181666667Y-139776190D01*
X181904762Y-140252381D02*
X181904762Y-139252381D01*
X181523809Y-139252381D01*
X181428571Y-139300000D01*
X181380952Y-139347619D01*
X181333333Y-139442857D01*
X181333333Y-139585714D01*
X181380952Y-139680952D01*
X181428571Y-139728571D01*
X181523809Y-139776190D01*
X181904762Y-139776190D01*
X180904762Y-139728571D02*
X180571428Y-139728571D01*
X180428571Y-140252381D02*
X180904762Y-140252381D01*
X180904762Y-139252381D01*
X180428571Y-139252381D01*
X179666666Y-139728571D02*
X180000000Y-139728571D01*
X180000000Y-140252381D02*
X180000000Y-139252381D01*
X179523809Y-139252381D01*
X179000000Y-139252381D02*
X179000000Y-139490476D01*
X179238095Y-139395238D02*
X179000000Y-139490476D01*
X178761904Y-139395238D01*
X179142857Y-139680952D02*
X179000000Y-139490476D01*
X178857142Y-139680952D01*
X178238095Y-139252381D02*
X178238095Y-139490476D01*
X178476190Y-139395238D02*
X178238095Y-139490476D01*
X177999999Y-139395238D01*
X178380952Y-139680952D02*
X178238095Y-139490476D01*
X178095237Y-139680952D01*
X103333333Y-136252381D02*
X103666667Y-135776190D01*
X103904762Y-136252381D02*
X103904762Y-135252381D01*
X103523809Y-135252381D01*
X103428571Y-135300000D01*
X103380952Y-135347619D01*
X103333333Y-135442857D01*
X103333333Y-135585714D01*
X103380952Y-135680952D01*
X103428571Y-135728571D01*
X103523809Y-135776190D01*
X103904762Y-135776190D01*
X102904762Y-135728571D02*
X102571428Y-135728571D01*
X102428571Y-136252381D02*
X102904762Y-136252381D01*
X102904762Y-135252381D01*
X102428571Y-135252381D01*
X101666666Y-135728571D02*
X102000000Y-135728571D01*
X102000000Y-136252381D02*
X102000000Y-135252381D01*
X101523809Y-135252381D01*
X101000000Y-135252381D02*
X101000000Y-135490476D01*
X101238095Y-135395238D02*
X101000000Y-135490476D01*
X100761904Y-135395238D01*
X101142857Y-135680952D02*
X101000000Y-135490476D01*
X100857142Y-135680952D01*
X100238095Y-135252381D02*
X100238095Y-135490476D01*
X100476190Y-135395238D02*
X100238095Y-135490476D01*
X99999999Y-135395238D01*
X100380952Y-135680952D02*
X100238095Y-135490476D01*
X100095237Y-135680952D01*
X99333333Y-80452381D02*
X99666667Y-79976190D01*
X99904762Y-80452381D02*
X99904762Y-79452381D01*
X99523809Y-79452381D01*
X99428571Y-79500000D01*
X99380952Y-79547619D01*
X99333333Y-79642857D01*
X99333333Y-79785714D01*
X99380952Y-79880952D01*
X99428571Y-79928571D01*
X99523809Y-79976190D01*
X99904762Y-79976190D01*
X98904762Y-79928571D02*
X98571428Y-79928571D01*
X98428571Y-80452381D02*
X98904762Y-80452381D01*
X98904762Y-79452381D01*
X98428571Y-79452381D01*
X97666666Y-79928571D02*
X98000000Y-79928571D01*
X98000000Y-80452381D02*
X98000000Y-79452381D01*
X97523809Y-79452381D01*
X97000000Y-79452381D02*
X97000000Y-79690476D01*
X97238095Y-79595238D02*
X97000000Y-79690476D01*
X96761904Y-79595238D01*
X97142857Y-79880952D02*
X97000000Y-79690476D01*
X96857142Y-79880952D01*
X96238095Y-79452381D02*
X96238095Y-79690476D01*
X96476190Y-79595238D02*
X96238095Y-79690476D01*
X95999999Y-79595238D01*
X96380952Y-79880952D02*
X96238095Y-79690476D01*
X96095237Y-79880952D01*
X112063333Y-61512381D02*
X112396667Y-61036190D01*
X112634762Y-61512381D02*
X112634762Y-60512381D01*
X112253809Y-60512381D01*
X112158571Y-60560000D01*
X112110952Y-60607619D01*
X112063333Y-60702857D01*
X112063333Y-60845714D01*
X112110952Y-60940952D01*
X112158571Y-60988571D01*
X112253809Y-61036190D01*
X112634762Y-61036190D01*
X111634762Y-60988571D02*
X111301428Y-60988571D01*
X111158571Y-61512381D02*
X111634762Y-61512381D01*
X111634762Y-60512381D01*
X111158571Y-60512381D01*
X110396666Y-60988571D02*
X110730000Y-60988571D01*
X110730000Y-61512381D02*
X110730000Y-60512381D01*
X110253809Y-60512381D01*
X109730000Y-60512381D02*
X109730000Y-60750476D01*
X109968095Y-60655238D02*
X109730000Y-60750476D01*
X109491904Y-60655238D01*
X109872857Y-60940952D02*
X109730000Y-60750476D01*
X109587142Y-60940952D01*
X108968095Y-60512381D02*
X108968095Y-60750476D01*
X109206190Y-60655238D02*
X108968095Y-60750476D01*
X108729999Y-60655238D01*
X109110952Y-60940952D02*
X108968095Y-60750476D01*
X108825237Y-60940952D01*
D17*
X127824667Y-57716333D02*
X127824667Y-59155667D01*
X127740000Y-59325000D01*
X127655333Y-59409667D01*
X127486000Y-59494333D01*
X127147333Y-59494333D01*
X126978000Y-59409667D01*
X126893333Y-59325000D01*
X126808667Y-59155667D01*
X126808667Y-57716333D01*
X125030666Y-59494333D02*
X126046666Y-59494333D01*
X125538666Y-59494333D02*
X125538666Y-57716333D01*
X125708000Y-57970333D01*
X125877333Y-58139667D01*
X126046666Y-58224333D01*
X120839669Y-66479333D02*
X120839669Y-65548000D01*
X120924335Y-65378667D01*
X121093669Y-65294000D01*
X121432335Y-65294000D01*
X121601669Y-65378667D01*
X120839669Y-66394667D02*
X121009002Y-66479333D01*
X121432335Y-66479333D01*
X121601669Y-66394667D01*
X121686335Y-66225333D01*
X121686335Y-66056000D01*
X121601669Y-65886667D01*
X121432335Y-65802000D01*
X121009002Y-65802000D01*
X120839669Y-65717333D01*
X119993002Y-66479333D02*
X119993002Y-65294000D01*
X119993002Y-65632667D02*
X119908335Y-65463333D01*
X119823668Y-65378667D01*
X119654335Y-65294000D01*
X119485002Y-65294000D01*
X118130335Y-66479333D02*
X118130335Y-64701333D01*
X118130335Y-66394667D02*
X118299668Y-66479333D01*
X118638335Y-66479333D01*
X118807668Y-66394667D01*
X118892335Y-66310000D01*
X118977001Y-66140667D01*
X118977001Y-65632667D01*
X118892335Y-65463333D01*
X118807668Y-65378667D01*
X118638335Y-65294000D01*
X118299668Y-65294000D01*
X118130335Y-65378667D01*
X116521668Y-65294000D02*
X116521668Y-66479333D01*
X117283668Y-65294000D02*
X117283668Y-66225333D01*
X117199001Y-66394667D01*
X117029668Y-66479333D01*
X116775668Y-66479333D01*
X116606334Y-66394667D01*
X116521668Y-66310000D01*
X115675001Y-66479333D02*
X115675001Y-65294000D01*
X115675001Y-64701333D02*
X115759667Y-64786000D01*
X115675001Y-64870667D01*
X115590334Y-64786000D01*
X115675001Y-64701333D01*
X115675001Y-64870667D01*
X114828334Y-65294000D02*
X114828334Y-66479333D01*
X114828334Y-65463333D02*
X114743667Y-65378667D01*
X114574334Y-65294000D01*
X114320334Y-65294000D01*
X114151000Y-65378667D01*
X114066334Y-65548000D01*
X114066334Y-66479333D01*
X112965667Y-66479333D02*
X113135000Y-66394667D01*
X113219667Y-66310000D01*
X113304333Y-66140667D01*
X113304333Y-65632667D01*
X113219667Y-65463333D01*
X113135000Y-65378667D01*
X112965667Y-65294000D01*
X112711667Y-65294000D01*
X112542333Y-65378667D01*
X112457667Y-65463333D01*
X112373000Y-65632667D01*
X112373000Y-66140667D01*
X112457667Y-66310000D01*
X112542333Y-66394667D01*
X112711667Y-66479333D01*
X112965667Y-66479333D01*
X112034333Y-66648667D02*
X110679666Y-66648667D01*
X110256333Y-65294000D02*
X110256333Y-66479333D01*
X110256333Y-65463333D02*
X110171666Y-65378667D01*
X110002333Y-65294000D01*
X109748333Y-65294000D01*
X109578999Y-65378667D01*
X109494333Y-65548000D01*
X109494333Y-66479333D01*
X107885666Y-66479333D02*
X107885666Y-65548000D01*
X107970332Y-65378667D01*
X108139666Y-65294000D01*
X108478332Y-65294000D01*
X108647666Y-65378667D01*
X107885666Y-66394667D02*
X108054999Y-66479333D01*
X108478332Y-66479333D01*
X108647666Y-66394667D01*
X108732332Y-66225333D01*
X108732332Y-66056000D01*
X108647666Y-65886667D01*
X108478332Y-65802000D01*
X108054999Y-65802000D01*
X107885666Y-65717333D01*
X107038999Y-65294000D02*
X107038999Y-66479333D01*
X107038999Y-65463333D02*
X106954332Y-65378667D01*
X106784999Y-65294000D01*
X106530999Y-65294000D01*
X106361665Y-65378667D01*
X106276999Y-65548000D01*
X106276999Y-66479333D01*
X105176332Y-66479333D02*
X105345665Y-66394667D01*
X105430332Y-66310000D01*
X105514998Y-66140667D01*
X105514998Y-65632667D01*
X105430332Y-65463333D01*
X105345665Y-65378667D01*
X105176332Y-65294000D01*
X104922332Y-65294000D01*
X104752998Y-65378667D01*
X104668332Y-65463333D01*
X104583665Y-65632667D01*
X104583665Y-66140667D01*
X104668332Y-66310000D01*
X104752998Y-66394667D01*
X104922332Y-66479333D01*
X105176332Y-66479333D01*
M02*
