G04 #@! TF.FileFunction,Legend,Bot*
%FSLAX46Y46*%
G04 Gerber Fmt 4.6, Leading zero omitted, Abs format (unit mm)*
G04 Created by KiCad (PCBNEW 4.0.7) date 12/02/17 18:42:05*
%MOMM*%
%LPD*%
G01*
G04 APERTURE LIST*
%ADD10C,0.100000*%
%ADD11C,0.300000*%
%ADD12C,0.010000*%
%ADD13C,0.120000*%
%ADD14C,0.381000*%
%ADD15C,0.225000*%
%ADD16C,0.150000*%
%ADD17C,0.304800*%
G04 APERTURE END LIST*
D10*
D11*
X141157143Y-68821429D02*
X141157143Y-70321429D01*
X141871429Y-69821429D02*
X141871429Y-68821429D01*
X141871429Y-69678571D02*
X141942857Y-69750000D01*
X142085715Y-69821429D01*
X142300000Y-69821429D01*
X142442857Y-69750000D01*
X142514286Y-69607143D01*
X142514286Y-68821429D01*
X144157143Y-69821429D02*
X144728572Y-69821429D01*
X144371429Y-70321429D02*
X144371429Y-69035714D01*
X144442857Y-68892857D01*
X144585715Y-68821429D01*
X144728572Y-68821429D01*
X145228572Y-68821429D02*
X145228572Y-70321429D01*
X145871429Y-68821429D02*
X145871429Y-69607143D01*
X145800000Y-69750000D01*
X145657143Y-69821429D01*
X145442858Y-69821429D01*
X145300000Y-69750000D01*
X145228572Y-69678571D01*
X147157143Y-68892857D02*
X147014286Y-68821429D01*
X146728572Y-68821429D01*
X146585715Y-68892857D01*
X146514286Y-69035714D01*
X146514286Y-69607143D01*
X146585715Y-69750000D01*
X146728572Y-69821429D01*
X147014286Y-69821429D01*
X147157143Y-69750000D01*
X147228572Y-69607143D01*
X147228572Y-69464286D01*
X146514286Y-69321429D01*
X149657143Y-68892857D02*
X149514286Y-68821429D01*
X149228572Y-68821429D01*
X149085714Y-68892857D01*
X149014286Y-68964286D01*
X148942857Y-69107143D01*
X148942857Y-69535714D01*
X149014286Y-69678571D01*
X149085714Y-69750000D01*
X149228572Y-69821429D01*
X149514286Y-69821429D01*
X149657143Y-69750000D01*
X150942857Y-68821429D02*
X150942857Y-69607143D01*
X150871428Y-69750000D01*
X150728571Y-69821429D01*
X150442857Y-69821429D01*
X150300000Y-69750000D01*
X150942857Y-68892857D02*
X150800000Y-68821429D01*
X150442857Y-68821429D01*
X150300000Y-68892857D01*
X150228571Y-69035714D01*
X150228571Y-69178571D01*
X150300000Y-69321429D01*
X150442857Y-69392857D01*
X150800000Y-69392857D01*
X150942857Y-69464286D01*
X151585714Y-68892857D02*
X151728571Y-68821429D01*
X152014286Y-68821429D01*
X152157143Y-68892857D01*
X152228571Y-69035714D01*
X152228571Y-69107143D01*
X152157143Y-69250000D01*
X152014286Y-69321429D01*
X151800000Y-69321429D01*
X151657143Y-69392857D01*
X151585714Y-69535714D01*
X151585714Y-69607143D01*
X151657143Y-69750000D01*
X151800000Y-69821429D01*
X152014286Y-69821429D01*
X152157143Y-69750000D01*
X153442857Y-68892857D02*
X153300000Y-68821429D01*
X153014286Y-68821429D01*
X152871429Y-68892857D01*
X152800000Y-69035714D01*
X152800000Y-69607143D01*
X152871429Y-69750000D01*
X153014286Y-69821429D01*
X153300000Y-69821429D01*
X153442857Y-69750000D01*
X153514286Y-69607143D01*
X153514286Y-69464286D01*
X152800000Y-69321429D01*
X155157143Y-69821429D02*
X155514286Y-68821429D01*
X155871428Y-69821429D02*
X155514286Y-68821429D01*
X155371428Y-68464286D01*
X155300000Y-68392857D01*
X155157143Y-68321429D01*
X156657143Y-68821429D02*
X156514285Y-68892857D01*
X156442857Y-68964286D01*
X156371428Y-69107143D01*
X156371428Y-69535714D01*
X156442857Y-69678571D01*
X156514285Y-69750000D01*
X156657143Y-69821429D01*
X156871428Y-69821429D01*
X157014285Y-69750000D01*
X157085714Y-69678571D01*
X157157143Y-69535714D01*
X157157143Y-69107143D01*
X157085714Y-68964286D01*
X157014285Y-68892857D01*
X156871428Y-68821429D01*
X156657143Y-68821429D01*
X158442857Y-69821429D02*
X158442857Y-68821429D01*
X157800000Y-69821429D02*
X157800000Y-69035714D01*
X157871428Y-68892857D01*
X158014286Y-68821429D01*
X158228571Y-68821429D01*
X158371428Y-68892857D01*
X158442857Y-68964286D01*
X160300000Y-68821429D02*
X160300000Y-69821429D01*
X160300000Y-69535714D02*
X160371428Y-69678571D01*
X160442857Y-69750000D01*
X160585714Y-69821429D01*
X160728571Y-69821429D01*
X161799999Y-68892857D02*
X161657142Y-68821429D01*
X161371428Y-68821429D01*
X161228571Y-68892857D01*
X161157142Y-69035714D01*
X161157142Y-69607143D01*
X161228571Y-69750000D01*
X161371428Y-69821429D01*
X161657142Y-69821429D01*
X161799999Y-69750000D01*
X161871428Y-69607143D01*
X161871428Y-69464286D01*
X161157142Y-69321429D01*
X163157142Y-68821429D02*
X163157142Y-69607143D01*
X163085713Y-69750000D01*
X162942856Y-69821429D01*
X162657142Y-69821429D01*
X162514285Y-69750000D01*
X163157142Y-68892857D02*
X163014285Y-68821429D01*
X162657142Y-68821429D01*
X162514285Y-68892857D01*
X162442856Y-69035714D01*
X162442856Y-69178571D01*
X162514285Y-69321429D01*
X162657142Y-69392857D01*
X163014285Y-69392857D01*
X163157142Y-69464286D01*
X164514285Y-68821429D02*
X164514285Y-70321429D01*
X164514285Y-68892857D02*
X164371428Y-68821429D01*
X164085714Y-68821429D01*
X163942856Y-68892857D01*
X163871428Y-68964286D01*
X163799999Y-69107143D01*
X163799999Y-69535714D01*
X163871428Y-69678571D01*
X163942856Y-69750000D01*
X164085714Y-69821429D01*
X164371428Y-69821429D01*
X164514285Y-69750000D01*
X166157142Y-69821429D02*
X166728571Y-69821429D01*
X166371428Y-70321429D02*
X166371428Y-69035714D01*
X166442856Y-68892857D01*
X166585714Y-68821429D01*
X166728571Y-68821429D01*
X167228571Y-68821429D02*
X167228571Y-70321429D01*
X167871428Y-68821429D02*
X167871428Y-69607143D01*
X167799999Y-69750000D01*
X167657142Y-69821429D01*
X167442857Y-69821429D01*
X167299999Y-69750000D01*
X167228571Y-69678571D01*
X169157142Y-68892857D02*
X169014285Y-68821429D01*
X168728571Y-68821429D01*
X168585714Y-68892857D01*
X168514285Y-69035714D01*
X168514285Y-69607143D01*
X168585714Y-69750000D01*
X168728571Y-69821429D01*
X169014285Y-69821429D01*
X169157142Y-69750000D01*
X169228571Y-69607143D01*
X169228571Y-69464286D01*
X168514285Y-69321429D01*
X170799999Y-69821429D02*
X171371428Y-69821429D01*
X171014285Y-70321429D02*
X171014285Y-69035714D01*
X171085713Y-68892857D01*
X171228571Y-68821429D01*
X171371428Y-68821429D01*
X172442856Y-68892857D02*
X172299999Y-68821429D01*
X172014285Y-68821429D01*
X171871428Y-68892857D01*
X171799999Y-69035714D01*
X171799999Y-69607143D01*
X171871428Y-69750000D01*
X172014285Y-69821429D01*
X172299999Y-69821429D01*
X172442856Y-69750000D01*
X172514285Y-69607143D01*
X172514285Y-69464286D01*
X171799999Y-69321429D01*
X173014285Y-68821429D02*
X173799999Y-69821429D01*
X173014285Y-69821429D02*
X173799999Y-68821429D01*
X174157142Y-69821429D02*
X174728571Y-69821429D01*
X174371428Y-70321429D02*
X174371428Y-69035714D01*
X174442856Y-68892857D01*
X174585714Y-68821429D01*
X174728571Y-68821429D01*
X176157142Y-69821429D02*
X176728571Y-69821429D01*
X176371428Y-70321429D02*
X176371428Y-69035714D01*
X176442856Y-68892857D01*
X176585714Y-68821429D01*
X176728571Y-68821429D01*
X177228571Y-68821429D02*
X177228571Y-70321429D01*
X177871428Y-68821429D02*
X177871428Y-69607143D01*
X177799999Y-69750000D01*
X177657142Y-69821429D01*
X177442857Y-69821429D01*
X177299999Y-69750000D01*
X177228571Y-69678571D01*
X178585714Y-68821429D02*
X178585714Y-69821429D01*
X178585714Y-70321429D02*
X178514285Y-70250000D01*
X178585714Y-70178571D01*
X178657142Y-70250000D01*
X178585714Y-70321429D01*
X178585714Y-70178571D01*
X179228571Y-68892857D02*
X179371428Y-68821429D01*
X179657143Y-68821429D01*
X179800000Y-68892857D01*
X179871428Y-69035714D01*
X179871428Y-69107143D01*
X179800000Y-69250000D01*
X179657143Y-69321429D01*
X179442857Y-69321429D01*
X179300000Y-69392857D01*
X179228571Y-69535714D01*
X179228571Y-69607143D01*
X179300000Y-69750000D01*
X179442857Y-69821429D01*
X179657143Y-69821429D01*
X179800000Y-69750000D01*
X181514286Y-69821429D02*
X181800000Y-68821429D01*
X182085714Y-69535714D01*
X182371429Y-68821429D01*
X182657143Y-69821429D01*
X183871429Y-68821429D02*
X183871429Y-69607143D01*
X183800000Y-69750000D01*
X183657143Y-69821429D01*
X183371429Y-69821429D01*
X183228572Y-69750000D01*
X183871429Y-68892857D02*
X183728572Y-68821429D01*
X183371429Y-68821429D01*
X183228572Y-68892857D01*
X183157143Y-69035714D01*
X183157143Y-69178571D01*
X183228572Y-69321429D01*
X183371429Y-69392857D01*
X183728572Y-69392857D01*
X183871429Y-69464286D01*
X184442858Y-69821429D02*
X184800001Y-68821429D01*
X185157143Y-69821429D02*
X184800001Y-68821429D01*
X184657143Y-68464286D01*
X184585715Y-68392857D01*
X184442858Y-68321429D01*
X185728572Y-68964286D02*
X185800000Y-68892857D01*
X185728572Y-68821429D01*
X185657143Y-68892857D01*
X185728572Y-68964286D01*
X185728572Y-68821429D01*
X185728572Y-69750000D02*
X185800000Y-69678571D01*
X185728572Y-69607143D01*
X185657143Y-69678571D01*
X185728572Y-69750000D01*
X185728572Y-69607143D01*
X141157143Y-66271429D02*
X141157143Y-67771429D01*
X141514286Y-67771429D01*
X141728571Y-67700000D01*
X141871429Y-67557143D01*
X141942857Y-67414286D01*
X142014286Y-67128571D01*
X142014286Y-66914286D01*
X141942857Y-66628571D01*
X141871429Y-66485714D01*
X141728571Y-66342857D01*
X141514286Y-66271429D01*
X141157143Y-66271429D01*
X142585714Y-66700000D02*
X143300000Y-66700000D01*
X142442857Y-66271429D02*
X142942857Y-67771429D01*
X143442857Y-66271429D01*
X143728571Y-67771429D02*
X144585714Y-67771429D01*
X144157143Y-66271429D02*
X144157143Y-67771429D01*
X145014285Y-66700000D02*
X145728571Y-66700000D01*
X144871428Y-66271429D02*
X145371428Y-67771429D01*
X145871428Y-66271429D01*
X141871429Y-65221429D02*
X141157143Y-65221429D01*
X141085714Y-64507143D01*
X141157143Y-64578571D01*
X141300000Y-64650000D01*
X141657143Y-64650000D01*
X141800000Y-64578571D01*
X141871429Y-64507143D01*
X141942857Y-64364286D01*
X141942857Y-64007143D01*
X141871429Y-63864286D01*
X141800000Y-63792857D01*
X141657143Y-63721429D01*
X141300000Y-63721429D01*
X141157143Y-63792857D01*
X141085714Y-63864286D01*
X142371428Y-65221429D02*
X142871428Y-63721429D01*
X143371428Y-65221429D01*
X141942857Y-62600000D02*
X141800000Y-62671429D01*
X141585714Y-62671429D01*
X141371429Y-62600000D01*
X141228571Y-62457143D01*
X141157143Y-62314286D01*
X141085714Y-62028571D01*
X141085714Y-61814286D01*
X141157143Y-61528571D01*
X141228571Y-61385714D01*
X141371429Y-61242857D01*
X141585714Y-61171429D01*
X141728571Y-61171429D01*
X141942857Y-61242857D01*
X142014286Y-61314286D01*
X142014286Y-61814286D01*
X141728571Y-61814286D01*
X142657143Y-61171429D02*
X142657143Y-62671429D01*
X143514286Y-61171429D01*
X143514286Y-62671429D01*
X144228572Y-61171429D02*
X144228572Y-62671429D01*
X144585715Y-62671429D01*
X144800000Y-62600000D01*
X144942858Y-62457143D01*
X145014286Y-62314286D01*
X145085715Y-62028571D01*
X145085715Y-61814286D01*
X145014286Y-61528571D01*
X144942858Y-61385714D01*
X144800000Y-61242857D01*
X144585715Y-61171429D01*
X144228572Y-61171429D01*
X140942857Y-60121429D02*
X141800000Y-60121429D01*
X141371429Y-58621429D02*
X141371429Y-60121429D01*
X142942857Y-59621429D02*
X142942857Y-58621429D01*
X142300000Y-59621429D02*
X142300000Y-58835714D01*
X142371428Y-58692857D01*
X142514286Y-58621429D01*
X142728571Y-58621429D01*
X142871428Y-58692857D01*
X142942857Y-58764286D01*
X143657143Y-58621429D02*
X143657143Y-59621429D01*
X143657143Y-59335714D02*
X143728571Y-59478571D01*
X143800000Y-59550000D01*
X143942857Y-59621429D01*
X144085714Y-59621429D01*
X144585714Y-59621429D02*
X144585714Y-58621429D01*
X144585714Y-59478571D02*
X144657142Y-59550000D01*
X144800000Y-59621429D01*
X145014285Y-59621429D01*
X145157142Y-59550000D01*
X145228571Y-59407143D01*
X145228571Y-58621429D01*
X147800000Y-58621429D02*
X147085714Y-58621429D01*
X147085714Y-60121429D01*
X148300000Y-59407143D02*
X148800000Y-59407143D01*
X149014286Y-58621429D02*
X148300000Y-58621429D01*
X148300000Y-60121429D01*
X149014286Y-60121429D01*
X149657143Y-58621429D02*
X149657143Y-60121429D01*
X150014286Y-60121429D01*
X150228571Y-60050000D01*
X150371429Y-59907143D01*
X150442857Y-59764286D01*
X150514286Y-59478571D01*
X150514286Y-59264286D01*
X150442857Y-58978571D01*
X150371429Y-58835714D01*
X150228571Y-58692857D01*
X150014286Y-58621429D01*
X149657143Y-58621429D01*
X151085714Y-58692857D02*
X151228571Y-58621429D01*
X151514286Y-58621429D01*
X151657143Y-58692857D01*
X151728571Y-58835714D01*
X151728571Y-58907143D01*
X151657143Y-59050000D01*
X151514286Y-59121429D01*
X151300000Y-59121429D01*
X151157143Y-59192857D01*
X151085714Y-59335714D01*
X151085714Y-59407143D01*
X151157143Y-59550000D01*
X151300000Y-59621429D01*
X151514286Y-59621429D01*
X151657143Y-59550000D01*
X154300000Y-58621429D02*
X153442857Y-58621429D01*
X153871429Y-58621429D02*
X153871429Y-60121429D01*
X153728572Y-59907143D01*
X153585714Y-59764286D01*
X153442857Y-59692857D01*
X155157143Y-59478571D02*
X155014285Y-59550000D01*
X154942857Y-59621429D01*
X154871428Y-59764286D01*
X154871428Y-59835714D01*
X154942857Y-59978571D01*
X155014285Y-60050000D01*
X155157143Y-60121429D01*
X155442857Y-60121429D01*
X155585714Y-60050000D01*
X155657143Y-59978571D01*
X155728571Y-59835714D01*
X155728571Y-59764286D01*
X155657143Y-59621429D01*
X155585714Y-59550000D01*
X155442857Y-59478571D01*
X155157143Y-59478571D01*
X155014285Y-59407143D01*
X154942857Y-59335714D01*
X154871428Y-59192857D01*
X154871428Y-58907143D01*
X154942857Y-58764286D01*
X155014285Y-58692857D01*
X155157143Y-58621429D01*
X155442857Y-58621429D01*
X155585714Y-58692857D01*
X155657143Y-58764286D01*
X155728571Y-58907143D01*
X155728571Y-59192857D01*
X155657143Y-59335714D01*
X155585714Y-59407143D01*
X155442857Y-59478571D01*
X156657142Y-60121429D02*
X156799999Y-60121429D01*
X156942856Y-60050000D01*
X157014285Y-59978571D01*
X157085714Y-59835714D01*
X157157142Y-59550000D01*
X157157142Y-59192857D01*
X157085714Y-58907143D01*
X157014285Y-58764286D01*
X156942856Y-58692857D01*
X156799999Y-58621429D01*
X156657142Y-58621429D01*
X156514285Y-58692857D01*
X156442856Y-58764286D01*
X156371428Y-58907143D01*
X156299999Y-59192857D01*
X156299999Y-59550000D01*
X156371428Y-59835714D01*
X156442856Y-59978571D01*
X156514285Y-60050000D01*
X156657142Y-60121429D01*
X158014285Y-60121429D02*
X157871427Y-60050000D01*
X157799999Y-59907143D01*
X157871427Y-59764286D01*
X158014285Y-59692857D01*
X158157142Y-59764286D01*
X158228570Y-59907143D01*
X158157142Y-60050000D01*
X158014285Y-60121429D01*
X185642857Y-57253571D02*
X185642857Y-55753571D01*
X184928571Y-56253571D02*
X184928571Y-57253571D01*
X184928571Y-56396429D02*
X184857143Y-56325000D01*
X184714285Y-56253571D01*
X184500000Y-56253571D01*
X184357143Y-56325000D01*
X184285714Y-56467857D01*
X184285714Y-57253571D01*
X182642857Y-56253571D02*
X182071428Y-56253571D01*
X182428571Y-55753571D02*
X182428571Y-57039286D01*
X182357143Y-57182143D01*
X182214285Y-57253571D01*
X182071428Y-57253571D01*
X181571428Y-57253571D02*
X181571428Y-55753571D01*
X180928571Y-57253571D02*
X180928571Y-56467857D01*
X181000000Y-56325000D01*
X181142857Y-56253571D01*
X181357142Y-56253571D01*
X181500000Y-56325000D01*
X181571428Y-56396429D01*
X179642857Y-57182143D02*
X179785714Y-57253571D01*
X180071428Y-57253571D01*
X180214285Y-57182143D01*
X180285714Y-57039286D01*
X180285714Y-56467857D01*
X180214285Y-56325000D01*
X180071428Y-56253571D01*
X179785714Y-56253571D01*
X179642857Y-56325000D01*
X179571428Y-56467857D01*
X179571428Y-56610714D01*
X180285714Y-56753571D01*
X177142857Y-57182143D02*
X177285714Y-57253571D01*
X177571428Y-57253571D01*
X177714286Y-57182143D01*
X177785714Y-57110714D01*
X177857143Y-56967857D01*
X177857143Y-56539286D01*
X177785714Y-56396429D01*
X177714286Y-56325000D01*
X177571428Y-56253571D01*
X177285714Y-56253571D01*
X177142857Y-56325000D01*
X175857143Y-57253571D02*
X175857143Y-56467857D01*
X175928572Y-56325000D01*
X176071429Y-56253571D01*
X176357143Y-56253571D01*
X176500000Y-56325000D01*
X175857143Y-57182143D02*
X176000000Y-57253571D01*
X176357143Y-57253571D01*
X176500000Y-57182143D01*
X176571429Y-57039286D01*
X176571429Y-56896429D01*
X176500000Y-56753571D01*
X176357143Y-56682143D01*
X176000000Y-56682143D01*
X175857143Y-56610714D01*
X175214286Y-57182143D02*
X175071429Y-57253571D01*
X174785714Y-57253571D01*
X174642857Y-57182143D01*
X174571429Y-57039286D01*
X174571429Y-56967857D01*
X174642857Y-56825000D01*
X174785714Y-56753571D01*
X175000000Y-56753571D01*
X175142857Y-56682143D01*
X175214286Y-56539286D01*
X175214286Y-56467857D01*
X175142857Y-56325000D01*
X175000000Y-56253571D01*
X174785714Y-56253571D01*
X174642857Y-56325000D01*
X173357143Y-57182143D02*
X173500000Y-57253571D01*
X173785714Y-57253571D01*
X173928571Y-57182143D01*
X174000000Y-57039286D01*
X174000000Y-56467857D01*
X173928571Y-56325000D01*
X173785714Y-56253571D01*
X173500000Y-56253571D01*
X173357143Y-56325000D01*
X173285714Y-56467857D01*
X173285714Y-56610714D01*
X174000000Y-56753571D01*
X171642857Y-56253571D02*
X171285714Y-57253571D01*
X170928572Y-56253571D02*
X171285714Y-57253571D01*
X171428572Y-57610714D01*
X171500000Y-57682143D01*
X171642857Y-57753571D01*
X170142857Y-57253571D02*
X170285715Y-57182143D01*
X170357143Y-57110714D01*
X170428572Y-56967857D01*
X170428572Y-56539286D01*
X170357143Y-56396429D01*
X170285715Y-56325000D01*
X170142857Y-56253571D01*
X169928572Y-56253571D01*
X169785715Y-56325000D01*
X169714286Y-56396429D01*
X169642857Y-56539286D01*
X169642857Y-56967857D01*
X169714286Y-57110714D01*
X169785715Y-57182143D01*
X169928572Y-57253571D01*
X170142857Y-57253571D01*
X168357143Y-56253571D02*
X168357143Y-57253571D01*
X169000000Y-56253571D02*
X169000000Y-57039286D01*
X168928572Y-57182143D01*
X168785714Y-57253571D01*
X168571429Y-57253571D01*
X168428572Y-57182143D01*
X168357143Y-57110714D01*
X166500000Y-57253571D02*
X166500000Y-56253571D01*
X166500000Y-56539286D02*
X166428572Y-56396429D01*
X166357143Y-56325000D01*
X166214286Y-56253571D01*
X166071429Y-56253571D01*
X165000001Y-57182143D02*
X165142858Y-57253571D01*
X165428572Y-57253571D01*
X165571429Y-57182143D01*
X165642858Y-57039286D01*
X165642858Y-56467857D01*
X165571429Y-56325000D01*
X165428572Y-56253571D01*
X165142858Y-56253571D01*
X165000001Y-56325000D01*
X164928572Y-56467857D01*
X164928572Y-56610714D01*
X165642858Y-56753571D01*
X163642858Y-57253571D02*
X163642858Y-56467857D01*
X163714287Y-56325000D01*
X163857144Y-56253571D01*
X164142858Y-56253571D01*
X164285715Y-56325000D01*
X163642858Y-57182143D02*
X163785715Y-57253571D01*
X164142858Y-57253571D01*
X164285715Y-57182143D01*
X164357144Y-57039286D01*
X164357144Y-56896429D01*
X164285715Y-56753571D01*
X164142858Y-56682143D01*
X163785715Y-56682143D01*
X163642858Y-56610714D01*
X162285715Y-57253571D02*
X162285715Y-55753571D01*
X162285715Y-57182143D02*
X162428572Y-57253571D01*
X162714286Y-57253571D01*
X162857144Y-57182143D01*
X162928572Y-57110714D01*
X163000001Y-56967857D01*
X163000001Y-56539286D01*
X162928572Y-56396429D01*
X162857144Y-56325000D01*
X162714286Y-56253571D01*
X162428572Y-56253571D01*
X162285715Y-56325000D01*
X160642858Y-56253571D02*
X160071429Y-56253571D01*
X160428572Y-55753571D02*
X160428572Y-57039286D01*
X160357144Y-57182143D01*
X160214286Y-57253571D01*
X160071429Y-57253571D01*
X159571429Y-57253571D02*
X159571429Y-55753571D01*
X158928572Y-57253571D02*
X158928572Y-56467857D01*
X159000001Y-56325000D01*
X159142858Y-56253571D01*
X159357143Y-56253571D01*
X159500001Y-56325000D01*
X159571429Y-56396429D01*
X157642858Y-57182143D02*
X157785715Y-57253571D01*
X158071429Y-57253571D01*
X158214286Y-57182143D01*
X158285715Y-57039286D01*
X158285715Y-56467857D01*
X158214286Y-56325000D01*
X158071429Y-56253571D01*
X157785715Y-56253571D01*
X157642858Y-56325000D01*
X157571429Y-56467857D01*
X157571429Y-56610714D01*
X158285715Y-56753571D01*
X156000001Y-56253571D02*
X155428572Y-56253571D01*
X155785715Y-55753571D02*
X155785715Y-57039286D01*
X155714287Y-57182143D01*
X155571429Y-57253571D01*
X155428572Y-57253571D01*
X154357144Y-57182143D02*
X154500001Y-57253571D01*
X154785715Y-57253571D01*
X154928572Y-57182143D01*
X155000001Y-57039286D01*
X155000001Y-56467857D01*
X154928572Y-56325000D01*
X154785715Y-56253571D01*
X154500001Y-56253571D01*
X154357144Y-56325000D01*
X154285715Y-56467857D01*
X154285715Y-56610714D01*
X155000001Y-56753571D01*
X153785715Y-57253571D02*
X153000001Y-56253571D01*
X153785715Y-56253571D02*
X153000001Y-57253571D01*
X152642858Y-56253571D02*
X152071429Y-56253571D01*
X152428572Y-55753571D02*
X152428572Y-57039286D01*
X152357144Y-57182143D01*
X152214286Y-57253571D01*
X152071429Y-57253571D01*
X150642858Y-56253571D02*
X150071429Y-56253571D01*
X150428572Y-55753571D02*
X150428572Y-57039286D01*
X150357144Y-57182143D01*
X150214286Y-57253571D01*
X150071429Y-57253571D01*
X149571429Y-57253571D02*
X149571429Y-55753571D01*
X148928572Y-57253571D02*
X148928572Y-56467857D01*
X149000001Y-56325000D01*
X149142858Y-56253571D01*
X149357143Y-56253571D01*
X149500001Y-56325000D01*
X149571429Y-56396429D01*
X148214286Y-57253571D02*
X148214286Y-56253571D01*
X148214286Y-55753571D02*
X148285715Y-55825000D01*
X148214286Y-55896429D01*
X148142858Y-55825000D01*
X148214286Y-55753571D01*
X148214286Y-55896429D01*
X147571429Y-57182143D02*
X147428572Y-57253571D01*
X147142857Y-57253571D01*
X147000000Y-57182143D01*
X146928572Y-57039286D01*
X146928572Y-56967857D01*
X147000000Y-56825000D01*
X147142857Y-56753571D01*
X147357143Y-56753571D01*
X147500000Y-56682143D01*
X147571429Y-56539286D01*
X147571429Y-56467857D01*
X147500000Y-56325000D01*
X147357143Y-56253571D01*
X147142857Y-56253571D01*
X147000000Y-56325000D01*
X145285714Y-56253571D02*
X145000000Y-57253571D01*
X144714286Y-56539286D01*
X144428571Y-57253571D01*
X144142857Y-56253571D01*
X142928571Y-57253571D02*
X142928571Y-56467857D01*
X143000000Y-56325000D01*
X143142857Y-56253571D01*
X143428571Y-56253571D01*
X143571428Y-56325000D01*
X142928571Y-57182143D02*
X143071428Y-57253571D01*
X143428571Y-57253571D01*
X143571428Y-57182143D01*
X143642857Y-57039286D01*
X143642857Y-56896429D01*
X143571428Y-56753571D01*
X143428571Y-56682143D01*
X143071428Y-56682143D01*
X142928571Y-56610714D01*
X142357142Y-56253571D02*
X141999999Y-57253571D01*
X141642857Y-56253571D02*
X141999999Y-57253571D01*
X142142857Y-57610714D01*
X142214285Y-57682143D01*
X142357142Y-57753571D01*
X141071428Y-57110714D02*
X141000000Y-57182143D01*
X141071428Y-57253571D01*
X141142857Y-57182143D01*
X141071428Y-57110714D01*
X141071428Y-57253571D01*
X141071428Y-56325000D02*
X141000000Y-56396429D01*
X141071428Y-56467857D01*
X141142857Y-56396429D01*
X141071428Y-56325000D01*
X141071428Y-56467857D01*
X185642857Y-59803571D02*
X185642857Y-58303571D01*
X185285714Y-58303571D01*
X185071429Y-58375000D01*
X184928571Y-58517857D01*
X184857143Y-58660714D01*
X184785714Y-58946429D01*
X184785714Y-59160714D01*
X184857143Y-59446429D01*
X184928571Y-59589286D01*
X185071429Y-59732143D01*
X185285714Y-59803571D01*
X185642857Y-59803571D01*
X184214286Y-59375000D02*
X183500000Y-59375000D01*
X184357143Y-59803571D02*
X183857143Y-58303571D01*
X183357143Y-59803571D01*
X183071429Y-58303571D02*
X182214286Y-58303571D01*
X182642857Y-59803571D02*
X182642857Y-58303571D01*
X181785715Y-59375000D02*
X181071429Y-59375000D01*
X181928572Y-59803571D02*
X181428572Y-58303571D01*
X180928572Y-59803571D01*
X184928571Y-60853571D02*
X185642857Y-60853571D01*
X185714286Y-61567857D01*
X185642857Y-61496429D01*
X185500000Y-61425000D01*
X185142857Y-61425000D01*
X185000000Y-61496429D01*
X184928571Y-61567857D01*
X184857143Y-61710714D01*
X184857143Y-62067857D01*
X184928571Y-62210714D01*
X185000000Y-62282143D01*
X185142857Y-62353571D01*
X185500000Y-62353571D01*
X185642857Y-62282143D01*
X185714286Y-62210714D01*
X184428572Y-60853571D02*
X183928572Y-62353571D01*
X183428572Y-60853571D01*
X184857143Y-63475000D02*
X185000000Y-63403571D01*
X185214286Y-63403571D01*
X185428571Y-63475000D01*
X185571429Y-63617857D01*
X185642857Y-63760714D01*
X185714286Y-64046429D01*
X185714286Y-64260714D01*
X185642857Y-64546429D01*
X185571429Y-64689286D01*
X185428571Y-64832143D01*
X185214286Y-64903571D01*
X185071429Y-64903571D01*
X184857143Y-64832143D01*
X184785714Y-64760714D01*
X184785714Y-64260714D01*
X185071429Y-64260714D01*
X184142857Y-64903571D02*
X184142857Y-63403571D01*
X183285714Y-64903571D01*
X183285714Y-63403571D01*
X182571428Y-64903571D02*
X182571428Y-63403571D01*
X182214285Y-63403571D01*
X182000000Y-63475000D01*
X181857142Y-63617857D01*
X181785714Y-63760714D01*
X181714285Y-64046429D01*
X181714285Y-64260714D01*
X181785714Y-64546429D01*
X181857142Y-64689286D01*
X182000000Y-64832143D01*
X182214285Y-64903571D01*
X182571428Y-64903571D01*
D12*
G36*
X137437258Y-138311223D02*
X137495230Y-138308547D01*
X137547513Y-138303364D01*
X137585310Y-138296870D01*
X137693123Y-138266828D01*
X137794227Y-138226201D01*
X137888139Y-138175473D01*
X137974372Y-138115129D01*
X138052442Y-138045655D01*
X138121863Y-137967535D01*
X138182152Y-137881255D01*
X138232821Y-137787299D01*
X138273387Y-137686154D01*
X138303219Y-137578961D01*
X138310566Y-137534512D01*
X138315408Y-137481241D01*
X138317743Y-137422775D01*
X138317572Y-137362742D01*
X138314896Y-137304770D01*
X138309713Y-137252487D01*
X138303219Y-137214690D01*
X138273339Y-137107579D01*
X138232857Y-137006912D01*
X138182311Y-136913230D01*
X138122241Y-136827074D01*
X138053189Y-136748987D01*
X137975693Y-136679510D01*
X137890293Y-136619184D01*
X137797530Y-136568552D01*
X137697944Y-136528155D01*
X137592074Y-136498534D01*
X137588558Y-136497764D01*
X137553030Y-136491845D01*
X137508505Y-136487136D01*
X137458645Y-136483775D01*
X137407108Y-136481904D01*
X137357554Y-136481660D01*
X137313642Y-136483185D01*
X137282623Y-136486093D01*
X137177837Y-136506872D01*
X137076666Y-136539447D01*
X136980141Y-136583209D01*
X136889291Y-136637551D01*
X136805143Y-136701863D01*
X136728728Y-136775538D01*
X136666781Y-136850201D01*
X136608243Y-136939357D01*
X136561003Y-137033475D01*
X136525157Y-137131533D01*
X136500801Y-137232510D01*
X136488032Y-137335384D01*
X136487443Y-137391743D01*
X136735670Y-137391743D01*
X136738127Y-137332940D01*
X136744477Y-137278993D01*
X136751416Y-137245699D01*
X136780899Y-137156275D01*
X136820632Y-137073510D01*
X136869890Y-136998073D01*
X136927948Y-136930629D01*
X136994079Y-136871844D01*
X137067560Y-136822386D01*
X137147665Y-136782920D01*
X137233669Y-136754113D01*
X137301822Y-136739869D01*
X137337340Y-136736426D01*
X137381059Y-136735421D01*
X137428831Y-136736657D01*
X137476508Y-136739935D01*
X137519945Y-136745058D01*
X137554993Y-136751829D01*
X137555575Y-136751978D01*
X137646134Y-136781580D01*
X137729415Y-136821427D01*
X137804938Y-136871041D01*
X137872222Y-136929939D01*
X137930789Y-136997642D01*
X137980157Y-137073669D01*
X138019846Y-137157539D01*
X138048583Y-137245699D01*
X138054591Y-137270931D01*
X138058733Y-137294798D01*
X138061326Y-137320667D01*
X138062688Y-137351903D01*
X138063138Y-137391874D01*
X138063147Y-137400000D01*
X138062824Y-137441842D01*
X138061643Y-137474361D01*
X138059288Y-137500924D01*
X138055440Y-137524898D01*
X138049781Y-137549650D01*
X138048583Y-137554302D01*
X138018686Y-137645453D01*
X137978676Y-137729159D01*
X137929012Y-137804959D01*
X137870156Y-137872392D01*
X137802568Y-137930996D01*
X137726708Y-137980309D01*
X137643038Y-138019870D01*
X137555575Y-138048303D01*
X137529976Y-138054408D01*
X137506042Y-138058619D01*
X137480373Y-138061261D01*
X137449570Y-138062658D01*
X137410232Y-138063134D01*
X137400000Y-138063148D01*
X137358306Y-138062831D01*
X137325901Y-138061667D01*
X137299386Y-138059330D01*
X137275361Y-138055495D01*
X137250425Y-138049839D01*
X137244425Y-138048303D01*
X137154340Y-138018660D01*
X137071229Y-137978618D01*
X136995658Y-137928745D01*
X136928195Y-137869608D01*
X136869406Y-137801776D01*
X136819859Y-137725816D01*
X136780121Y-137642295D01*
X136751628Y-137555150D01*
X136742423Y-137507062D01*
X136737103Y-137451188D01*
X136735670Y-137391743D01*
X136487443Y-137391743D01*
X136486946Y-137439134D01*
X136497638Y-137542736D01*
X136520205Y-137645170D01*
X136554743Y-137745414D01*
X136577713Y-137796849D01*
X136630044Y-137890835D01*
X136692009Y-137976822D01*
X136763031Y-138054362D01*
X136842529Y-138123004D01*
X136929926Y-138182298D01*
X137024643Y-138231795D01*
X137126100Y-138271044D01*
X137221039Y-138296870D01*
X137265488Y-138304217D01*
X137318759Y-138309059D01*
X137377225Y-138311394D01*
X137437258Y-138311223D01*
X137437258Y-138311223D01*
G37*
X137437258Y-138311223D02*
X137495230Y-138308547D01*
X137547513Y-138303364D01*
X137585310Y-138296870D01*
X137693123Y-138266828D01*
X137794227Y-138226201D01*
X137888139Y-138175473D01*
X137974372Y-138115129D01*
X138052442Y-138045655D01*
X138121863Y-137967535D01*
X138182152Y-137881255D01*
X138232821Y-137787299D01*
X138273387Y-137686154D01*
X138303219Y-137578961D01*
X138310566Y-137534512D01*
X138315408Y-137481241D01*
X138317743Y-137422775D01*
X138317572Y-137362742D01*
X138314896Y-137304770D01*
X138309713Y-137252487D01*
X138303219Y-137214690D01*
X138273339Y-137107579D01*
X138232857Y-137006912D01*
X138182311Y-136913230D01*
X138122241Y-136827074D01*
X138053189Y-136748987D01*
X137975693Y-136679510D01*
X137890293Y-136619184D01*
X137797530Y-136568552D01*
X137697944Y-136528155D01*
X137592074Y-136498534D01*
X137588558Y-136497764D01*
X137553030Y-136491845D01*
X137508505Y-136487136D01*
X137458645Y-136483775D01*
X137407108Y-136481904D01*
X137357554Y-136481660D01*
X137313642Y-136483185D01*
X137282623Y-136486093D01*
X137177837Y-136506872D01*
X137076666Y-136539447D01*
X136980141Y-136583209D01*
X136889291Y-136637551D01*
X136805143Y-136701863D01*
X136728728Y-136775538D01*
X136666781Y-136850201D01*
X136608243Y-136939357D01*
X136561003Y-137033475D01*
X136525157Y-137131533D01*
X136500801Y-137232510D01*
X136488032Y-137335384D01*
X136487443Y-137391743D01*
X136735670Y-137391743D01*
X136738127Y-137332940D01*
X136744477Y-137278993D01*
X136751416Y-137245699D01*
X136780899Y-137156275D01*
X136820632Y-137073510D01*
X136869890Y-136998073D01*
X136927948Y-136930629D01*
X136994079Y-136871844D01*
X137067560Y-136822386D01*
X137147665Y-136782920D01*
X137233669Y-136754113D01*
X137301822Y-136739869D01*
X137337340Y-136736426D01*
X137381059Y-136735421D01*
X137428831Y-136736657D01*
X137476508Y-136739935D01*
X137519945Y-136745058D01*
X137554993Y-136751829D01*
X137555575Y-136751978D01*
X137646134Y-136781580D01*
X137729415Y-136821427D01*
X137804938Y-136871041D01*
X137872222Y-136929939D01*
X137930789Y-136997642D01*
X137980157Y-137073669D01*
X138019846Y-137157539D01*
X138048583Y-137245699D01*
X138054591Y-137270931D01*
X138058733Y-137294798D01*
X138061326Y-137320667D01*
X138062688Y-137351903D01*
X138063138Y-137391874D01*
X138063147Y-137400000D01*
X138062824Y-137441842D01*
X138061643Y-137474361D01*
X138059288Y-137500924D01*
X138055440Y-137524898D01*
X138049781Y-137549650D01*
X138048583Y-137554302D01*
X138018686Y-137645453D01*
X137978676Y-137729159D01*
X137929012Y-137804959D01*
X137870156Y-137872392D01*
X137802568Y-137930996D01*
X137726708Y-137980309D01*
X137643038Y-138019870D01*
X137555575Y-138048303D01*
X137529976Y-138054408D01*
X137506042Y-138058619D01*
X137480373Y-138061261D01*
X137449570Y-138062658D01*
X137410232Y-138063134D01*
X137400000Y-138063148D01*
X137358306Y-138062831D01*
X137325901Y-138061667D01*
X137299386Y-138059330D01*
X137275361Y-138055495D01*
X137250425Y-138049839D01*
X137244425Y-138048303D01*
X137154340Y-138018660D01*
X137071229Y-137978618D01*
X136995658Y-137928745D01*
X136928195Y-137869608D01*
X136869406Y-137801776D01*
X136819859Y-137725816D01*
X136780121Y-137642295D01*
X136751628Y-137555150D01*
X136742423Y-137507062D01*
X136737103Y-137451188D01*
X136735670Y-137391743D01*
X136487443Y-137391743D01*
X136486946Y-137439134D01*
X136497638Y-137542736D01*
X136520205Y-137645170D01*
X136554743Y-137745414D01*
X136577713Y-137796849D01*
X136630044Y-137890835D01*
X136692009Y-137976822D01*
X136763031Y-138054362D01*
X136842529Y-138123004D01*
X136929926Y-138182298D01*
X137024643Y-138231795D01*
X137126100Y-138271044D01*
X137221039Y-138296870D01*
X137265488Y-138304217D01*
X137318759Y-138309059D01*
X137377225Y-138311394D01*
X137437258Y-138311223D01*
G36*
X143379808Y-137887249D02*
X143417147Y-137821923D01*
X143450632Y-137749845D01*
X143473510Y-137689082D01*
X143482457Y-137661575D01*
X143489630Y-137638053D01*
X143494176Y-137621408D01*
X143495349Y-137615083D01*
X143490944Y-137609399D01*
X143478172Y-137595454D01*
X143457697Y-137573911D01*
X143430184Y-137545435D01*
X143396298Y-137510690D01*
X143356705Y-137470341D01*
X143312068Y-137425051D01*
X143263053Y-137375485D01*
X143210325Y-137322308D01*
X143154548Y-137266182D01*
X143096387Y-137207774D01*
X143036507Y-137147747D01*
X142975573Y-137086765D01*
X142914250Y-137025492D01*
X142853202Y-136964593D01*
X142793095Y-136904733D01*
X142734593Y-136846574D01*
X142678360Y-136790783D01*
X142625063Y-136738022D01*
X142575366Y-136688956D01*
X142529933Y-136644250D01*
X142489429Y-136604568D01*
X142454520Y-136570574D01*
X142425869Y-136542932D01*
X142404143Y-136522306D01*
X142390005Y-136509362D01*
X142384121Y-136504762D01*
X142384086Y-136504760D01*
X142374400Y-136506752D01*
X142355667Y-136512051D01*
X142330834Y-136519786D01*
X142309877Y-136526696D01*
X142248087Y-136549657D01*
X142191601Y-136575606D01*
X142134149Y-136607484D01*
X142122091Y-136614769D01*
X142079157Y-136641010D01*
X142718866Y-137280742D01*
X143358574Y-137920473D01*
X143379808Y-137887249D01*
X143379808Y-137887249D01*
G37*
X143379808Y-137887249D02*
X143417147Y-137821923D01*
X143450632Y-137749845D01*
X143473510Y-137689082D01*
X143482457Y-137661575D01*
X143489630Y-137638053D01*
X143494176Y-137621408D01*
X143495349Y-137615083D01*
X143490944Y-137609399D01*
X143478172Y-137595454D01*
X143457697Y-137573911D01*
X143430184Y-137545435D01*
X143396298Y-137510690D01*
X143356705Y-137470341D01*
X143312068Y-137425051D01*
X143263053Y-137375485D01*
X143210325Y-137322308D01*
X143154548Y-137266182D01*
X143096387Y-137207774D01*
X143036507Y-137147747D01*
X142975573Y-137086765D01*
X142914250Y-137025492D01*
X142853202Y-136964593D01*
X142793095Y-136904733D01*
X142734593Y-136846574D01*
X142678360Y-136790783D01*
X142625063Y-136738022D01*
X142575366Y-136688956D01*
X142529933Y-136644250D01*
X142489429Y-136604568D01*
X142454520Y-136570574D01*
X142425869Y-136542932D01*
X142404143Y-136522306D01*
X142390005Y-136509362D01*
X142384121Y-136504762D01*
X142384086Y-136504760D01*
X142374400Y-136506752D01*
X142355667Y-136512051D01*
X142330834Y-136519786D01*
X142309877Y-136526696D01*
X142248087Y-136549657D01*
X142191601Y-136575606D01*
X142134149Y-136607484D01*
X142122091Y-136614769D01*
X142079157Y-136641010D01*
X142718866Y-137280742D01*
X143358574Y-137920473D01*
X143379808Y-137887249D01*
G36*
X143479627Y-137121467D02*
X143474924Y-137106931D01*
X143467732Y-137086216D01*
X143465837Y-137080913D01*
X143426107Y-136988644D01*
X143375261Y-136900663D01*
X143314475Y-136818146D01*
X143244927Y-136742267D01*
X143167793Y-136674199D01*
X143084251Y-136615119D01*
X142995477Y-136566200D01*
X142917500Y-136533739D01*
X142869875Y-136516775D01*
X143174650Y-136821863D01*
X143226086Y-136873330D01*
X143274836Y-136922070D01*
X143320168Y-136967350D01*
X143361348Y-137008442D01*
X143397643Y-137044614D01*
X143428320Y-137075137D01*
X143452645Y-137099279D01*
X143469886Y-137116310D01*
X143479308Y-137125501D01*
X143480901Y-137126950D01*
X143479627Y-137121467D01*
X143479627Y-137121467D01*
G37*
X143479627Y-137121467D02*
X143474924Y-137106931D01*
X143467732Y-137086216D01*
X143465837Y-137080913D01*
X143426107Y-136988644D01*
X143375261Y-136900663D01*
X143314475Y-136818146D01*
X143244927Y-136742267D01*
X143167793Y-136674199D01*
X143084251Y-136615119D01*
X142995477Y-136566200D01*
X142917500Y-136533739D01*
X142869875Y-136516775D01*
X143174650Y-136821863D01*
X143226086Y-136873330D01*
X143274836Y-136922070D01*
X143320168Y-136967350D01*
X143361348Y-137008442D01*
X143397643Y-137044614D01*
X143428320Y-137075137D01*
X143452645Y-137099279D01*
X143469886Y-137116310D01*
X143479308Y-137125501D01*
X143480901Y-137126950D01*
X143479627Y-137121467D01*
G36*
X142830787Y-138287073D02*
X142849231Y-138281858D01*
X142873901Y-138274209D01*
X142895431Y-138267161D01*
X142968629Y-138239000D01*
X143039979Y-138204666D01*
X143093598Y-138173459D01*
X143126822Y-138152225D01*
X142487091Y-137512517D01*
X141847359Y-136872808D01*
X141821118Y-136915742D01*
X141804748Y-136943581D01*
X141787770Y-136974119D01*
X141774820Y-136998862D01*
X141765506Y-137019341D01*
X141754601Y-137046104D01*
X141743108Y-137076324D01*
X141732031Y-137107172D01*
X141722374Y-137135823D01*
X141715142Y-137159449D01*
X141711337Y-137175223D01*
X141711000Y-137178568D01*
X141715402Y-137184190D01*
X141728168Y-137198080D01*
X141748631Y-137219574D01*
X141776128Y-137248008D01*
X141809994Y-137282717D01*
X141849564Y-137323037D01*
X141894174Y-137368303D01*
X141943160Y-137417851D01*
X141995857Y-137471016D01*
X142051600Y-137527133D01*
X142109725Y-137585539D01*
X142169568Y-137645569D01*
X142230463Y-137706557D01*
X142291747Y-137767841D01*
X142352754Y-137828755D01*
X142412821Y-137888634D01*
X142471283Y-137946814D01*
X142527475Y-138002632D01*
X142580732Y-138055421D01*
X142630391Y-138104519D01*
X142675787Y-138149259D01*
X142716255Y-138188978D01*
X142751131Y-138223011D01*
X142779749Y-138250695D01*
X142801447Y-138271363D01*
X142815559Y-138284352D01*
X142821420Y-138288997D01*
X142821459Y-138289000D01*
X142830787Y-138287073D01*
X142830787Y-138287073D01*
G37*
X142830787Y-138287073D02*
X142849231Y-138281858D01*
X142873901Y-138274209D01*
X142895431Y-138267161D01*
X142968629Y-138239000D01*
X143039979Y-138204666D01*
X143093598Y-138173459D01*
X143126822Y-138152225D01*
X142487091Y-137512517D01*
X141847359Y-136872808D01*
X141821118Y-136915742D01*
X141804748Y-136943581D01*
X141787770Y-136974119D01*
X141774820Y-136998862D01*
X141765506Y-137019341D01*
X141754601Y-137046104D01*
X141743108Y-137076324D01*
X141732031Y-137107172D01*
X141722374Y-137135823D01*
X141715142Y-137159449D01*
X141711337Y-137175223D01*
X141711000Y-137178568D01*
X141715402Y-137184190D01*
X141728168Y-137198080D01*
X141748631Y-137219574D01*
X141776128Y-137248008D01*
X141809994Y-137282717D01*
X141849564Y-137323037D01*
X141894174Y-137368303D01*
X141943160Y-137417851D01*
X141995857Y-137471016D01*
X142051600Y-137527133D01*
X142109725Y-137585539D01*
X142169568Y-137645569D01*
X142230463Y-137706557D01*
X142291747Y-137767841D01*
X142352754Y-137828755D01*
X142412821Y-137888634D01*
X142471283Y-137946814D01*
X142527475Y-138002632D01*
X142580732Y-138055421D01*
X142630391Y-138104519D01*
X142675787Y-138149259D01*
X142716255Y-138188978D01*
X142751131Y-138223011D01*
X142779749Y-138250695D01*
X142801447Y-138271363D01*
X142815559Y-138284352D01*
X142821420Y-138288997D01*
X142821459Y-138289000D01*
X142830787Y-138287073D01*
G36*
X142031699Y-137971788D02*
X141980263Y-137920321D01*
X141931513Y-137871581D01*
X141886181Y-137826301D01*
X141845001Y-137785209D01*
X141808706Y-137749037D01*
X141778029Y-137718514D01*
X141753704Y-137694372D01*
X141736463Y-137677341D01*
X141727041Y-137668150D01*
X141725448Y-137666700D01*
X141726722Y-137672184D01*
X141731425Y-137686720D01*
X141738617Y-137707435D01*
X141740512Y-137712738D01*
X141780242Y-137805007D01*
X141831088Y-137892988D01*
X141891874Y-137975505D01*
X141961422Y-138051384D01*
X142038556Y-138119452D01*
X142122098Y-138178532D01*
X142210872Y-138227451D01*
X142288850Y-138259912D01*
X142336475Y-138276876D01*
X142031699Y-137971788D01*
X142031699Y-137971788D01*
G37*
X142031699Y-137971788D02*
X141980263Y-137920321D01*
X141931513Y-137871581D01*
X141886181Y-137826301D01*
X141845001Y-137785209D01*
X141808706Y-137749037D01*
X141778029Y-137718514D01*
X141753704Y-137694372D01*
X141736463Y-137677341D01*
X141727041Y-137668150D01*
X141725448Y-137666700D01*
X141726722Y-137672184D01*
X141731425Y-137686720D01*
X141738617Y-137707435D01*
X141740512Y-137712738D01*
X141780242Y-137805007D01*
X141831088Y-137892988D01*
X141891874Y-137975505D01*
X141961422Y-138051384D01*
X142038556Y-138119452D01*
X142122098Y-138178532D01*
X142210872Y-138227451D01*
X142288850Y-138259912D01*
X142336475Y-138276876D01*
X142031699Y-137971788D01*
G36*
X140037258Y-138311223D02*
X140095230Y-138308547D01*
X140147513Y-138303364D01*
X140185310Y-138296870D01*
X140293123Y-138266828D01*
X140394227Y-138226201D01*
X140488139Y-138175473D01*
X140574372Y-138115129D01*
X140652442Y-138045655D01*
X140721863Y-137967535D01*
X140782152Y-137881255D01*
X140832821Y-137787299D01*
X140873387Y-137686154D01*
X140903219Y-137578961D01*
X140910566Y-137534512D01*
X140915408Y-137481241D01*
X140917743Y-137422775D01*
X140917572Y-137362742D01*
X140914896Y-137304770D01*
X140909713Y-137252487D01*
X140903219Y-137214690D01*
X140873339Y-137107579D01*
X140832857Y-137006912D01*
X140782311Y-136913230D01*
X140722241Y-136827074D01*
X140653189Y-136748987D01*
X140575693Y-136679510D01*
X140490293Y-136619184D01*
X140397530Y-136568552D01*
X140297944Y-136528155D01*
X140192074Y-136498534D01*
X140188558Y-136497764D01*
X140153030Y-136491845D01*
X140108505Y-136487136D01*
X140058645Y-136483775D01*
X140007108Y-136481904D01*
X139957554Y-136481660D01*
X139913642Y-136483185D01*
X139882623Y-136486093D01*
X139777837Y-136506872D01*
X139676666Y-136539447D01*
X139580141Y-136583209D01*
X139489291Y-136637551D01*
X139405143Y-136701863D01*
X139328728Y-136775538D01*
X139266781Y-136850201D01*
X139208243Y-136939357D01*
X139161003Y-137033475D01*
X139125157Y-137131533D01*
X139100801Y-137232510D01*
X139088032Y-137335384D01*
X139086946Y-137439134D01*
X139097638Y-137542736D01*
X139120205Y-137645170D01*
X139154743Y-137745414D01*
X139177713Y-137796849D01*
X139230044Y-137890835D01*
X139292009Y-137976822D01*
X139363031Y-138054362D01*
X139442529Y-138123004D01*
X139529926Y-138182298D01*
X139624643Y-138231795D01*
X139726100Y-138271044D01*
X139821039Y-138296870D01*
X139865488Y-138304217D01*
X139918759Y-138309059D01*
X139977225Y-138311394D01*
X140037258Y-138311223D01*
X140037258Y-138311223D01*
G37*
X140037258Y-138311223D02*
X140095230Y-138308547D01*
X140147513Y-138303364D01*
X140185310Y-138296870D01*
X140293123Y-138266828D01*
X140394227Y-138226201D01*
X140488139Y-138175473D01*
X140574372Y-138115129D01*
X140652442Y-138045655D01*
X140721863Y-137967535D01*
X140782152Y-137881255D01*
X140832821Y-137787299D01*
X140873387Y-137686154D01*
X140903219Y-137578961D01*
X140910566Y-137534512D01*
X140915408Y-137481241D01*
X140917743Y-137422775D01*
X140917572Y-137362742D01*
X140914896Y-137304770D01*
X140909713Y-137252487D01*
X140903219Y-137214690D01*
X140873339Y-137107579D01*
X140832857Y-137006912D01*
X140782311Y-136913230D01*
X140722241Y-136827074D01*
X140653189Y-136748987D01*
X140575693Y-136679510D01*
X140490293Y-136619184D01*
X140397530Y-136568552D01*
X140297944Y-136528155D01*
X140192074Y-136498534D01*
X140188558Y-136497764D01*
X140153030Y-136491845D01*
X140108505Y-136487136D01*
X140058645Y-136483775D01*
X140007108Y-136481904D01*
X139957554Y-136481660D01*
X139913642Y-136483185D01*
X139882623Y-136486093D01*
X139777837Y-136506872D01*
X139676666Y-136539447D01*
X139580141Y-136583209D01*
X139489291Y-136637551D01*
X139405143Y-136701863D01*
X139328728Y-136775538D01*
X139266781Y-136850201D01*
X139208243Y-136939357D01*
X139161003Y-137033475D01*
X139125157Y-137131533D01*
X139100801Y-137232510D01*
X139088032Y-137335384D01*
X139086946Y-137439134D01*
X139097638Y-137542736D01*
X139120205Y-137645170D01*
X139154743Y-137745414D01*
X139177713Y-137796849D01*
X139230044Y-137890835D01*
X139292009Y-137976822D01*
X139363031Y-138054362D01*
X139442529Y-138123004D01*
X139529926Y-138182298D01*
X139624643Y-138231795D01*
X139726100Y-138271044D01*
X139821039Y-138296870D01*
X139865488Y-138304217D01*
X139918759Y-138309059D01*
X139977225Y-138311394D01*
X140037258Y-138311223D01*
G36*
X96437258Y-148111223D02*
X96495230Y-148108547D01*
X96547513Y-148103364D01*
X96585310Y-148096870D01*
X96693123Y-148066828D01*
X96794227Y-148026201D01*
X96888139Y-147975473D01*
X96974372Y-147915129D01*
X97052442Y-147845655D01*
X97121863Y-147767535D01*
X97182152Y-147681255D01*
X97232821Y-147587299D01*
X97273387Y-147486154D01*
X97303219Y-147378961D01*
X97310566Y-147334512D01*
X97315408Y-147281241D01*
X97317743Y-147222775D01*
X97317572Y-147162742D01*
X97314896Y-147104770D01*
X97309713Y-147052487D01*
X97303219Y-147014690D01*
X97273339Y-146907579D01*
X97232857Y-146806912D01*
X97182311Y-146713230D01*
X97122241Y-146627074D01*
X97053189Y-146548987D01*
X96975693Y-146479510D01*
X96890293Y-146419184D01*
X96797530Y-146368552D01*
X96697944Y-146328155D01*
X96592074Y-146298534D01*
X96588558Y-146297764D01*
X96553030Y-146291845D01*
X96508505Y-146287136D01*
X96458645Y-146283775D01*
X96407108Y-146281904D01*
X96357554Y-146281660D01*
X96313642Y-146283185D01*
X96282623Y-146286093D01*
X96177837Y-146306872D01*
X96076666Y-146339447D01*
X95980141Y-146383209D01*
X95889291Y-146437551D01*
X95805143Y-146501863D01*
X95728728Y-146575538D01*
X95666781Y-146650201D01*
X95608243Y-146739357D01*
X95561003Y-146833475D01*
X95525157Y-146931533D01*
X95500801Y-147032510D01*
X95488032Y-147135384D01*
X95487443Y-147191743D01*
X95735670Y-147191743D01*
X95738127Y-147132940D01*
X95744477Y-147078993D01*
X95751416Y-147045699D01*
X95780899Y-146956275D01*
X95820632Y-146873510D01*
X95869890Y-146798073D01*
X95927948Y-146730629D01*
X95994079Y-146671844D01*
X96067560Y-146622386D01*
X96147665Y-146582920D01*
X96233669Y-146554113D01*
X96301822Y-146539869D01*
X96337340Y-146536426D01*
X96381059Y-146535421D01*
X96428831Y-146536657D01*
X96476508Y-146539935D01*
X96519945Y-146545058D01*
X96554993Y-146551829D01*
X96555575Y-146551978D01*
X96646134Y-146581580D01*
X96729415Y-146621427D01*
X96804938Y-146671041D01*
X96872222Y-146729939D01*
X96930789Y-146797642D01*
X96980157Y-146873669D01*
X97019846Y-146957539D01*
X97048583Y-147045699D01*
X97054591Y-147070931D01*
X97058733Y-147094798D01*
X97061326Y-147120667D01*
X97062688Y-147151903D01*
X97063138Y-147191874D01*
X97063147Y-147200000D01*
X97062824Y-147241842D01*
X97061643Y-147274361D01*
X97059288Y-147300924D01*
X97055440Y-147324898D01*
X97049781Y-147349650D01*
X97048583Y-147354302D01*
X97018686Y-147445453D01*
X96978676Y-147529159D01*
X96929012Y-147604959D01*
X96870156Y-147672392D01*
X96802568Y-147730996D01*
X96726708Y-147780309D01*
X96643038Y-147819870D01*
X96555575Y-147848303D01*
X96529976Y-147854408D01*
X96506042Y-147858619D01*
X96480373Y-147861261D01*
X96449570Y-147862658D01*
X96410232Y-147863134D01*
X96400000Y-147863148D01*
X96358306Y-147862831D01*
X96325901Y-147861667D01*
X96299386Y-147859330D01*
X96275361Y-147855495D01*
X96250425Y-147849839D01*
X96244425Y-147848303D01*
X96154340Y-147818660D01*
X96071229Y-147778618D01*
X95995658Y-147728745D01*
X95928195Y-147669608D01*
X95869406Y-147601776D01*
X95819859Y-147525816D01*
X95780121Y-147442295D01*
X95751628Y-147355150D01*
X95742423Y-147307062D01*
X95737103Y-147251188D01*
X95735670Y-147191743D01*
X95487443Y-147191743D01*
X95486946Y-147239134D01*
X95497638Y-147342736D01*
X95520205Y-147445170D01*
X95554743Y-147545414D01*
X95577713Y-147596849D01*
X95630044Y-147690835D01*
X95692009Y-147776822D01*
X95763031Y-147854362D01*
X95842529Y-147923004D01*
X95929926Y-147982298D01*
X96024643Y-148031795D01*
X96126100Y-148071044D01*
X96221039Y-148096870D01*
X96265488Y-148104217D01*
X96318759Y-148109059D01*
X96377225Y-148111394D01*
X96437258Y-148111223D01*
X96437258Y-148111223D01*
G37*
X96437258Y-148111223D02*
X96495230Y-148108547D01*
X96547513Y-148103364D01*
X96585310Y-148096870D01*
X96693123Y-148066828D01*
X96794227Y-148026201D01*
X96888139Y-147975473D01*
X96974372Y-147915129D01*
X97052442Y-147845655D01*
X97121863Y-147767535D01*
X97182152Y-147681255D01*
X97232821Y-147587299D01*
X97273387Y-147486154D01*
X97303219Y-147378961D01*
X97310566Y-147334512D01*
X97315408Y-147281241D01*
X97317743Y-147222775D01*
X97317572Y-147162742D01*
X97314896Y-147104770D01*
X97309713Y-147052487D01*
X97303219Y-147014690D01*
X97273339Y-146907579D01*
X97232857Y-146806912D01*
X97182311Y-146713230D01*
X97122241Y-146627074D01*
X97053189Y-146548987D01*
X96975693Y-146479510D01*
X96890293Y-146419184D01*
X96797530Y-146368552D01*
X96697944Y-146328155D01*
X96592074Y-146298534D01*
X96588558Y-146297764D01*
X96553030Y-146291845D01*
X96508505Y-146287136D01*
X96458645Y-146283775D01*
X96407108Y-146281904D01*
X96357554Y-146281660D01*
X96313642Y-146283185D01*
X96282623Y-146286093D01*
X96177837Y-146306872D01*
X96076666Y-146339447D01*
X95980141Y-146383209D01*
X95889291Y-146437551D01*
X95805143Y-146501863D01*
X95728728Y-146575538D01*
X95666781Y-146650201D01*
X95608243Y-146739357D01*
X95561003Y-146833475D01*
X95525157Y-146931533D01*
X95500801Y-147032510D01*
X95488032Y-147135384D01*
X95487443Y-147191743D01*
X95735670Y-147191743D01*
X95738127Y-147132940D01*
X95744477Y-147078993D01*
X95751416Y-147045699D01*
X95780899Y-146956275D01*
X95820632Y-146873510D01*
X95869890Y-146798073D01*
X95927948Y-146730629D01*
X95994079Y-146671844D01*
X96067560Y-146622386D01*
X96147665Y-146582920D01*
X96233669Y-146554113D01*
X96301822Y-146539869D01*
X96337340Y-146536426D01*
X96381059Y-146535421D01*
X96428831Y-146536657D01*
X96476508Y-146539935D01*
X96519945Y-146545058D01*
X96554993Y-146551829D01*
X96555575Y-146551978D01*
X96646134Y-146581580D01*
X96729415Y-146621427D01*
X96804938Y-146671041D01*
X96872222Y-146729939D01*
X96930789Y-146797642D01*
X96980157Y-146873669D01*
X97019846Y-146957539D01*
X97048583Y-147045699D01*
X97054591Y-147070931D01*
X97058733Y-147094798D01*
X97061326Y-147120667D01*
X97062688Y-147151903D01*
X97063138Y-147191874D01*
X97063147Y-147200000D01*
X97062824Y-147241842D01*
X97061643Y-147274361D01*
X97059288Y-147300924D01*
X97055440Y-147324898D01*
X97049781Y-147349650D01*
X97048583Y-147354302D01*
X97018686Y-147445453D01*
X96978676Y-147529159D01*
X96929012Y-147604959D01*
X96870156Y-147672392D01*
X96802568Y-147730996D01*
X96726708Y-147780309D01*
X96643038Y-147819870D01*
X96555575Y-147848303D01*
X96529976Y-147854408D01*
X96506042Y-147858619D01*
X96480373Y-147861261D01*
X96449570Y-147862658D01*
X96410232Y-147863134D01*
X96400000Y-147863148D01*
X96358306Y-147862831D01*
X96325901Y-147861667D01*
X96299386Y-147859330D01*
X96275361Y-147855495D01*
X96250425Y-147849839D01*
X96244425Y-147848303D01*
X96154340Y-147818660D01*
X96071229Y-147778618D01*
X95995658Y-147728745D01*
X95928195Y-147669608D01*
X95869406Y-147601776D01*
X95819859Y-147525816D01*
X95780121Y-147442295D01*
X95751628Y-147355150D01*
X95742423Y-147307062D01*
X95737103Y-147251188D01*
X95735670Y-147191743D01*
X95487443Y-147191743D01*
X95486946Y-147239134D01*
X95497638Y-147342736D01*
X95520205Y-147445170D01*
X95554743Y-147545414D01*
X95577713Y-147596849D01*
X95630044Y-147690835D01*
X95692009Y-147776822D01*
X95763031Y-147854362D01*
X95842529Y-147923004D01*
X95929926Y-147982298D01*
X96024643Y-148031795D01*
X96126100Y-148071044D01*
X96221039Y-148096870D01*
X96265488Y-148104217D01*
X96318759Y-148109059D01*
X96377225Y-148111394D01*
X96437258Y-148111223D01*
G36*
X93579808Y-144087249D02*
X93617147Y-144021923D01*
X93650632Y-143949845D01*
X93673510Y-143889082D01*
X93682457Y-143861575D01*
X93689630Y-143838053D01*
X93694176Y-143821408D01*
X93695349Y-143815083D01*
X93690944Y-143809399D01*
X93678172Y-143795454D01*
X93657697Y-143773911D01*
X93630184Y-143745435D01*
X93596298Y-143710690D01*
X93556705Y-143670341D01*
X93512068Y-143625051D01*
X93463053Y-143575485D01*
X93410325Y-143522308D01*
X93354548Y-143466182D01*
X93296387Y-143407774D01*
X93236507Y-143347747D01*
X93175573Y-143286765D01*
X93114250Y-143225492D01*
X93053202Y-143164593D01*
X92993095Y-143104733D01*
X92934593Y-143046574D01*
X92878360Y-142990783D01*
X92825063Y-142938022D01*
X92775366Y-142888956D01*
X92729933Y-142844250D01*
X92689429Y-142804568D01*
X92654520Y-142770574D01*
X92625869Y-142742932D01*
X92604143Y-142722306D01*
X92590005Y-142709362D01*
X92584121Y-142704762D01*
X92584086Y-142704760D01*
X92574400Y-142706752D01*
X92555667Y-142712051D01*
X92530834Y-142719786D01*
X92509877Y-142726696D01*
X92448087Y-142749657D01*
X92391601Y-142775606D01*
X92334149Y-142807484D01*
X92322091Y-142814769D01*
X92279157Y-142841010D01*
X92918866Y-143480742D01*
X93558574Y-144120473D01*
X93579808Y-144087249D01*
X93579808Y-144087249D01*
G37*
X93579808Y-144087249D02*
X93617147Y-144021923D01*
X93650632Y-143949845D01*
X93673510Y-143889082D01*
X93682457Y-143861575D01*
X93689630Y-143838053D01*
X93694176Y-143821408D01*
X93695349Y-143815083D01*
X93690944Y-143809399D01*
X93678172Y-143795454D01*
X93657697Y-143773911D01*
X93630184Y-143745435D01*
X93596298Y-143710690D01*
X93556705Y-143670341D01*
X93512068Y-143625051D01*
X93463053Y-143575485D01*
X93410325Y-143522308D01*
X93354548Y-143466182D01*
X93296387Y-143407774D01*
X93236507Y-143347747D01*
X93175573Y-143286765D01*
X93114250Y-143225492D01*
X93053202Y-143164593D01*
X92993095Y-143104733D01*
X92934593Y-143046574D01*
X92878360Y-142990783D01*
X92825063Y-142938022D01*
X92775366Y-142888956D01*
X92729933Y-142844250D01*
X92689429Y-142804568D01*
X92654520Y-142770574D01*
X92625869Y-142742932D01*
X92604143Y-142722306D01*
X92590005Y-142709362D01*
X92584121Y-142704762D01*
X92584086Y-142704760D01*
X92574400Y-142706752D01*
X92555667Y-142712051D01*
X92530834Y-142719786D01*
X92509877Y-142726696D01*
X92448087Y-142749657D01*
X92391601Y-142775606D01*
X92334149Y-142807484D01*
X92322091Y-142814769D01*
X92279157Y-142841010D01*
X92918866Y-143480742D01*
X93558574Y-144120473D01*
X93579808Y-144087249D01*
G36*
X93679627Y-143321467D02*
X93674924Y-143306931D01*
X93667732Y-143286216D01*
X93665837Y-143280913D01*
X93626107Y-143188644D01*
X93575261Y-143100663D01*
X93514475Y-143018146D01*
X93444927Y-142942267D01*
X93367793Y-142874199D01*
X93284251Y-142815119D01*
X93195477Y-142766200D01*
X93117500Y-142733739D01*
X93069875Y-142716775D01*
X93374650Y-143021863D01*
X93426086Y-143073330D01*
X93474836Y-143122070D01*
X93520168Y-143167350D01*
X93561348Y-143208442D01*
X93597643Y-143244614D01*
X93628320Y-143275137D01*
X93652645Y-143299279D01*
X93669886Y-143316310D01*
X93679308Y-143325501D01*
X93680901Y-143326950D01*
X93679627Y-143321467D01*
X93679627Y-143321467D01*
G37*
X93679627Y-143321467D02*
X93674924Y-143306931D01*
X93667732Y-143286216D01*
X93665837Y-143280913D01*
X93626107Y-143188644D01*
X93575261Y-143100663D01*
X93514475Y-143018146D01*
X93444927Y-142942267D01*
X93367793Y-142874199D01*
X93284251Y-142815119D01*
X93195477Y-142766200D01*
X93117500Y-142733739D01*
X93069875Y-142716775D01*
X93374650Y-143021863D01*
X93426086Y-143073330D01*
X93474836Y-143122070D01*
X93520168Y-143167350D01*
X93561348Y-143208442D01*
X93597643Y-143244614D01*
X93628320Y-143275137D01*
X93652645Y-143299279D01*
X93669886Y-143316310D01*
X93679308Y-143325501D01*
X93680901Y-143326950D01*
X93679627Y-143321467D01*
G36*
X93030787Y-144487073D02*
X93049231Y-144481858D01*
X93073901Y-144474209D01*
X93095431Y-144467161D01*
X93168629Y-144439000D01*
X93239979Y-144404666D01*
X93293598Y-144373459D01*
X93326822Y-144352225D01*
X92687091Y-143712517D01*
X92047359Y-143072808D01*
X92021118Y-143115742D01*
X92004748Y-143143581D01*
X91987770Y-143174119D01*
X91974820Y-143198862D01*
X91965506Y-143219341D01*
X91954601Y-143246104D01*
X91943108Y-143276324D01*
X91932031Y-143307172D01*
X91922374Y-143335823D01*
X91915142Y-143359449D01*
X91911337Y-143375223D01*
X91911000Y-143378568D01*
X91915402Y-143384190D01*
X91928168Y-143398080D01*
X91948631Y-143419574D01*
X91976128Y-143448008D01*
X92009994Y-143482717D01*
X92049564Y-143523037D01*
X92094174Y-143568303D01*
X92143160Y-143617851D01*
X92195857Y-143671016D01*
X92251600Y-143727133D01*
X92309725Y-143785539D01*
X92369568Y-143845569D01*
X92430463Y-143906557D01*
X92491747Y-143967841D01*
X92552754Y-144028755D01*
X92612821Y-144088634D01*
X92671283Y-144146814D01*
X92727475Y-144202632D01*
X92780732Y-144255421D01*
X92830391Y-144304519D01*
X92875787Y-144349259D01*
X92916255Y-144388978D01*
X92951131Y-144423011D01*
X92979749Y-144450695D01*
X93001447Y-144471363D01*
X93015559Y-144484352D01*
X93021420Y-144488997D01*
X93021459Y-144489000D01*
X93030787Y-144487073D01*
X93030787Y-144487073D01*
G37*
X93030787Y-144487073D02*
X93049231Y-144481858D01*
X93073901Y-144474209D01*
X93095431Y-144467161D01*
X93168629Y-144439000D01*
X93239979Y-144404666D01*
X93293598Y-144373459D01*
X93326822Y-144352225D01*
X92687091Y-143712517D01*
X92047359Y-143072808D01*
X92021118Y-143115742D01*
X92004748Y-143143581D01*
X91987770Y-143174119D01*
X91974820Y-143198862D01*
X91965506Y-143219341D01*
X91954601Y-143246104D01*
X91943108Y-143276324D01*
X91932031Y-143307172D01*
X91922374Y-143335823D01*
X91915142Y-143359449D01*
X91911337Y-143375223D01*
X91911000Y-143378568D01*
X91915402Y-143384190D01*
X91928168Y-143398080D01*
X91948631Y-143419574D01*
X91976128Y-143448008D01*
X92009994Y-143482717D01*
X92049564Y-143523037D01*
X92094174Y-143568303D01*
X92143160Y-143617851D01*
X92195857Y-143671016D01*
X92251600Y-143727133D01*
X92309725Y-143785539D01*
X92369568Y-143845569D01*
X92430463Y-143906557D01*
X92491747Y-143967841D01*
X92552754Y-144028755D01*
X92612821Y-144088634D01*
X92671283Y-144146814D01*
X92727475Y-144202632D01*
X92780732Y-144255421D01*
X92830391Y-144304519D01*
X92875787Y-144349259D01*
X92916255Y-144388978D01*
X92951131Y-144423011D01*
X92979749Y-144450695D01*
X93001447Y-144471363D01*
X93015559Y-144484352D01*
X93021420Y-144488997D01*
X93021459Y-144489000D01*
X93030787Y-144487073D01*
G36*
X92231699Y-144171788D02*
X92180263Y-144120321D01*
X92131513Y-144071581D01*
X92086181Y-144026301D01*
X92045001Y-143985209D01*
X92008706Y-143949037D01*
X91978029Y-143918514D01*
X91953704Y-143894372D01*
X91936463Y-143877341D01*
X91927041Y-143868150D01*
X91925448Y-143866700D01*
X91926722Y-143872184D01*
X91931425Y-143886720D01*
X91938617Y-143907435D01*
X91940512Y-143912738D01*
X91980242Y-144005007D01*
X92031088Y-144092988D01*
X92091874Y-144175505D01*
X92161422Y-144251384D01*
X92238556Y-144319452D01*
X92322098Y-144378532D01*
X92410872Y-144427451D01*
X92488850Y-144459912D01*
X92536475Y-144476876D01*
X92231699Y-144171788D01*
X92231699Y-144171788D01*
G37*
X92231699Y-144171788D02*
X92180263Y-144120321D01*
X92131513Y-144071581D01*
X92086181Y-144026301D01*
X92045001Y-143985209D01*
X92008706Y-143949037D01*
X91978029Y-143918514D01*
X91953704Y-143894372D01*
X91936463Y-143877341D01*
X91927041Y-143868150D01*
X91925448Y-143866700D01*
X91926722Y-143872184D01*
X91931425Y-143886720D01*
X91938617Y-143907435D01*
X91940512Y-143912738D01*
X91980242Y-144005007D01*
X92031088Y-144092988D01*
X92091874Y-144175505D01*
X92161422Y-144251384D01*
X92238556Y-144319452D01*
X92322098Y-144378532D01*
X92410872Y-144427451D01*
X92488850Y-144459912D01*
X92536475Y-144476876D01*
X92231699Y-144171788D01*
G36*
X94637258Y-146311223D02*
X94695230Y-146308547D01*
X94747513Y-146303364D01*
X94785310Y-146296870D01*
X94893123Y-146266828D01*
X94994227Y-146226201D01*
X95088139Y-146175473D01*
X95174372Y-146115129D01*
X95252442Y-146045655D01*
X95321863Y-145967535D01*
X95382152Y-145881255D01*
X95432821Y-145787299D01*
X95473387Y-145686154D01*
X95503219Y-145578961D01*
X95510566Y-145534512D01*
X95515408Y-145481241D01*
X95517743Y-145422775D01*
X95517572Y-145362742D01*
X95514896Y-145304770D01*
X95509713Y-145252487D01*
X95503219Y-145214690D01*
X95473339Y-145107579D01*
X95432857Y-145006912D01*
X95382311Y-144913230D01*
X95322241Y-144827074D01*
X95253189Y-144748987D01*
X95175693Y-144679510D01*
X95090293Y-144619184D01*
X94997530Y-144568552D01*
X94897944Y-144528155D01*
X94792074Y-144498534D01*
X94788558Y-144497764D01*
X94753030Y-144491845D01*
X94708505Y-144487136D01*
X94658645Y-144483775D01*
X94607108Y-144481904D01*
X94557554Y-144481660D01*
X94513642Y-144483185D01*
X94482623Y-144486093D01*
X94377837Y-144506872D01*
X94276666Y-144539447D01*
X94180141Y-144583209D01*
X94089291Y-144637551D01*
X94005143Y-144701863D01*
X93928728Y-144775538D01*
X93866781Y-144850201D01*
X93808243Y-144939357D01*
X93761003Y-145033475D01*
X93725157Y-145131533D01*
X93700801Y-145232510D01*
X93688032Y-145335384D01*
X93686946Y-145439134D01*
X93697638Y-145542736D01*
X93720205Y-145645170D01*
X93754743Y-145745414D01*
X93777713Y-145796849D01*
X93830044Y-145890835D01*
X93892009Y-145976822D01*
X93963031Y-146054362D01*
X94042529Y-146123004D01*
X94129926Y-146182298D01*
X94224643Y-146231795D01*
X94326100Y-146271044D01*
X94421039Y-146296870D01*
X94465488Y-146304217D01*
X94518759Y-146309059D01*
X94577225Y-146311394D01*
X94637258Y-146311223D01*
X94637258Y-146311223D01*
G37*
X94637258Y-146311223D02*
X94695230Y-146308547D01*
X94747513Y-146303364D01*
X94785310Y-146296870D01*
X94893123Y-146266828D01*
X94994227Y-146226201D01*
X95088139Y-146175473D01*
X95174372Y-146115129D01*
X95252442Y-146045655D01*
X95321863Y-145967535D01*
X95382152Y-145881255D01*
X95432821Y-145787299D01*
X95473387Y-145686154D01*
X95503219Y-145578961D01*
X95510566Y-145534512D01*
X95515408Y-145481241D01*
X95517743Y-145422775D01*
X95517572Y-145362742D01*
X95514896Y-145304770D01*
X95509713Y-145252487D01*
X95503219Y-145214690D01*
X95473339Y-145107579D01*
X95432857Y-145006912D01*
X95382311Y-144913230D01*
X95322241Y-144827074D01*
X95253189Y-144748987D01*
X95175693Y-144679510D01*
X95090293Y-144619184D01*
X94997530Y-144568552D01*
X94897944Y-144528155D01*
X94792074Y-144498534D01*
X94788558Y-144497764D01*
X94753030Y-144491845D01*
X94708505Y-144487136D01*
X94658645Y-144483775D01*
X94607108Y-144481904D01*
X94557554Y-144481660D01*
X94513642Y-144483185D01*
X94482623Y-144486093D01*
X94377837Y-144506872D01*
X94276666Y-144539447D01*
X94180141Y-144583209D01*
X94089291Y-144637551D01*
X94005143Y-144701863D01*
X93928728Y-144775538D01*
X93866781Y-144850201D01*
X93808243Y-144939357D01*
X93761003Y-145033475D01*
X93725157Y-145131533D01*
X93700801Y-145232510D01*
X93688032Y-145335384D01*
X93686946Y-145439134D01*
X93697638Y-145542736D01*
X93720205Y-145645170D01*
X93754743Y-145745414D01*
X93777713Y-145796849D01*
X93830044Y-145890835D01*
X93892009Y-145976822D01*
X93963031Y-146054362D01*
X94042529Y-146123004D01*
X94129926Y-146182298D01*
X94224643Y-146231795D01*
X94326100Y-146271044D01*
X94421039Y-146296870D01*
X94465488Y-146304217D01*
X94518759Y-146309059D01*
X94577225Y-146311394D01*
X94637258Y-146311223D01*
G36*
X177437258Y-62511223D02*
X177495230Y-62508547D01*
X177547513Y-62503364D01*
X177585310Y-62496870D01*
X177693123Y-62466828D01*
X177794227Y-62426201D01*
X177888139Y-62375473D01*
X177974372Y-62315129D01*
X178052442Y-62245655D01*
X178121863Y-62167535D01*
X178182152Y-62081255D01*
X178232821Y-61987299D01*
X178273387Y-61886154D01*
X178303219Y-61778961D01*
X178310566Y-61734512D01*
X178315408Y-61681241D01*
X178317743Y-61622775D01*
X178317572Y-61562742D01*
X178314896Y-61504770D01*
X178309713Y-61452487D01*
X178303219Y-61414690D01*
X178273339Y-61307579D01*
X178232857Y-61206912D01*
X178182311Y-61113230D01*
X178122241Y-61027074D01*
X178053189Y-60948987D01*
X177975693Y-60879510D01*
X177890293Y-60819184D01*
X177797530Y-60768552D01*
X177697944Y-60728155D01*
X177592074Y-60698534D01*
X177588558Y-60697764D01*
X177553030Y-60691845D01*
X177508505Y-60687136D01*
X177458645Y-60683775D01*
X177407108Y-60681904D01*
X177357554Y-60681660D01*
X177313642Y-60683185D01*
X177282623Y-60686093D01*
X177177837Y-60706872D01*
X177076666Y-60739447D01*
X176980141Y-60783209D01*
X176889291Y-60837551D01*
X176805143Y-60901863D01*
X176728728Y-60975538D01*
X176666781Y-61050201D01*
X176608243Y-61139357D01*
X176561003Y-61233475D01*
X176525157Y-61331533D01*
X176500801Y-61432510D01*
X176488032Y-61535384D01*
X176487443Y-61591743D01*
X176735670Y-61591743D01*
X176738127Y-61532940D01*
X176744477Y-61478993D01*
X176751416Y-61445699D01*
X176780899Y-61356275D01*
X176820632Y-61273510D01*
X176869890Y-61198073D01*
X176927948Y-61130629D01*
X176994079Y-61071844D01*
X177067560Y-61022386D01*
X177147665Y-60982920D01*
X177233669Y-60954113D01*
X177301822Y-60939869D01*
X177337340Y-60936426D01*
X177381059Y-60935421D01*
X177428831Y-60936657D01*
X177476508Y-60939935D01*
X177519945Y-60945058D01*
X177554993Y-60951829D01*
X177555575Y-60951978D01*
X177646134Y-60981580D01*
X177729415Y-61021427D01*
X177804938Y-61071041D01*
X177872222Y-61129939D01*
X177930789Y-61197642D01*
X177980157Y-61273669D01*
X178019846Y-61357539D01*
X178048583Y-61445699D01*
X178054591Y-61470931D01*
X178058733Y-61494798D01*
X178061326Y-61520667D01*
X178062688Y-61551903D01*
X178063138Y-61591874D01*
X178063147Y-61600000D01*
X178062824Y-61641842D01*
X178061643Y-61674361D01*
X178059288Y-61700924D01*
X178055440Y-61724898D01*
X178049781Y-61749650D01*
X178048583Y-61754302D01*
X178018686Y-61845453D01*
X177978676Y-61929159D01*
X177929012Y-62004959D01*
X177870156Y-62072392D01*
X177802568Y-62130996D01*
X177726708Y-62180309D01*
X177643038Y-62219870D01*
X177555575Y-62248303D01*
X177529976Y-62254408D01*
X177506042Y-62258619D01*
X177480373Y-62261261D01*
X177449570Y-62262658D01*
X177410232Y-62263134D01*
X177400000Y-62263148D01*
X177358306Y-62262831D01*
X177325901Y-62261667D01*
X177299386Y-62259330D01*
X177275361Y-62255495D01*
X177250425Y-62249839D01*
X177244425Y-62248303D01*
X177154340Y-62218660D01*
X177071229Y-62178618D01*
X176995658Y-62128745D01*
X176928195Y-62069608D01*
X176869406Y-62001776D01*
X176819859Y-61925816D01*
X176780121Y-61842295D01*
X176751628Y-61755150D01*
X176742423Y-61707062D01*
X176737103Y-61651188D01*
X176735670Y-61591743D01*
X176487443Y-61591743D01*
X176486946Y-61639134D01*
X176497638Y-61742736D01*
X176520205Y-61845170D01*
X176554743Y-61945414D01*
X176577713Y-61996849D01*
X176630044Y-62090835D01*
X176692009Y-62176822D01*
X176763031Y-62254362D01*
X176842529Y-62323004D01*
X176929926Y-62382298D01*
X177024643Y-62431795D01*
X177126100Y-62471044D01*
X177221039Y-62496870D01*
X177265488Y-62504217D01*
X177318759Y-62509059D01*
X177377225Y-62511394D01*
X177437258Y-62511223D01*
X177437258Y-62511223D01*
G37*
X177437258Y-62511223D02*
X177495230Y-62508547D01*
X177547513Y-62503364D01*
X177585310Y-62496870D01*
X177693123Y-62466828D01*
X177794227Y-62426201D01*
X177888139Y-62375473D01*
X177974372Y-62315129D01*
X178052442Y-62245655D01*
X178121863Y-62167535D01*
X178182152Y-62081255D01*
X178232821Y-61987299D01*
X178273387Y-61886154D01*
X178303219Y-61778961D01*
X178310566Y-61734512D01*
X178315408Y-61681241D01*
X178317743Y-61622775D01*
X178317572Y-61562742D01*
X178314896Y-61504770D01*
X178309713Y-61452487D01*
X178303219Y-61414690D01*
X178273339Y-61307579D01*
X178232857Y-61206912D01*
X178182311Y-61113230D01*
X178122241Y-61027074D01*
X178053189Y-60948987D01*
X177975693Y-60879510D01*
X177890293Y-60819184D01*
X177797530Y-60768552D01*
X177697944Y-60728155D01*
X177592074Y-60698534D01*
X177588558Y-60697764D01*
X177553030Y-60691845D01*
X177508505Y-60687136D01*
X177458645Y-60683775D01*
X177407108Y-60681904D01*
X177357554Y-60681660D01*
X177313642Y-60683185D01*
X177282623Y-60686093D01*
X177177837Y-60706872D01*
X177076666Y-60739447D01*
X176980141Y-60783209D01*
X176889291Y-60837551D01*
X176805143Y-60901863D01*
X176728728Y-60975538D01*
X176666781Y-61050201D01*
X176608243Y-61139357D01*
X176561003Y-61233475D01*
X176525157Y-61331533D01*
X176500801Y-61432510D01*
X176488032Y-61535384D01*
X176487443Y-61591743D01*
X176735670Y-61591743D01*
X176738127Y-61532940D01*
X176744477Y-61478993D01*
X176751416Y-61445699D01*
X176780899Y-61356275D01*
X176820632Y-61273510D01*
X176869890Y-61198073D01*
X176927948Y-61130629D01*
X176994079Y-61071844D01*
X177067560Y-61022386D01*
X177147665Y-60982920D01*
X177233669Y-60954113D01*
X177301822Y-60939869D01*
X177337340Y-60936426D01*
X177381059Y-60935421D01*
X177428831Y-60936657D01*
X177476508Y-60939935D01*
X177519945Y-60945058D01*
X177554993Y-60951829D01*
X177555575Y-60951978D01*
X177646134Y-60981580D01*
X177729415Y-61021427D01*
X177804938Y-61071041D01*
X177872222Y-61129939D01*
X177930789Y-61197642D01*
X177980157Y-61273669D01*
X178019846Y-61357539D01*
X178048583Y-61445699D01*
X178054591Y-61470931D01*
X178058733Y-61494798D01*
X178061326Y-61520667D01*
X178062688Y-61551903D01*
X178063138Y-61591874D01*
X178063147Y-61600000D01*
X178062824Y-61641842D01*
X178061643Y-61674361D01*
X178059288Y-61700924D01*
X178055440Y-61724898D01*
X178049781Y-61749650D01*
X178048583Y-61754302D01*
X178018686Y-61845453D01*
X177978676Y-61929159D01*
X177929012Y-62004959D01*
X177870156Y-62072392D01*
X177802568Y-62130996D01*
X177726708Y-62180309D01*
X177643038Y-62219870D01*
X177555575Y-62248303D01*
X177529976Y-62254408D01*
X177506042Y-62258619D01*
X177480373Y-62261261D01*
X177449570Y-62262658D01*
X177410232Y-62263134D01*
X177400000Y-62263148D01*
X177358306Y-62262831D01*
X177325901Y-62261667D01*
X177299386Y-62259330D01*
X177275361Y-62255495D01*
X177250425Y-62249839D01*
X177244425Y-62248303D01*
X177154340Y-62218660D01*
X177071229Y-62178618D01*
X176995658Y-62128745D01*
X176928195Y-62069608D01*
X176869406Y-62001776D01*
X176819859Y-61925816D01*
X176780121Y-61842295D01*
X176751628Y-61755150D01*
X176742423Y-61707062D01*
X176737103Y-61651188D01*
X176735670Y-61591743D01*
X176487443Y-61591743D01*
X176486946Y-61639134D01*
X176497638Y-61742736D01*
X176520205Y-61845170D01*
X176554743Y-61945414D01*
X176577713Y-61996849D01*
X176630044Y-62090835D01*
X176692009Y-62176822D01*
X176763031Y-62254362D01*
X176842529Y-62323004D01*
X176929926Y-62382298D01*
X177024643Y-62431795D01*
X177126100Y-62471044D01*
X177221039Y-62496870D01*
X177265488Y-62504217D01*
X177318759Y-62509059D01*
X177377225Y-62511394D01*
X177437258Y-62511223D01*
G36*
X178179808Y-64687249D02*
X178217147Y-64621923D01*
X178250632Y-64549845D01*
X178273510Y-64489082D01*
X178282457Y-64461575D01*
X178289630Y-64438053D01*
X178294176Y-64421408D01*
X178295349Y-64415083D01*
X178290944Y-64409399D01*
X178278172Y-64395454D01*
X178257697Y-64373911D01*
X178230184Y-64345435D01*
X178196298Y-64310690D01*
X178156705Y-64270341D01*
X178112068Y-64225051D01*
X178063053Y-64175485D01*
X178010325Y-64122308D01*
X177954548Y-64066182D01*
X177896387Y-64007774D01*
X177836507Y-63947747D01*
X177775573Y-63886765D01*
X177714250Y-63825492D01*
X177653202Y-63764593D01*
X177593095Y-63704733D01*
X177534593Y-63646574D01*
X177478360Y-63590783D01*
X177425063Y-63538022D01*
X177375366Y-63488956D01*
X177329933Y-63444250D01*
X177289429Y-63404568D01*
X177254520Y-63370574D01*
X177225869Y-63342932D01*
X177204143Y-63322306D01*
X177190005Y-63309362D01*
X177184121Y-63304762D01*
X177184086Y-63304760D01*
X177174400Y-63306752D01*
X177155667Y-63312051D01*
X177130834Y-63319786D01*
X177109877Y-63326696D01*
X177048087Y-63349657D01*
X176991601Y-63375606D01*
X176934149Y-63407484D01*
X176922091Y-63414769D01*
X176879157Y-63441010D01*
X177518866Y-64080742D01*
X178158574Y-64720473D01*
X178179808Y-64687249D01*
X178179808Y-64687249D01*
G37*
X178179808Y-64687249D02*
X178217147Y-64621923D01*
X178250632Y-64549845D01*
X178273510Y-64489082D01*
X178282457Y-64461575D01*
X178289630Y-64438053D01*
X178294176Y-64421408D01*
X178295349Y-64415083D01*
X178290944Y-64409399D01*
X178278172Y-64395454D01*
X178257697Y-64373911D01*
X178230184Y-64345435D01*
X178196298Y-64310690D01*
X178156705Y-64270341D01*
X178112068Y-64225051D01*
X178063053Y-64175485D01*
X178010325Y-64122308D01*
X177954548Y-64066182D01*
X177896387Y-64007774D01*
X177836507Y-63947747D01*
X177775573Y-63886765D01*
X177714250Y-63825492D01*
X177653202Y-63764593D01*
X177593095Y-63704733D01*
X177534593Y-63646574D01*
X177478360Y-63590783D01*
X177425063Y-63538022D01*
X177375366Y-63488956D01*
X177329933Y-63444250D01*
X177289429Y-63404568D01*
X177254520Y-63370574D01*
X177225869Y-63342932D01*
X177204143Y-63322306D01*
X177190005Y-63309362D01*
X177184121Y-63304762D01*
X177184086Y-63304760D01*
X177174400Y-63306752D01*
X177155667Y-63312051D01*
X177130834Y-63319786D01*
X177109877Y-63326696D01*
X177048087Y-63349657D01*
X176991601Y-63375606D01*
X176934149Y-63407484D01*
X176922091Y-63414769D01*
X176879157Y-63441010D01*
X177518866Y-64080742D01*
X178158574Y-64720473D01*
X178179808Y-64687249D01*
G36*
X178279627Y-63921467D02*
X178274924Y-63906931D01*
X178267732Y-63886216D01*
X178265837Y-63880913D01*
X178226107Y-63788644D01*
X178175261Y-63700663D01*
X178114475Y-63618146D01*
X178044927Y-63542267D01*
X177967793Y-63474199D01*
X177884251Y-63415119D01*
X177795477Y-63366200D01*
X177717500Y-63333739D01*
X177669875Y-63316775D01*
X177974650Y-63621863D01*
X178026086Y-63673330D01*
X178074836Y-63722070D01*
X178120168Y-63767350D01*
X178161348Y-63808442D01*
X178197643Y-63844614D01*
X178228320Y-63875137D01*
X178252645Y-63899279D01*
X178269886Y-63916310D01*
X178279308Y-63925501D01*
X178280901Y-63926950D01*
X178279627Y-63921467D01*
X178279627Y-63921467D01*
G37*
X178279627Y-63921467D02*
X178274924Y-63906931D01*
X178267732Y-63886216D01*
X178265837Y-63880913D01*
X178226107Y-63788644D01*
X178175261Y-63700663D01*
X178114475Y-63618146D01*
X178044927Y-63542267D01*
X177967793Y-63474199D01*
X177884251Y-63415119D01*
X177795477Y-63366200D01*
X177717500Y-63333739D01*
X177669875Y-63316775D01*
X177974650Y-63621863D01*
X178026086Y-63673330D01*
X178074836Y-63722070D01*
X178120168Y-63767350D01*
X178161348Y-63808442D01*
X178197643Y-63844614D01*
X178228320Y-63875137D01*
X178252645Y-63899279D01*
X178269886Y-63916310D01*
X178279308Y-63925501D01*
X178280901Y-63926950D01*
X178279627Y-63921467D01*
G36*
X177630787Y-65087073D02*
X177649231Y-65081858D01*
X177673901Y-65074209D01*
X177695431Y-65067161D01*
X177768629Y-65039000D01*
X177839979Y-65004666D01*
X177893598Y-64973459D01*
X177926822Y-64952225D01*
X177287091Y-64312517D01*
X176647359Y-63672808D01*
X176621118Y-63715742D01*
X176604748Y-63743581D01*
X176587770Y-63774119D01*
X176574820Y-63798862D01*
X176565506Y-63819341D01*
X176554601Y-63846104D01*
X176543108Y-63876324D01*
X176532031Y-63907172D01*
X176522374Y-63935823D01*
X176515142Y-63959449D01*
X176511337Y-63975223D01*
X176511000Y-63978568D01*
X176515402Y-63984190D01*
X176528168Y-63998080D01*
X176548631Y-64019574D01*
X176576128Y-64048008D01*
X176609994Y-64082717D01*
X176649564Y-64123037D01*
X176694174Y-64168303D01*
X176743160Y-64217851D01*
X176795857Y-64271016D01*
X176851600Y-64327133D01*
X176909725Y-64385539D01*
X176969568Y-64445569D01*
X177030463Y-64506557D01*
X177091747Y-64567841D01*
X177152754Y-64628755D01*
X177212821Y-64688634D01*
X177271283Y-64746814D01*
X177327475Y-64802632D01*
X177380732Y-64855421D01*
X177430391Y-64904519D01*
X177475787Y-64949259D01*
X177516255Y-64988978D01*
X177551131Y-65023011D01*
X177579749Y-65050695D01*
X177601447Y-65071363D01*
X177615559Y-65084352D01*
X177621420Y-65088997D01*
X177621459Y-65089000D01*
X177630787Y-65087073D01*
X177630787Y-65087073D01*
G37*
X177630787Y-65087073D02*
X177649231Y-65081858D01*
X177673901Y-65074209D01*
X177695431Y-65067161D01*
X177768629Y-65039000D01*
X177839979Y-65004666D01*
X177893598Y-64973459D01*
X177926822Y-64952225D01*
X177287091Y-64312517D01*
X176647359Y-63672808D01*
X176621118Y-63715742D01*
X176604748Y-63743581D01*
X176587770Y-63774119D01*
X176574820Y-63798862D01*
X176565506Y-63819341D01*
X176554601Y-63846104D01*
X176543108Y-63876324D01*
X176532031Y-63907172D01*
X176522374Y-63935823D01*
X176515142Y-63959449D01*
X176511337Y-63975223D01*
X176511000Y-63978568D01*
X176515402Y-63984190D01*
X176528168Y-63998080D01*
X176548631Y-64019574D01*
X176576128Y-64048008D01*
X176609994Y-64082717D01*
X176649564Y-64123037D01*
X176694174Y-64168303D01*
X176743160Y-64217851D01*
X176795857Y-64271016D01*
X176851600Y-64327133D01*
X176909725Y-64385539D01*
X176969568Y-64445569D01*
X177030463Y-64506557D01*
X177091747Y-64567841D01*
X177152754Y-64628755D01*
X177212821Y-64688634D01*
X177271283Y-64746814D01*
X177327475Y-64802632D01*
X177380732Y-64855421D01*
X177430391Y-64904519D01*
X177475787Y-64949259D01*
X177516255Y-64988978D01*
X177551131Y-65023011D01*
X177579749Y-65050695D01*
X177601447Y-65071363D01*
X177615559Y-65084352D01*
X177621420Y-65088997D01*
X177621459Y-65089000D01*
X177630787Y-65087073D01*
G36*
X176831699Y-64771788D02*
X176780263Y-64720321D01*
X176731513Y-64671581D01*
X176686181Y-64626301D01*
X176645001Y-64585209D01*
X176608706Y-64549037D01*
X176578029Y-64518514D01*
X176553704Y-64494372D01*
X176536463Y-64477341D01*
X176527041Y-64468150D01*
X176525448Y-64466700D01*
X176526722Y-64472184D01*
X176531425Y-64486720D01*
X176538617Y-64507435D01*
X176540512Y-64512738D01*
X176580242Y-64605007D01*
X176631088Y-64692988D01*
X176691874Y-64775505D01*
X176761422Y-64851384D01*
X176838556Y-64919452D01*
X176922098Y-64978532D01*
X177010872Y-65027451D01*
X177088850Y-65059912D01*
X177136475Y-65076876D01*
X176831699Y-64771788D01*
X176831699Y-64771788D01*
G37*
X176831699Y-64771788D02*
X176780263Y-64720321D01*
X176731513Y-64671581D01*
X176686181Y-64626301D01*
X176645001Y-64585209D01*
X176608706Y-64549037D01*
X176578029Y-64518514D01*
X176553704Y-64494372D01*
X176536463Y-64477341D01*
X176527041Y-64468150D01*
X176525448Y-64466700D01*
X176526722Y-64472184D01*
X176531425Y-64486720D01*
X176538617Y-64507435D01*
X176540512Y-64512738D01*
X176580242Y-64605007D01*
X176631088Y-64692988D01*
X176691874Y-64775505D01*
X176761422Y-64851384D01*
X176838556Y-64919452D01*
X176922098Y-64978532D01*
X177010872Y-65027451D01*
X177088850Y-65059912D01*
X177136475Y-65076876D01*
X176831699Y-64771788D01*
G36*
X177437258Y-59911223D02*
X177495230Y-59908547D01*
X177547513Y-59903364D01*
X177585310Y-59896870D01*
X177693123Y-59866828D01*
X177794227Y-59826201D01*
X177888139Y-59775473D01*
X177974372Y-59715129D01*
X178052442Y-59645655D01*
X178121863Y-59567535D01*
X178182152Y-59481255D01*
X178232821Y-59387299D01*
X178273387Y-59286154D01*
X178303219Y-59178961D01*
X178310566Y-59134512D01*
X178315408Y-59081241D01*
X178317743Y-59022775D01*
X178317572Y-58962742D01*
X178314896Y-58904770D01*
X178309713Y-58852487D01*
X178303219Y-58814690D01*
X178273339Y-58707579D01*
X178232857Y-58606912D01*
X178182311Y-58513230D01*
X178122241Y-58427074D01*
X178053189Y-58348987D01*
X177975693Y-58279510D01*
X177890293Y-58219184D01*
X177797530Y-58168552D01*
X177697944Y-58128155D01*
X177592074Y-58098534D01*
X177588558Y-58097764D01*
X177553030Y-58091845D01*
X177508505Y-58087136D01*
X177458645Y-58083775D01*
X177407108Y-58081904D01*
X177357554Y-58081660D01*
X177313642Y-58083185D01*
X177282623Y-58086093D01*
X177177837Y-58106872D01*
X177076666Y-58139447D01*
X176980141Y-58183209D01*
X176889291Y-58237551D01*
X176805143Y-58301863D01*
X176728728Y-58375538D01*
X176666781Y-58450201D01*
X176608243Y-58539357D01*
X176561003Y-58633475D01*
X176525157Y-58731533D01*
X176500801Y-58832510D01*
X176488032Y-58935384D01*
X176486946Y-59039134D01*
X176497638Y-59142736D01*
X176520205Y-59245170D01*
X176554743Y-59345414D01*
X176577713Y-59396849D01*
X176630044Y-59490835D01*
X176692009Y-59576822D01*
X176763031Y-59654362D01*
X176842529Y-59723004D01*
X176929926Y-59782298D01*
X177024643Y-59831795D01*
X177126100Y-59871044D01*
X177221039Y-59896870D01*
X177265488Y-59904217D01*
X177318759Y-59909059D01*
X177377225Y-59911394D01*
X177437258Y-59911223D01*
X177437258Y-59911223D01*
G37*
X177437258Y-59911223D02*
X177495230Y-59908547D01*
X177547513Y-59903364D01*
X177585310Y-59896870D01*
X177693123Y-59866828D01*
X177794227Y-59826201D01*
X177888139Y-59775473D01*
X177974372Y-59715129D01*
X178052442Y-59645655D01*
X178121863Y-59567535D01*
X178182152Y-59481255D01*
X178232821Y-59387299D01*
X178273387Y-59286154D01*
X178303219Y-59178961D01*
X178310566Y-59134512D01*
X178315408Y-59081241D01*
X178317743Y-59022775D01*
X178317572Y-58962742D01*
X178314896Y-58904770D01*
X178309713Y-58852487D01*
X178303219Y-58814690D01*
X178273339Y-58707579D01*
X178232857Y-58606912D01*
X178182311Y-58513230D01*
X178122241Y-58427074D01*
X178053189Y-58348987D01*
X177975693Y-58279510D01*
X177890293Y-58219184D01*
X177797530Y-58168552D01*
X177697944Y-58128155D01*
X177592074Y-58098534D01*
X177588558Y-58097764D01*
X177553030Y-58091845D01*
X177508505Y-58087136D01*
X177458645Y-58083775D01*
X177407108Y-58081904D01*
X177357554Y-58081660D01*
X177313642Y-58083185D01*
X177282623Y-58086093D01*
X177177837Y-58106872D01*
X177076666Y-58139447D01*
X176980141Y-58183209D01*
X176889291Y-58237551D01*
X176805143Y-58301863D01*
X176728728Y-58375538D01*
X176666781Y-58450201D01*
X176608243Y-58539357D01*
X176561003Y-58633475D01*
X176525157Y-58731533D01*
X176500801Y-58832510D01*
X176488032Y-58935384D01*
X176486946Y-59039134D01*
X176497638Y-59142736D01*
X176520205Y-59245170D01*
X176554743Y-59345414D01*
X176577713Y-59396849D01*
X176630044Y-59490835D01*
X176692009Y-59576822D01*
X176763031Y-59654362D01*
X176842529Y-59723004D01*
X176929926Y-59782298D01*
X177024643Y-59831795D01*
X177126100Y-59871044D01*
X177221039Y-59896870D01*
X177265488Y-59904217D01*
X177318759Y-59909059D01*
X177377225Y-59911394D01*
X177437258Y-59911223D01*
D13*
X110600000Y-97400000D02*
X110600000Y-96700000D01*
X109400000Y-96700000D02*
X109400000Y-97400000D01*
X110600000Y-109400000D02*
X110600000Y-108700000D01*
X109400000Y-108700000D02*
X109400000Y-109400000D01*
X110600000Y-121400000D02*
X110600000Y-120700000D01*
X109400000Y-120700000D02*
X109400000Y-121400000D01*
X143870000Y-132670000D02*
X143870000Y-135330000D01*
X138730000Y-132670000D02*
X143870000Y-132670000D01*
X138730000Y-135330000D02*
X143870000Y-135330000D01*
X138730000Y-132670000D02*
X138730000Y-135330000D01*
X137460000Y-132670000D02*
X136130000Y-132670000D01*
X136130000Y-132670000D02*
X136130000Y-134000000D01*
X100676955Y-144796051D02*
X98796051Y-146676955D01*
X97042427Y-141161523D02*
X100676955Y-144796051D01*
X95161523Y-143042427D02*
X98796051Y-146676955D01*
X97042427Y-141161523D02*
X95161523Y-143042427D01*
X96144401Y-140263497D02*
X95203949Y-139323045D01*
X95203949Y-139323045D02*
X94263497Y-140263497D01*
X110600000Y-133400000D02*
X110600000Y-132700000D01*
X109400000Y-132700000D02*
X109400000Y-133400000D01*
X112741421Y-142892893D02*
X112246447Y-142397919D01*
X111397919Y-143246447D02*
X111892893Y-143741421D01*
X122400000Y-144400000D02*
X121700000Y-144400000D01*
X121700000Y-145600000D02*
X122400000Y-145600000D01*
X134400000Y-144400000D02*
X133700000Y-144400000D01*
X133700000Y-145600000D02*
X134400000Y-145600000D01*
X146400000Y-144400000D02*
X145700000Y-144400000D01*
X145700000Y-145600000D02*
X146400000Y-145600000D01*
X158400000Y-144400000D02*
X157700000Y-144400000D01*
X157700000Y-145600000D02*
X158400000Y-145600000D01*
X167753553Y-142397919D02*
X167258579Y-142892893D01*
X168107107Y-143741421D02*
X168602081Y-143246447D01*
X169400000Y-132700000D02*
X169400000Y-133400000D01*
X170600000Y-133400000D02*
X170600000Y-132700000D01*
X169400000Y-120700000D02*
X169400000Y-121400000D01*
X170600000Y-121400000D02*
X170600000Y-120700000D01*
X169400000Y-108700000D02*
X169400000Y-109400000D01*
X170600000Y-109400000D02*
X170600000Y-108700000D01*
X169400000Y-96700000D02*
X169400000Y-97400000D01*
X170600000Y-97400000D02*
X170600000Y-96700000D01*
X167397919Y-87246447D02*
X167892893Y-87741421D01*
X168741421Y-86892893D02*
X168246447Y-86397919D01*
X157600000Y-85600000D02*
X158300000Y-85600000D01*
X158300000Y-84400000D02*
X157600000Y-84400000D01*
X145600000Y-85600000D02*
X146300000Y-85600000D01*
X146300000Y-84400000D02*
X145600000Y-84400000D01*
X133600000Y-85600000D02*
X134300000Y-85600000D01*
X134300000Y-84400000D02*
X133600000Y-84400000D01*
X121600000Y-85600000D02*
X122300000Y-85600000D01*
X122300000Y-84400000D02*
X121600000Y-84400000D01*
X112046447Y-87802081D02*
X112541421Y-87307107D01*
X111692893Y-86458579D02*
X111197919Y-86953553D01*
X184400000Y-132700000D02*
X184400000Y-133400000D01*
X185600000Y-133400000D02*
X185600000Y-132700000D01*
X95600000Y-85400000D02*
X95600000Y-84700000D01*
X94400000Y-84700000D02*
X94400000Y-85400000D01*
X95600000Y-133400000D02*
X95600000Y-132700000D01*
X94400000Y-132700000D02*
X94400000Y-133400000D01*
D12*
G36*
X149437258Y-65311223D02*
X149495230Y-65308547D01*
X149547513Y-65303364D01*
X149585310Y-65296870D01*
X149693123Y-65266828D01*
X149794227Y-65226201D01*
X149888139Y-65175473D01*
X149974372Y-65115129D01*
X150052442Y-65045655D01*
X150121863Y-64967535D01*
X150182152Y-64881255D01*
X150232821Y-64787299D01*
X150273387Y-64686154D01*
X150303219Y-64578961D01*
X150310566Y-64534512D01*
X150315408Y-64481241D01*
X150317743Y-64422775D01*
X150317572Y-64362742D01*
X150314896Y-64304770D01*
X150309713Y-64252487D01*
X150303219Y-64214690D01*
X150273339Y-64107579D01*
X150232857Y-64006912D01*
X150182311Y-63913230D01*
X150122241Y-63827074D01*
X150053189Y-63748987D01*
X149975693Y-63679510D01*
X149890293Y-63619184D01*
X149797530Y-63568552D01*
X149697944Y-63528155D01*
X149592074Y-63498534D01*
X149588558Y-63497764D01*
X149553030Y-63491845D01*
X149508505Y-63487136D01*
X149458645Y-63483775D01*
X149407108Y-63481904D01*
X149357554Y-63481660D01*
X149313642Y-63483185D01*
X149282623Y-63486093D01*
X149177837Y-63506872D01*
X149076666Y-63539447D01*
X148980141Y-63583209D01*
X148889291Y-63637551D01*
X148805143Y-63701863D01*
X148728728Y-63775538D01*
X148666781Y-63850201D01*
X148608243Y-63939357D01*
X148561003Y-64033475D01*
X148525157Y-64131533D01*
X148500801Y-64232510D01*
X148488032Y-64335384D01*
X148487443Y-64391743D01*
X148735670Y-64391743D01*
X148738127Y-64332940D01*
X148744477Y-64278993D01*
X148751416Y-64245699D01*
X148780899Y-64156275D01*
X148820632Y-64073510D01*
X148869890Y-63998073D01*
X148927948Y-63930629D01*
X148994079Y-63871844D01*
X149067560Y-63822386D01*
X149147665Y-63782920D01*
X149233669Y-63754113D01*
X149301822Y-63739869D01*
X149337340Y-63736426D01*
X149381059Y-63735421D01*
X149428831Y-63736657D01*
X149476508Y-63739935D01*
X149519945Y-63745058D01*
X149554993Y-63751829D01*
X149555575Y-63751978D01*
X149646134Y-63781580D01*
X149729415Y-63821427D01*
X149804938Y-63871041D01*
X149872222Y-63929939D01*
X149930789Y-63997642D01*
X149980157Y-64073669D01*
X150019846Y-64157539D01*
X150048583Y-64245699D01*
X150054591Y-64270931D01*
X150058733Y-64294798D01*
X150061326Y-64320667D01*
X150062688Y-64351903D01*
X150063138Y-64391874D01*
X150063147Y-64400000D01*
X150062824Y-64441842D01*
X150061643Y-64474361D01*
X150059288Y-64500924D01*
X150055440Y-64524898D01*
X150049781Y-64549650D01*
X150048583Y-64554302D01*
X150018686Y-64645453D01*
X149978676Y-64729159D01*
X149929012Y-64804959D01*
X149870156Y-64872392D01*
X149802568Y-64930996D01*
X149726708Y-64980309D01*
X149643038Y-65019870D01*
X149555575Y-65048303D01*
X149529976Y-65054408D01*
X149506042Y-65058619D01*
X149480373Y-65061261D01*
X149449570Y-65062658D01*
X149410232Y-65063134D01*
X149400000Y-65063148D01*
X149358306Y-65062831D01*
X149325901Y-65061667D01*
X149299386Y-65059330D01*
X149275361Y-65055495D01*
X149250425Y-65049839D01*
X149244425Y-65048303D01*
X149154340Y-65018660D01*
X149071229Y-64978618D01*
X148995658Y-64928745D01*
X148928195Y-64869608D01*
X148869406Y-64801776D01*
X148819859Y-64725816D01*
X148780121Y-64642295D01*
X148751628Y-64555150D01*
X148742423Y-64507062D01*
X148737103Y-64451188D01*
X148735670Y-64391743D01*
X148487443Y-64391743D01*
X148486946Y-64439134D01*
X148497638Y-64542736D01*
X148520205Y-64645170D01*
X148554743Y-64745414D01*
X148577713Y-64796849D01*
X148630044Y-64890835D01*
X148692009Y-64976822D01*
X148763031Y-65054362D01*
X148842529Y-65123004D01*
X148929926Y-65182298D01*
X149024643Y-65231795D01*
X149126100Y-65271044D01*
X149221039Y-65296870D01*
X149265488Y-65304217D01*
X149318759Y-65309059D01*
X149377225Y-65311394D01*
X149437258Y-65311223D01*
X149437258Y-65311223D01*
G37*
X149437258Y-65311223D02*
X149495230Y-65308547D01*
X149547513Y-65303364D01*
X149585310Y-65296870D01*
X149693123Y-65266828D01*
X149794227Y-65226201D01*
X149888139Y-65175473D01*
X149974372Y-65115129D01*
X150052442Y-65045655D01*
X150121863Y-64967535D01*
X150182152Y-64881255D01*
X150232821Y-64787299D01*
X150273387Y-64686154D01*
X150303219Y-64578961D01*
X150310566Y-64534512D01*
X150315408Y-64481241D01*
X150317743Y-64422775D01*
X150317572Y-64362742D01*
X150314896Y-64304770D01*
X150309713Y-64252487D01*
X150303219Y-64214690D01*
X150273339Y-64107579D01*
X150232857Y-64006912D01*
X150182311Y-63913230D01*
X150122241Y-63827074D01*
X150053189Y-63748987D01*
X149975693Y-63679510D01*
X149890293Y-63619184D01*
X149797530Y-63568552D01*
X149697944Y-63528155D01*
X149592074Y-63498534D01*
X149588558Y-63497764D01*
X149553030Y-63491845D01*
X149508505Y-63487136D01*
X149458645Y-63483775D01*
X149407108Y-63481904D01*
X149357554Y-63481660D01*
X149313642Y-63483185D01*
X149282623Y-63486093D01*
X149177837Y-63506872D01*
X149076666Y-63539447D01*
X148980141Y-63583209D01*
X148889291Y-63637551D01*
X148805143Y-63701863D01*
X148728728Y-63775538D01*
X148666781Y-63850201D01*
X148608243Y-63939357D01*
X148561003Y-64033475D01*
X148525157Y-64131533D01*
X148500801Y-64232510D01*
X148488032Y-64335384D01*
X148487443Y-64391743D01*
X148735670Y-64391743D01*
X148738127Y-64332940D01*
X148744477Y-64278993D01*
X148751416Y-64245699D01*
X148780899Y-64156275D01*
X148820632Y-64073510D01*
X148869890Y-63998073D01*
X148927948Y-63930629D01*
X148994079Y-63871844D01*
X149067560Y-63822386D01*
X149147665Y-63782920D01*
X149233669Y-63754113D01*
X149301822Y-63739869D01*
X149337340Y-63736426D01*
X149381059Y-63735421D01*
X149428831Y-63736657D01*
X149476508Y-63739935D01*
X149519945Y-63745058D01*
X149554993Y-63751829D01*
X149555575Y-63751978D01*
X149646134Y-63781580D01*
X149729415Y-63821427D01*
X149804938Y-63871041D01*
X149872222Y-63929939D01*
X149930789Y-63997642D01*
X149980157Y-64073669D01*
X150019846Y-64157539D01*
X150048583Y-64245699D01*
X150054591Y-64270931D01*
X150058733Y-64294798D01*
X150061326Y-64320667D01*
X150062688Y-64351903D01*
X150063138Y-64391874D01*
X150063147Y-64400000D01*
X150062824Y-64441842D01*
X150061643Y-64474361D01*
X150059288Y-64500924D01*
X150055440Y-64524898D01*
X150049781Y-64549650D01*
X150048583Y-64554302D01*
X150018686Y-64645453D01*
X149978676Y-64729159D01*
X149929012Y-64804959D01*
X149870156Y-64872392D01*
X149802568Y-64930996D01*
X149726708Y-64980309D01*
X149643038Y-65019870D01*
X149555575Y-65048303D01*
X149529976Y-65054408D01*
X149506042Y-65058619D01*
X149480373Y-65061261D01*
X149449570Y-65062658D01*
X149410232Y-65063134D01*
X149400000Y-65063148D01*
X149358306Y-65062831D01*
X149325901Y-65061667D01*
X149299386Y-65059330D01*
X149275361Y-65055495D01*
X149250425Y-65049839D01*
X149244425Y-65048303D01*
X149154340Y-65018660D01*
X149071229Y-64978618D01*
X148995658Y-64928745D01*
X148928195Y-64869608D01*
X148869406Y-64801776D01*
X148819859Y-64725816D01*
X148780121Y-64642295D01*
X148751628Y-64555150D01*
X148742423Y-64507062D01*
X148737103Y-64451188D01*
X148735670Y-64391743D01*
X148487443Y-64391743D01*
X148486946Y-64439134D01*
X148497638Y-64542736D01*
X148520205Y-64645170D01*
X148554743Y-64745414D01*
X148577713Y-64796849D01*
X148630044Y-64890835D01*
X148692009Y-64976822D01*
X148763031Y-65054362D01*
X148842529Y-65123004D01*
X148929926Y-65182298D01*
X149024643Y-65231795D01*
X149126100Y-65271044D01*
X149221039Y-65296870D01*
X149265488Y-65304217D01*
X149318759Y-65309059D01*
X149377225Y-65311394D01*
X149437258Y-65311223D01*
G36*
X150179808Y-67487249D02*
X150217147Y-67421923D01*
X150250632Y-67349845D01*
X150273510Y-67289082D01*
X150282457Y-67261575D01*
X150289630Y-67238053D01*
X150294176Y-67221408D01*
X150295349Y-67215083D01*
X150290944Y-67209399D01*
X150278172Y-67195454D01*
X150257697Y-67173911D01*
X150230184Y-67145435D01*
X150196298Y-67110690D01*
X150156705Y-67070341D01*
X150112068Y-67025051D01*
X150063053Y-66975485D01*
X150010325Y-66922308D01*
X149954548Y-66866182D01*
X149896387Y-66807774D01*
X149836507Y-66747747D01*
X149775573Y-66686765D01*
X149714250Y-66625492D01*
X149653202Y-66564593D01*
X149593095Y-66504733D01*
X149534593Y-66446574D01*
X149478360Y-66390783D01*
X149425063Y-66338022D01*
X149375366Y-66288956D01*
X149329933Y-66244250D01*
X149289429Y-66204568D01*
X149254520Y-66170574D01*
X149225869Y-66142932D01*
X149204143Y-66122306D01*
X149190005Y-66109362D01*
X149184121Y-66104762D01*
X149184086Y-66104760D01*
X149174400Y-66106752D01*
X149155667Y-66112051D01*
X149130834Y-66119786D01*
X149109877Y-66126696D01*
X149048087Y-66149657D01*
X148991601Y-66175606D01*
X148934149Y-66207484D01*
X148922091Y-66214769D01*
X148879157Y-66241010D01*
X149518866Y-66880742D01*
X150158574Y-67520473D01*
X150179808Y-67487249D01*
X150179808Y-67487249D01*
G37*
X150179808Y-67487249D02*
X150217147Y-67421923D01*
X150250632Y-67349845D01*
X150273510Y-67289082D01*
X150282457Y-67261575D01*
X150289630Y-67238053D01*
X150294176Y-67221408D01*
X150295349Y-67215083D01*
X150290944Y-67209399D01*
X150278172Y-67195454D01*
X150257697Y-67173911D01*
X150230184Y-67145435D01*
X150196298Y-67110690D01*
X150156705Y-67070341D01*
X150112068Y-67025051D01*
X150063053Y-66975485D01*
X150010325Y-66922308D01*
X149954548Y-66866182D01*
X149896387Y-66807774D01*
X149836507Y-66747747D01*
X149775573Y-66686765D01*
X149714250Y-66625492D01*
X149653202Y-66564593D01*
X149593095Y-66504733D01*
X149534593Y-66446574D01*
X149478360Y-66390783D01*
X149425063Y-66338022D01*
X149375366Y-66288956D01*
X149329933Y-66244250D01*
X149289429Y-66204568D01*
X149254520Y-66170574D01*
X149225869Y-66142932D01*
X149204143Y-66122306D01*
X149190005Y-66109362D01*
X149184121Y-66104762D01*
X149184086Y-66104760D01*
X149174400Y-66106752D01*
X149155667Y-66112051D01*
X149130834Y-66119786D01*
X149109877Y-66126696D01*
X149048087Y-66149657D01*
X148991601Y-66175606D01*
X148934149Y-66207484D01*
X148922091Y-66214769D01*
X148879157Y-66241010D01*
X149518866Y-66880742D01*
X150158574Y-67520473D01*
X150179808Y-67487249D01*
G36*
X150279627Y-66721467D02*
X150274924Y-66706931D01*
X150267732Y-66686216D01*
X150265837Y-66680913D01*
X150226107Y-66588644D01*
X150175261Y-66500663D01*
X150114475Y-66418146D01*
X150044927Y-66342267D01*
X149967793Y-66274199D01*
X149884251Y-66215119D01*
X149795477Y-66166200D01*
X149717500Y-66133739D01*
X149669875Y-66116775D01*
X149974650Y-66421863D01*
X150026086Y-66473330D01*
X150074836Y-66522070D01*
X150120168Y-66567350D01*
X150161348Y-66608442D01*
X150197643Y-66644614D01*
X150228320Y-66675137D01*
X150252645Y-66699279D01*
X150269886Y-66716310D01*
X150279308Y-66725501D01*
X150280901Y-66726950D01*
X150279627Y-66721467D01*
X150279627Y-66721467D01*
G37*
X150279627Y-66721467D02*
X150274924Y-66706931D01*
X150267732Y-66686216D01*
X150265837Y-66680913D01*
X150226107Y-66588644D01*
X150175261Y-66500663D01*
X150114475Y-66418146D01*
X150044927Y-66342267D01*
X149967793Y-66274199D01*
X149884251Y-66215119D01*
X149795477Y-66166200D01*
X149717500Y-66133739D01*
X149669875Y-66116775D01*
X149974650Y-66421863D01*
X150026086Y-66473330D01*
X150074836Y-66522070D01*
X150120168Y-66567350D01*
X150161348Y-66608442D01*
X150197643Y-66644614D01*
X150228320Y-66675137D01*
X150252645Y-66699279D01*
X150269886Y-66716310D01*
X150279308Y-66725501D01*
X150280901Y-66726950D01*
X150279627Y-66721467D01*
G36*
X149630787Y-67887073D02*
X149649231Y-67881858D01*
X149673901Y-67874209D01*
X149695431Y-67867161D01*
X149768629Y-67839000D01*
X149839979Y-67804666D01*
X149893598Y-67773459D01*
X149926822Y-67752225D01*
X149287091Y-67112517D01*
X148647359Y-66472808D01*
X148621118Y-66515742D01*
X148604748Y-66543581D01*
X148587770Y-66574119D01*
X148574820Y-66598862D01*
X148565506Y-66619341D01*
X148554601Y-66646104D01*
X148543108Y-66676324D01*
X148532031Y-66707172D01*
X148522374Y-66735823D01*
X148515142Y-66759449D01*
X148511337Y-66775223D01*
X148511000Y-66778568D01*
X148515402Y-66784190D01*
X148528168Y-66798080D01*
X148548631Y-66819574D01*
X148576128Y-66848008D01*
X148609994Y-66882717D01*
X148649564Y-66923037D01*
X148694174Y-66968303D01*
X148743160Y-67017851D01*
X148795857Y-67071016D01*
X148851600Y-67127133D01*
X148909725Y-67185539D01*
X148969568Y-67245569D01*
X149030463Y-67306557D01*
X149091747Y-67367841D01*
X149152754Y-67428755D01*
X149212821Y-67488634D01*
X149271283Y-67546814D01*
X149327475Y-67602632D01*
X149380732Y-67655421D01*
X149430391Y-67704519D01*
X149475787Y-67749259D01*
X149516255Y-67788978D01*
X149551131Y-67823011D01*
X149579749Y-67850695D01*
X149601447Y-67871363D01*
X149615559Y-67884352D01*
X149621420Y-67888997D01*
X149621459Y-67889000D01*
X149630787Y-67887073D01*
X149630787Y-67887073D01*
G37*
X149630787Y-67887073D02*
X149649231Y-67881858D01*
X149673901Y-67874209D01*
X149695431Y-67867161D01*
X149768629Y-67839000D01*
X149839979Y-67804666D01*
X149893598Y-67773459D01*
X149926822Y-67752225D01*
X149287091Y-67112517D01*
X148647359Y-66472808D01*
X148621118Y-66515742D01*
X148604748Y-66543581D01*
X148587770Y-66574119D01*
X148574820Y-66598862D01*
X148565506Y-66619341D01*
X148554601Y-66646104D01*
X148543108Y-66676324D01*
X148532031Y-66707172D01*
X148522374Y-66735823D01*
X148515142Y-66759449D01*
X148511337Y-66775223D01*
X148511000Y-66778568D01*
X148515402Y-66784190D01*
X148528168Y-66798080D01*
X148548631Y-66819574D01*
X148576128Y-66848008D01*
X148609994Y-66882717D01*
X148649564Y-66923037D01*
X148694174Y-66968303D01*
X148743160Y-67017851D01*
X148795857Y-67071016D01*
X148851600Y-67127133D01*
X148909725Y-67185539D01*
X148969568Y-67245569D01*
X149030463Y-67306557D01*
X149091747Y-67367841D01*
X149152754Y-67428755D01*
X149212821Y-67488634D01*
X149271283Y-67546814D01*
X149327475Y-67602632D01*
X149380732Y-67655421D01*
X149430391Y-67704519D01*
X149475787Y-67749259D01*
X149516255Y-67788978D01*
X149551131Y-67823011D01*
X149579749Y-67850695D01*
X149601447Y-67871363D01*
X149615559Y-67884352D01*
X149621420Y-67888997D01*
X149621459Y-67889000D01*
X149630787Y-67887073D01*
G36*
X148831699Y-67571788D02*
X148780263Y-67520321D01*
X148731513Y-67471581D01*
X148686181Y-67426301D01*
X148645001Y-67385209D01*
X148608706Y-67349037D01*
X148578029Y-67318514D01*
X148553704Y-67294372D01*
X148536463Y-67277341D01*
X148527041Y-67268150D01*
X148525448Y-67266700D01*
X148526722Y-67272184D01*
X148531425Y-67286720D01*
X148538617Y-67307435D01*
X148540512Y-67312738D01*
X148580242Y-67405007D01*
X148631088Y-67492988D01*
X148691874Y-67575505D01*
X148761422Y-67651384D01*
X148838556Y-67719452D01*
X148922098Y-67778532D01*
X149010872Y-67827451D01*
X149088850Y-67859912D01*
X149136475Y-67876876D01*
X148831699Y-67571788D01*
X148831699Y-67571788D01*
G37*
X148831699Y-67571788D02*
X148780263Y-67520321D01*
X148731513Y-67471581D01*
X148686181Y-67426301D01*
X148645001Y-67385209D01*
X148608706Y-67349037D01*
X148578029Y-67318514D01*
X148553704Y-67294372D01*
X148536463Y-67277341D01*
X148527041Y-67268150D01*
X148525448Y-67266700D01*
X148526722Y-67272184D01*
X148531425Y-67286720D01*
X148538617Y-67307435D01*
X148540512Y-67312738D01*
X148580242Y-67405007D01*
X148631088Y-67492988D01*
X148691874Y-67575505D01*
X148761422Y-67651384D01*
X148838556Y-67719452D01*
X148922098Y-67778532D01*
X149010872Y-67827451D01*
X149088850Y-67859912D01*
X149136475Y-67876876D01*
X148831699Y-67571788D01*
G36*
X149437258Y-62711223D02*
X149495230Y-62708547D01*
X149547513Y-62703364D01*
X149585310Y-62696870D01*
X149693123Y-62666828D01*
X149794227Y-62626201D01*
X149888139Y-62575473D01*
X149974372Y-62515129D01*
X150052442Y-62445655D01*
X150121863Y-62367535D01*
X150182152Y-62281255D01*
X150232821Y-62187299D01*
X150273387Y-62086154D01*
X150303219Y-61978961D01*
X150310566Y-61934512D01*
X150315408Y-61881241D01*
X150317743Y-61822775D01*
X150317572Y-61762742D01*
X150314896Y-61704770D01*
X150309713Y-61652487D01*
X150303219Y-61614690D01*
X150273339Y-61507579D01*
X150232857Y-61406912D01*
X150182311Y-61313230D01*
X150122241Y-61227074D01*
X150053189Y-61148987D01*
X149975693Y-61079510D01*
X149890293Y-61019184D01*
X149797530Y-60968552D01*
X149697944Y-60928155D01*
X149592074Y-60898534D01*
X149588558Y-60897764D01*
X149553030Y-60891845D01*
X149508505Y-60887136D01*
X149458645Y-60883775D01*
X149407108Y-60881904D01*
X149357554Y-60881660D01*
X149313642Y-60883185D01*
X149282623Y-60886093D01*
X149177837Y-60906872D01*
X149076666Y-60939447D01*
X148980141Y-60983209D01*
X148889291Y-61037551D01*
X148805143Y-61101863D01*
X148728728Y-61175538D01*
X148666781Y-61250201D01*
X148608243Y-61339357D01*
X148561003Y-61433475D01*
X148525157Y-61531533D01*
X148500801Y-61632510D01*
X148488032Y-61735384D01*
X148486946Y-61839134D01*
X148497638Y-61942736D01*
X148520205Y-62045170D01*
X148554743Y-62145414D01*
X148577713Y-62196849D01*
X148630044Y-62290835D01*
X148692009Y-62376822D01*
X148763031Y-62454362D01*
X148842529Y-62523004D01*
X148929926Y-62582298D01*
X149024643Y-62631795D01*
X149126100Y-62671044D01*
X149221039Y-62696870D01*
X149265488Y-62704217D01*
X149318759Y-62709059D01*
X149377225Y-62711394D01*
X149437258Y-62711223D01*
X149437258Y-62711223D01*
G37*
X149437258Y-62711223D02*
X149495230Y-62708547D01*
X149547513Y-62703364D01*
X149585310Y-62696870D01*
X149693123Y-62666828D01*
X149794227Y-62626201D01*
X149888139Y-62575473D01*
X149974372Y-62515129D01*
X150052442Y-62445655D01*
X150121863Y-62367535D01*
X150182152Y-62281255D01*
X150232821Y-62187299D01*
X150273387Y-62086154D01*
X150303219Y-61978961D01*
X150310566Y-61934512D01*
X150315408Y-61881241D01*
X150317743Y-61822775D01*
X150317572Y-61762742D01*
X150314896Y-61704770D01*
X150309713Y-61652487D01*
X150303219Y-61614690D01*
X150273339Y-61507579D01*
X150232857Y-61406912D01*
X150182311Y-61313230D01*
X150122241Y-61227074D01*
X150053189Y-61148987D01*
X149975693Y-61079510D01*
X149890293Y-61019184D01*
X149797530Y-60968552D01*
X149697944Y-60928155D01*
X149592074Y-60898534D01*
X149588558Y-60897764D01*
X149553030Y-60891845D01*
X149508505Y-60887136D01*
X149458645Y-60883775D01*
X149407108Y-60881904D01*
X149357554Y-60881660D01*
X149313642Y-60883185D01*
X149282623Y-60886093D01*
X149177837Y-60906872D01*
X149076666Y-60939447D01*
X148980141Y-60983209D01*
X148889291Y-61037551D01*
X148805143Y-61101863D01*
X148728728Y-61175538D01*
X148666781Y-61250201D01*
X148608243Y-61339357D01*
X148561003Y-61433475D01*
X148525157Y-61531533D01*
X148500801Y-61632510D01*
X148488032Y-61735384D01*
X148486946Y-61839134D01*
X148497638Y-61942736D01*
X148520205Y-62045170D01*
X148554743Y-62145414D01*
X148577713Y-62196849D01*
X148630044Y-62290835D01*
X148692009Y-62376822D01*
X148763031Y-62454362D01*
X148842529Y-62523004D01*
X148929926Y-62582298D01*
X149024643Y-62631795D01*
X149126100Y-62671044D01*
X149221039Y-62696870D01*
X149265488Y-62704217D01*
X149318759Y-62709059D01*
X149377225Y-62711394D01*
X149437258Y-62711223D01*
D14*
X135360000Y-56150000D02*
X92180000Y-56150000D01*
X92180000Y-56150000D02*
X92180000Y-68850000D01*
X92180000Y-68850000D02*
X135360000Y-68850000D01*
X135360000Y-68850000D02*
X135360000Y-56150000D01*
X135360000Y-63770000D02*
X134090000Y-63770000D01*
X134090000Y-63770000D02*
X134090000Y-61230000D01*
X134090000Y-61230000D02*
X135360000Y-61230000D01*
D15*
X109035714Y-96085715D02*
X109107143Y-96014286D01*
X109178571Y-95800000D01*
X109178571Y-95657143D01*
X109107143Y-95442858D01*
X108964286Y-95300000D01*
X108821429Y-95228572D01*
X108535714Y-95157143D01*
X108321429Y-95157143D01*
X108035714Y-95228572D01*
X107892857Y-95300000D01*
X107750000Y-95442858D01*
X107678571Y-95657143D01*
X107678571Y-95800000D01*
X107750000Y-96014286D01*
X107821429Y-96085715D01*
X107821429Y-96657143D02*
X107750000Y-96728572D01*
X107678571Y-96871429D01*
X107678571Y-97228572D01*
X107750000Y-97371429D01*
X107821429Y-97442858D01*
X107964286Y-97514286D01*
X108107143Y-97514286D01*
X108321429Y-97442858D01*
X109178571Y-96585715D01*
X109178571Y-97514286D01*
X107678571Y-98014286D02*
X107678571Y-98942857D01*
X108250000Y-98442857D01*
X108250000Y-98657143D01*
X108321429Y-98800000D01*
X108392857Y-98871429D01*
X108535714Y-98942857D01*
X108892857Y-98942857D01*
X109035714Y-98871429D01*
X109107143Y-98800000D01*
X109178571Y-98657143D01*
X109178571Y-98228571D01*
X109107143Y-98085714D01*
X109035714Y-98014286D01*
X109035714Y-108085715D02*
X109107143Y-108014286D01*
X109178571Y-107800000D01*
X109178571Y-107657143D01*
X109107143Y-107442858D01*
X108964286Y-107300000D01*
X108821429Y-107228572D01*
X108535714Y-107157143D01*
X108321429Y-107157143D01*
X108035714Y-107228572D01*
X107892857Y-107300000D01*
X107750000Y-107442858D01*
X107678571Y-107657143D01*
X107678571Y-107800000D01*
X107750000Y-108014286D01*
X107821429Y-108085715D01*
X107821429Y-108657143D02*
X107750000Y-108728572D01*
X107678571Y-108871429D01*
X107678571Y-109228572D01*
X107750000Y-109371429D01*
X107821429Y-109442858D01*
X107964286Y-109514286D01*
X108107143Y-109514286D01*
X108321429Y-109442858D01*
X109178571Y-108585715D01*
X109178571Y-109514286D01*
X107821429Y-110085714D02*
X107750000Y-110157143D01*
X107678571Y-110300000D01*
X107678571Y-110657143D01*
X107750000Y-110800000D01*
X107821429Y-110871429D01*
X107964286Y-110942857D01*
X108107143Y-110942857D01*
X108321429Y-110871429D01*
X109178571Y-110014286D01*
X109178571Y-110942857D01*
X109035714Y-120085715D02*
X109107143Y-120014286D01*
X109178571Y-119800000D01*
X109178571Y-119657143D01*
X109107143Y-119442858D01*
X108964286Y-119300000D01*
X108821429Y-119228572D01*
X108535714Y-119157143D01*
X108321429Y-119157143D01*
X108035714Y-119228572D01*
X107892857Y-119300000D01*
X107750000Y-119442858D01*
X107678571Y-119657143D01*
X107678571Y-119800000D01*
X107750000Y-120014286D01*
X107821429Y-120085715D01*
X107821429Y-120657143D02*
X107750000Y-120728572D01*
X107678571Y-120871429D01*
X107678571Y-121228572D01*
X107750000Y-121371429D01*
X107821429Y-121442858D01*
X107964286Y-121514286D01*
X108107143Y-121514286D01*
X108321429Y-121442858D01*
X109178571Y-120585715D01*
X109178571Y-121514286D01*
X109178571Y-122942857D02*
X109178571Y-122085714D01*
X109178571Y-122514286D02*
X107678571Y-122514286D01*
X107892857Y-122371429D01*
X108035714Y-122228571D01*
X108107143Y-122085714D01*
X134308571Y-133500000D02*
X135380000Y-133500000D01*
X135594286Y-133428572D01*
X135737143Y-133285715D01*
X135808571Y-133071429D01*
X135808571Y-132928572D01*
X134451429Y-134142857D02*
X134380000Y-134214286D01*
X134308571Y-134357143D01*
X134308571Y-134714286D01*
X134380000Y-134857143D01*
X134451429Y-134928572D01*
X134594286Y-135000000D01*
X134737143Y-135000000D01*
X134951429Y-134928572D01*
X135808571Y-134071429D01*
X135808571Y-135000000D01*
X93329105Y-138621999D02*
X94086720Y-139379613D01*
X94288750Y-139480629D01*
X94490781Y-139480629D01*
X94692811Y-139379613D01*
X94793826Y-139278598D01*
X93329105Y-140743319D02*
X93935197Y-140137227D01*
X93632151Y-140440273D02*
X92571491Y-139379613D01*
X92824029Y-139430121D01*
X93026060Y-139430121D01*
X93177583Y-139379613D01*
X109035714Y-132085715D02*
X109107143Y-132014286D01*
X109178571Y-131800000D01*
X109178571Y-131657143D01*
X109107143Y-131442858D01*
X108964286Y-131300000D01*
X108821429Y-131228572D01*
X108535714Y-131157143D01*
X108321429Y-131157143D01*
X108035714Y-131228572D01*
X107892857Y-131300000D01*
X107750000Y-131442858D01*
X107678571Y-131657143D01*
X107678571Y-131800000D01*
X107750000Y-132014286D01*
X107821429Y-132085715D01*
X107821429Y-132657143D02*
X107750000Y-132728572D01*
X107678571Y-132871429D01*
X107678571Y-133228572D01*
X107750000Y-133371429D01*
X107821429Y-133442858D01*
X107964286Y-133514286D01*
X108107143Y-133514286D01*
X108321429Y-133442858D01*
X109178571Y-132585715D01*
X109178571Y-133514286D01*
X107678571Y-134442857D02*
X107678571Y-134585714D01*
X107750000Y-134728571D01*
X107821429Y-134800000D01*
X107964286Y-134871429D01*
X108250000Y-134942857D01*
X108607143Y-134942857D01*
X108892857Y-134871429D01*
X109035714Y-134800000D01*
X109107143Y-134728571D01*
X109178571Y-134585714D01*
X109178571Y-134442857D01*
X109107143Y-134300000D01*
X109035714Y-134228571D01*
X108892857Y-134157143D01*
X108607143Y-134085714D01*
X108250000Y-134085714D01*
X107964286Y-134157143D01*
X107821429Y-134228571D01*
X107750000Y-134300000D01*
X107678571Y-134442857D01*
X111312055Y-145190989D02*
X111312055Y-145292005D01*
X111413071Y-145494036D01*
X111514086Y-145595051D01*
X111716116Y-145696066D01*
X111918147Y-145696067D01*
X112069669Y-145645559D01*
X112322208Y-145494036D01*
X112473731Y-145342513D01*
X112625254Y-145089974D01*
X112675762Y-144938452D01*
X112675761Y-144736421D01*
X112574747Y-144534391D01*
X112473731Y-144433375D01*
X112271700Y-144332360D01*
X112170685Y-144332360D01*
X110200888Y-144281852D02*
X110806980Y-144887944D01*
X110503934Y-144584898D02*
X111564594Y-143524238D01*
X111514086Y-143776776D01*
X111514086Y-143978807D01*
X111564594Y-144130330D01*
X109695812Y-143776777D02*
X109493781Y-143574746D01*
X109443273Y-143423223D01*
X109443274Y-143322208D01*
X109493781Y-143069670D01*
X109645304Y-142817132D01*
X110049365Y-142413071D01*
X110200887Y-142362563D01*
X110301903Y-142362563D01*
X110453426Y-142413070D01*
X110655457Y-142615101D01*
X110705965Y-142766624D01*
X110705964Y-142867640D01*
X110655457Y-143019163D01*
X110402918Y-143271701D01*
X110251395Y-143322208D01*
X110150381Y-143322208D01*
X109998857Y-143271700D01*
X109796827Y-143069670D01*
X109746320Y-142918147D01*
X109746319Y-142817132D01*
X109796827Y-142665609D01*
X123014285Y-147035714D02*
X123085714Y-147107143D01*
X123300000Y-147178571D01*
X123442857Y-147178571D01*
X123657142Y-147107143D01*
X123800000Y-146964286D01*
X123871428Y-146821429D01*
X123942857Y-146535714D01*
X123942857Y-146321429D01*
X123871428Y-146035714D01*
X123800000Y-145892857D01*
X123657142Y-145750000D01*
X123442857Y-145678571D01*
X123300000Y-145678571D01*
X123085714Y-145750000D01*
X123014285Y-145821429D01*
X121585714Y-147178571D02*
X122442857Y-147178571D01*
X122014285Y-147178571D02*
X122014285Y-145678571D01*
X122157142Y-145892857D01*
X122300000Y-146035714D01*
X122442857Y-146107143D01*
X120728571Y-146321429D02*
X120871429Y-146250000D01*
X120942857Y-146178571D01*
X121014286Y-146035714D01*
X121014286Y-145964286D01*
X120942857Y-145821429D01*
X120871429Y-145750000D01*
X120728571Y-145678571D01*
X120442857Y-145678571D01*
X120300000Y-145750000D01*
X120228571Y-145821429D01*
X120157143Y-145964286D01*
X120157143Y-146035714D01*
X120228571Y-146178571D01*
X120300000Y-146250000D01*
X120442857Y-146321429D01*
X120728571Y-146321429D01*
X120871429Y-146392857D01*
X120942857Y-146464286D01*
X121014286Y-146607143D01*
X121014286Y-146892857D01*
X120942857Y-147035714D01*
X120871429Y-147107143D01*
X120728571Y-147178571D01*
X120442857Y-147178571D01*
X120300000Y-147107143D01*
X120228571Y-147035714D01*
X120157143Y-146892857D01*
X120157143Y-146607143D01*
X120228571Y-146464286D01*
X120300000Y-146392857D01*
X120442857Y-146321429D01*
X135014285Y-147035714D02*
X135085714Y-147107143D01*
X135300000Y-147178571D01*
X135442857Y-147178571D01*
X135657142Y-147107143D01*
X135800000Y-146964286D01*
X135871428Y-146821429D01*
X135942857Y-146535714D01*
X135942857Y-146321429D01*
X135871428Y-146035714D01*
X135800000Y-145892857D01*
X135657142Y-145750000D01*
X135442857Y-145678571D01*
X135300000Y-145678571D01*
X135085714Y-145750000D01*
X135014285Y-145821429D01*
X133585714Y-147178571D02*
X134442857Y-147178571D01*
X134014285Y-147178571D02*
X134014285Y-145678571D01*
X134157142Y-145892857D01*
X134300000Y-146035714D01*
X134442857Y-146107143D01*
X133085714Y-145678571D02*
X132085714Y-145678571D01*
X132728571Y-147178571D01*
X147014285Y-147035714D02*
X147085714Y-147107143D01*
X147300000Y-147178571D01*
X147442857Y-147178571D01*
X147657142Y-147107143D01*
X147800000Y-146964286D01*
X147871428Y-146821429D01*
X147942857Y-146535714D01*
X147942857Y-146321429D01*
X147871428Y-146035714D01*
X147800000Y-145892857D01*
X147657142Y-145750000D01*
X147442857Y-145678571D01*
X147300000Y-145678571D01*
X147085714Y-145750000D01*
X147014285Y-145821429D01*
X145585714Y-147178571D02*
X146442857Y-147178571D01*
X146014285Y-147178571D02*
X146014285Y-145678571D01*
X146157142Y-145892857D01*
X146300000Y-146035714D01*
X146442857Y-146107143D01*
X144300000Y-145678571D02*
X144585714Y-145678571D01*
X144728571Y-145750000D01*
X144800000Y-145821429D01*
X144942857Y-146035714D01*
X145014286Y-146321429D01*
X145014286Y-146892857D01*
X144942857Y-147035714D01*
X144871429Y-147107143D01*
X144728571Y-147178571D01*
X144442857Y-147178571D01*
X144300000Y-147107143D01*
X144228571Y-147035714D01*
X144157143Y-146892857D01*
X144157143Y-146535714D01*
X144228571Y-146392857D01*
X144300000Y-146321429D01*
X144442857Y-146250000D01*
X144728571Y-146250000D01*
X144871429Y-146321429D01*
X144942857Y-146392857D01*
X145014286Y-146535714D01*
X159014285Y-147035714D02*
X159085714Y-147107143D01*
X159300000Y-147178571D01*
X159442857Y-147178571D01*
X159657142Y-147107143D01*
X159800000Y-146964286D01*
X159871428Y-146821429D01*
X159942857Y-146535714D01*
X159942857Y-146321429D01*
X159871428Y-146035714D01*
X159800000Y-145892857D01*
X159657142Y-145750000D01*
X159442857Y-145678571D01*
X159300000Y-145678571D01*
X159085714Y-145750000D01*
X159014285Y-145821429D01*
X157585714Y-147178571D02*
X158442857Y-147178571D01*
X158014285Y-147178571D02*
X158014285Y-145678571D01*
X158157142Y-145892857D01*
X158300000Y-146035714D01*
X158442857Y-146107143D01*
X156228571Y-145678571D02*
X156942857Y-145678571D01*
X157014286Y-146392857D01*
X156942857Y-146321429D01*
X156800000Y-146250000D01*
X156442857Y-146250000D01*
X156300000Y-146321429D01*
X156228571Y-146392857D01*
X156157143Y-146535714D01*
X156157143Y-146892857D01*
X156228571Y-147035714D01*
X156300000Y-147107143D01*
X156442857Y-147178571D01*
X156800000Y-147178571D01*
X156942857Y-147107143D01*
X157014286Y-147035714D01*
X170051649Y-143827285D02*
X170152665Y-143827285D01*
X170354696Y-143726269D01*
X170455711Y-143625254D01*
X170556726Y-143423224D01*
X170556727Y-143221193D01*
X170506219Y-143069671D01*
X170354696Y-142817132D01*
X170203173Y-142665609D01*
X169950634Y-142514086D01*
X169799112Y-142463578D01*
X169597081Y-142463579D01*
X169395051Y-142564593D01*
X169294035Y-142665609D01*
X169193020Y-142867640D01*
X169193020Y-142968655D01*
X169142512Y-144938452D02*
X169748604Y-144332360D01*
X169445558Y-144635406D02*
X168384898Y-143574746D01*
X168637436Y-143625254D01*
X168839467Y-143625254D01*
X168990990Y-143574746D01*
X167526269Y-145140482D02*
X168233375Y-145847589D01*
X167374746Y-144483883D02*
X168384898Y-144988959D01*
X167728299Y-145645559D01*
X172035714Y-132085715D02*
X172107143Y-132014286D01*
X172178571Y-131800000D01*
X172178571Y-131657143D01*
X172107143Y-131442858D01*
X171964286Y-131300000D01*
X171821429Y-131228572D01*
X171535714Y-131157143D01*
X171321429Y-131157143D01*
X171035714Y-131228572D01*
X170892857Y-131300000D01*
X170750000Y-131442858D01*
X170678571Y-131657143D01*
X170678571Y-131800000D01*
X170750000Y-132014286D01*
X170821429Y-132085715D01*
X172178571Y-133514286D02*
X172178571Y-132657143D01*
X172178571Y-133085715D02*
X170678571Y-133085715D01*
X170892857Y-132942858D01*
X171035714Y-132800000D01*
X171107143Y-132657143D01*
X170678571Y-134014286D02*
X170678571Y-134942857D01*
X171250000Y-134442857D01*
X171250000Y-134657143D01*
X171321429Y-134800000D01*
X171392857Y-134871429D01*
X171535714Y-134942857D01*
X171892857Y-134942857D01*
X172035714Y-134871429D01*
X172107143Y-134800000D01*
X172178571Y-134657143D01*
X172178571Y-134228571D01*
X172107143Y-134085714D01*
X172035714Y-134014286D01*
X172035714Y-120085715D02*
X172107143Y-120014286D01*
X172178571Y-119800000D01*
X172178571Y-119657143D01*
X172107143Y-119442858D01*
X171964286Y-119300000D01*
X171821429Y-119228572D01*
X171535714Y-119157143D01*
X171321429Y-119157143D01*
X171035714Y-119228572D01*
X170892857Y-119300000D01*
X170750000Y-119442858D01*
X170678571Y-119657143D01*
X170678571Y-119800000D01*
X170750000Y-120014286D01*
X170821429Y-120085715D01*
X172178571Y-121514286D02*
X172178571Y-120657143D01*
X172178571Y-121085715D02*
X170678571Y-121085715D01*
X170892857Y-120942858D01*
X171035714Y-120800000D01*
X171107143Y-120657143D01*
X170821429Y-122085714D02*
X170750000Y-122157143D01*
X170678571Y-122300000D01*
X170678571Y-122657143D01*
X170750000Y-122800000D01*
X170821429Y-122871429D01*
X170964286Y-122942857D01*
X171107143Y-122942857D01*
X171321429Y-122871429D01*
X172178571Y-122014286D01*
X172178571Y-122942857D01*
X172035714Y-108085715D02*
X172107143Y-108014286D01*
X172178571Y-107800000D01*
X172178571Y-107657143D01*
X172107143Y-107442858D01*
X171964286Y-107300000D01*
X171821429Y-107228572D01*
X171535714Y-107157143D01*
X171321429Y-107157143D01*
X171035714Y-107228572D01*
X170892857Y-107300000D01*
X170750000Y-107442858D01*
X170678571Y-107657143D01*
X170678571Y-107800000D01*
X170750000Y-108014286D01*
X170821429Y-108085715D01*
X172178571Y-109514286D02*
X172178571Y-108657143D01*
X172178571Y-109085715D02*
X170678571Y-109085715D01*
X170892857Y-108942858D01*
X171035714Y-108800000D01*
X171107143Y-108657143D01*
X172178571Y-110942857D02*
X172178571Y-110085714D01*
X172178571Y-110514286D02*
X170678571Y-110514286D01*
X170892857Y-110371429D01*
X171035714Y-110228571D01*
X171107143Y-110085714D01*
X172035714Y-96085715D02*
X172107143Y-96014286D01*
X172178571Y-95800000D01*
X172178571Y-95657143D01*
X172107143Y-95442858D01*
X171964286Y-95300000D01*
X171821429Y-95228572D01*
X171535714Y-95157143D01*
X171321429Y-95157143D01*
X171035714Y-95228572D01*
X170892857Y-95300000D01*
X170750000Y-95442858D01*
X170678571Y-95657143D01*
X170678571Y-95800000D01*
X170750000Y-96014286D01*
X170821429Y-96085715D01*
X172178571Y-97514286D02*
X172178571Y-96657143D01*
X172178571Y-97085715D02*
X170678571Y-97085715D01*
X170892857Y-96942858D01*
X171035714Y-96800000D01*
X171107143Y-96657143D01*
X170678571Y-98442857D02*
X170678571Y-98585714D01*
X170750000Y-98728571D01*
X170821429Y-98800000D01*
X170964286Y-98871429D01*
X171250000Y-98942857D01*
X171607143Y-98942857D01*
X171892857Y-98871429D01*
X172035714Y-98800000D01*
X172107143Y-98728571D01*
X172178571Y-98585714D01*
X172178571Y-98442857D01*
X172107143Y-98300000D01*
X172035714Y-98228571D01*
X171892857Y-98157143D01*
X171607143Y-98085714D01*
X171250000Y-98085714D01*
X170964286Y-98157143D01*
X170821429Y-98228571D01*
X170750000Y-98300000D01*
X170678571Y-98442857D01*
X168928299Y-86564593D02*
X168928299Y-86665609D01*
X169029315Y-86867639D01*
X169130330Y-86968654D01*
X169332360Y-87069669D01*
X169534391Y-87069670D01*
X169685913Y-87019162D01*
X169938452Y-86867639D01*
X170089974Y-86716117D01*
X170241497Y-86463578D01*
X170292005Y-86312055D01*
X170292005Y-86110024D01*
X170190990Y-85907994D01*
X170089975Y-85806979D01*
X169887944Y-85705964D01*
X169786928Y-85705964D01*
X168322208Y-86160532D02*
X168120177Y-85958501D01*
X168069669Y-85806979D01*
X168069670Y-85705964D01*
X168120176Y-85453426D01*
X168271700Y-85200887D01*
X168675761Y-84796827D01*
X168827283Y-84746319D01*
X168928299Y-84746319D01*
X169079822Y-84796826D01*
X169281852Y-84998856D01*
X169332360Y-85150380D01*
X169332360Y-85251395D01*
X169281852Y-85402918D01*
X169029314Y-85655457D01*
X168877791Y-85705964D01*
X168776777Y-85705964D01*
X168625253Y-85655456D01*
X168423223Y-85453426D01*
X168372715Y-85301903D01*
X168372715Y-85200887D01*
X168423223Y-85049365D01*
X158199999Y-84035714D02*
X158271428Y-84107143D01*
X158485714Y-84178571D01*
X158628571Y-84178571D01*
X158842856Y-84107143D01*
X158985714Y-83964286D01*
X159057142Y-83821429D01*
X159128571Y-83535714D01*
X159128571Y-83321429D01*
X159057142Y-83035714D01*
X158985714Y-82892857D01*
X158842856Y-82750000D01*
X158628571Y-82678571D01*
X158485714Y-82678571D01*
X158271428Y-82750000D01*
X158199999Y-82821429D01*
X157342856Y-83321429D02*
X157485714Y-83250000D01*
X157557142Y-83178571D01*
X157628571Y-83035714D01*
X157628571Y-82964286D01*
X157557142Y-82821429D01*
X157485714Y-82750000D01*
X157342856Y-82678571D01*
X157057142Y-82678571D01*
X156914285Y-82750000D01*
X156842856Y-82821429D01*
X156771428Y-82964286D01*
X156771428Y-83035714D01*
X156842856Y-83178571D01*
X156914285Y-83250000D01*
X157057142Y-83321429D01*
X157342856Y-83321429D01*
X157485714Y-83392857D01*
X157557142Y-83464286D01*
X157628571Y-83607143D01*
X157628571Y-83892857D01*
X157557142Y-84035714D01*
X157485714Y-84107143D01*
X157342856Y-84178571D01*
X157057142Y-84178571D01*
X156914285Y-84107143D01*
X156842856Y-84035714D01*
X156771428Y-83892857D01*
X156771428Y-83607143D01*
X156842856Y-83464286D01*
X156914285Y-83392857D01*
X157057142Y-83321429D01*
X146199999Y-84035714D02*
X146271428Y-84107143D01*
X146485714Y-84178571D01*
X146628571Y-84178571D01*
X146842856Y-84107143D01*
X146985714Y-83964286D01*
X147057142Y-83821429D01*
X147128571Y-83535714D01*
X147128571Y-83321429D01*
X147057142Y-83035714D01*
X146985714Y-82892857D01*
X146842856Y-82750000D01*
X146628571Y-82678571D01*
X146485714Y-82678571D01*
X146271428Y-82750000D01*
X146199999Y-82821429D01*
X145699999Y-82678571D02*
X144699999Y-82678571D01*
X145342856Y-84178571D01*
X134199999Y-84035714D02*
X134271428Y-84107143D01*
X134485714Y-84178571D01*
X134628571Y-84178571D01*
X134842856Y-84107143D01*
X134985714Y-83964286D01*
X135057142Y-83821429D01*
X135128571Y-83535714D01*
X135128571Y-83321429D01*
X135057142Y-83035714D01*
X134985714Y-82892857D01*
X134842856Y-82750000D01*
X134628571Y-82678571D01*
X134485714Y-82678571D01*
X134271428Y-82750000D01*
X134199999Y-82821429D01*
X132914285Y-82678571D02*
X133199999Y-82678571D01*
X133342856Y-82750000D01*
X133414285Y-82821429D01*
X133557142Y-83035714D01*
X133628571Y-83321429D01*
X133628571Y-83892857D01*
X133557142Y-84035714D01*
X133485714Y-84107143D01*
X133342856Y-84178571D01*
X133057142Y-84178571D01*
X132914285Y-84107143D01*
X132842856Y-84035714D01*
X132771428Y-83892857D01*
X132771428Y-83535714D01*
X132842856Y-83392857D01*
X132914285Y-83321429D01*
X133057142Y-83250000D01*
X133342856Y-83250000D01*
X133485714Y-83321429D01*
X133557142Y-83392857D01*
X133628571Y-83535714D01*
X122199999Y-84035714D02*
X122271428Y-84107143D01*
X122485714Y-84178571D01*
X122628571Y-84178571D01*
X122842856Y-84107143D01*
X122985714Y-83964286D01*
X123057142Y-83821429D01*
X123128571Y-83535714D01*
X123128571Y-83321429D01*
X123057142Y-83035714D01*
X122985714Y-82892857D01*
X122842856Y-82750000D01*
X122628571Y-82678571D01*
X122485714Y-82678571D01*
X122271428Y-82750000D01*
X122199999Y-82821429D01*
X120842856Y-82678571D02*
X121557142Y-82678571D01*
X121628571Y-83392857D01*
X121557142Y-83321429D01*
X121414285Y-83250000D01*
X121057142Y-83250000D01*
X120914285Y-83321429D01*
X120842856Y-83392857D01*
X120771428Y-83535714D01*
X120771428Y-83892857D01*
X120842856Y-84035714D01*
X120914285Y-84107143D01*
X121057142Y-84178571D01*
X121414285Y-84178571D01*
X121557142Y-84107143D01*
X121628571Y-84035714D01*
X111364593Y-86271701D02*
X111465609Y-86271701D01*
X111667639Y-86170685D01*
X111768654Y-86069670D01*
X111869669Y-85867640D01*
X111869670Y-85665609D01*
X111819162Y-85514087D01*
X111667639Y-85261548D01*
X111516117Y-85110026D01*
X111263578Y-84958503D01*
X111112055Y-84907995D01*
X110910024Y-84907995D01*
X110707994Y-85009010D01*
X110606979Y-85110025D01*
X110505964Y-85312056D01*
X110505964Y-85413072D01*
X109849364Y-86574746D02*
X110556471Y-87281853D01*
X109697842Y-85918148D02*
X110707994Y-86423223D01*
X110051395Y-87079823D01*
X187035714Y-132800001D02*
X187107143Y-132728572D01*
X187178571Y-132514286D01*
X187178571Y-132371429D01*
X187107143Y-132157144D01*
X186964286Y-132014286D01*
X186821429Y-131942858D01*
X186535714Y-131871429D01*
X186321429Y-131871429D01*
X186035714Y-131942858D01*
X185892857Y-132014286D01*
X185750000Y-132157144D01*
X185678571Y-132371429D01*
X185678571Y-132514286D01*
X185750000Y-132728572D01*
X185821429Y-132800001D01*
X185678571Y-133300001D02*
X185678571Y-134228572D01*
X186250000Y-133728572D01*
X186250000Y-133942858D01*
X186321429Y-134085715D01*
X186392857Y-134157144D01*
X186535714Y-134228572D01*
X186892857Y-134228572D01*
X187035714Y-134157144D01*
X187107143Y-134085715D01*
X187178571Y-133942858D01*
X187178571Y-133514286D01*
X187107143Y-133371429D01*
X187035714Y-133300001D01*
X94035714Y-84800001D02*
X94107143Y-84728572D01*
X94178571Y-84514286D01*
X94178571Y-84371429D01*
X94107143Y-84157144D01*
X93964286Y-84014286D01*
X93821429Y-83942858D01*
X93535714Y-83871429D01*
X93321429Y-83871429D01*
X93035714Y-83942858D01*
X92892857Y-84014286D01*
X92750000Y-84157144D01*
X92678571Y-84371429D01*
X92678571Y-84514286D01*
X92750000Y-84728572D01*
X92821429Y-84800001D01*
X92821429Y-85371429D02*
X92750000Y-85442858D01*
X92678571Y-85585715D01*
X92678571Y-85942858D01*
X92750000Y-86085715D01*
X92821429Y-86157144D01*
X92964286Y-86228572D01*
X93107143Y-86228572D01*
X93321429Y-86157144D01*
X94178571Y-85300001D01*
X94178571Y-86228572D01*
X94035714Y-132800001D02*
X94107143Y-132728572D01*
X94178571Y-132514286D01*
X94178571Y-132371429D01*
X94107143Y-132157144D01*
X93964286Y-132014286D01*
X93821429Y-131942858D01*
X93535714Y-131871429D01*
X93321429Y-131871429D01*
X93035714Y-131942858D01*
X92892857Y-132014286D01*
X92750000Y-132157144D01*
X92678571Y-132371429D01*
X92678571Y-132514286D01*
X92750000Y-132728572D01*
X92821429Y-132800001D01*
X94178571Y-134228572D02*
X94178571Y-133371429D01*
X94178571Y-133800001D02*
X92678571Y-133800001D01*
X92892857Y-133657144D01*
X93035714Y-133514286D01*
X93107143Y-133371429D01*
D16*
X181333333Y-81052381D02*
X181666667Y-80576190D01*
X181904762Y-81052381D02*
X181904762Y-80052381D01*
X181523809Y-80052381D01*
X181428571Y-80100000D01*
X181380952Y-80147619D01*
X181333333Y-80242857D01*
X181333333Y-80385714D01*
X181380952Y-80480952D01*
X181428571Y-80528571D01*
X181523809Y-80576190D01*
X181904762Y-80576190D01*
X180904762Y-80528571D02*
X180571428Y-80528571D01*
X180428571Y-81052381D02*
X180904762Y-81052381D01*
X180904762Y-80052381D01*
X180428571Y-80052381D01*
X179666666Y-80528571D02*
X180000000Y-80528571D01*
X180000000Y-81052381D02*
X180000000Y-80052381D01*
X179523809Y-80052381D01*
X179000000Y-80052381D02*
X179000000Y-80290476D01*
X179238095Y-80195238D02*
X179000000Y-80290476D01*
X178761904Y-80195238D01*
X179142857Y-80480952D02*
X179000000Y-80290476D01*
X178857142Y-80480952D01*
X178238095Y-80052381D02*
X178238095Y-80290476D01*
X178476190Y-80195238D02*
X178238095Y-80290476D01*
X177999999Y-80195238D01*
X178380952Y-80480952D02*
X178238095Y-80290476D01*
X178095237Y-80480952D01*
X181333333Y-140252381D02*
X181666667Y-139776190D01*
X181904762Y-140252381D02*
X181904762Y-139252381D01*
X181523809Y-139252381D01*
X181428571Y-139300000D01*
X181380952Y-139347619D01*
X181333333Y-139442857D01*
X181333333Y-139585714D01*
X181380952Y-139680952D01*
X181428571Y-139728571D01*
X181523809Y-139776190D01*
X181904762Y-139776190D01*
X180904762Y-139728571D02*
X180571428Y-139728571D01*
X180428571Y-140252381D02*
X180904762Y-140252381D01*
X180904762Y-139252381D01*
X180428571Y-139252381D01*
X179666666Y-139728571D02*
X180000000Y-139728571D01*
X180000000Y-140252381D02*
X180000000Y-139252381D01*
X179523809Y-139252381D01*
X179000000Y-139252381D02*
X179000000Y-139490476D01*
X179238095Y-139395238D02*
X179000000Y-139490476D01*
X178761904Y-139395238D01*
X179142857Y-139680952D02*
X179000000Y-139490476D01*
X178857142Y-139680952D01*
X178238095Y-139252381D02*
X178238095Y-139490476D01*
X178476190Y-139395238D02*
X178238095Y-139490476D01*
X177999999Y-139395238D01*
X178380952Y-139680952D02*
X178238095Y-139490476D01*
X178095237Y-139680952D01*
X103333333Y-136252381D02*
X103666667Y-135776190D01*
X103904762Y-136252381D02*
X103904762Y-135252381D01*
X103523809Y-135252381D01*
X103428571Y-135300000D01*
X103380952Y-135347619D01*
X103333333Y-135442857D01*
X103333333Y-135585714D01*
X103380952Y-135680952D01*
X103428571Y-135728571D01*
X103523809Y-135776190D01*
X103904762Y-135776190D01*
X102904762Y-135728571D02*
X102571428Y-135728571D01*
X102428571Y-136252381D02*
X102904762Y-136252381D01*
X102904762Y-135252381D01*
X102428571Y-135252381D01*
X101666666Y-135728571D02*
X102000000Y-135728571D01*
X102000000Y-136252381D02*
X102000000Y-135252381D01*
X101523809Y-135252381D01*
X101000000Y-135252381D02*
X101000000Y-135490476D01*
X101238095Y-135395238D02*
X101000000Y-135490476D01*
X100761904Y-135395238D01*
X101142857Y-135680952D02*
X101000000Y-135490476D01*
X100857142Y-135680952D01*
X100238095Y-135252381D02*
X100238095Y-135490476D01*
X100476190Y-135395238D02*
X100238095Y-135490476D01*
X99999999Y-135395238D01*
X100380952Y-135680952D02*
X100238095Y-135490476D01*
X100095237Y-135680952D01*
X99333333Y-80452381D02*
X99666667Y-79976190D01*
X99904762Y-80452381D02*
X99904762Y-79452381D01*
X99523809Y-79452381D01*
X99428571Y-79500000D01*
X99380952Y-79547619D01*
X99333333Y-79642857D01*
X99333333Y-79785714D01*
X99380952Y-79880952D01*
X99428571Y-79928571D01*
X99523809Y-79976190D01*
X99904762Y-79976190D01*
X98904762Y-79928571D02*
X98571428Y-79928571D01*
X98428571Y-80452381D02*
X98904762Y-80452381D01*
X98904762Y-79452381D01*
X98428571Y-79452381D01*
X97666666Y-79928571D02*
X98000000Y-79928571D01*
X98000000Y-80452381D02*
X98000000Y-79452381D01*
X97523809Y-79452381D01*
X97000000Y-79452381D02*
X97000000Y-79690476D01*
X97238095Y-79595238D02*
X97000000Y-79690476D01*
X96761904Y-79595238D01*
X97142857Y-79880952D02*
X97000000Y-79690476D01*
X96857142Y-79880952D01*
X96238095Y-79452381D02*
X96238095Y-79690476D01*
X96476190Y-79595238D02*
X96238095Y-79690476D01*
X95999999Y-79595238D01*
X96380952Y-79880952D02*
X96238095Y-79690476D01*
X96095237Y-79880952D01*
X112063333Y-61512381D02*
X112396667Y-61036190D01*
X112634762Y-61512381D02*
X112634762Y-60512381D01*
X112253809Y-60512381D01*
X112158571Y-60560000D01*
X112110952Y-60607619D01*
X112063333Y-60702857D01*
X112063333Y-60845714D01*
X112110952Y-60940952D01*
X112158571Y-60988571D01*
X112253809Y-61036190D01*
X112634762Y-61036190D01*
X111634762Y-60988571D02*
X111301428Y-60988571D01*
X111158571Y-61512381D02*
X111634762Y-61512381D01*
X111634762Y-60512381D01*
X111158571Y-60512381D01*
X110396666Y-60988571D02*
X110730000Y-60988571D01*
X110730000Y-61512381D02*
X110730000Y-60512381D01*
X110253809Y-60512381D01*
X109730000Y-60512381D02*
X109730000Y-60750476D01*
X109968095Y-60655238D02*
X109730000Y-60750476D01*
X109491904Y-60655238D01*
X109872857Y-60940952D02*
X109730000Y-60750476D01*
X109587142Y-60940952D01*
X108968095Y-60512381D02*
X108968095Y-60750476D01*
X109206190Y-60655238D02*
X108968095Y-60750476D01*
X108729999Y-60655238D01*
X109110952Y-60940952D02*
X108968095Y-60750476D01*
X108825237Y-60940952D01*
D17*
X127824667Y-57716333D02*
X127824667Y-59155667D01*
X127740000Y-59325000D01*
X127655333Y-59409667D01*
X127486000Y-59494333D01*
X127147333Y-59494333D01*
X126978000Y-59409667D01*
X126893333Y-59325000D01*
X126808667Y-59155667D01*
X126808667Y-57716333D01*
X125030666Y-59494333D02*
X126046666Y-59494333D01*
X125538666Y-59494333D02*
X125538666Y-57716333D01*
X125708000Y-57970333D01*
X125877333Y-58139667D01*
X126046666Y-58224333D01*
X120839669Y-66479333D02*
X120839669Y-65548000D01*
X120924335Y-65378667D01*
X121093669Y-65294000D01*
X121432335Y-65294000D01*
X121601669Y-65378667D01*
X120839669Y-66394667D02*
X121009002Y-66479333D01*
X121432335Y-66479333D01*
X121601669Y-66394667D01*
X121686335Y-66225333D01*
X121686335Y-66056000D01*
X121601669Y-65886667D01*
X121432335Y-65802000D01*
X121009002Y-65802000D01*
X120839669Y-65717333D01*
X119993002Y-66479333D02*
X119993002Y-65294000D01*
X119993002Y-65632667D02*
X119908335Y-65463333D01*
X119823668Y-65378667D01*
X119654335Y-65294000D01*
X119485002Y-65294000D01*
X118130335Y-66479333D02*
X118130335Y-64701333D01*
X118130335Y-66394667D02*
X118299668Y-66479333D01*
X118638335Y-66479333D01*
X118807668Y-66394667D01*
X118892335Y-66310000D01*
X118977001Y-66140667D01*
X118977001Y-65632667D01*
X118892335Y-65463333D01*
X118807668Y-65378667D01*
X118638335Y-65294000D01*
X118299668Y-65294000D01*
X118130335Y-65378667D01*
X116521668Y-65294000D02*
X116521668Y-66479333D01*
X117283668Y-65294000D02*
X117283668Y-66225333D01*
X117199001Y-66394667D01*
X117029668Y-66479333D01*
X116775668Y-66479333D01*
X116606334Y-66394667D01*
X116521668Y-66310000D01*
X115675001Y-66479333D02*
X115675001Y-65294000D01*
X115675001Y-64701333D02*
X115759667Y-64786000D01*
X115675001Y-64870667D01*
X115590334Y-64786000D01*
X115675001Y-64701333D01*
X115675001Y-64870667D01*
X114828334Y-65294000D02*
X114828334Y-66479333D01*
X114828334Y-65463333D02*
X114743667Y-65378667D01*
X114574334Y-65294000D01*
X114320334Y-65294000D01*
X114151000Y-65378667D01*
X114066334Y-65548000D01*
X114066334Y-66479333D01*
X112965667Y-66479333D02*
X113135000Y-66394667D01*
X113219667Y-66310000D01*
X113304333Y-66140667D01*
X113304333Y-65632667D01*
X113219667Y-65463333D01*
X113135000Y-65378667D01*
X112965667Y-65294000D01*
X112711667Y-65294000D01*
X112542333Y-65378667D01*
X112457667Y-65463333D01*
X112373000Y-65632667D01*
X112373000Y-66140667D01*
X112457667Y-66310000D01*
X112542333Y-66394667D01*
X112711667Y-66479333D01*
X112965667Y-66479333D01*
X112034333Y-66648667D02*
X110679666Y-66648667D01*
X110256333Y-65294000D02*
X110256333Y-66479333D01*
X110256333Y-65463333D02*
X110171666Y-65378667D01*
X110002333Y-65294000D01*
X109748333Y-65294000D01*
X109578999Y-65378667D01*
X109494333Y-65548000D01*
X109494333Y-66479333D01*
X107885666Y-66479333D02*
X107885666Y-65548000D01*
X107970332Y-65378667D01*
X108139666Y-65294000D01*
X108478332Y-65294000D01*
X108647666Y-65378667D01*
X107885666Y-66394667D02*
X108054999Y-66479333D01*
X108478332Y-66479333D01*
X108647666Y-66394667D01*
X108732332Y-66225333D01*
X108732332Y-66056000D01*
X108647666Y-65886667D01*
X108478332Y-65802000D01*
X108054999Y-65802000D01*
X107885666Y-65717333D01*
X107038999Y-65294000D02*
X107038999Y-66479333D01*
X107038999Y-65463333D02*
X106954332Y-65378667D01*
X106784999Y-65294000D01*
X106530999Y-65294000D01*
X106361665Y-65378667D01*
X106276999Y-65548000D01*
X106276999Y-66479333D01*
X105176332Y-66479333D02*
X105345665Y-66394667D01*
X105430332Y-66310000D01*
X105514998Y-66140667D01*
X105514998Y-65632667D01*
X105430332Y-65463333D01*
X105345665Y-65378667D01*
X105176332Y-65294000D01*
X104922332Y-65294000D01*
X104752998Y-65378667D01*
X104668332Y-65463333D01*
X104583665Y-65632667D01*
X104583665Y-66140667D01*
X104668332Y-66310000D01*
X104752998Y-66394667D01*
X104922332Y-66479333D01*
X105176332Y-66479333D01*
M02*
